<?xml version="1.0" encoding="utf-8" standalone="no"?>
<!DOCTYPE svg PUBLIC "-//W3C//DTD SVG 1.1//EN"
  "http://www.w3.org/Graphics/SVG/1.1/DTD/svg11.dtd">
<svg height="345.6pt" version="1.1" viewBox="0 0 460.8 345.6" width="460.8pt" xmlns="http://www.w3.org/2000/svg" xmlns:xlink="http://www.w3.org/1999/xlink">
 <metadata>
  <rdf:RDF xmlns:cc="http://creativecommons.org/ns#" xmlns:dc="http://purl.org/dc/elements/1.1/" xmlns:rdf="http://www.w3.org/1999/02/22-rdf-syntax-ns#">
   <cc:Work>
    <dc:type rdf:resource="http://purl.org/dc/dcmitype/StillImage"/>
    <dc:date>2021-12-19T11:33:00.272602</dc:date>
    <dc:format>image/svg+xml</dc:format>
    <dc:creator>
     <cc:Agent>
      <dc:title>Matplotlib v3.4.3, https://matplotlib.org/</dc:title>
     </cc:Agent>
    </dc:creator>
   </cc:Work>
  </rdf:RDF>
 </metadata>
 <defs>
  <style type="text/css">*{stroke-linecap:butt;stroke-linejoin:round;}</style>
 </defs>
 <g id="figure_1">
  <g id="patch_1">
   <path d="M 0 345.6 
L 460.8 345.6 
L 460.8 0 
L 0 0 
z
" style="fill:#ffffff;"/>
  </g>
  <g id="axes_1">
   <g id="patch_2">
    <path d="M 57.6 307.584 
L 414.72 307.584 
L 414.72 41.472 
L 57.6 41.472 
z
" style="fill:#ffffff;"/>
   </g>
   <g id="matplotlib.axis_1">
    <g id="xtick_1">
     <g id="line2d_1">
      <defs>
       <path d="M 0 0 
L 0 3.5 
" id="mcb4b61a637" style="stroke:#000000;stroke-width:0.8;"/>
      </defs>
      <g>
       <use style="stroke:#000000;stroke-width:0.8;" x="92.574126" xlink:href="#mcb4b61a637" y="307.584"/>
      </g>
     </g>
     <g id="text_1">
      <!-- −0.05 -->
      <g transform="translate(77.251469 322.182437)scale(0.1 -0.1)">
       <defs>
        <path d="M 678 2272 
L 4684 2272 
L 4684 1741 
L 678 1741 
L 678 2272 
z
" id="DejaVuSans-2212" transform="scale(0.015625)"/>
        <path d="M 2034 4250 
Q 1547 4250 1301 3770 
Q 1056 3291 1056 2328 
Q 1056 1369 1301 889 
Q 1547 409 2034 409 
Q 2525 409 2770 889 
Q 3016 1369 3016 2328 
Q 3016 3291 2770 3770 
Q 2525 4250 2034 4250 
z
M 2034 4750 
Q 2819 4750 3233 4129 
Q 3647 3509 3647 2328 
Q 3647 1150 3233 529 
Q 2819 -91 2034 -91 
Q 1250 -91 836 529 
Q 422 1150 422 2328 
Q 422 3509 836 4129 
Q 1250 4750 2034 4750 
z
" id="DejaVuSans-30" transform="scale(0.015625)"/>
        <path d="M 684 794 
L 1344 794 
L 1344 0 
L 684 0 
L 684 794 
z
" id="DejaVuSans-2e" transform="scale(0.015625)"/>
        <path d="M 691 4666 
L 3169 4666 
L 3169 4134 
L 1269 4134 
L 1269 2991 
Q 1406 3038 1543 3061 
Q 1681 3084 1819 3084 
Q 2600 3084 3056 2656 
Q 3513 2228 3513 1497 
Q 3513 744 3044 326 
Q 2575 -91 1722 -91 
Q 1428 -91 1123 -41 
Q 819 9 494 109 
L 494 744 
Q 775 591 1075 516 
Q 1375 441 1709 441 
Q 2250 441 2565 725 
Q 2881 1009 2881 1497 
Q 2881 1984 2565 2268 
Q 2250 2553 1709 2553 
Q 1456 2553 1204 2497 
Q 953 2441 691 2322 
L 691 4666 
z
" id="DejaVuSans-35" transform="scale(0.015625)"/>
       </defs>
       <use xlink:href="#DejaVuSans-2212"/>
       <use x="83.789062" xlink:href="#DejaVuSans-30"/>
       <use x="147.412109" xlink:href="#DejaVuSans-2e"/>
       <use x="179.199219" xlink:href="#DejaVuSans-30"/>
       <use x="242.822266" xlink:href="#DejaVuSans-35"/>
      </g>
     </g>
    </g>
    <g id="xtick_2">
     <g id="line2d_2">
      <g>
       <use style="stroke:#000000;stroke-width:0.8;" x="139.322649" xlink:href="#mcb4b61a637" y="307.584"/>
      </g>
     </g>
     <g id="text_2">
      <!-- 0.00 -->
      <g transform="translate(128.189837 322.182437)scale(0.1 -0.1)">
       <use xlink:href="#DejaVuSans-30"/>
       <use x="63.623047" xlink:href="#DejaVuSans-2e"/>
       <use x="95.410156" xlink:href="#DejaVuSans-30"/>
       <use x="159.033203" xlink:href="#DejaVuSans-30"/>
      </g>
     </g>
    </g>
    <g id="xtick_3">
     <g id="line2d_3">
      <g>
       <use style="stroke:#000000;stroke-width:0.8;" x="186.071173" xlink:href="#mcb4b61a637" y="307.584"/>
      </g>
     </g>
     <g id="text_3">
      <!-- 0.05 -->
      <g transform="translate(174.93836 322.182437)scale(0.1 -0.1)">
       <use xlink:href="#DejaVuSans-30"/>
       <use x="63.623047" xlink:href="#DejaVuSans-2e"/>
       <use x="95.410156" xlink:href="#DejaVuSans-30"/>
       <use x="159.033203" xlink:href="#DejaVuSans-35"/>
      </g>
     </g>
    </g>
    <g id="xtick_4">
     <g id="line2d_4">
      <g>
       <use style="stroke:#000000;stroke-width:0.8;" x="232.819697" xlink:href="#mcb4b61a637" y="307.584"/>
      </g>
     </g>
     <g id="text_4">
      <!-- 0.10 -->
      <g transform="translate(221.686884 322.182437)scale(0.1 -0.1)">
       <defs>
        <path d="M 794 531 
L 1825 531 
L 1825 4091 
L 703 3866 
L 703 4441 
L 1819 4666 
L 2450 4666 
L 2450 531 
L 3481 531 
L 3481 0 
L 794 0 
L 794 531 
z
" id="DejaVuSans-31" transform="scale(0.015625)"/>
       </defs>
       <use xlink:href="#DejaVuSans-30"/>
       <use x="63.623047" xlink:href="#DejaVuSans-2e"/>
       <use x="95.410156" xlink:href="#DejaVuSans-31"/>
       <use x="159.033203" xlink:href="#DejaVuSans-30"/>
      </g>
     </g>
    </g>
    <g id="xtick_5">
     <g id="line2d_5">
      <g>
       <use style="stroke:#000000;stroke-width:0.8;" x="279.56822" xlink:href="#mcb4b61a637" y="307.584"/>
      </g>
     </g>
     <g id="text_5">
      <!-- 0.15 -->
      <g transform="translate(268.435408 322.182437)scale(0.1 -0.1)">
       <use xlink:href="#DejaVuSans-30"/>
       <use x="63.623047" xlink:href="#DejaVuSans-2e"/>
       <use x="95.410156" xlink:href="#DejaVuSans-31"/>
       <use x="159.033203" xlink:href="#DejaVuSans-35"/>
      </g>
     </g>
    </g>
    <g id="xtick_6">
     <g id="line2d_6">
      <g>
       <use style="stroke:#000000;stroke-width:0.8;" x="326.316744" xlink:href="#mcb4b61a637" y="307.584"/>
      </g>
     </g>
     <g id="text_6">
      <!-- 0.20 -->
      <g transform="translate(315.183932 322.182437)scale(0.1 -0.1)">
       <defs>
        <path d="M 1228 531 
L 3431 531 
L 3431 0 
L 469 0 
L 469 531 
Q 828 903 1448 1529 
Q 2069 2156 2228 2338 
Q 2531 2678 2651 2914 
Q 2772 3150 2772 3378 
Q 2772 3750 2511 3984 
Q 2250 4219 1831 4219 
Q 1534 4219 1204 4116 
Q 875 4013 500 3803 
L 500 4441 
Q 881 4594 1212 4672 
Q 1544 4750 1819 4750 
Q 2544 4750 2975 4387 
Q 3406 4025 3406 3419 
Q 3406 3131 3298 2873 
Q 3191 2616 2906 2266 
Q 2828 2175 2409 1742 
Q 1991 1309 1228 531 
z
" id="DejaVuSans-32" transform="scale(0.015625)"/>
       </defs>
       <use xlink:href="#DejaVuSans-30"/>
       <use x="63.623047" xlink:href="#DejaVuSans-2e"/>
       <use x="95.410156" xlink:href="#DejaVuSans-32"/>
       <use x="159.033203" xlink:href="#DejaVuSans-30"/>
      </g>
     </g>
    </g>
    <g id="text_7">
     <!-- x, m -->
     <g transform="translate(225.152187 335.860562)scale(0.1 -0.1)">
      <defs>
       <path d="M 3513 3500 
L 2247 1797 
L 3578 0 
L 2900 0 
L 1881 1375 
L 863 0 
L 184 0 
L 1544 1831 
L 300 3500 
L 978 3500 
L 1906 2253 
L 2834 3500 
L 3513 3500 
z
" id="DejaVuSans-78" transform="scale(0.015625)"/>
       <path d="M 750 794 
L 1409 794 
L 1409 256 
L 897 -744 
L 494 -744 
L 750 256 
L 750 794 
z
" id="DejaVuSans-2c" transform="scale(0.015625)"/>
       <path id="DejaVuSans-20" transform="scale(0.015625)"/>
       <path d="M 3328 2828 
Q 3544 3216 3844 3400 
Q 4144 3584 4550 3584 
Q 5097 3584 5394 3201 
Q 5691 2819 5691 2113 
L 5691 0 
L 5113 0 
L 5113 2094 
Q 5113 2597 4934 2840 
Q 4756 3084 4391 3084 
Q 3944 3084 3684 2787 
Q 3425 2491 3425 1978 
L 3425 0 
L 2847 0 
L 2847 2094 
Q 2847 2600 2669 2842 
Q 2491 3084 2119 3084 
Q 1678 3084 1418 2786 
Q 1159 2488 1159 1978 
L 1159 0 
L 581 0 
L 581 3500 
L 1159 3500 
L 1159 2956 
Q 1356 3278 1631 3431 
Q 1906 3584 2284 3584 
Q 2666 3584 2933 3390 
Q 3200 3197 3328 2828 
z
" id="DejaVuSans-6d" transform="scale(0.015625)"/>
      </defs>
      <use xlink:href="#DejaVuSans-78"/>
      <use x="59.179688" xlink:href="#DejaVuSans-2c"/>
      <use x="90.966797" xlink:href="#DejaVuSans-20"/>
      <use x="122.753906" xlink:href="#DejaVuSans-6d"/>
     </g>
    </g>
   </g>
   <g id="matplotlib.axis_2">
    <g id="ytick_1">
     <g id="line2d_7">
      <defs>
       <path d="M 0 0 
L -3.5 0 
" id="m1581a1e4a0" style="stroke:#000000;stroke-width:0.8;"/>
      </defs>
      <g>
       <use style="stroke:#000000;stroke-width:0.8;" x="57.6" xlink:href="#m1581a1e4a0" y="307.584"/>
      </g>
     </g>
     <g id="text_8">
      <!-- 0.00 -->
      <g transform="translate(28.334375 311.383219)scale(0.1 -0.1)">
       <use xlink:href="#DejaVuSans-30"/>
       <use x="63.623047" xlink:href="#DejaVuSans-2e"/>
       <use x="95.410156" xlink:href="#DejaVuSans-30"/>
       <use x="159.033203" xlink:href="#DejaVuSans-30"/>
      </g>
     </g>
    </g>
    <g id="ytick_2">
     <g id="line2d_8">
      <g>
       <use style="stroke:#000000;stroke-width:0.8;" x="57.6" xlink:href="#m1581a1e4a0" y="241.056"/>
      </g>
     </g>
     <g id="text_9">
      <!-- 0.05 -->
      <g transform="translate(28.334375 244.855219)scale(0.1 -0.1)">
       <use xlink:href="#DejaVuSans-30"/>
       <use x="63.623047" xlink:href="#DejaVuSans-2e"/>
       <use x="95.410156" xlink:href="#DejaVuSans-30"/>
       <use x="159.033203" xlink:href="#DejaVuSans-35"/>
      </g>
     </g>
    </g>
    <g id="ytick_3">
     <g id="line2d_9">
      <g>
       <use style="stroke:#000000;stroke-width:0.8;" x="57.6" xlink:href="#m1581a1e4a0" y="174.528"/>
      </g>
     </g>
     <g id="text_10">
      <!-- 0.10 -->
      <g transform="translate(28.334375 178.327219)scale(0.1 -0.1)">
       <use xlink:href="#DejaVuSans-30"/>
       <use x="63.623047" xlink:href="#DejaVuSans-2e"/>
       <use x="95.410156" xlink:href="#DejaVuSans-31"/>
       <use x="159.033203" xlink:href="#DejaVuSans-30"/>
      </g>
     </g>
    </g>
    <g id="ytick_4">
     <g id="line2d_10">
      <g>
       <use style="stroke:#000000;stroke-width:0.8;" x="57.6" xlink:href="#m1581a1e4a0" y="108"/>
      </g>
     </g>
     <g id="text_11">
      <!-- 0.15 -->
      <g transform="translate(28.334375 111.799219)scale(0.1 -0.1)">
       <use xlink:href="#DejaVuSans-30"/>
       <use x="63.623047" xlink:href="#DejaVuSans-2e"/>
       <use x="95.410156" xlink:href="#DejaVuSans-31"/>
       <use x="159.033203" xlink:href="#DejaVuSans-35"/>
      </g>
     </g>
    </g>
    <g id="ytick_5">
     <g id="line2d_11">
      <g>
       <use style="stroke:#000000;stroke-width:0.8;" x="57.6" xlink:href="#m1581a1e4a0" y="41.472"/>
      </g>
     </g>
     <g id="text_12">
      <!-- 0.20 -->
      <g transform="translate(28.334375 45.271219)scale(0.1 -0.1)">
       <use xlink:href="#DejaVuSans-30"/>
       <use x="63.623047" xlink:href="#DejaVuSans-2e"/>
       <use x="95.410156" xlink:href="#DejaVuSans-32"/>
       <use x="159.033203" xlink:href="#DejaVuSans-30"/>
      </g>
     </g>
    </g>
    <g id="text_13">
     <!-- y, m -->
     <g transform="translate(22.254688 185.535812)rotate(-90)scale(0.1 -0.1)">
      <defs>
       <path d="M 2059 -325 
Q 1816 -950 1584 -1140 
Q 1353 -1331 966 -1331 
L 506 -1331 
L 506 -850 
L 844 -850 
Q 1081 -850 1212 -737 
Q 1344 -625 1503 -206 
L 1606 56 
L 191 3500 
L 800 3500 
L 1894 763 
L 2988 3500 
L 3597 3500 
L 2059 -325 
z
" id="DejaVuSans-79" transform="scale(0.015625)"/>
      </defs>
      <use xlink:href="#DejaVuSans-79"/>
      <use x="59.179688" xlink:href="#DejaVuSans-2c"/>
      <use x="90.966797" xlink:href="#DejaVuSans-20"/>
      <use x="122.753906" xlink:href="#DejaVuSans-6d"/>
     </g>
    </g>
   </g>
   <g id="line2d_12">
    <path clip-path="url(#p80b19b7b17)" d="M 114.086763 159.033594 
L 119.53542 159.033594 
L 123.263449 159.033594 
L 126.704706 159.033594 
L 132.440135 159.033594 
L 136.741706 159.033594 
L 165.992393 159.849805 
L 170.867507 159.849805 
L 174.595536 159.849805 
L 180.044193 159.849805 
L 184.345765 159.849805 
L 188.360565 159.849805 
L 192.948908 159.849805 
L 197.537251 159.849805 
L 202.412365 159.849805 
L 211.589051 159.033594 
L 214.456766 159.033594 
L 217.611251 159.033594 
L 223.633452 159.033594 
L 229.082109 159.033594 
L 239.692652 158.217383 
L 243.707452 158.217383 
L 251.737052 159.033594 
L 264.354996 159.849805 
L 268.083024 159.849805 
L 272.097824 159.849805 
L 276.972939 160.666016 
L 280.700968 160.666016 
L 284.428996 161.482227 
L 288.157025 161.482227 
L 292.458597 162.298438 
L 296.186625 162.298438 
L 300.774968 163.114649 
L 303.355911 163.114649 
L 308.804568 163.93086 
L 311.385511 163.93086 
L 317.407712 164.747071 
L 321.709283 165.563282 
L 323.429912 165.563282 
L 328.018255 166.379493 
L 332.033055 167.195704 
L 336.621398 168.011915 
L 340.636198 168.828126 
L 344.364227 169.644337 
L 349.239341 168.011915 
L 352.680598 172.09297 
L 356.408627 172.909181 
L 359.563113 173.725392 
" style="fill:none;stroke:#1f77b4;stroke-linecap:square;"/>
   </g>
   <g id="line2d_13">
    <path clip-path="url(#p80b19b7b17)" d="M 86.138072 162.063913 
L 88.782609 162.063913 
L 92.308659 162.063913 
L 95.834708 162.063913 
L 100.536107 162.063913 
L 104.355994 162.063913 
L 108.763555 162.063913 
L 125.218452 162.900236 
L 128.156826 162.900236 
L 134.327413 162.900236 
L 139.028812 162.900236 
L 142.554861 162.900236 
L 146.668585 162.063913 
L 151.369984 162.063913 
L 154.896034 162.900236 
L 157.540571 162.900236 
L 163.417319 162.900236 
L 168.706393 162.900236 
L 173.407792 162.063913 
L 176.933842 162.063913 
L 180.166054 162.063913 
L 186.33664 161.227591 
L 191.919551 160.391269 
L 193.682576 160.391269 
L 197.7963 159.554946 
L 204.554561 157.882302 
L 205.729911 157.882302 
L 212.78201 156.209657 
L 216.308059 155.373335 
L 218.952596 154.537012 
L 223.06632 153.70069 
L 229.530744 152.028045 
L 232.469118 151.191723 
L 235.995168 150.355401 
L 239.521217 149.519078 
L 243.341104 148.682756 
L 248.924015 147.010111 
L 252.743902 146.173789 
L 255.976114 145.337467 
L 264.791237 142.8285 
L 268.023449 141.992177 
L 273.60636 140.319533 
L 276.544734 139.48321 
L 284.478345 136.974243 
L 290.942769 135.301599 
L 293.293469 134.465276 
L 296.231843 133.628954 
L 300.639405 131.956309 
L 305.046966 130.283664 
L 312.68674 127.774697 
L 317.975814 122.756763 
L 329.141637 122.756763 
L 332.667686 121.084119 
L 336.78141 119.411474 
L 340.895134 117.738829 
L 394.961223 89.30387 
L 396.136573 88.467548 
L 398.487273 86.794903 
" style="fill:none;stroke:#ff7f0e;stroke-linecap:square;"/>
   </g>
   <g id="line2d_14">
    <path clip-path="url(#p80b19b7b17)" d="M 82.802003 164.494824 
L 100.948105 163.648143 
L 156.873797 160.261416 
L 176.804762 157.721372 
L 181.861872 156.87469 
L 186.026551 156.028009 
L 190.786185 155.181327 
L 243.439629 141.634423 
" style="fill:none;stroke:#2ca02c;stroke-linecap:square;"/>
   </g>
   <g id="line2d_15">
    <path clip-path="url(#p80b19b7b17)" d="M 73.832727 161.854726 
L 77.107223 161.854726 
L 79.786357 161.854726 
L 86.63303 161.854726 
L 91.395934 161.854726 
L 94.968111 161.854726 
L 99.731015 161.007463 
L 104.493918 161.854726 
L 108.661459 161.007463 
L 113.722043 161.007463 
L 118.187265 161.007463 
L 138.131923 161.007463 
L 144.085553 161.007463 
L 149.443819 160.160199 
L 154.206722 161.007463 
L 164.625574 160.160199 
L 169.686159 160.160199 
L 174.15138 160.160199 
L 179.807328 159.312936 
L 183.677187 159.312936 
L 190.226179 158.465673 
L 192.905313 158.465673 
L 199.156623 157.61841 
L 204.51489 156.771147 
L 209.575475 155.07662 
L 214.040697 154.229357 
L 218.505919 153.382094 
L 222.673459 152.53483 
L 229.817814 150.840304 
L 233.687673 149.993041 
L 238.152895 149.145778 
L 271.493219 141.520409 
L 274.767715 140.673145 
L 286.972655 137.284092 
L 290.544833 136.436829 
L 305.131224 132.200513 
L 308.405721 131.35325 
L 319.717616 127.964197 
" style="fill:none;stroke:#d62728;stroke-linecap:square;"/>
   </g>
   <g id="line2d_16">
    <path clip-path="url(#p80b19b7b17)" d="M 84.446008 163.408329 
L 117.010169 160.833763 
L 148.06673 159.975575 
L 168.57009 160.833763 
L 179.12329 161.691952 
L 183.646091 161.691952 
L 193.596251 162.55014 
L 202.943371 163.408329 
L 209.576811 164.266517 
L 223.446732 165.982894 
L 228.572572 166.841083 
L 233.095372 167.699271 
L 237.618172 168.55746 
L 242.140972 169.415648 
L 246.663773 170.273837 
L 258.724573 174.56478 
L 262.342813 175.422968 
L 268.976253 177.139345 
L 272.594493 177.997534 
L 281.941614 180.572099 
L 287.670494 182.288476 
L 290.685694 183.146665 
L 296.113054 184.863042 
L 301.238894 186.579419 
L 306.666254 189.153984 
L 311.189055 187.437607 
L 320.837695 190.870361 
L 325.662015 192.586738 
" style="fill:none;stroke:#9467bd;stroke-linecap:square;"/>
   </g>
   <g id="patch_3">
    <path d="M 57.6 307.584 
L 57.6 41.472 
" style="fill:none;stroke:#000000;stroke-linecap:square;stroke-linejoin:miter;stroke-width:0.8;"/>
   </g>
   <g id="patch_4">
    <path d="M 414.72 307.584 
L 414.72 41.472 
" style="fill:none;stroke:#000000;stroke-linecap:square;stroke-linejoin:miter;stroke-width:0.8;"/>
   </g>
   <g id="patch_5">
    <path d="M 57.6 307.584 
L 414.72 307.584 
" style="fill:none;stroke:#000000;stroke-linecap:square;stroke-linejoin:miter;stroke-width:0.8;"/>
   </g>
   <g id="patch_6">
    <path d="M 57.6 41.472 
L 414.72 41.472 
" style="fill:none;stroke:#000000;stroke-linecap:square;stroke-linejoin:miter;stroke-width:0.8;"/>
   </g>
  </g>
 </g>
 <defs>
  <clipPath id="p80b19b7b17">
   <rect height="266.112" width="357.12" x="57.6" y="41.472"/>
  </clipPath>
 </defs>
</svg>
