<?xml version="1.0" encoding="utf-8" standalone="no"?>
<!DOCTYPE svg PUBLIC "-//W3C//DTD SVG 1.1//EN"
  "http://www.w3.org/Graphics/SVG/1.1/DTD/svg11.dtd">
<svg height="345.6pt" version="1.1" viewBox="0 0 460.8 345.6" width="460.8pt" xmlns="http://www.w3.org/2000/svg" xmlns:xlink="http://www.w3.org/1999/xlink">
 <metadata>
  <rdf:RDF xmlns:cc="http://creativecommons.org/ns#" xmlns:dc="http://purl.org/dc/elements/1.1/" xmlns:rdf="http://www.w3.org/1999/02/22-rdf-syntax-ns#">
   <cc:Work>
    <dc:type rdf:resource="http://purl.org/dc/dcmitype/StillImage"/>
    <dc:date>2021-12-16T02:11:01.210896</dc:date>
    <dc:format>image/svg+xml</dc:format>
    <dc:creator>
     <cc:Agent>
      <dc:title>Matplotlib v3.4.3, https://matplotlib.org/</dc:title>
     </cc:Agent>
    </dc:creator>
   </cc:Work>
  </rdf:RDF>
 </metadata>
 <defs>
  <style type="text/css">*{stroke-linecap:butt;stroke-linejoin:round;}</style>
 </defs>
 <g id="figure_1">
  <g id="patch_1">
   <path d="M 0 345.6 
L 460.8 345.6 
L 460.8 0 
L 0 0 
z
" style="fill:#ffffff;"/>
  </g>
  <g id="axes_1">
   <g id="patch_2">
    <path d="M 57.6 307.584 
L 414.72 307.584 
L 414.72 41.472 
L 57.6 41.472 
z
" style="fill:#ffffff;"/>
   </g>
   <g id="matplotlib.axis_1">
    <g id="xtick_1">
     <g id="line2d_1">
      <path clip-path="url(#p84e7402a9d)" d="M 73.832727 307.584 
L 73.832727 41.472 
" style="fill:none;stroke:#b0b0b0;stroke-linecap:square;stroke-width:0.8;"/>
     </g>
     <g id="line2d_2">
      <defs>
       <path d="M 0 0 
L 0 3.5 
" id="m517b3c200d" style="stroke:#000000;stroke-width:0.8;"/>
      </defs>
      <g>
       <use style="stroke:#000000;stroke-width:0.8;" x="73.832727" xlink:href="#m517b3c200d" y="307.584"/>
      </g>
     </g>
     <g id="text_1">
      <!-- 0.0 -->
      <g transform="translate(65.881165 322.182437)scale(0.1 -0.1)">
       <defs>
        <path d="M 2034 4250 
Q 1547 4250 1301 3770 
Q 1056 3291 1056 2328 
Q 1056 1369 1301 889 
Q 1547 409 2034 409 
Q 2525 409 2770 889 
Q 3016 1369 3016 2328 
Q 3016 3291 2770 3770 
Q 2525 4250 2034 4250 
z
M 2034 4750 
Q 2819 4750 3233 4129 
Q 3647 3509 3647 2328 
Q 3647 1150 3233 529 
Q 2819 -91 2034 -91 
Q 1250 -91 836 529 
Q 422 1150 422 2328 
Q 422 3509 836 4129 
Q 1250 4750 2034 4750 
z
" id="DejaVuSans-30" transform="scale(0.015625)"/>
        <path d="M 684 794 
L 1344 794 
L 1344 0 
L 684 0 
L 684 794 
z
" id="DejaVuSans-2e" transform="scale(0.015625)"/>
       </defs>
       <use xlink:href="#DejaVuSans-30"/>
       <use x="63.623047" xlink:href="#DejaVuSans-2e"/>
       <use x="95.410156" xlink:href="#DejaVuSans-30"/>
      </g>
     </g>
    </g>
    <g id="xtick_2">
     <g id="line2d_3">
      <path clip-path="url(#p84e7402a9d)" d="M 139.752432 307.584 
L 139.752432 41.472 
" style="fill:none;stroke:#b0b0b0;stroke-linecap:square;stroke-width:0.8;"/>
     </g>
     <g id="line2d_4">
      <g>
       <use style="stroke:#000000;stroke-width:0.8;" x="139.752432" xlink:href="#m517b3c200d" y="307.584"/>
      </g>
     </g>
     <g id="text_2">
      <!-- 0.1 -->
      <g transform="translate(131.800869 322.182437)scale(0.1 -0.1)">
       <defs>
        <path d="M 794 531 
L 1825 531 
L 1825 4091 
L 703 3866 
L 703 4441 
L 1819 4666 
L 2450 4666 
L 2450 531 
L 3481 531 
L 3481 0 
L 794 0 
L 794 531 
z
" id="DejaVuSans-31" transform="scale(0.015625)"/>
       </defs>
       <use xlink:href="#DejaVuSans-30"/>
       <use x="63.623047" xlink:href="#DejaVuSans-2e"/>
       <use x="95.410156" xlink:href="#DejaVuSans-31"/>
      </g>
     </g>
    </g>
    <g id="xtick_3">
     <g id="line2d_5">
      <path clip-path="url(#p84e7402a9d)" d="M 205.672137 307.584 
L 205.672137 41.472 
" style="fill:none;stroke:#b0b0b0;stroke-linecap:square;stroke-width:0.8;"/>
     </g>
     <g id="line2d_6">
      <g>
       <use style="stroke:#000000;stroke-width:0.8;" x="205.672137" xlink:href="#m517b3c200d" y="307.584"/>
      </g>
     </g>
     <g id="text_3">
      <!-- 0.2 -->
      <g transform="translate(197.720574 322.182437)scale(0.1 -0.1)">
       <defs>
        <path d="M 1228 531 
L 3431 531 
L 3431 0 
L 469 0 
L 469 531 
Q 828 903 1448 1529 
Q 2069 2156 2228 2338 
Q 2531 2678 2651 2914 
Q 2772 3150 2772 3378 
Q 2772 3750 2511 3984 
Q 2250 4219 1831 4219 
Q 1534 4219 1204 4116 
Q 875 4013 500 3803 
L 500 4441 
Q 881 4594 1212 4672 
Q 1544 4750 1819 4750 
Q 2544 4750 2975 4387 
Q 3406 4025 3406 3419 
Q 3406 3131 3298 2873 
Q 3191 2616 2906 2266 
Q 2828 2175 2409 1742 
Q 1991 1309 1228 531 
z
" id="DejaVuSans-32" transform="scale(0.015625)"/>
       </defs>
       <use xlink:href="#DejaVuSans-30"/>
       <use x="63.623047" xlink:href="#DejaVuSans-2e"/>
       <use x="95.410156" xlink:href="#DejaVuSans-32"/>
      </g>
     </g>
    </g>
    <g id="xtick_4">
     <g id="line2d_7">
      <path clip-path="url(#p84e7402a9d)" d="M 271.591841 307.584 
L 271.591841 41.472 
" style="fill:none;stroke:#b0b0b0;stroke-linecap:square;stroke-width:0.8;"/>
     </g>
     <g id="line2d_8">
      <g>
       <use style="stroke:#000000;stroke-width:0.8;" x="271.591841" xlink:href="#m517b3c200d" y="307.584"/>
      </g>
     </g>
     <g id="text_4">
      <!-- 0.3 -->
      <g transform="translate(263.640279 322.182437)scale(0.1 -0.1)">
       <defs>
        <path d="M 2597 2516 
Q 3050 2419 3304 2112 
Q 3559 1806 3559 1356 
Q 3559 666 3084 287 
Q 2609 -91 1734 -91 
Q 1441 -91 1130 -33 
Q 819 25 488 141 
L 488 750 
Q 750 597 1062 519 
Q 1375 441 1716 441 
Q 2309 441 2620 675 
Q 2931 909 2931 1356 
Q 2931 1769 2642 2001 
Q 2353 2234 1838 2234 
L 1294 2234 
L 1294 2753 
L 1863 2753 
Q 2328 2753 2575 2939 
Q 2822 3125 2822 3475 
Q 2822 3834 2567 4026 
Q 2313 4219 1838 4219 
Q 1578 4219 1281 4162 
Q 984 4106 628 3988 
L 628 4550 
Q 988 4650 1302 4700 
Q 1616 4750 1894 4750 
Q 2613 4750 3031 4423 
Q 3450 4097 3450 3541 
Q 3450 3153 3228 2886 
Q 3006 2619 2597 2516 
z
" id="DejaVuSans-33" transform="scale(0.015625)"/>
       </defs>
       <use xlink:href="#DejaVuSans-30"/>
       <use x="63.623047" xlink:href="#DejaVuSans-2e"/>
       <use x="95.410156" xlink:href="#DejaVuSans-33"/>
      </g>
     </g>
    </g>
    <g id="xtick_5">
     <g id="line2d_9">
      <path clip-path="url(#p84e7402a9d)" d="M 337.511546 307.584 
L 337.511546 41.472 
" style="fill:none;stroke:#b0b0b0;stroke-linecap:square;stroke-width:0.8;"/>
     </g>
     <g id="line2d_10">
      <g>
       <use style="stroke:#000000;stroke-width:0.8;" x="337.511546" xlink:href="#m517b3c200d" y="307.584"/>
      </g>
     </g>
     <g id="text_5">
      <!-- 0.4 -->
      <g transform="translate(329.559983 322.182437)scale(0.1 -0.1)">
       <defs>
        <path d="M 2419 4116 
L 825 1625 
L 2419 1625 
L 2419 4116 
z
M 2253 4666 
L 3047 4666 
L 3047 1625 
L 3713 1625 
L 3713 1100 
L 3047 1100 
L 3047 0 
L 2419 0 
L 2419 1100 
L 313 1100 
L 313 1709 
L 2253 4666 
z
" id="DejaVuSans-34" transform="scale(0.015625)"/>
       </defs>
       <use xlink:href="#DejaVuSans-30"/>
       <use x="63.623047" xlink:href="#DejaVuSans-2e"/>
       <use x="95.410156" xlink:href="#DejaVuSans-34"/>
      </g>
     </g>
    </g>
    <g id="xtick_6">
     <g id="line2d_11">
      <path clip-path="url(#p84e7402a9d)" d="M 403.431251 307.584 
L 403.431251 41.472 
" style="fill:none;stroke:#b0b0b0;stroke-linecap:square;stroke-width:0.8;"/>
     </g>
     <g id="line2d_12">
      <g>
       <use style="stroke:#000000;stroke-width:0.8;" x="403.431251" xlink:href="#m517b3c200d" y="307.584"/>
      </g>
     </g>
     <g id="text_6">
      <!-- 0.5 -->
      <g transform="translate(395.479688 322.182437)scale(0.1 -0.1)">
       <defs>
        <path d="M 691 4666 
L 3169 4666 
L 3169 4134 
L 1269 4134 
L 1269 2991 
Q 1406 3038 1543 3061 
Q 1681 3084 1819 3084 
Q 2600 3084 3056 2656 
Q 3513 2228 3513 1497 
Q 3513 744 3044 326 
Q 2575 -91 1722 -91 
Q 1428 -91 1123 -41 
Q 819 9 494 109 
L 494 744 
Q 775 591 1075 516 
Q 1375 441 1709 441 
Q 2250 441 2565 725 
Q 2881 1009 2881 1497 
Q 2881 1984 2565 2268 
Q 2250 2553 1709 2553 
Q 1456 2553 1204 2497 
Q 953 2441 691 2322 
L 691 4666 
z
" id="DejaVuSans-35" transform="scale(0.015625)"/>
       </defs>
       <use xlink:href="#DejaVuSans-30"/>
       <use x="63.623047" xlink:href="#DejaVuSans-2e"/>
       <use x="95.410156" xlink:href="#DejaVuSans-35"/>
      </g>
     </g>
    </g>
   </g>
   <g id="matplotlib.axis_2">
    <g id="ytick_1">
     <g id="line2d_13">
      <path clip-path="url(#p84e7402a9d)" d="M 57.6 283.477787 
L 414.72 283.477787 
" style="fill:none;stroke:#b0b0b0;stroke-linecap:square;stroke-width:0.8;"/>
     </g>
     <g id="line2d_14">
      <defs>
       <path d="M 0 0 
L -3.5 0 
" id="m0959b9e7f6" style="stroke:#000000;stroke-width:0.8;"/>
      </defs>
      <g>
       <use style="stroke:#000000;stroke-width:0.8;" x="57.6" xlink:href="#m0959b9e7f6" y="283.477787"/>
      </g>
     </g>
     <g id="text_7">
      <!-- −0.02 -->
      <g transform="translate(19.954687 287.277006)scale(0.1 -0.1)">
       <defs>
        <path d="M 678 2272 
L 4684 2272 
L 4684 1741 
L 678 1741 
L 678 2272 
z
" id="DejaVuSans-2212" transform="scale(0.015625)"/>
       </defs>
       <use xlink:href="#DejaVuSans-2212"/>
       <use x="83.789062" xlink:href="#DejaVuSans-30"/>
       <use x="147.412109" xlink:href="#DejaVuSans-2e"/>
       <use x="179.199219" xlink:href="#DejaVuSans-30"/>
       <use x="242.822266" xlink:href="#DejaVuSans-32"/>
      </g>
     </g>
    </g>
    <g id="ytick_2">
     <g id="line2d_15">
      <path clip-path="url(#p84e7402a9d)" d="M 57.6 224.986491 
L 414.72 224.986491 
" style="fill:none;stroke:#b0b0b0;stroke-linecap:square;stroke-width:0.8;"/>
     </g>
     <g id="line2d_16">
      <g>
       <use style="stroke:#000000;stroke-width:0.8;" x="57.6" xlink:href="#m0959b9e7f6" y="224.986491"/>
      </g>
     </g>
     <g id="text_8">
      <!-- −0.01 -->
      <g transform="translate(19.954687 228.78571)scale(0.1 -0.1)">
       <use xlink:href="#DejaVuSans-2212"/>
       <use x="83.789062" xlink:href="#DejaVuSans-30"/>
       <use x="147.412109" xlink:href="#DejaVuSans-2e"/>
       <use x="179.199219" xlink:href="#DejaVuSans-30"/>
       <use x="242.822266" xlink:href="#DejaVuSans-31"/>
      </g>
     </g>
    </g>
    <g id="ytick_3">
     <g id="line2d_17">
      <path clip-path="url(#p84e7402a9d)" d="M 57.6 166.495195 
L 414.72 166.495195 
" style="fill:none;stroke:#b0b0b0;stroke-linecap:square;stroke-width:0.8;"/>
     </g>
     <g id="line2d_18">
      <g>
       <use style="stroke:#000000;stroke-width:0.8;" x="57.6" xlink:href="#m0959b9e7f6" y="166.495195"/>
      </g>
     </g>
     <g id="text_9">
      <!-- 0.00 -->
      <g transform="translate(28.334375 170.294414)scale(0.1 -0.1)">
       <use xlink:href="#DejaVuSans-30"/>
       <use x="63.623047" xlink:href="#DejaVuSans-2e"/>
       <use x="95.410156" xlink:href="#DejaVuSans-30"/>
       <use x="159.033203" xlink:href="#DejaVuSans-30"/>
      </g>
     </g>
    </g>
    <g id="ytick_4">
     <g id="line2d_19">
      <path clip-path="url(#p84e7402a9d)" d="M 57.6 108.003899 
L 414.72 108.003899 
" style="fill:none;stroke:#b0b0b0;stroke-linecap:square;stroke-width:0.8;"/>
     </g>
     <g id="line2d_20">
      <g>
       <use style="stroke:#000000;stroke-width:0.8;" x="57.6" xlink:href="#m0959b9e7f6" y="108.003899"/>
      </g>
     </g>
     <g id="text_10">
      <!-- 0.01 -->
      <g transform="translate(28.334375 111.803118)scale(0.1 -0.1)">
       <use xlink:href="#DejaVuSans-30"/>
       <use x="63.623047" xlink:href="#DejaVuSans-2e"/>
       <use x="95.410156" xlink:href="#DejaVuSans-30"/>
       <use x="159.033203" xlink:href="#DejaVuSans-31"/>
      </g>
     </g>
    </g>
    <g id="ytick_5">
     <g id="line2d_21">
      <path clip-path="url(#p84e7402a9d)" d="M 57.6 49.512603 
L 414.72 49.512603 
" style="fill:none;stroke:#b0b0b0;stroke-linecap:square;stroke-width:0.8;"/>
     </g>
     <g id="line2d_22">
      <g>
       <use style="stroke:#000000;stroke-width:0.8;" x="57.6" xlink:href="#m0959b9e7f6" y="49.512603"/>
      </g>
     </g>
     <g id="text_11">
      <!-- 0.02 -->
      <g transform="translate(28.334375 53.311822)scale(0.1 -0.1)">
       <use xlink:href="#DejaVuSans-30"/>
       <use x="63.623047" xlink:href="#DejaVuSans-2e"/>
       <use x="95.410156" xlink:href="#DejaVuSans-30"/>
       <use x="159.033203" xlink:href="#DejaVuSans-32"/>
      </g>
     </g>
    </g>
   </g>
   <g id="line2d_23">
    <path clip-path="url(#p84e7402a9d)" d="M 73.832727 169.146801 
L 73.865687 169.677122 
L 73.898647 169.271582 
L 74.129366 167.243884 
L 74.162326 167.275079 
L 74.393045 164.31152 
L 74.458964 163.750004 
L 74.491924 164.155544 
L 74.755603 166.183242 
L 74.986322 165.091404 
L 75.019282 165.559335 
L 75.085202 164.997818 
L 75.118162 164.873037 
L 75.151121 164.31152 
L 75.217041 164.405106 
L 75.250001 164.529888 
L 75.282961 162.56458 
L 75.34888 163.282074 
L 75.38184 163.781199 
L 75.4148 163.718809 
L 75.54664 162.408603 
L 75.579599 162.658166 
L 75.612559 161.22318 
L 75.711439 161.441547 
L 75.744399 161.815892 
L 75.777359 161.316766 
L 75.810318 161.503938 
L 75.843278 161.535133 
L 76.139917 159.788193 
L 76.205837 160.100147 
L 76.238796 159.975366 
L 76.337676 161.535133 
L 76.370636 160.724054 
L 76.436556 161.316766 
L 76.469515 160.911226 
L 76.535435 160.724054 
L 76.601355 160.786445 
L 76.799114 163.219683 
L 76.963913 161.098398 
L 76.996873 161.878282 
L 77.029833 161.847087 
L 77.128713 161.036008 
L 77.161672 161.129594 
L 77.326472 162.658166 
L 77.359431 162.533385 
L 77.458311 164.71706 
L 77.491271 164.186739 
L 77.557191 163.718809 
L 77.59015 163.999567 
L 77.820869 165.840093 
L 77.853829 165.372162 
L 78.051588 162.470994 
L 78.084548 163.063706 
L 78.117508 162.408603 
L 78.150468 161.753501 
L 78.183428 162.408603 
L 78.216388 163.001315 
L 78.249347 162.470994 
L 78.348227 161.347961 
L 78.414147 161.379157 
L 78.644866 163.750004 
L 78.677826 163.406855 
L 78.710785 162.814143 
L 78.743745 163.781199 
L 78.842625 163.032511 
L 78.875585 163.37566 
L 78.908545 162.720557 
L 78.941504 162.814143 
L 79.007424 164.685865 
L 79.040384 164.030762 
L 79.172223 162.782948 
L 79.304063 163.937176 
L 79.369982 164.529888 
L 79.402942 164.405106 
L 79.633661 161.379157 
L 79.666621 161.971868 
L 79.699581 161.971868 
L 79.83142 163.001315 
L 79.86438 162.907729 
L 80.02918 161.410352 
L 80.161019 162.845338 
L 80.226939 163.43805 
L 80.292858 162.127845 
L 80.325818 162.252627 
L 80.358778 162.221431 
L 80.391738 163.406855 
L 80.490617 163.188487 
L 80.523577 162.470994 
L 80.556537 163.344464 
L 80.721336 164.436302 
L 80.754296 164.405106 
L 80.853176 165.340967 
L 80.919096 164.498692 
L 80.952055 164.592279 
L 81.050935 165.715311 
L 81.083895 165.559335 
L 81.281654 163.968371 
L 81.314614 164.966623 
L 81.380533 163.937176 
L 81.479413 164.31152 
L 81.611252 165.091404 
L 81.743092 164.529888 
L 81.776052 164.685865 
L 81.874931 166.308023 
L 81.907891 166.214437 
L 81.973811 165.715311 
L 82.006771 166.183242 
L 82.039731 166.183242 
L 82.10565 166.807149 
L 82.17157 165.746507 
L 82.20453 167.056712 
L 82.303409 168.959629 
L 82.402289 168.242135 
L 82.435249 168.398112 
L 82.501168 169.677122 
L 82.567088 169.146801 
L 82.633008 169.770708 
L 82.665968 169.146801 
L 82.698928 168.741261 
L 82.764847 168.897238 
L 82.797807 169.08441 
L 82.896687 170.862545 
L 82.929647 170.519397 
L 83.028526 170.020271 
L 83.094446 170.519397 
L 83.127406 170.082662 
L 83.160365 169.770708 
L 83.193325 170.301029 
L 83.292205 170.83135 
L 83.522924 168.803652 
L 83.555884 169.521145 
L 83.654763 169.396364 
L 83.753643 168.61648 
L 83.852522 169.770708 
L 83.885482 169.55234 
L 83.918442 169.614731 
L 83.951402 168.897238 
L 83.984362 169.396364 
L 84.116201 171.174499 
L 84.215081 170.207443 
L 84.248041 170.332224 
L 84.281 170.737764 
L 84.31396 169.645926 
L 84.37988 170.36342 
L 84.41284 171.018522 
L 84.47876 170.550592 
L 84.511719 170.768959 
L 84.577639 170.488201 
L 84.841318 169.146801 
L 84.973157 170.051466 
L 85.137957 168.554089 
L 85.236836 169.458754 
L 85.269796 168.710066 
L 85.368676 168.959629 
L 85.467555 169.55234 
L 85.500515 169.396364 
L 85.533475 168.61648 
L 85.599395 169.55234 
L 85.665314 169.895489 
L 85.764194 169.209191 
L 85.797154 169.396364 
L 85.896033 170.238638 
L 85.928993 169.739513 
L 85.994913 170.42581 
L 86.060832 170.488201 
L 86.126752 170.176248 
L 86.291551 170.893741 
L 86.324511 170.644178 
L 86.357471 170.987327 
L 86.390431 170.768959 
L 86.423391 170.768959 
L 86.456351 170.519397 
L 86.489311 171.205694 
L 86.52227 170.394615 
L 86.55523 169.926685 
L 86.62115 170.113857 
L 86.65411 170.238638 
L 86.68707 170.082662 
L 86.72003 170.051466 
L 86.752989 169.770708 
L 86.785949 170.36342 
L 86.818909 170.36342 
L 87.082588 172.640681 
L 87.115548 172.328727 
L 87.280347 169.022019 
L 87.346267 169.55234 
L 87.379227 169.333973 
L 87.576986 167.867791 
L 87.642905 169.333973 
L 87.741785 169.08441 
L 87.873624 168.772456 
L 88.005464 171.954383 
L 88.335062 173.670128 
L 88.400982 173.202197 
L 88.433942 173.358174 
L 88.697621 175.448263 
L 88.76354 175.635435 
L 88.7965 175.573044 
L 88.961299 176.727273 
L 89.027219 175.853803 
L 89.060179 176.134561 
L 89.192018 176.976836 
L 89.224978 176.852054 
L 89.257938 177.257594 
L 89.290898 176.602491 
L 89.323858 177.039226 
L 89.356818 176.976836 
L 89.521617 179.628441 
L 89.554577 179.472464 
L 89.686416 178.474213 
L 89.719376 178.567799 
L 89.752336 178.349431 
L 89.851216 179.690832 
L 89.884175 178.973338 
L 90.081934 180.813865 
L 90.114894 180.907451 
L 90.147854 180.564302 
L 90.180814 181.001037 
L 90.213774 181.281795 
L 90.279694 181.188209 
L 90.345613 181.032232 
L 90.510413 181.936897 
L 90.609292 180.907451 
L 90.642252 181.437772 
L 90.774091 180.813865 
L 90.872971 182.436023 
L 90.905931 182.217656 
L 91.00481 180.907451 
L 91.03777 181.437772 
L 91.10369 181.2506 
L 91.16961 181.780921 
L 91.202569 181.406576 
L 91.235529 181.624944 
L 91.334409 182.779172 
L 91.367369 182.373632 
L 91.532168 183.839814 
L 91.565128 183.777424 
L 91.696967 183.403079 
L 91.729927 183.434275 
L 91.795847 184.120573 
L 91.828807 183.777424 
L 91.927686 183.621447 
L 91.960646 183.746228 
L 91.993606 183.715033 
L 92.059526 182.99754 
L 92.224325 185.150019 
L 92.290245 185.61795 
L 92.356164 185.493168 
L 92.389124 185.430778 
L 92.422084 185.056433 
L 92.488004 185.555559 
L 92.520964 186.179466 
L 92.553923 185.805122 
L 92.586883 185.118824 
L 92.652803 185.368387 
L 92.685763 185.649145 
L 92.850562 182.467219 
L 92.916482 182.498414 
L 93.180161 180.221153 
L 93.37792 181.71853 
L 93.443839 180.782669 
L 93.509759 180.907451 
L 93.575679 181.437772 
L 93.641599 181.344186 
L 93.674558 180.969841 
L 93.707518 181.2506 
L 93.740478 181.843311 
L 93.773438 180.907451 
L 93.905277 179.597246 
L 93.938237 180.002785 
L 93.971197 180.096371 
L 94.037117 179.09812 
L 94.070077 179.316487 
L 94.103036 179.722027 
L 94.135996 178.942143 
L 94.168956 178.754971 
L 94.201916 179.160511 
L 94.234876 180.252348 
L 94.300796 179.690832 
L 94.399675 179.09812 
L 94.564474 177.288789 
L 94.630394 178.22465 
L 94.696314 178.193455 
L 94.795193 177.75672 
L 94.828153 179.285292 
L 94.894073 177.413571 
L 94.927033 177.319985 
L 95.091832 178.193455 
L 95.124792 177.538352 
L 95.190712 178.287041 
L 95.223671 178.068673 
L 95.256631 178.536603 
L 95.289591 179.191706 
L 95.322551 178.006282 
L 95.52031 176.914445 
L 95.61919 177.257594 
L 95.65215 176.633687 
L 95.751029 176.820859 
L 95.816949 176.040975 
L 95.849909 176.134561 
L 95.948788 177.538352 
L 96.014708 175.822607 
L 96.080628 176.321733 
L 96.113587 176.820859 
L 96.179507 176.352928 
L 96.278387 174.543598 
L 96.311347 175.541849 
L 96.377266 174.917942 
L 96.443186 175.229896 
L 96.607985 174.200449 
L 96.640945 174.917942 
L 96.706865 174.231644 
L 96.739825 174.075667 
L 96.772784 174.418816 
L 96.838704 174.450012 
L 97.003503 173.45176 
L 97.234222 170.488201 
L 97.399022 172.047969 
L 97.300142 170.269834 
L 97.431982 171.486453 
L 97.464941 171.486453 
L 97.497901 171.891992 
L 97.563821 171.736015 
L 97.596781 171.174499 
L 97.662701 171.860797 
L 97.79454 172.422313 
L 97.893419 172.57829 
L 98.124138 173.701323 
L 98.157098 173.8573 
L 98.190058 173.545346 
L 98.255978 173.077416 
L 98.354857 174.138058 
L 98.387817 174.044472 
L 98.453737 173.763714 
L 98.552617 174.574793 
L 98.684456 173.420565 
L 99.079974 177.039226 
L 99.112934 176.664882 
L 99.178854 175.916193 
L 99.244773 176.259342 
L 99.508452 180.189957 
L 99.640292 179.628441 
L 99.673251 179.597246 
L 99.871011 181.094623 
L 99.93693 180.43952 
L 100.00285 179.222901 
L 100.06877 179.940395 
L 100.10173 179.784418 
L 100.233569 177.600743 
L 100.299489 178.848557 
L 100.365408 178.567799 
L 100.662047 175.417068 
L 100.431328 178.973338 
L 100.695007 175.448263 
L 100.793886 176.415319 
L 100.892766 175.354677 
L 100.925726 175.822607 
L 101.024605 176.196952 
L 101.123485 175.385872 
L 101.288284 177.382375 
L 101.321244 177.725524 
L 101.354204 177.039226 
L 101.420124 177.382375 
L 101.453084 177.507157 
L 101.650843 176.165756 
L 101.683802 176.415319 
L 101.716762 176.196952 
L 101.848602 175.697826 
L 101.881562 175.697826 
L 101.914521 175.479458 
L 102.1782 178.69258 
L 102.21116 178.63019 
L 102.24412 179.035729 
L 102.31004 178.817362 
L 102.408919 177.694329 
L 102.441879 177.975087 
L 102.474839 177.975087 
L 102.606678 178.910948 
L 102.705558 177.81911 
L 102.738518 178.22465 
L 102.771478 178.255845 
L 102.804437 177.507157 
L 102.870357 177.975087 
L 102.903317 178.037478 
L 103.035156 177.382375 
L 103.068116 177.787915 
L 103.101076 177.101617 
L 103.134036 177.444766 
L 103.232916 176.508905 
L 103.265875 176.727273 
L 103.298835 177.008031 
L 103.364755 176.727273 
L 103.463635 175.167505 
L 103.529554 175.354677 
L 103.595474 175.448263 
L 103.628434 175.042723 
L 103.661394 175.853803 
L 103.760273 175.073919 
L 103.859153 174.231644 
L 103.925072 174.356426 
L 104.023952 174.32523 
L 104.056912 175.541849 
L 104.089872 175.666631 
L 104.122832 176.321733 
L 104.188751 175.729021 
L 104.287631 174.418816 
L 104.353551 174.574793 
L 104.38651 175.1987 
L 104.41947 174.044472 
L 104.48539 173.358174 
L 104.51835 173.919691 
L 104.55131 174.044472 
L 104.847948 170.924936 
L 104.946828 173.015025 
L 104.979788 172.765462 
L 105.045707 171.736015 
L 105.078667 171.954383 
L 105.243467 173.046221 
L 105.276426 172.952634 
L 105.573065 175.884998 
L 105.638985 175.417068 
L 105.737864 173.202197 
L 105.836744 174.013277 
L 105.902664 174.886747 
L 106.001543 174.543598 
L 106.034503 174.418816 
L 106.067463 175.167505 
L 106.133383 174.980333 
L 106.364102 172.765462 
L 106.397061 172.703072 
L 106.462981 172.640681 
L 106.59482 174.169253 
L 106.6937 173.295783 
L 106.72666 173.607737 
L 106.891459 174.574793 
L 107.221058 171.860797 
L 107.286977 171.548843 
L 107.319937 171.985578 
L 107.352897 171.673625 
L 107.583616 168.273331 
L 107.616576 168.554089 
L 107.649536 168.273331 
L 107.715455 167.399861 
L 107.781375 167.680619 
L 107.913215 166.682368 
L 108.012094 166.027265 
L 108.143934 166.775954 
L 108.242813 165.59053 
L 108.308733 165.652921 
L 108.341693 165.434553 
L 108.374653 165.871288 
L 108.407612 165.871288 
L 108.506492 164.498692 
L 108.671291 162.283822 
L 108.704251 162.56458 
L 108.737211 162.876534 
L 108.770171 162.377408 
L 109.00089 160.81764 
L 109.066809 159.912975 
L 109.132729 160.224928 
L 109.165689 160.34971 
L 109.198649 160.942422 
L 109.264569 160.75525 
L 109.330488 160.037756 
L 109.396408 160.443296 
L 109.429368 161.067203 
L 109.495287 160.599273 
L 109.528247 160.536882 
L 109.660087 162.127845 
L 109.923766 158.509184 
L 109.989685 159.569826 
L 110.055605 159.975366 
L 110.253364 158.446793 
L 110.319284 159.101896 
L 110.385204 158.945919 
L 110.418163 158.540379 
L 110.517043 158.60277 
L 110.550003 158.571574 
L 110.648882 159.164286 
L 110.681842 159.101896 
L 110.714802 158.758747 
L 110.780722 159.226677 
L 110.846641 158.322012 
L 110.945521 158.60277 
L 111.07736 155.264867 
L 111.11032 155.57682 
L 111.14328 155.483234 
L 111.17624 156.013555 
L 111.2092 155.327257 
L 111.24216 155.483234 
L 111.406959 157.074197 
L 111.439919 156.387899 
L 111.538798 157.354956 
L 111.604718 156.980611 
L 111.637678 158.19723 
L 111.703598 157.542128 
L 111.901357 155.545625 
L 111.934317 155.701602 
L 111.967276 155.795188 
L 112.000236 155.639211 
L 112.033196 155.389648 
L 112.066156 156.387899 
L 112.132076 155.98236 
L 112.197995 155.608015 
L 112.230955 156.075946 
L 112.329835 155.919969 
L 112.395754 156.356704 
L 112.428714 155.608015 
L 112.494634 156.606267 
L 112.527594 157.043002 
L 112.560554 155.888774 
L 112.626473 156.606267 
L 112.857192 157.791691 
L 113.021992 155.17128 
L 113.153831 156.04475 
L 113.186791 156.169532 
L 113.252711 154.422592 
L 113.31863 155.015304 
L 113.35159 155.046499 
L 113.48343 157.386151 
L 113.549349 156.793439 
L 113.714149 158.509184 
L 113.977827 161.22318 
L 114.010787 160.911226 
L 114.076707 160.661663 
L 114.109667 161.472743 
L 114.175587 161.191985 
L 114.373346 159.663412 
L 114.439265 160.443296 
L 114.472225 160.318515 
L 114.637024 158.821137 
L 114.735904 159.663412 
L 114.900703 160.630468 
L 114.933663 160.505687 
L 114.966623 160.786445 
L 114.999583 160.81764 
L 115.098462 160.287319 
L 115.065503 160.911226 
L 115.131422 160.568077 
L 115.263262 159.694607 
L 115.329181 159.881779 
L 115.428061 160.34971 
L 115.52694 159.663412 
L 115.5599 159.850584 
L 115.62582 161.379157 
L 115.69174 160.724054 
L 115.7247 160.724054 
L 115.757659 160.942422 
L 115.790619 160.75525 
L 115.889499 159.039505 
L 116.021338 161.503938 
L 116.087258 161.722306 
L 116.120218 161.191985 
L 116.285017 162.50219 
L 116.680535 159.413849 
L 116.713495 159.819389 
L 116.746455 159.008309 
L 116.779415 159.289068 
L 116.845335 159.819389 
L 116.878294 159.257872 
L 117.109013 161.067203 
L 117.141973 161.472743 
L 117.174933 160.568077 
L 117.207893 160.630468 
L 117.438612 163.094901 
L 117.570451 163.874785 
L 117.669331 163.126097 
L 117.702291 163.250878 
L 117.86709 164.436302 
L 117.96597 165.216186 
L 118.130769 163.126097 
L 118.196689 164.467497 
L 118.262608 164.061957 
L 118.361488 162.346213 
L 118.460367 162.97012 
L 118.592207 164.124348 
L 118.625167 164.061957 
L 118.822926 162.221431 
L 118.954765 162.876534 
L 119.185484 164.030762 
L 119.218444 163.344464 
L 119.284364 164.093153 
L 119.482123 162.595776 
L 119.712842 164.093153 
L 119.778761 164.966623 
L 119.844681 164.623474 
L 119.943561 163.874785 
L 120.14132 168.21094 
L 120.17428 167.930182 
L 120.240199 167.992573 
L 120.372039 165.59053 
L 120.404999 165.777702 
L 120.470918 166.308023 
L 120.503878 165.777702 
L 120.569798 166.152046 
L 120.602758 165.808897 
L 120.701637 164.030762 
L 120.734597 164.373911 
L 120.932356 166.838344 
L 121.031236 166.619977 
L 121.064196 167.275079 
L 121.130115 167.056712 
L 121.163075 166.93193 
L 121.196035 167.33747 
L 121.228995 166.619977 
L 121.261955 166.276828 
L 121.294915 166.308023 
L 121.426754 167.930182 
L 121.459714 167.8054 
L 121.492674 167.774205 
L 121.525634 167.587033 
L 121.558593 167.74301 
L 121.822272 169.833099 
L 121.855232 169.708317 
L 121.987072 170.301029 
L 122.118911 172.453509 
L 122.151871 172.297532 
L 122.25075 173.295783 
L 122.28371 173.046221 
L 122.31667 173.015025 
L 122.34963 173.389369 
L 122.38259 173.139807 
L 122.41555 172.796658 
L 122.448509 173.701323 
L 122.514429 173.295783 
L 122.547389 173.233393 
L 122.613309 173.888495 
L 122.646269 173.8573 
L 122.679228 173.295783 
L 122.712188 173.763714 
L 122.975867 177.943892 
L 123.041787 177.787915 
L 123.074747 177.912696 
L 123.239546 180.314739 
L 123.338425 178.910948 
L 123.371385 179.160511 
L 123.437305 180.751474 
L 123.470265 180.033981 
L 123.536185 179.597246 
L 123.569144 179.909199 
L 123.766904 182.623195 
L 123.799863 182.467219 
L 123.898743 180.501911 
L 123.964663 181.001037 
L 124.030582 180.657888 
L 124.096502 180.782669 
L 124.228341 182.498414 
L 124.261301 182.030484 
L 124.393141 183.309493 
L 124.426101 184.245354 
L 124.49202 183.122321 
L 124.5909 184.182963 
L 124.62386 183.496665 
L 124.65682 183.434275 
L 124.722739 182.592 
L 124.755699 183.278298 
L 124.788659 183.184712 
L 124.953458 181.874507 
L 124.986418 181.874507 
L 125.019378 181.999288 
L 125.052338 182.654391 
L 125.085298 181.812116 
L 125.151217 181.219404 
L 125.184177 181.468967 
L 125.381936 183.777424 
L 125.414896 183.590251 
L 125.579695 186.990545 
L 125.645615 186.709787 
L 125.711535 186.834569 
L 125.744495 186.709787 
L 125.876334 186.241857 
L 126.041133 187.271304 
L 126.074093 187.42728 
L 126.172973 186.803373 
L 126.238892 187.83282 
L 126.304812 187.458476 
L 126.370732 187.489671 
L 126.436652 187.115327 
L 126.469611 187.396085 
L 126.502571 186.865764 
L 126.568491 187.177718 
L 126.89809 189.174221 
L 126.931049 189.11183 
L 127.029929 187.520867 
L 127.095849 188.987048 
L 127.128808 188.269555 
L 127.227688 186.55381 
L 127.293608 186.585006 
L 127.359527 187.302499 
L 127.425447 187.146522 
L 127.557287 186.304248 
L 127.623206 186.522615 
L 127.755046 184.370135 
L 127.820965 184.713284 
L 127.853925 184.682089 
L 127.919845 184.182963 
L 128.018725 185.461973 
L 128.051684 185.274801 
L 128.084644 185.118824 
L 128.117604 185.368387 
L 128.150564 185.524364 
L 128.183524 184.432526 
L 128.216484 185.742731 
L 128.249443 185.68034 
L 128.282403 185.867513 
L 128.381283 184.494917 
L 128.414243 184.931652 
L 128.513122 186.585006 
L 128.579042 184.775675 
L 128.644962 185.181215 
L 128.842721 186.366638 
L 128.710881 184.962847 
L 128.908641 186.054685 
L 128.97456 185.524364 
L 129.00752 186.054685 
L 129.07344 186.210662 
L 129.304159 187.614453 
L 129.139359 186.148271 
L 129.337119 187.396085 
L 129.370078 187.021741 
L 129.403038 187.458476 
L 129.501918 187.895211 
L 129.600797 187.333694 
L 129.633757 187.42728 
L 129.897436 191.576263 
L 129.963356 190.85877 
L 130.029275 189.454979 
L 130.062235 190.110081 
L 130.358874 192.948859 
L 130.391834 192.855273 
L 130.424794 192.480928 
L 130.457754 193.042445 
L 130.622553 194.446236 
L 130.655513 194.009501 
L 130.688473 194.75819 
L 130.721432 194.882971 
L 130.787352 194.35265 
L 130.820312 194.75819 
L 130.853272 194.75819 
L 130.886232 194.945362 
L 131.018071 193.759938 
L 131.21583 195.22612 
L 131.24879 194.851776 
L 131.28175 195.818832 
L 131.380629 195.69405 
L 131.413589 195.475683 
L 131.545429 197.409795 
L 131.578389 196.692302 
L 131.611348 196.56752 
L 131.644308 197.409795 
L 131.710228 196.473934 
L 131.842067 195.319706 
L 131.875027 195.319706 
L 131.907987 195.070143 
L 131.940947 195.756441 
L 131.973907 195.444487 
L 132.072786 193.416789 
L 132.138706 193.603961 
L 132.171666 194.290259 
L 132.237586 193.94711 
L 132.270545 193.88472 
L 132.303505 193.978306 
L 132.534224 196.879474 
L 132.600144 197.44099 
L 132.666064 198.470437 
L 132.699024 198.064897 
L 132.731983 197.285014 
L 132.797903 197.815335 
L 132.830863 198.064897 
L 132.863823 197.752944 
L 132.896783 197.191427 
L 132.995662 197.285014 
L 133.061582 196.879474 
L 133.160461 196.130785 
L 133.226381 195.912418 
L 133.358221 197.3786 
L 133.4571 196.286762 
L 133.55598 197.752944 
L 133.58894 197.503381 
L 133.621899 197.3786 
L 133.654859 198.064897 
L 133.720779 197.472186 
L 133.786699 197.222623 
L 133.852618 196.442739 
L 133.885578 197.004255 
L 133.951498 197.191427 
L 134.050377 196.536325 
L 134.215177 198.002507 
L 134.314056 197.066646 
L 134.347016 197.534576 
L 134.478856 196.006004 
L 134.511815 196.255567 
L 134.676615 198.002507 
L 134.940293 195.413292 
L 134.973253 195.943613 
L 135.039173 195.350901 
L 135.171012 193.728743 
L 135.269892 194.571017 
L 135.302852 194.383845 
L 135.368772 194.508627 
L 135.566531 193.07364 
L 135.66541 194.040696 
L 135.69837 193.978306 
L 135.863169 195.382097 
L 135.929089 194.789385 
L 135.962049 195.475683 
L 136.060928 194.539822 
L 136.093888 194.914166 
L 136.159808 194.914166 
L 136.258688 193.323203 
L 136.291647 193.447985 
L 136.357567 194.633408 
L 136.390527 194.35265 
L 136.423487 193.635157 
L 136.489407 194.477431 
L 136.555326 195.007752 
L 136.588286 194.508627 
L 136.654206 195.163729 
L 136.687166 196.286762 
L 136.753085 195.475683 
L 136.786045 194.82058 
L 136.851965 195.194925 
L 136.884925 195.132534 
L 137.016764 197.066646 
L 137.049724 196.692302 
L 137.082684 197.191427 
L 137.214523 197.815335 
L 137.511162 195.569269 
L 137.675961 195.787636 
L 137.84076 198.532828 
L 137.87372 198.064897 
L 138.00556 198.813586 
L 138.03852 198.751195 
L 138.203319 201.153238 
L 138.236279 200.778894 
L 138.368118 199.219126 
L 138.401078 199.905424 
L 138.466998 198.969563 
L 138.565877 198.751195 
L 138.598837 197.004255 
L 138.664757 197.877725 
L 138.796596 198.657609 
L 138.862516 198.564023 
L 138.928436 198.782391 
L 139.027315 197.971311 
L 139.060275 197.971311 
L 139.159155 197.004255 
L 139.422833 199.250321 
L 139.455793 199.281516 
L 139.653552 195.725246 
L 139.719472 195.787636 
L 139.884271 197.877725 
L 139.950191 197.097841 
L 139.983151 197.784139 
L 140.016111 197.784139 
L 140.345709 194.009501 
L 140.411629 194.134282 
L 140.543468 192.293756 
L 140.576428 192.543319 
L 140.642348 192.824077 
L 140.807147 191.139528 
L 141.004906 192.917663 
L 141.037866 192.824077 
L 141.070826 193.229617 
L 141.103786 192.356147 
L 141.136746 192.948859 
L 141.202665 192.980054 
L 141.433384 190.765184 
L 141.466344 191.170723 
L 141.499304 190.578012 
L 141.532264 190.671598 
L 141.730023 188.207164 
L 141.795943 188.394337 
L 141.828903 188.207164 
L 141.960742 186.803373 
L 141.993702 186.865764 
L 142.092581 184.74448 
L 142.125541 186.273052 
L 142.191461 185.992294 
L 142.290341 187.396085 
L 142.3233 187.052936 
L 142.35626 186.834569 
L 142.38922 187.396085 
L 142.45514 186.647397 
L 142.784738 182.592 
L 142.817698 183.153516 
L 142.850658 182.342437 
L 142.883618 182.311242 
L 142.949538 181.71853 
L 142.982497 182.030484 
L 143.015457 182.18646 
L 143.048417 181.968093 
L 143.443935 179.940395 
L 143.476895 179.316487 
L 143.509855 179.597246 
L 143.674654 180.969841 
L 143.773534 180.002785 
L 143.872413 178.63019 
L 143.905373 179.316487 
L 144.004253 178.349431 
L 144.070173 178.037478 
L 144.103132 178.318236 
L 144.136092 178.567799 
L 144.169052 178.411822 
L 144.333851 176.820859 
L 144.399771 178.131064 
L 144.465691 177.507157 
L 144.66345 178.380627 
L 144.69641 178.255845 
L 144.828249 177.35118 
L 144.993048 178.474213 
L 145.026008 177.943892 
L 145.058968 178.037478 
L 145.124888 178.942143 
L 145.190808 178.474213 
L 145.256727 178.973338 
L 145.289687 179.597246 
L 145.355607 178.942143 
L 145.388567 179.004534 
L 145.520406 180.033981 
L 145.619286 178.380627 
L 145.685205 178.443017 
L 145.784085 177.195203 
L 145.882964 177.382375 
L 146.014804 175.073919 
L 146.047764 175.822607 
L 146.146643 175.573044 
L 146.179603 175.479458 
L 146.212563 175.510654 
L 146.410322 172.703072 
L 146.443282 172.734267 
L 146.476242 172.57829 
L 146.542162 172.359923 
L 146.608081 173.139807 
L 146.641041 173.233393 
L 146.674001 174.949137 
L 146.77288 174.418816 
L 146.80584 174.980333 
L 146.87176 174.543598 
L 146.90472 174.637184 
L 146.97064 174.106863 
L 147.003599 175.947389 
L 147.069519 174.543598 
L 147.102479 174.543598 
L 147.135439 174.761965 
L 147.168399 174.574793 
L 147.333198 172.921439 
L 147.366158 172.796658 
L 147.465037 173.8573 
L 147.497997 173.576542 
L 147.563917 173.888495 
L 147.695756 174.73077 
L 147.860556 172.297532 
L 147.926475 172.328727 
L 147.959435 172.266337 
L 148.058315 170.737764 
L 148.091275 171.143304 
L 148.124234 170.987327 
L 148.157194 171.330476 
L 148.190154 171.767211 
L 148.223114 171.268085 
L 148.256074 171.330476 
L 148.321994 171.174499 
L 148.420873 172.203946 
L 148.453833 171.580039 
L 148.486793 171.548843 
L 148.519753 171.642429 
L 148.651592 170.113857 
L 148.684552 170.332224 
L 148.849351 168.959629 
L 149.475588 162.315017 
L 149.508548 162.377408 
L 149.574468 161.410352 
L 149.640388 161.909478 
L 149.673347 162.252627 
L 149.838147 160.412101 
L 149.871107 160.599273 
L 149.904066 160.100147 
L 149.937026 160.568077 
L 149.969986 160.973617 
L 150.002946 160.692859 
L 150.233665 158.446793 
L 150.299585 158.571574 
L 150.332545 158.509184 
L 150.365504 158.540379 
L 150.398464 158.633965 
L 150.431424 158.322012 
L 150.596223 155.57682 
L 150.629183 155.264867 
L 150.662143 155.888774 
L 150.728063 155.826383 
L 150.826942 154.952913 
L 150.892862 155.17128 
L 150.925822 155.670406 
L 150.991742 155.327257 
L 151.123581 154.609764 
L 151.156541 154.765741 
L 151.32134 157.32376 
L 151.42022 156.606267 
L 151.45318 156.45029 
L 151.486139 157.230174 
L 151.552059 156.668658 
L 151.749818 154.640959 
L 151.782778 154.329006 
L 151.815738 154.578569 
L 151.914617 156.387899 
L 151.947577 155.140085 
L 152.013497 155.545625 
L 152.079417 155.420843 
L 152.145336 156.169532 
L 152.244216 155.10889 
L 152.277176 155.639211 
L 152.409015 156.668658 
L 152.474935 156.263118 
L 152.606774 154.578569 
L 152.639734 154.609764 
L 152.705654 154.952913 
L 152.738614 155.857578 
L 152.837493 155.795188 
L 152.903413 154.952913 
L 152.936373 155.795188 
L 153.101172 154.765741 
L 153.134132 154.921718 
L 153.265971 156.699853 
L 153.397811 155.857578 
L 153.430771 155.98236 
L 153.463731 155.919969 
L 153.52965 155.077694 
L 153.56261 155.17128 
L 153.793329 157.542128 
L 153.826289 157.510932 
L 154.024048 161.441547 
L 154.089968 160.81764 
L 154.122928 160.536882 
L 154.188847 162.09665 
L 154.254767 161.722306 
L 154.287727 161.597524 
L 154.419566 163.469246 
L 154.452526 163.344464 
L 154.485486 163.84359 
L 154.551406 163.594027 
L 154.617325 162.782948 
L 154.650285 163.594027 
L 154.683245 164.405106 
L 154.749165 163.43805 
L 154.782125 163.718809 
L 154.815084 163.687613 
L 154.848044 163.219683 
L 154.913964 163.531636 
L 154.946924 163.406855 
L 155.177643 165.153795 
L 155.210603 165.18499 
L 155.375402 166.994321 
L 155.672041 171.70482 
L 155.705 171.080913 
L 155.73796 170.737764 
L 155.80388 172.453509 
L 155.8698 171.70482 
L 155.90276 171.860797 
L 155.935719 171.642429 
L 155.968679 171.548843 
L 156.001639 171.70482 
L 156.034599 171.580039 
L 156.067559 172.235141 
L 156.100519 171.891992 
L 156.265318 170.83135 
L 156.298278 171.798406 
L 156.331238 171.330476 
L 156.430117 170.020271 
L 156.463077 170.238638 
L 156.496037 169.989075 
L 156.528997 170.082662 
L 156.594916 170.675373 
L 156.627876 169.989075 
L 156.660836 169.864294 
L 156.693796 170.145052 
L 156.759716 170.737764 
L 156.858595 169.08441 
L 156.924515 170.238638 
L 156.957475 169.739513 
L 156.990435 169.396364 
L 157.023395 169.833099 
L 157.155234 170.737764 
L 157.188194 170.675373 
L 157.385953 169.583536 
L 157.484832 170.612983 
L 157.550752 170.519397 
L 157.682592 169.55234 
L 157.748511 171.486453 
L 157.814431 171.174499 
L 157.880351 170.238638 
L 157.913311 170.768959 
L 157.94627 171.392867 
L 158.01219 171.018522 
L 158.04515 170.987327 
L 158.209949 168.148549 
L 158.275869 168.866043 
L 158.308829 168.772456 
L 158.440668 170.893741 
L 158.473628 170.238638 
L 158.506588 170.207443 
L 158.539548 170.332224 
L 158.572508 170.082662 
L 158.605467 170.051466 
L 158.638427 170.269834 
L 158.671387 170.176248 
L 158.737307 169.864294 
L 158.770267 170.956132 
L 158.836186 169.708317 
L 158.869146 169.614731 
L 158.968026 168.834847 
L 159.000986 168.928433 
L 159.033946 168.803652 
L 159.066905 169.022019 
L 159.231705 169.833099 
L 159.462424 167.087907 
L 159.495383 167.462251 
L 159.528343 167.087907 
L 159.660183 165.621725 
L 159.759062 166.245632 
L 159.792022 166.807149 
L 159.824982 165.99607 
L 159.956821 164.467497 
L 160.088661 166.214437 
L 160.121621 165.964874 
L 160.25346 165.403358 
L 160.28642 165.684116 
L 160.385299 164.561083 
L 160.418259 164.654669 
L 160.484179 164.71706 
L 160.945617 159.47624 
L 161.044497 158.727551 
L 161.077456 159.257872 
L 161.143376 159.788193 
L 161.242256 158.477988 
L 161.275216 158.540379 
L 161.308175 159.164286 
L 161.341135 158.072449 
L 161.374095 158.19723 
L 161.472975 159.257872 
L 161.505934 159.039505 
L 161.670734 157.448542 
L 161.604814 159.133091 
L 161.703694 157.635714 
L 161.736653 157.542128 
L 161.769613 157.854081 
L 161.802573 157.573323 
L 161.868493 156.45029 
L 161.934413 156.793439 
L 161.967372 156.668658 
L 162.066252 155.233671 
L 162.099212 155.327257 
L 162.296971 153.767489 
L 162.329931 153.892271 
L 162.362891 153.237168 
L 162.42881 153.486731 
L 162.56065 154.391397 
L 162.59361 154.23542 
L 162.989128 149.649702 
L 163.022088 149.556116 
L 163.055048 150.398391 
L 163.120967 149.337749 
L 163.153927 149.524921 
L 163.186887 149.400139 
L 163.384646 146.561362 
L 163.417606 146.686143 
L 163.483526 146.031041 
L 163.516485 146.062236 
L 163.549445 147.091683 
L 163.615365 146.311799 
L 163.681285 145.313547 
L 163.714245 144.128124 
L 163.780164 144.970398 
L 163.813124 144.970398 
L 163.846084 145.188766 
L 163.879044 144.908008 
L 164.175683 140.72783 
L 164.241602 140.603048 
L 164.274562 139.791969 
L 164.307522 140.852611 
L 164.340482 140.353485 
L 164.373442 141.570104 
L 164.472321 141.164565 
L 164.505281 141.382932 
L 164.76896 138.076224 
L 164.80192 138.201006 
L 165.362237 132.305083 
L 165.395197 132.367474 
L 165.559996 133.864851 
L 165.592956 133.428116 
L 165.658876 133.33453 
L 165.691836 134.551149 
L 165.790715 134.176805 
L 165.856635 133.490507 
L 165.889595 134.145609 
L 165.922555 134.488758 
L 165.988474 134.083219 
L 166.021434 134.083219 
L 166.186234 132.336279 
L 166.219193 132.585841 
L 166.252153 132.242692 
L 166.285113 132.492255 
L 166.318073 132.46106 
L 166.449912 131.774762 
L 166.383993 132.523451 
L 166.482872 131.868348 
L 166.614712 132.554646 
L 166.647671 131.338027 
L 166.713591 132.492255 
L 166.91135 131.369222 
L 166.97727 132.242692 
L 167.04319 129.965431 
L 167.109109 130.963683 
L 167.142069 130.932487 
L 167.175029 130.24619 
L 167.240949 130.277385 
L 167.339828 131.213246 
L 167.372788 131.026074 
L 167.405748 131.088464 
L 167.504628 129.871845 
L 167.537587 130.402166 
L 167.636467 130.776511 
L 167.702387 130.932487 
L 167.768306 130.027822 
L 167.801266 130.121408 
L 167.834226 130.558143 
L 167.867186 130.277385 
L 167.933106 130.30858 
L 168.031985 128.811203 
L 168.064945 128.935985 
L 168.097905 128.717617 
L 168.130865 128.655226 
L 168.262704 129.37272 
L 168.295664 128.873594 
L 168.361584 129.403915 
L 168.394544 129.37272 
L 168.921901 122.509741 
L 168.987821 122.977671 
L 169.020781 122.634522 
L 169.18558 119.982917 
L 169.21854 120.045308 
L 169.416299 117.487288 
L 169.449259 116.80099 
L 169.515179 117.331311 
L 169.548138 117.892828 
L 169.647018 117.799242 
L 169.679978 117.67446 
L 169.712938 117.892828 
L 169.910697 119.265424 
L 170.009576 119.951721 
L 170.042536 119.546182 
L 170.075496 119.234228 
L 170.108456 119.546182 
L 170.306215 121.386708 
L 170.339175 121.324317 
L 170.767653 125.598081 
L 170.932452 128.280882 
L 171.031332 129.279133 
L 171.591649 138.887304 
L 171.624609 138.481764 
L 171.657569 138.356983 
L 171.855328 140.696634 
L 171.921248 140.32229 
L 171.987168 143.067482 
L 172.053087 143.036286 
L 172.086047 142.849114 
L 172.184927 143.972147 
L 172.217886 143.566607 
L 172.250846 143.504217 
L 172.448605 144.68964 
L 172.481565 144.68964 
L 172.514525 144.876812 
L 172.547485 144.658445 
L 172.646365 143.909756 
L 172.679324 144.377687 
L 173.404441 152.769238 
L 173.6022 159.47624 
L 173.931799 171.891992 
L 174.623956 200.404549 
L 175.217233 217.125261 
L 175.250193 217.281238 
L 175.645711 225.610398 
L 175.711631 225.797571 
L 175.744591 225.485617 
L 176.107149 231.943056 
L 176.206029 232.941308 
L 176.370828 235.561718 
L 176.403788 235.062592 
L 176.469707 235.686499 
L 177.689222 258.084766 
L 178.08474 267.037834 
L 178.1177 266.819466 
L 178.249539 267.786522 
L 178.348419 268.535211 
L 178.414339 268.348039 
L 178.480258 268.00489 
L 178.513218 267.724132 
L 178.579138 269.595853 
L 178.645058 269.252704 
L 178.678018 268.971946 
L 178.710977 269.627048 
L 178.743937 269.845416 
L 178.776897 269.502267 
L 178.809857 269.252704 
L 178.842817 269.533462 
L 178.875777 269.845416 
L 179.040576 267.973694 
L 179.139455 267.318592 
L 179.436094 263.107219 
L 179.534974 261.609841 
L 179.567934 261.8906 
L 179.765693 259.613338 
L 179.798653 259.644534 
L 179.963452 256.805756 
L 180.227131 252.937532 
L 180.754488 242.923822 
L 180.985207 234.345099 
L 181.084087 232.566963 
L 181.314806 226.296696 
L 181.908083 209.763157 
L 181.974003 208.016217 
L 183.786795 142.880309 
L 184.248233 124.911783 
L 184.314152 123.040062 
L 185.105189 94.96424 
L 185.171108 93.934793 
L 185.467747 85.262484 
L 185.500707 85.231288 
L 185.533667 84.888139 
L 185.764386 78.929826 
L 185.797346 79.397756 
L 185.830305 78.83624 
L 185.863265 78.929826 
L 186.654302 70.351103 
L 186.720222 70.850228 
L 186.753181 70.600665 
L 186.9839 68.541772 
L 187.01686 68.41699 
L 187.11574 69.820781 
L 187.181659 69.29046 
L 187.247579 68.292209 
L 187.280539 68.853725 
L 187.346459 69.321656 
L 187.379419 69.540023 
L 187.544218 68.073841 
L 187.577178 68.073841 
L 187.643097 68.572967 
L 187.676057 68.479381 
L 187.709017 66.982004 
L 187.774937 67.137981 
L 187.840856 67.761888 
L 187.873816 67.418739 
L 188.005656 66.451683 
L 188.038616 66.451683 
L 188.137495 68.073841 
L 188.434134 71.879675 
L 188.467094 71.879675 
L 188.631893 74.06335 
L 188.664853 73.876178 
L 188.829652 75.061602 
L 188.994451 76.902128 
L 189.060371 77.619621 
L 189.884367 93.903598 
L 190.082126 100.20506 
L 191.367561 139.417625 
L 192.026758 163.968371 
L 192.059718 164.217934 
L 192.422276 179.378878 
L 192.455236 179.815613 
L 192.718915 192.886468 
L 193.444031 220.08882 
L 193.542911 222.958793 
L 194.004349 240.209826 
L 194.333947 248.85094 
L 194.399867 250.847443 
L 195.421623 273.464077 
L 195.751221 278.174576 
L 195.784181 277.893818 
L 195.817141 277.925014 
L 195.98194 280.451838 
L 196.0149 280.295861 
L 196.04786 280.327056 
L 196.245619 281.918019 
L 196.344498 280.826182 
L 196.476338 282.541926 
L 196.509298 282.417145 
L 196.871856 285.630267 
L 196.904816 285.255923 
L 196.937776 285.973416 
L 196.970736 285.661462 
L 197.036655 286.534932 
L 197.069615 286.129393 
L 197.234414 284.912774 
L 197.333294 285.224727 
L 197.399214 285.567876 
L 197.564013 283.384201 
L 197.596973 283.820936 
L 197.629933 283.009857 
L 197.662892 283.197029 
L 197.695852 283.134638 
L 197.926571 280.576619 
L 197.959531 280.919768 
L 197.992491 280.483033 
L 198.058411 279.890321 
L 198.15729 281.98041 
L 198.19025 281.075745 
L 198.25617 280.888573 
L 198.32209 281.418894 
L 198.882407 272.996147 
L 198.948327 273.744836 
L 198.981287 273.900812 
L 199.179046 270.781277 
L 199.244965 270.6253 
L 199.475684 266.569903 
L 199.508644 267.225006 
L 199.541604 266.569903 
L 199.805283 259.613338 
L 200.068962 252.656774 
L 200.101922 252.625578 
L 200.563359 238.525277 
L 200.827038 231.287954 
L 203.463826 116.114692 
L 203.562706 112.745594 
L 204.97998 70.631861 
L 205.01294 71.255768 
L 205.045899 70.10154 
L 205.705096 60.368588 
L 205.836936 58.777625 
L 205.869896 59.089578 
L 205.902856 58.122522 
L 206.001735 58.465671 
L 206.265414 55.127768 
L 206.331334 55.72048 
L 206.397253 55.845261 
L 206.463173 55.065377 
L 206.595012 56.281996 
L 206.759812 55.065377 
L 206.924611 53.568 
L 207.08941 56.219605 
L 207.12237 55.907652 
L 207.15533 55.72048 
L 207.18829 55.751675 
L 207.320129 56.406778 
L 207.451969 55.72048 
L 207.517888 56.937099 
L 207.748607 60.493369 
L 208.012286 63.363342 
L 208.045246 63.113779 
L 208.078206 62.833021 
L 208.111166 63.17617 
L 208.803323 77.526035 
L 209.099961 82.454901 
L 209.29772 87.508549 
L 209.693239 97.803017 
L 209.726198 97.459868 
L 210.583155 122.91528 
L 210.846833 133.80246 
L 210.912753 135.923745 
L 212.297067 195.163729 
L 212.923304 220.650337 
L 213.483622 238.275714 
L 213.714341 246.105749 
L 213.81322 248.227033 
L 214.043939 255.620333 
L 214.505377 266.663489 
L 214.604257 267.817718 
L 214.637216 267.755327 
L 214.900895 273.807226 
L 215.362333 278.673702 
L 215.395293 278.236967 
L 215.428253 278.611311 
L 215.527132 281.730847 
L 215.626012 280.982159 
L 215.691932 281.886824 
L 215.724892 282.947466 
L 215.790811 282.479536 
L 215.823771 282.073996 
L 215.856731 282.105191 
L 215.955611 283.914522 
L 215.98857 283.165834 
L 216.02153 283.103443 
L 216.12041 281.918019 
L 216.186329 284.663211 
L 216.252249 284.070499 
L 216.285209 283.789741 
L 216.318169 284.008108 
L 216.482968 287.034058 
L 216.515928 286.878081 
L 216.548888 286.098197 
L 216.614808 287.002863 
L 216.746647 286.410151 
L 216.779607 286.659714 
L 216.944406 289.498491 
L 217.043286 289.311319 
L 217.175125 288.250677 
L 217.208085 288.593826 
L 217.339924 287.969919 
L 217.372884 288.219482 
L 217.405844 287.907528 
L 217.504724 286.503737 
L 217.570643 286.784495 
L 217.603603 286.784495 
L 217.900242 283.758545 
L 217.933202 283.945718 
L 217.966162 283.602569 
L 218.065041 283.571373 
L 218.098001 283.446592 
L 218.130961 284.164085 
L 218.19688 283.384201 
L 218.29576 281.793238 
L 218.36168 281.855629 
L 218.427599 281.169331 
L 218.559439 278.268162 
L 218.592399 278.767288 
L 218.658318 278.112186 
L 218.889037 275.148627 
L 219.086796 271.779528 
L 219.218636 268.722383 
L 219.416395 265.259698 
L 219.449355 265.540456 
L 220.405191 244.140441 
L 220.60295 235.374545 
L 220.899588 225.672789 
L 220.932548 225.32964 
L 221.426946 204.83429 
L 221.954304 185.025238 
L 222.382782 169.770708 
L 222.67942 156.419095 
L 223.371577 129.996627 
L 223.536377 124.693416 
L 223.767096 116.052302 
L 224.030774 110.093988 
L 224.459252 98.239752 
L 224.492212 98.021385 
L 224.788851 90.877648 
L 224.821811 91.501555 
L 224.854771 91.096015 
L 225.05253 84.794553 
L 225.283249 79.740905 
L 225.349168 79.179389 
L 225.415088 79.397756 
L 225.448048 79.896882 
L 225.481008 79.023412 
L 225.513968 79.335366 
L 225.876526 73.501834 
L 225.909486 74.219327 
L 225.942446 73.18988 
L 226.305004 69.914368 
L 226.370924 70.132735 
L 226.469803 70.288712 
L 226.502763 69.602414 
L 226.535723 70.413493 
L 226.568683 70.039149 
L 226.601643 69.914368 
L 226.766442 68.728944 
L 226.799402 69.134484 
L 226.865322 68.635358 
L 226.997161 69.415242 
L 227.16196 67.574716 
L 227.22788 67.917865 
L 227.359719 66.264511 
L 227.392679 65.983752 
L 227.425639 66.482878 
L 227.458599 66.420487 
L 227.524519 66.264511 
L 227.590438 67.231567 
L 227.623398 67.169176 
L 227.755238 69.508828 
L 227.788198 68.572967 
L 227.821157 68.760139 
L 227.854117 68.697749 
L 227.985957 67.699497 
L 228.084836 68.697749 
L 228.117796 68.011451 
L 228.183716 68.323404 
L 228.546274 71.942066 
L 228.579234 71.255768 
L 228.645154 72.035652 
L 228.678114 71.817284 
L 228.711073 72.066847 
L 228.776993 71.84848 
L 228.809953 72.347605 
L 228.842913 71.754894 
L 228.875873 71.942066 
L 229.139551 74.000959 
L 229.43619 77.401253 
L 229.732829 82.766855 
L 230.128347 90.035373 
L 230.326106 95.369779 
L 230.424986 96.960743 
L 230.952343 110.530723 
L 231.018263 111.872124 
L 232.798095 172.609485 
L 233.391372 195.506878 
L 233.688011 206.394058 
L 234.01761 220.619141 
L 234.709766 242.799041 
L 234.742726 242.955017 
L 235.072325 251.658522 
L 235.270084 255.963482 
L 235.434883 259.114213 
L 235.665602 263.200805 
L 236.12704 275.585362 
L 236.16 274.899064 
L 236.19296 275.491776 
L 236.423679 280.23347 
L 236.489599 280.857377 
L 236.720317 283.945718 
L 236.753277 283.009857 
L 236.786237 283.883327 
L 237.016956 286.722104 
L 237.181755 288.375458 
L 237.379515 292.087706 
L 237.412474 291.744557 
L 237.478394 292.118901 
L 237.610234 293.990623 
L 237.643193 293.585083 
L 237.873912 295.456805 
L 237.939832 294.832897 
L 238.005752 294.084209 
L 238.104631 295.488 
L 238.137591 295.051265 
L 238.203511 294.271381 
L 238.269431 294.552139 
L 238.30239 294.427358 
L 238.40127 295.363219 
L 238.43423 295.08246 
L 238.46719 295.176046 
L 238.566069 294.61453 
L 238.599029 294.988874 
L 238.631989 294.739311 
L 238.697909 294.801702 
L 238.763828 293.897037 
L 238.796788 294.1466 
L 238.829748 293.585083 
L 238.862708 293.709865 
L 238.895668 293.647474 
L 239.027507 292.618027 
L 239.126387 293.210739 
L 239.357106 291.276627 
L 239.390066 291.214236 
L 239.521905 288.874584 
L 239.752624 283.664959 
L 240.477741 269.034337 
L 241.071018 250.878638 
L 241.103978 250.847443 
L 241.960934 221.305439 
L 242.455332 200.498135 
L 242.686051 192.418538 
L 243.477087 157.542128 
L 244.795481 109.158128 
L 246.377554 73.844983 
L 246.410514 73.59542 
L 246.443474 73.813787 
L 246.476434 74.93682 
L 246.509394 74.125741 
L 246.740113 70.132735 
L 246.773072 70.850228 
L 246.838992 69.883172 
L 246.871952 70.319907 
L 246.904912 69.633609 
L 246.937872 69.945563 
L 247.135631 67.449934 
L 247.168591 67.824279 
L 247.33339 64.829524 
L 247.432269 63.737687 
L 247.728908 60.805323 
L 247.761868 61.491621 
L 247.794828 60.55576 
L 247.860748 60.430979 
L 247.959627 61.491621 
L 248.025547 61.460426 
L 248.058507 61.460426 
L 248.124426 61.335644 
L 248.157386 61.897161 
L 248.190346 62.801826 
L 248.256266 61.616402 
L 248.289226 61.990747 
L 248.322186 61.460426 
L 248.355145 61.678793 
L 248.454025 60.55576 
L 248.486985 61.148472 
L 248.618824 59.744681 
L 248.750664 60.742932 
L 248.981383 59.713485 
L 249.014342 60.025439 
L 249.080262 60.150221 
L 249.113222 59.807072 
L 249.212102 61.273253 
L 249.245061 61.179667 
L 249.343941 60.275002 
L 249.47578 61.772379 
L 249.5417 61.242058 
L 249.60762 61.554012 
L 249.64058 61.460426 
L 249.805379 63.207366 
L 249.838339 63.051389 
L 250.530496 73.127489 
L 250.563455 72.846731 
L 250.860094 81.144696 
L 251.387452 91.189602 
L 251.420412 90.472108 
L 251.453371 91.657532 
L 251.651131 97.210306 
L 253.035444 150.835126 
L 254.518638 214.692023 
L 254.551598 214.879195 
L 254.947116 231.225563 
L 256.067751 262.795265 
L 256.133671 262.108967 
L 256.23255 264.417424 
L 256.661028 274.431133 
L 256.693988 274.462329 
L 256.825827 277.14513 
L 256.858787 276.458832 
L 257.023587 278.236967 
L 257.221346 281.294112 
L 257.386145 283.696155 
L 257.583904 286.940472 
L 257.616864 286.690909 
L 257.682784 286.971667 
L 257.715743 287.096449 
L 257.880543 288.437849 
L 257.946462 288.50024 
L 258.078302 286.472542 
L 258.210141 288.281872 
L 258.276061 286.815691 
L 258.309021 287.439598 
L 258.341981 287.501988 
L 258.37494 287.346012 
L 258.5727 289.77925 
L 258.605659 289.217733 
L 258.671579 289.342515 
L 258.704539 289.436101 
L 258.737499 290.24718 
L 258.803419 290.184789 
L 259.100057 288.063505 
L 259.165977 287.907528 
L 259.264856 289.248928 
L 259.297816 289.217733 
L 259.429656 288.406654 
L 259.495575 289.966422 
L 259.561495 289.685663 
L 259.858134 286.067002 
L 259.891094 286.254174 
L 259.989973 286.722104 
L 260.022933 287.657965 
L 260.088853 286.628518 
L 260.121813 286.254174 
L 260.187732 286.316565 
L 260.253652 287.096449 
L 260.286612 286.285369 
L 260.352532 286.004611 
L 260.385491 286.160588 
L 260.418451 286.566128 
L 260.451411 285.692658 
L 260.484371 285.973416 
L 260.517331 285.349509 
L 260.71509 283.197029 
L 260.74805 283.602569 
L 260.78101 283.009857 
L 260.81397 282.85388 
L 260.846929 282.947466 
L 261.011729 279.484781 
L 261.077648 280.732596 
L 261.110608 280.389447 
L 261.308367 277.457083 
L 262.165323 258.39672 
L 262.363083 252.500797 
L 262.758601 240.147435 
L 263.648517 211.291729 
L 263.912196 201.496387 
L 264.142915 192.480928 
L 264.538433 176.571296 
L 267.34002 79.148193 
L 267.933298 71.786089 
L 267.966257 73.345857 
L 268.032177 73.002708 
L 268.361776 68.728944 
L 268.394736 69.758391 
L 268.460655 69.165679 
L 268.658414 68.167427 
L 268.691374 68.292209 
L 268.823214 67.231567 
L 268.856174 67.761888 
L 268.889133 67.044395 
L 268.922093 67.106785 
L 268.988013 66.67005 
L 269.020973 66.763636 
L 269.152812 68.760139 
L 269.185772 68.697749 
L 269.284652 69.540023 
L 269.383531 67.605911 
L 269.416491 68.042646 
L 269.449451 67.730692 
L 269.482411 68.448186 
L 269.515371 68.41699 
L 269.61425 66.950809 
L 269.64721 67.262762 
L 269.812009 68.510576 
L 270.141608 65.359845 
L 270.174568 65.702994 
L 270.471206 68.105037 
L 270.570086 67.699497 
L 270.603046 67.013199 
L 270.668965 67.418739 
L 270.965604 71.879675 
L 270.998564 70.97501 
L 271.031524 72.129238 
L 271.064484 72.534778 
L 271.097443 71.817284 
L 271.130403 71.630112 
L 271.328162 74.593671 
L 271.361122 74.406499 
L 271.394082 74.624867 
L 271.460002 76.590174 
L 271.558881 76.21583 
L 271.756641 77.370058 
L 271.82256 78.711458 
L 272.152159 84.700967 
L 272.382878 88.662778 
L 272.415838 88.662778 
L 272.646557 92.842956 
L 272.679516 92.780565 
L 272.877275 95.650538 
L 272.910235 94.839458 
L 273.009115 94.901849 
L 273.042075 94.933044 
L 273.206874 97.99019 
L 273.404633 101.296897 
L 274.09679 114.18058 
L 274.657108 129.528696 
L 274.887826 135.892549 
L 275.250385 143.34824 
L 275.810702 159.569826 
L 276.140301 170.581787 
L 276.733578 188.144774 
L 277.129096 196.411544 
L 277.491655 204.054406 
L 277.590534 205.302221 
L 277.887173 213.163451 
L 277.920133 213.319427 
L 278.150852 218.404271 
L 278.249731 220.338383 
L 278.744129 229.69699 
L 278.777089 229.509818 
L 278.843009 229.478623 
L 279.106688 232.473377 
L 279.139647 232.067838 
L 279.172607 232.535768 
L 279.469246 237.49583 
L 279.568126 237.121485 
L 279.601085 236.715946 
L 279.634045 236.903118 
L 279.831804 238.431691 
L 279.864764 238.462886 
L 280.227323 244.327613 
L 280.260282 244.171636 
L 280.392122 246.324116 
L 280.556921 248.320619 
L 280.622841 247.727907 
L 280.655801 248.102251 
L 280.68876 248.102251 
L 280.88652 249.31887 
L 281.051319 249.817996 
L 281.084279 249.880387 
L 281.644596 256.057068 
L 281.677556 255.994677 
L 281.875315 257.866398 
L 282.007155 258.739868 
L 282.073074 257.99118 
L 282.106034 258.39672 
L 282.732271 266.195559 
L 282.765231 265.665238 
L 282.798191 265.353284 
L 282.831151 265.665238 
L 282.99595 268.410429 
L 283.02891 268.316843 
L 283.06187 268.129671 
L 283.160749 270.126174 
L 283.226669 269.408681 
L 283.259629 269.159118 
L 283.292589 269.75183 
L 283.325549 269.658244 
L 283.391468 270.968449 
L 283.490348 270.843667 
L 283.556268 270.344542 
L 283.622187 270.594104 
L 283.688107 271.124426 
L 283.819946 274.368743 
L 283.885866 273.370491 
L 283.918826 273.838422 
L 284.017706 274.181571 
L 284.050665 273.557663 
L 284.149545 273.744836 
L 284.182505 273.838422 
L 284.413224 272.278654 
L 284.446184 272.621803 
L 284.545063 273.339296 
L 284.578023 273.089733 
L 284.610983 272.434631 
L 284.643943 272.84017 
L 284.709862 274.555915 
L 284.808742 274.181571 
L 284.874662 274.431133 
L 285.105381 269.907807 
L 285.138341 270.032588 
L 285.1713 269.939002 
L 285.698658 261.110716 
L 285.995297 256.057068 
L 286.061216 255.245988 
L 286.390815 247.135195 
L 287.082972 227.544511 
L 287.742169 204.179188 
L 288.005848 193.292008 
L 288.467286 174.637184 
L 289.456081 135.5494 
L 290.148238 113.743845 
L 290.906315 97.210306 
L 290.972234 96.929547 
L 291.334793 87.633331 
L 291.532552 85.824 
L 291.598472 86.22954 
L 291.92807 81.238282 
L 292.02695 81.612627 
L 291.99399 81.207087 
L 292.05991 81.394259 
L 292.389508 76.465393 
L 292.422468 76.68376 
L 292.455428 77.713207 
L 292.521347 76.995714 
L 292.554307 76.777346 
L 292.587267 76.902128 
L 292.620227 77.432449 
L 292.653187 76.371807 
L 292.686147 76.371807 
L 292.719107 75.966267 
L 292.752066 76.153439 
L 292.850946 77.494839 
L 292.883906 77.307667 
L 293.147585 75.061602 
L 293.180545 74.968015 
L 293.213504 75.217578 
L 293.246464 74.812039 
L 293.279424 74.375304 
L 293.345344 74.968015 
L 293.411263 74.344108 
L 293.674942 71.006205 
L 293.707902 72.004456 
L 293.806782 71.84848 
L 293.872701 72.098043 
L 294.30118 76.621369 
L 294.367099 76.278221 
L 294.400059 76.340611 
L 294.630778 74.593671 
L 294.795577 75.997462 
L 294.861497 75.435946 
L 294.894457 76.371807 
L 294.960377 75.373555 
L 294.993336 76.122244 
L 295.224055 74.812039 
L 295.388855 76.68376 
L 295.454774 76.403002 
L 295.520694 78.087551 
L 295.586614 77.058104 
L 295.685493 78.181137 
L 295.718453 78.118747 
L 295.883252 76.870932 
L 295.916212 77.494839 
L 295.982132 79.30417 
L 296.113971 80.739157 
L 296.146931 80.364812 
L 296.245811 82.860441 
L 296.311731 82.205338 
L 296.34469 82.33012 
L 296.37765 82.018166 
L 296.41061 82.454901 
L 296.44357 82.610878 
L 296.47653 82.205338 
L 296.50949 82.423706 
L 296.839088 86.479103 
L 297.036847 90.004178 
L 297.168687 92.156658 
L 297.333486 96.149663 
L 297.794924 105.757834 
L 298.091563 116.177083 
L 298.289322 121.324317 
L 298.322281 121.16834 
L 298.421161 123.913532 
L 298.849639 138.388178 
L 298.882599 138.388178 
L 299.146278 147.809176 
L 299.311077 152.238917 
L 299.475876 160.068952 
L 300.86019 211.229338 
L 301.156829 218.778615 
L 301.750106 235.873671 
L 301.783066 235.218569 
L 301.816026 236.435188 
L 302.112665 244.01566 
L 302.145624 243.859683 
L 302.574102 251.720913 
L 302.607062 251.627327 
L 302.640022 251.783304 
L 302.771862 253.062313 
L 302.837781 252.407211 
L 302.903701 252.781555 
L 303.13442 256.119458 
L 303.20034 256.618584 
L 303.398099 259.394971 
L 303.694737 262.264944 
L 303.760657 262.015381 
L 303.826577 262.982437 
L 303.925456 262.296139 
L 303.958416 262.35853 
L 304.189135 264.448619 
L 304.288015 264.261447 
L 304.353934 264.011884 
L 304.386894 264.10547 
L 304.485774 263.575149 
L 304.551694 264.10547 
L 304.584653 263.824712 
L 304.716493 262.857656 
L 304.749453 262.857656 
L 305.24385 255.682723 
L 305.34273 255.901091 
L 305.540489 258.739868 
L 305.804168 256.556193 
L 305.870088 257.086515 
L 305.903048 256.899342 
L 305.936007 256.556193 
L 305.968967 257.58564 
L 306.034887 256.71217 
L 306.133766 257.273687 
L 306.166726 256.649779 
L 306.232646 257.211296 
L 306.265606 257.367273 
L 306.298566 257.086515 
L 306.364485 257.273687 
L 306.529285 255.8387 
L 306.727044 258.115961 
L 306.760004 257.429663 
L 306.891843 254.466104 
L 307.089602 252.469602 
L 307.188482 254.154151 
L 307.221442 253.249485 
L 307.287361 252.937532 
L 307.320321 253.530244 
L 307.51808 252.531992 
L 307.584 252.906337 
L 307.61696 252.531992 
L 307.68288 252.438406 
L 307.715839 251.596132 
L 307.781759 252.064062 
L 307.814719 252.064062 
L 307.847679 252.34482 
L 307.880639 251.93928 
L 308.012478 251.097006 
L 308.177277 249.31887 
L 308.276157 250.660271 
L 308.342077 250.504294 
L 308.440956 251.128201 
L 308.473916 250.847443 
L 308.671675 248.227033 
L 308.836474 245.856186 
L 308.869434 246.043358 
L 308.968314 244.88913 
L 309.001274 245.325865 
L 309.067193 245.481841 
L 309.297912 242.26872 
L 309.627511 238.119737 
L 309.660471 238.150932 
L 309.82527 235.34335 
L 309.957109 236.435188 
L 309.990069 236.279211 
L 310.121909 233.752387 
L 310.154868 233.939559 
L 310.187828 235.031397 
L 310.220788 233.970754 
L 310.649266 226.234306 
L 310.682226 227.045385 
L 310.715186 226.015938 
L 311.539182 211.010971 
L 311.703982 206.238081 
L 311.736941 207.236333 
L 311.934701 201.714754 
L 312.00062 201.839536 
L 312.0995 199.094344 
L 312.297259 193.94711 
L 312.330219 194.009501 
L 314.604449 133.864851 
L 314.670368 133.396921 
L 314.835168 130.027822 
L 314.868127 130.30858 
L 315.263646 122.104201 
L 315.296605 122.291373 
L 315.329565 121.885834 
L 315.494365 118.54793 
L 315.889883 112.059296 
L 315.922843 112.152882 
L 315.955802 111.934515 
L 316.186521 107.941509 
L 316.219481 108.378244 
L 316.252441 107.847923 
L 316.384281 106.475327 
L 316.41724 106.912062 
L 316.4502 106.256959 
L 316.746839 101.796023 
L 316.812759 102.232758 
L 316.878678 102.388735 
L 317.043478 100.891358 
L 317.076437 101.234507 
L 317.142357 100.891358 
L 317.307156 96.180859 
L 317.340116 96.24325 
L 317.406036 96.492812 
L 317.570835 98.270948 
L 317.768594 95.744124 
L 317.801554 95.775319 
L 317.834514 96.368031 
L 317.900434 96.149663 
L 317.966353 96.024882 
L 318.065233 97.834213 
L 318.131153 97.678236 
L 318.262992 94.652286 
L 318.295952 95.244998 
L 318.394832 94.777068 
L 318.559631 96.586398 
L 318.592591 96.524008 
L 318.625551 96.773571 
L 318.65851 96.430422 
L 318.69147 96.399226 
L 318.72443 96.617594 
L 318.856269 94.621091 
L 318.889229 94.714677 
L 318.988109 95.369779 
L 318.955149 94.683482 
L 319.021069 95.244998 
L 319.119948 94.340333 
L 319.152908 94.589896 
L 319.383627 93.342081 
L 319.449547 93.622839 
L 319.548426 94.184356 
L 319.647306 92.219048 
L 319.680266 92.468611 
L 319.713226 92.281439 
L 319.779145 93.061323 
L 319.878025 90.65928 
L 319.910985 91.657532 
L 320.075784 90.222545 
L 320.372423 86.385516 
L 320.405383 86.416712 
L 320.438342 87.1654 
L 320.504262 86.385516 
L 320.570182 85.41846 
L 320.636102 85.792805 
L 320.669061 85.917586 
L 320.702021 85.480851 
L 320.767941 85.855195 
L 320.800901 86.759861 
L 320.86682 85.824 
L 320.93274 86.603884 
L 320.9657 86.22954 
L 321.03162 86.29193 
L 321.097539 85.324874 
L 321.196419 83.328371 
L 321.262339 83.952279 
L 321.328258 84.763358 
L 321.394178 84.54499 
L 321.460098 84.856944 
L 321.657857 87.227791 
L 321.690817 87.071814 
L 321.855616 89.068317 
L 321.954496 88.163652 
L 321.987455 88.413215 
L 322.020415 88.413215 
L 322.053375 88.194847 
L 322.086335 88.226043 
L 322.218174 90.378522 
L 322.284094 90.784062 
L 322.317054 90.690476 
L 322.350014 90.284936 
L 322.382974 90.815257 
L 322.415934 90.815257 
L 322.514813 91.189602 
L 322.547773 90.877648 
L 322.712572 93.435667 
L 322.745532 93.373277 
L 323.20697 100.392232 
L 323.27289 99.861911 
L 323.30585 100.267451 
L 323.404729 100.984944 
L 323.602488 104.447629 
L 324.327605 121.480294 
L 324.360565 121.199536 
L 324.492404 125.223737 
L 324.690163 131.58759 
L 324.887922 136.142112 
L 325.316401 153.580317 
L 325.645999 165.559335 
L 326.107437 183.247103 
L 326.469995 194.602213 
L 328.612386 247.447149 
L 328.645346 246.386507 
L 328.711265 247.104 
L 329.337503 256.119458 
L 329.403422 255.557942 
L 329.469342 255.183598 
L 329.733021 258.147157 
L 329.79894 258.022375 
L 329.8319 258.646282 
L 329.9967 257.367273 
L 330.029659 257.648031 
L 330.062619 257.148905 
L 330.194459 255.464356 
L 330.260378 255.682723 
L 330.359258 256.462607 
L 330.392218 256.213044 
L 330.425178 255.994677 
L 330.458138 256.493803 
L 330.491097 256.868147 
L 330.524057 256.587389 
L 330.589977 255.433161 
L 330.853656 252.313625 
L 330.886616 252.656774 
L 330.919575 252.625578 
L 330.985495 251.097006 
L 331.051415 251.502545 
L 331.084375 251.720913 
L 331.117335 251.47135 
L 331.150294 251.097006 
L 331.216214 251.440155 
L 331.249174 251.502545 
L 331.282134 252.438406 
L 331.348054 251.658522 
L 331.381013 251.783304 
L 331.413973 251.564936 
L 331.446933 251.627327 
L 331.479893 251.596132 
L 331.644692 250.785052 
L 331.677652 251.128201 
L 331.710612 250.473099 
L 331.743572 250.753857 
L 331.875411 249.911582 
L 331.908371 250.504294 
L 331.941331 249.786801 
L 332.07317 249.069308 
L 332.13909 249.006917 
L 332.17205 249.506043 
L 332.20501 249.25648 
L 332.23797 249.786801 
L 332.270929 250.410708 
L 332.336849 249.72441 
L 332.468689 251.315373 
L 332.402769 249.537238 
L 332.501648 250.504294 
L 332.567568 249.662019 
L 332.633488 249.755605 
L 332.765327 250.317122 
L 332.798287 250.036364 
L 332.831247 250.722662 
L 332.897167 250.379513 
L 333.391564 242.923822 
L 333.457484 243.922074 
L 333.490444 243.079799 
L 333.655243 240.864928 
L 333.688203 240.958515 
L 333.721163 240.927319 
L 333.820042 241.176882 
L 333.984842 240.11624 
L 334.116681 238.088542 
L 334.182601 239.055598 
L 334.215561 239.211574 
L 334.248521 238.962012 
L 334.31444 238.806035 
L 334.3474 239.024402 
L 334.38036 238.930816 
L 334.644039 235.998453 
L 334.775878 235.998453 
L 334.907718 234.93781 
L 335.039557 235.936062 
L 335.072517 236.029648 
L 335.402115 231.818275 
L 335.533955 230.726437 
L 335.599874 230.851219 
L 335.632834 231.506321 
L 335.665794 231.38154 
L 335.896513 227.95005 
L 335.962433 227.170166 
L 336.028353 227.326143 
L 336.061312 227.513315 
L 336.193152 223.083574 
L 336.324991 221.866956 
L 336.390911 221.929346 
L 336.423871 221.461416 
L 336.456831 221.960542 
L 336.48979 221.087072 
L 336.58867 220.587946 
L 336.852349 216.002228 
L 337.181947 213.444209 
L 337.445626 205.676565 
L 337.577466 204.272774 
L 337.907064 196.380348 
L 338.170743 192.418538 
L 338.236663 193.01125 
L 338.269623 192.948859 
L 338.302582 193.01125 
L 340.148334 155.763992 
L 340.181294 156.45029 
L 340.214254 156.075946 
L 340.609772 147.996348 
L 340.675692 146.717338 
L 340.97233 140.072727 
L 341.00529 139.91675 
L 341.03825 140.259899 
L 341.07121 141.133369 
L 341.13713 140.634244 
L 341.829287 128.156101 
L 341.862246 128.124905 
L 342.125925 124.038313 
L 342.158885 124.319072 
L 342.191845 123.944727 
L 342.257765 123.507992 
L 342.323684 121.230731 
L 342.389604 121.792248 
L 342.521443 119.951721 
L 342.554403 120.076503 
L 342.587363 120.138894 
L 342.653283 119.265424 
L 342.818082 117.580874 
L 343.34544 112.496031 
L 343.3784 113.088743 
L 343.477279 113.587868 
L 343.510239 113.057547 
L 343.543199 113.30711 
L 343.675038 114.960464 
L 343.707998 114.274166 
L 343.773918 113.71265 
L 343.839838 113.806236 
L 343.872797 113.681455 
L 343.905757 113.962213 
L 343.938717 113.899822 
L 344.169436 110.499528 
L 344.202396 110.717896 
L 344.301275 111.528975 
L 344.367195 111.217021 
L 344.597914 107.348797 
L 344.630874 107.411188 
L 344.696794 108.035095 
L 344.762713 107.504774 
L 344.927513 105.633052 
L 345.092312 107.535969 
L 345.224151 105.601857 
L 345.55375 103.511768 
L 345.652629 102.794275 
L 345.685589 102.82547 
L 345.718549 103.106228 
L 345.751509 102.981447 
L 345.883348 102.139172 
L 345.916308 102.263954 
L 345.949268 102.544712 
L 345.982228 102.263954 
L 346.114067 100.891358 
L 346.147027 101.328093 
L 346.212947 100.953749 
L 346.344786 98.770074 
L 346.278867 101.172116 
L 346.377746 99.300395 
L 346.542545 100.922553 
L 346.575505 100.517014 
L 346.608465 100.517014 
L 346.740305 100.080279 
L 346.773264 100.361037 
L 346.806224 100.017888 
L 346.872144 98.645292 
L 346.938064 99.238004 
L 346.971024 99.79952 
L 347.036943 99.050832 
L 347.168783 97.553455 
L 347.201743 97.927799 
L 347.267662 99.549957 
L 347.333582 99.425176 
L 347.465421 99.986692 
L 347.498381 99.73713 
L 347.564301 99.861911 
L 347.69614 101.796023 
L 347.7291 101.764828 
L 347.76206 100.984944 
L 347.82798 101.390484 
L 347.992779 102.82547 
L 348.355337 100.142669 
L 348.421257 100.236255 
L 348.487177 100.423427 
L 348.651976 98.208557 
L 348.684936 98.364534 
L 348.717896 98.302143 
L 348.783815 98.021385 
L 348.816775 98.177362 
L 348.882695 98.146166 
L 348.981575 99.206809 
L 349.113414 100.922553 
L 349.179334 100.236255 
L 349.212293 99.955497 
L 349.245253 100.142669 
L 349.475972 103.168619 
L 349.508932 103.075033 
L 349.90445 109.158128 
L 350.10221 111.56017 
L 350.596607 118.797493 
L 350.893246 124.038313 
L 350.926206 124.069509 
L 351.222844 131.899544 
L 353.628914 195.881222 
L 353.958512 205.645369 
L 354.123311 209.731961 
L 354.584749 222.022932 
L 354.650669 223.208356 
L 354.881388 227.263752 
L 355.013228 229.166669 
L 355.145067 231.319149 
L 355.178027 231.256758 
L 355.474665 236.903118 
L 355.639465 241.39525 
L 355.936103 245.980967 
L 356.100903 247.852689 
L 356.133862 247.57193 
L 356.166822 248.102251 
L 356.331622 250.441903 
L 356.397541 250.285926 
L 356.463461 249.568433 
L 356.529381 249.817996 
L 356.66122 251.845694 
L 356.69418 251.252983 
L 356.891939 253.436658 
L 356.924899 252.843946 
L 356.957859 253.530244 
L 357.188578 257.211296 
L 357.320417 255.807505 
L 357.485216 258.147157 
L 357.518176 257.959985 
L 357.551136 257.772812 
L 357.584096 258.084766 
L 357.617056 258.115961 
L 357.650016 258.365524 
L 357.682976 258.147157 
L 357.847775 255.214793 
L 357.946654 255.090012 
L 358.012574 256.057068 
L 358.078494 256.275435 
L 358.144413 256.24424 
L 358.177373 255.495551 
L 358.210333 256.369021 
L 358.342173 257.959985 
L 358.408092 257.024124 
L 358.441052 257.180101 
L 358.474012 258.115961 
L 358.539932 257.086515 
L 358.572892 257.086515 
L 358.803611 253.842197 
L 358.86953 254.96523 
L 358.96841 255.713919 
L 359.00137 255.464356 
L 359.199129 253.280681 
L 359.232089 253.561439 
L 359.265048 252.781555 
L 359.363928 252.81275 
L 359.396888 252.531992 
L 359.429848 253.124704 
L 359.660567 256.088263 
L 359.693527 255.932286 
L 359.726486 255.8387 
L 359.792406 253.935783 
L 359.858326 254.060565 
L 359.891286 254.684472 
L 359.924246 254.528495 
L 360.089045 252.687969 
L 360.286804 254.996426 
L 360.484563 252.81275 
L 360.649362 249.474847 
L 360.682322 249.755605 
L 360.913041 245.388255 
L 360.946001 246.916828 
L 361.011921 245.325865 
L 361.308559 242.455892 
L 361.407439 243.454143 
L 361.440399 243.110994 
L 361.605198 241.676008 
L 361.638158 242.081547 
L 361.934796 236.341602 
L 362.099596 233.284456 
L 362.231435 231.662298 
L 362.264395 232.25501 
L 362.330315 231.880665 
L 362.857672 227.357338 
L 362.890632 227.762878 
L 363.055431 224.362584 
L 363.088391 224.580952 
L 363.121351 224.768124 
L 363.681669 215.72147 
L 363.879428 211.978027 
L 363.945347 212.009222 
L 363.978307 212.820302 
L 364.044227 212.258785 
L 365.000063 194.539822 
L 365.098942 192.668101 
L 365.296701 187.957602 
L 365.428541 185.898708 
L 365.461501 186.49142 
L 365.494461 185.61795 
L 365.65926 183.652642 
L 365.988858 178.255845 
L 366.384377 169.427559 
L 366.450296 169.645926 
L 366.483256 169.614731 
L 366.713975 164.561083 
L 367.142453 157.573323 
L 367.175413 157.32376 
L 367.439092 151.240665 
L 368.065329 141.070979 
L 368.098289 141.289346 
L 368.131249 141.320542 
L 368.197168 141.351737 
L 368.263088 140.32229 
L 368.559727 135.674182 
L 368.625647 135.611791 
L 369.482603 120.762801 
L 369.515563 121.230731 
L 369.548522 120.762801 
L 369.713322 118.111195 
L 369.878121 116.083497 
L 369.911081 116.270669 
L 370.04292 115.677957 
L 370.10884 116.114692 
L 370.339559 113.026352 
L 370.372519 113.587868 
L 370.405479 112.932766 
L 370.669157 110.749091 
L 370.702117 111.029849 
L 370.735077 110.873872 
L 370.899876 108.690197 
L 371.097635 109.470081 
L 371.130595 108.721393 
L 371.229475 108.877369 
L 371.328354 107.255211 
L 371.493154 104.915559 
L 371.526114 105.04034 
L 371.690913 106.100983 
L 371.822752 105.508271 
L 371.855712 106.100983 
L 371.888672 105.44588 
L 371.954592 105.945006 
L 372.21827 104.541215 
L 372.25123 104.915559 
L 372.28419 104.322847 
L 372.31715 104.354043 
L 372.547869 103.012642 
L 372.580829 103.168619 
L 372.613789 103.168619 
L 372.679708 102.731884 
L 372.811548 104.821973 
L 372.844508 104.728387 
L 373.174106 100.67299 
L 373.207066 100.267451 
L 373.272986 100.329841 
L 373.404825 101.140921 
L 373.503705 100.423427 
L 373.536665 100.517014 
L 373.602584 101.016139 
L 373.635544 100.891358 
L 373.668504 100.454623 
L 373.701464 101.016139 
L 373.767383 100.548209 
L 373.932183 99.893106 
L 374.096982 102.700689 
L 374.129942 102.482321 
L 374.294741 101.234507 
L 374.327701 101.608851 
L 374.360661 101.889609 
L 374.426581 101.827219 
L 374.45954 101.140921 
L 374.52546 101.920805 
L 374.657299 102.544712 
L 374.690259 102.076781 
L 374.756179 102.35754 
L 374.789139 102.981447 
L 374.888018 102.919056 
L 374.920978 102.856665 
L 375.052818 101.296897 
L 375.184657 103.075033 
L 375.217617 102.700689 
L 375.250577 102.856665 
L 375.481296 104.884364 
L 375.580175 104.416433 
L 375.646095 104.541215 
L 375.712015 105.757834 
L 375.777934 105.289903 
L 375.810894 105.165122 
L 375.843854 105.44588 
L 376.206413 107.005648 
L 376.239372 107.411188 
L 376.338252 110.125184 
L 376.371212 110.062793 
L 376.404172 110.437137 
L 376.437132 109.782035 
L 376.503051 109.594863 
L 376.568971 109.719644 
L 376.634891 109.095737 
L 376.66785 109.095737 
L 376.83265 110.811482 
L 376.86561 110.936263 
L 376.898569 110.187574 
L 376.964489 110.561919 
L 377.458887 118.454344 
L 377.623686 121.948224 
L 377.656646 121.792248 
L 378.184004 130.682925 
L 378.612482 140.010337 
L 378.678401 140.977393 
L 379.700157 169.115605 
L 379.766077 169.521145 
L 380.161595 179.722027 
L 380.392314 183.434275 
L 381.18335 202.588224 
L 381.31519 205.052658 
L 381.545909 212.352371 
L 381.743668 215.752665 
L 382.369905 229.6346 
L 382.468784 228.386785 
L 382.501744 228.480371 
L 382.996142 238.306909 
L 383.622379 245.669014 
L 383.655339 245.201083 
L 383.721259 245.045106 
L 383.787179 244.327613 
L 383.820138 244.733153 
L 383.853098 244.764348 
L 383.984938 243.828487 
L 384.017898 244.234027 
L 384.083817 244.109246 
L 384.116777 244.202832 
L 384.248617 244.670762 
L 384.281576 244.48359 
L 384.413416 245.419451 
L 384.578215 243.890878 
L 384.611175 243.766097 
L 384.743014 244.95152 
L 384.775974 244.920325 
L 384.808934 244.514785 
L 384.841894 245.35706 
L 384.874854 245.35706 
L 385.006693 243.329362 
L 385.138533 243.890878 
L 385.171492 243.734901 
L 385.204452 243.422948 
L 385.237412 243.922074 
L 385.303332 244.390004 
L 385.369251 244.265222 
L 385.402211 244.265222 
L 385.435171 244.390004 
L 385.501091 243.516534 
L 385.534051 243.703706 
L 385.567011 244.327613 
L 385.63293 243.734901 
L 385.66589 243.890878 
L 385.76477 243.173385 
L 385.79773 243.266971 
L 385.830689 243.298166 
L 385.863649 242.861431 
L 385.929569 243.360557 
L 386.028449 244.452395 
L 386.160288 242.923822 
L 386.259168 243.079799 
L 386.292127 243.048603 
L 386.423967 241.831985 
L 386.456927 241.676008 
L 386.555806 239.835482 
L 386.588766 240.272217 
L 386.654686 239.804286 
L 386.687646 239.929068 
L 386.819485 240.771342 
L 386.951324 238.431691 
L 387.017244 239.149184 
L 387.050204 239.336356 
L 387.149084 238.681253 
L 387.182043 238.83723 
L 387.247963 238.650058 
L 387.346843 237.776588 
L 387.379802 237.901369 
L 387.412762 238.3693 
L 387.445722 238.213323 
L 387.544602 237.558221 
L 387.577562 238.244518 
L 387.643481 238.088542 
L 387.808281 235.904867 
L 387.84124 236.591164 
L 387.8742 235.468132 
L 387.94012 234.719443 
L 387.97308 234.969006 
L 388.039 235.374545 
L 388.170839 234.46988 
L 388.203799 234.87542 
L 388.236759 234.251513 
L 388.434518 231.911861 
L 388.467478 231.974251 
L 388.533397 232.3174 
L 388.566357 231.599907 
L 388.632277 232.410986 
L 388.665237 232.566963 
L 388.797076 231.163172 
L 388.830036 231.350344 
L 388.928916 230.726437 
L 388.961875 231.787079 
L 389.027795 230.601656 
L 389.785872 224.393779 
L 389.818832 224.487366 
L 389.851791 225.423226 
L 389.917711 225.111273 
L 390.049551 223.863458 
L 390.08251 223.957044 
L 390.11547 224.518561 
L 390.14843 223.738677 
L 390.21435 223.457919 
L 390.24731 223.645091 
L 390.313229 223.769872 
L 390.609868 219.714476 
L 390.642828 220.400774 
L 390.675788 220.369578 
L 390.807627 218.996983 
L 390.972426 214.941586 
L 391.005386 215.752665 
L 391.038346 214.848 
L 391.499784 209.60718 
L 391.994182 201.278019 
L 392.027142 201.278019 
L 392.191941 198.532828 
L 392.224901 198.813586 
L 392.48858 194.602213 
L 392.719299 190.609207 
L 392.752258 190.702793 
L 392.982977 185.181215 
L 393.015937 185.274801 
L 393.510335 174.73077 
L 393.543295 174.73077 
L 393.708094 169.801903 
L 393.741054 170.051466 
L 393.774014 169.458754 
L 394.56505 155.077694 
L 394.63097 153.954662 
L 394.795769 150.991103 
L 394.828729 151.802182 
L 394.894649 151.147079 
L 395.520886 138.294592 
L 395.553846 138.949694 
L 395.586806 138.263397 
L 395.751605 136.485261 
L 395.784565 136.797215 
L 395.817525 136.391675 
L 395.883444 136.298089 
L 396.015284 134.956689 
L 396.048244 135.237447 
L 396.081204 135.175056 
L 396.377842 130.152603 
L 396.476722 129.684673 
L 396.509682 130.339776 
L 396.542641 129.528696 
L 396.77336 126.253184 
L 396.83928 125.223737 
L 396.97112 125.286128 
L 397.037039 125.130151 
L 397.399598 121.667466 
L 397.432557 121.605075 
L 397.597357 119.764549 
L 397.696236 118.984665 
L 397.828076 119.733354 
L 397.861036 120.107698 
L 397.926955 119.639768 
L 398.025835 118.111195 
L 398.058795 119.140642 
L 398.124714 118.828689 
L 398.256554 117.300116 
L 398.289514 117.986414 
L 398.421353 117.268921 
L 398.454313 117.393702 
L 398.487273 116.551427 
L 398.487273 116.551427 
" style="fill:none;stroke:#1f77b4;stroke-linecap:square;"/>
   </g>
   <g id="patch_3">
    <path d="M 57.6 307.584 
L 57.6 41.472 
" style="fill:none;stroke:#000000;stroke-linecap:square;stroke-linejoin:miter;stroke-width:0.8;"/>
   </g>
   <g id="patch_4">
    <path d="M 414.72 307.584 
L 414.72 41.472 
" style="fill:none;stroke:#000000;stroke-linecap:square;stroke-linejoin:miter;stroke-width:0.8;"/>
   </g>
   <g id="patch_5">
    <path d="M 57.6 307.584 
L 414.72 307.584 
" style="fill:none;stroke:#000000;stroke-linecap:square;stroke-linejoin:miter;stroke-width:0.8;"/>
   </g>
   <g id="patch_6">
    <path d="M 57.6 41.472 
L 414.72 41.472 
" style="fill:none;stroke:#000000;stroke-linecap:square;stroke-linejoin:miter;stroke-width:0.8;"/>
   </g>
  </g>
 </g>
 <defs>
  <clipPath id="p84e7402a9d">
   <rect height="266.112" width="357.12" x="57.6" y="41.472"/>
  </clipPath>
 </defs>
</svg>
