<?xml version="1.0" encoding="utf-8" standalone="no"?>
<!DOCTYPE svg PUBLIC "-//W3C//DTD SVG 1.1//EN"
  "http://www.w3.org/Graphics/SVG/1.1/DTD/svg11.dtd">
<svg height="345.6pt" version="1.1" viewBox="0 0 460.8 345.6" width="460.8pt" xmlns="http://www.w3.org/2000/svg" xmlns:xlink="http://www.w3.org/1999/xlink">
 <metadata>
  <rdf:RDF xmlns:cc="http://creativecommons.org/ns#" xmlns:dc="http://purl.org/dc/elements/1.1/" xmlns:rdf="http://www.w3.org/1999/02/22-rdf-syntax-ns#">
   <cc:Work>
    <dc:type rdf:resource="http://purl.org/dc/dcmitype/StillImage"/>
    <dc:date>2021-12-16T02:11:02.691213</dc:date>
    <dc:format>image/svg+xml</dc:format>
    <dc:creator>
     <cc:Agent>
      <dc:title>Matplotlib v3.4.3, https://matplotlib.org/</dc:title>
     </cc:Agent>
    </dc:creator>
   </cc:Work>
  </rdf:RDF>
 </metadata>
 <defs>
  <style type="text/css">*{stroke-linecap:butt;stroke-linejoin:round;}</style>
 </defs>
 <g id="figure_1">
  <g id="patch_1">
   <path d="M 0 345.6 
L 460.8 345.6 
L 460.8 0 
L 0 0 
z
" style="fill:#ffffff;"/>
  </g>
  <g id="axes_1">
   <g id="patch_2">
    <path d="M 57.6 307.584 
L 414.72 307.584 
L 414.72 41.472 
L 57.6 41.472 
z
" style="fill:#ffffff;"/>
   </g>
   <g id="matplotlib.axis_1">
    <g id="xtick_1">
     <g id="line2d_1">
      <path clip-path="url(#p393bd6ea40)" d="M 73.832727 307.584 
L 73.832727 41.472 
" style="fill:none;stroke:#b0b0b0;stroke-linecap:square;stroke-width:0.8;"/>
     </g>
     <g id="line2d_2">
      <defs>
       <path d="M 0 0 
L 0 3.5 
" id="m5a7a07de42" style="stroke:#000000;stroke-width:0.8;"/>
      </defs>
      <g>
       <use style="stroke:#000000;stroke-width:0.8;" x="73.832727" xlink:href="#m5a7a07de42" y="307.584"/>
      </g>
     </g>
     <g id="text_1">
      <!-- 0.0 -->
      <g transform="translate(65.881165 322.182437)scale(0.1 -0.1)">
       <defs>
        <path d="M 2034 4250 
Q 1547 4250 1301 3770 
Q 1056 3291 1056 2328 
Q 1056 1369 1301 889 
Q 1547 409 2034 409 
Q 2525 409 2770 889 
Q 3016 1369 3016 2328 
Q 3016 3291 2770 3770 
Q 2525 4250 2034 4250 
z
M 2034 4750 
Q 2819 4750 3233 4129 
Q 3647 3509 3647 2328 
Q 3647 1150 3233 529 
Q 2819 -91 2034 -91 
Q 1250 -91 836 529 
Q 422 1150 422 2328 
Q 422 3509 836 4129 
Q 1250 4750 2034 4750 
z
" id="DejaVuSans-30" transform="scale(0.015625)"/>
        <path d="M 684 794 
L 1344 794 
L 1344 0 
L 684 0 
L 684 794 
z
" id="DejaVuSans-2e" transform="scale(0.015625)"/>
       </defs>
       <use xlink:href="#DejaVuSans-30"/>
       <use x="63.623047" xlink:href="#DejaVuSans-2e"/>
       <use x="95.410156" xlink:href="#DejaVuSans-30"/>
      </g>
     </g>
    </g>
    <g id="xtick_2">
     <g id="line2d_3">
      <path clip-path="url(#p393bd6ea40)" d="M 139.752432 307.584 
L 139.752432 41.472 
" style="fill:none;stroke:#b0b0b0;stroke-linecap:square;stroke-width:0.8;"/>
     </g>
     <g id="line2d_4">
      <g>
       <use style="stroke:#000000;stroke-width:0.8;" x="139.752432" xlink:href="#m5a7a07de42" y="307.584"/>
      </g>
     </g>
     <g id="text_2">
      <!-- 0.1 -->
      <g transform="translate(131.800869 322.182437)scale(0.1 -0.1)">
       <defs>
        <path d="M 794 531 
L 1825 531 
L 1825 4091 
L 703 3866 
L 703 4441 
L 1819 4666 
L 2450 4666 
L 2450 531 
L 3481 531 
L 3481 0 
L 794 0 
L 794 531 
z
" id="DejaVuSans-31" transform="scale(0.015625)"/>
       </defs>
       <use xlink:href="#DejaVuSans-30"/>
       <use x="63.623047" xlink:href="#DejaVuSans-2e"/>
       <use x="95.410156" xlink:href="#DejaVuSans-31"/>
      </g>
     </g>
    </g>
    <g id="xtick_3">
     <g id="line2d_5">
      <path clip-path="url(#p393bd6ea40)" d="M 205.672137 307.584 
L 205.672137 41.472 
" style="fill:none;stroke:#b0b0b0;stroke-linecap:square;stroke-width:0.8;"/>
     </g>
     <g id="line2d_6">
      <g>
       <use style="stroke:#000000;stroke-width:0.8;" x="205.672137" xlink:href="#m5a7a07de42" y="307.584"/>
      </g>
     </g>
     <g id="text_3">
      <!-- 0.2 -->
      <g transform="translate(197.720574 322.182437)scale(0.1 -0.1)">
       <defs>
        <path d="M 1228 531 
L 3431 531 
L 3431 0 
L 469 0 
L 469 531 
Q 828 903 1448 1529 
Q 2069 2156 2228 2338 
Q 2531 2678 2651 2914 
Q 2772 3150 2772 3378 
Q 2772 3750 2511 3984 
Q 2250 4219 1831 4219 
Q 1534 4219 1204 4116 
Q 875 4013 500 3803 
L 500 4441 
Q 881 4594 1212 4672 
Q 1544 4750 1819 4750 
Q 2544 4750 2975 4387 
Q 3406 4025 3406 3419 
Q 3406 3131 3298 2873 
Q 3191 2616 2906 2266 
Q 2828 2175 2409 1742 
Q 1991 1309 1228 531 
z
" id="DejaVuSans-32" transform="scale(0.015625)"/>
       </defs>
       <use xlink:href="#DejaVuSans-30"/>
       <use x="63.623047" xlink:href="#DejaVuSans-2e"/>
       <use x="95.410156" xlink:href="#DejaVuSans-32"/>
      </g>
     </g>
    </g>
    <g id="xtick_4">
     <g id="line2d_7">
      <path clip-path="url(#p393bd6ea40)" d="M 271.591841 307.584 
L 271.591841 41.472 
" style="fill:none;stroke:#b0b0b0;stroke-linecap:square;stroke-width:0.8;"/>
     </g>
     <g id="line2d_8">
      <g>
       <use style="stroke:#000000;stroke-width:0.8;" x="271.591841" xlink:href="#m5a7a07de42" y="307.584"/>
      </g>
     </g>
     <g id="text_4">
      <!-- 0.3 -->
      <g transform="translate(263.640279 322.182437)scale(0.1 -0.1)">
       <defs>
        <path d="M 2597 2516 
Q 3050 2419 3304 2112 
Q 3559 1806 3559 1356 
Q 3559 666 3084 287 
Q 2609 -91 1734 -91 
Q 1441 -91 1130 -33 
Q 819 25 488 141 
L 488 750 
Q 750 597 1062 519 
Q 1375 441 1716 441 
Q 2309 441 2620 675 
Q 2931 909 2931 1356 
Q 2931 1769 2642 2001 
Q 2353 2234 1838 2234 
L 1294 2234 
L 1294 2753 
L 1863 2753 
Q 2328 2753 2575 2939 
Q 2822 3125 2822 3475 
Q 2822 3834 2567 4026 
Q 2313 4219 1838 4219 
Q 1578 4219 1281 4162 
Q 984 4106 628 3988 
L 628 4550 
Q 988 4650 1302 4700 
Q 1616 4750 1894 4750 
Q 2613 4750 3031 4423 
Q 3450 4097 3450 3541 
Q 3450 3153 3228 2886 
Q 3006 2619 2597 2516 
z
" id="DejaVuSans-33" transform="scale(0.015625)"/>
       </defs>
       <use xlink:href="#DejaVuSans-30"/>
       <use x="63.623047" xlink:href="#DejaVuSans-2e"/>
       <use x="95.410156" xlink:href="#DejaVuSans-33"/>
      </g>
     </g>
    </g>
    <g id="xtick_5">
     <g id="line2d_9">
      <path clip-path="url(#p393bd6ea40)" d="M 337.511546 307.584 
L 337.511546 41.472 
" style="fill:none;stroke:#b0b0b0;stroke-linecap:square;stroke-width:0.8;"/>
     </g>
     <g id="line2d_10">
      <g>
       <use style="stroke:#000000;stroke-width:0.8;" x="337.511546" xlink:href="#m5a7a07de42" y="307.584"/>
      </g>
     </g>
     <g id="text_5">
      <!-- 0.4 -->
      <g transform="translate(329.559983 322.182437)scale(0.1 -0.1)">
       <defs>
        <path d="M 2419 4116 
L 825 1625 
L 2419 1625 
L 2419 4116 
z
M 2253 4666 
L 3047 4666 
L 3047 1625 
L 3713 1625 
L 3713 1100 
L 3047 1100 
L 3047 0 
L 2419 0 
L 2419 1100 
L 313 1100 
L 313 1709 
L 2253 4666 
z
" id="DejaVuSans-34" transform="scale(0.015625)"/>
       </defs>
       <use xlink:href="#DejaVuSans-30"/>
       <use x="63.623047" xlink:href="#DejaVuSans-2e"/>
       <use x="95.410156" xlink:href="#DejaVuSans-34"/>
      </g>
     </g>
    </g>
    <g id="xtick_6">
     <g id="line2d_11">
      <path clip-path="url(#p393bd6ea40)" d="M 403.431251 307.584 
L 403.431251 41.472 
" style="fill:none;stroke:#b0b0b0;stroke-linecap:square;stroke-width:0.8;"/>
     </g>
     <g id="line2d_12">
      <g>
       <use style="stroke:#000000;stroke-width:0.8;" x="403.431251" xlink:href="#m5a7a07de42" y="307.584"/>
      </g>
     </g>
     <g id="text_6">
      <!-- 0.5 -->
      <g transform="translate(395.479688 322.182437)scale(0.1 -0.1)">
       <defs>
        <path d="M 691 4666 
L 3169 4666 
L 3169 4134 
L 1269 4134 
L 1269 2991 
Q 1406 3038 1543 3061 
Q 1681 3084 1819 3084 
Q 2600 3084 3056 2656 
Q 3513 2228 3513 1497 
Q 3513 744 3044 326 
Q 2575 -91 1722 -91 
Q 1428 -91 1123 -41 
Q 819 9 494 109 
L 494 744 
Q 775 591 1075 516 
Q 1375 441 1709 441 
Q 2250 441 2565 725 
Q 2881 1009 2881 1497 
Q 2881 1984 2565 2268 
Q 2250 2553 1709 2553 
Q 1456 2553 1204 2497 
Q 953 2441 691 2322 
L 691 4666 
z
" id="DejaVuSans-35" transform="scale(0.015625)"/>
       </defs>
       <use xlink:href="#DejaVuSans-30"/>
       <use x="63.623047" xlink:href="#DejaVuSans-2e"/>
       <use x="95.410156" xlink:href="#DejaVuSans-35"/>
      </g>
     </g>
    </g>
   </g>
   <g id="matplotlib.axis_2">
    <g id="ytick_1">
     <g id="line2d_13">
      <path clip-path="url(#p393bd6ea40)" d="M 57.6 272.833349 
L 414.72 272.833349 
" style="fill:none;stroke:#b0b0b0;stroke-linecap:square;stroke-width:0.8;"/>
     </g>
     <g id="line2d_14">
      <defs>
       <path d="M 0 0 
L -3.5 0 
" id="m5014dd6225" style="stroke:#000000;stroke-width:0.8;"/>
      </defs>
      <g>
       <use style="stroke:#000000;stroke-width:0.8;" x="57.6" xlink:href="#m5014dd6225" y="272.833349"/>
      </g>
     </g>
     <g id="text_7">
      <!-- −0.015 -->
      <g transform="translate(13.592188 276.632568)scale(0.1 -0.1)">
       <defs>
        <path d="M 678 2272 
L 4684 2272 
L 4684 1741 
L 678 1741 
L 678 2272 
z
" id="DejaVuSans-2212" transform="scale(0.015625)"/>
       </defs>
       <use xlink:href="#DejaVuSans-2212"/>
       <use x="83.789062" xlink:href="#DejaVuSans-30"/>
       <use x="147.412109" xlink:href="#DejaVuSans-2e"/>
       <use x="179.199219" xlink:href="#DejaVuSans-30"/>
       <use x="242.822266" xlink:href="#DejaVuSans-31"/>
       <use x="306.445312" xlink:href="#DejaVuSans-35"/>
      </g>
     </g>
    </g>
    <g id="ytick_2">
     <g id="line2d_15">
      <path clip-path="url(#p393bd6ea40)" d="M 57.6 236.620671 
L 414.72 236.620671 
" style="fill:none;stroke:#b0b0b0;stroke-linecap:square;stroke-width:0.8;"/>
     </g>
     <g id="line2d_16">
      <g>
       <use style="stroke:#000000;stroke-width:0.8;" x="57.6" xlink:href="#m5014dd6225" y="236.620671"/>
      </g>
     </g>
     <g id="text_8">
      <!-- −0.010 -->
      <g transform="translate(13.592188 240.41989)scale(0.1 -0.1)">
       <use xlink:href="#DejaVuSans-2212"/>
       <use x="83.789062" xlink:href="#DejaVuSans-30"/>
       <use x="147.412109" xlink:href="#DejaVuSans-2e"/>
       <use x="179.199219" xlink:href="#DejaVuSans-30"/>
       <use x="242.822266" xlink:href="#DejaVuSans-31"/>
       <use x="306.445312" xlink:href="#DejaVuSans-30"/>
      </g>
     </g>
    </g>
    <g id="ytick_3">
     <g id="line2d_17">
      <path clip-path="url(#p393bd6ea40)" d="M 57.6 200.407994 
L 414.72 200.407994 
" style="fill:none;stroke:#b0b0b0;stroke-linecap:square;stroke-width:0.8;"/>
     </g>
     <g id="line2d_18">
      <g>
       <use style="stroke:#000000;stroke-width:0.8;" x="57.6" xlink:href="#m5014dd6225" y="200.407994"/>
      </g>
     </g>
     <g id="text_9">
      <!-- −0.005 -->
      <g transform="translate(13.592188 204.207212)scale(0.1 -0.1)">
       <use xlink:href="#DejaVuSans-2212"/>
       <use x="83.789062" xlink:href="#DejaVuSans-30"/>
       <use x="147.412109" xlink:href="#DejaVuSans-2e"/>
       <use x="179.199219" xlink:href="#DejaVuSans-30"/>
       <use x="242.822266" xlink:href="#DejaVuSans-30"/>
       <use x="306.445312" xlink:href="#DejaVuSans-35"/>
      </g>
     </g>
    </g>
    <g id="ytick_4">
     <g id="line2d_19">
      <path clip-path="url(#p393bd6ea40)" d="M 57.6 164.195316 
L 414.72 164.195316 
" style="fill:none;stroke:#b0b0b0;stroke-linecap:square;stroke-width:0.8;"/>
     </g>
     <g id="line2d_20">
      <g>
       <use style="stroke:#000000;stroke-width:0.8;" x="57.6" xlink:href="#m5014dd6225" y="164.195316"/>
      </g>
     </g>
     <g id="text_10">
      <!-- 0.000 -->
      <g transform="translate(21.971875 167.994535)scale(0.1 -0.1)">
       <use xlink:href="#DejaVuSans-30"/>
       <use x="63.623047" xlink:href="#DejaVuSans-2e"/>
       <use x="95.410156" xlink:href="#DejaVuSans-30"/>
       <use x="159.033203" xlink:href="#DejaVuSans-30"/>
       <use x="222.65625" xlink:href="#DejaVuSans-30"/>
      </g>
     </g>
    </g>
    <g id="ytick_5">
     <g id="line2d_21">
      <path clip-path="url(#p393bd6ea40)" d="M 57.6 127.982638 
L 414.72 127.982638 
" style="fill:none;stroke:#b0b0b0;stroke-linecap:square;stroke-width:0.8;"/>
     </g>
     <g id="line2d_22">
      <g>
       <use style="stroke:#000000;stroke-width:0.8;" x="57.6" xlink:href="#m5014dd6225" y="127.982638"/>
      </g>
     </g>
     <g id="text_11">
      <!-- 0.005 -->
      <g transform="translate(21.971875 131.781857)scale(0.1 -0.1)">
       <use xlink:href="#DejaVuSans-30"/>
       <use x="63.623047" xlink:href="#DejaVuSans-2e"/>
       <use x="95.410156" xlink:href="#DejaVuSans-30"/>
       <use x="159.033203" xlink:href="#DejaVuSans-30"/>
       <use x="222.65625" xlink:href="#DejaVuSans-35"/>
      </g>
     </g>
    </g>
    <g id="ytick_6">
     <g id="line2d_23">
      <path clip-path="url(#p393bd6ea40)" d="M 57.6 91.769961 
L 414.72 91.769961 
" style="fill:none;stroke:#b0b0b0;stroke-linecap:square;stroke-width:0.8;"/>
     </g>
     <g id="line2d_24">
      <g>
       <use style="stroke:#000000;stroke-width:0.8;" x="57.6" xlink:href="#m5014dd6225" y="91.769961"/>
      </g>
     </g>
     <g id="text_12">
      <!-- 0.010 -->
      <g transform="translate(21.971875 95.569179)scale(0.1 -0.1)">
       <use xlink:href="#DejaVuSans-30"/>
       <use x="63.623047" xlink:href="#DejaVuSans-2e"/>
       <use x="95.410156" xlink:href="#DejaVuSans-30"/>
       <use x="159.033203" xlink:href="#DejaVuSans-31"/>
       <use x="222.65625" xlink:href="#DejaVuSans-30"/>
      </g>
     </g>
    </g>
    <g id="ytick_7">
     <g id="line2d_25">
      <path clip-path="url(#p393bd6ea40)" d="M 57.6 55.557283 
L 414.72 55.557283 
" style="fill:none;stroke:#b0b0b0;stroke-linecap:square;stroke-width:0.8;"/>
     </g>
     <g id="line2d_26">
      <g>
       <use style="stroke:#000000;stroke-width:0.8;" x="57.6" xlink:href="#m5014dd6225" y="55.557283"/>
      </g>
     </g>
     <g id="text_13">
      <!-- 0.015 -->
      <g transform="translate(21.971875 59.356502)scale(0.1 -0.1)">
       <use xlink:href="#DejaVuSans-30"/>
       <use x="63.623047" xlink:href="#DejaVuSans-2e"/>
       <use x="95.410156" xlink:href="#DejaVuSans-30"/>
       <use x="159.033203" xlink:href="#DejaVuSans-31"/>
       <use x="222.65625" xlink:href="#DejaVuSans-35"/>
      </g>
     </g>
    </g>
   </g>
   <g id="line2d_27">
    <path clip-path="url(#p393bd6ea40)" d="M 73.832727 173.465761 
L 73.931607 175.590239 
L 73.997527 175.242597 
L 74.063446 173.658896 
L 74.096406 174.161045 
L 74.228246 175.783373 
L 74.393045 173.234 
L 74.491924 174.354179 
L 74.524884 174.083791 
L 74.623764 172.345583 
L 74.656724 172.847732 
L 74.689683 173.311254 
L 74.755603 171.457165 
L 74.821523 172.036568 
L 74.854483 172.306956 
L 75.019282 171.14815 
L 75.085202 170.027971 
L 75.151121 170.955016 
L 75.282961 171.611672 
L 75.315921 171.534419 
L 75.34888 170.684628 
L 75.4148 171.727553 
L 75.51368 171.920687 
L 75.54664 171.88206 
L 75.579599 171.457165 
L 75.612559 172.036568 
L 75.645519 172.384209 
L 75.777359 175.822 
L 75.810318 175.667492 
L 75.942158 176.787671 
L 75.975118 176.131015 
L 76.041037 176.324149 
L 76.106957 176.517283 
L 76.139917 177.598835 
L 76.172877 176.749044 
L 76.205837 176.053761 
L 76.271756 176.980805 
L 76.337676 177.985104 
L 76.370636 177.28982 
L 76.469515 175.860627 
L 76.535435 176.440029 
L 76.568395 177.598835 
L 76.634315 176.053761 
L 76.733194 174.508687 
L 76.766154 175.20397 
L 76.897994 173.581642 
L 76.930953 174.856328 
L 77.029833 174.508687 
L 77.359431 172.461463 
L 77.491271 173.774776 
L 77.524231 173.929284 
L 77.557191 173.504388 
L 77.59015 174.315552 
L 77.62311 174.006537 
L 77.75495 175.822 
L 77.820869 175.474358 
L 77.919749 174.663194 
L 77.886789 175.706119 
L 77.952709 174.856328 
L 78.084548 175.783373 
L 78.249347 172.268329 
L 78.545986 174.972209 
L 78.578946 174.238299 
L 78.644866 173.697523 
L 78.677826 173.929284 
L 78.809665 176.478656 
L 78.875585 175.165343 
L 78.941504 173.427135 
L 78.974464 174.392806 
L 79.007424 174.972209 
L 79.040384 174.856328 
L 79.073344 173.890657 
L 79.139263 174.624567 
L 79.172223 174.508687 
L 79.205183 175.010836 
L 79.238143 174.972209 
L 79.271103 174.083791 
L 79.337023 175.242597 
L 79.369982 175.281224 
L 79.435902 173.388508 
L 79.501822 174.006537 
L 79.567742 175.667492 
L 79.600701 174.58594 
L 79.633661 174.58594 
L 79.666621 174.894955 
L 79.699581 174.392806 
L 79.732541 173.774776 
L 79.798461 174.354179 
L 79.83142 174.972209 
L 79.86438 174.045164 
L 79.89734 174.894955 
L 79.9303 174.508687 
L 79.96326 175.435731 
L 80.02918 174.238299 
L 80.095099 173.427135 
L 80.161019 173.697523 
L 80.226939 174.47006 
L 80.292858 175.551612 
L 80.325818 174.663194 
L 80.424698 171.920687 
L 80.457658 172.152448 
L 80.754296 168.946419 
L 80.523577 172.191075 
L 80.787256 168.985046 
L 80.820216 168.907792 
L 80.853176 167.787614 
L 80.919096 168.830539 
L 81.050935 170.761882 
L 81.116855 170.684628 
L 81.215734 169.873464 
L 81.281654 170.027971 
L 81.446453 172.036568 
L 81.479413 171.611672 
L 81.545333 171.804807 
L 81.644212 173.658896 
L 81.677172 173.311254 
L 81.809012 171.727553 
L 81.841971 174.045164 
L 81.940851 173.272627 
L 82.10565 171.76618 
L 82.17157 172.191075 
L 82.20453 171.843433 
L 82.23749 171.804807 
L 82.303409 174.045164 
L 82.369329 173.581642 
L 82.402289 173.85203 
L 82.600048 171.804807 
L 82.633008 172.036568 
L 82.665968 171.573046 
L 82.698928 171.573046 
L 82.797807 174.972209 
L 82.863727 174.47006 
L 83.028526 171.302658 
L 83.061486 171.611672 
L 83.193325 173.079493 
L 83.226285 172.924985 
L 83.391084 171.186777 
L 83.457004 172.461463 
L 83.555884 171.727553 
L 83.786603 168.560151 
L 83.819563 168.637404 
L 83.885482 170.568747 
L 84.017322 170.105225 
L 84.050281 169.409942 
L 84.116201 169.718956 
L 84.215081 170.607374 
L 84.31396 169.332688 
L 84.41284 172.191075 
L 84.47876 171.959314 
L 84.610599 173.156747 
L 84.676519 174.276925 
L 84.709479 174.083791 
L 84.841318 171.76618 
L 85.039077 174.508687 
L 85.137957 175.319851 
L 85.170916 175.281224 
L 85.203876 174.122418 
L 85.269796 175.706119 
L 85.401635 178.757641 
L 85.434595 179.221163 
L 85.467555 178.64176 
L 85.500515 179.105282 
L 85.566435 177.869223 
L 85.632354 178.178238 
L 85.797154 181.113879 
L 85.961953 176.787671 
L 85.994913 176.749044 
L 86.027873 177.598835 
L 86.126752 177.482954 
L 86.159712 177.482954 
L 86.489311 174.817701 
L 86.52227 175.088089 
L 86.65411 177.28982 
L 86.752989 176.749044 
L 86.785949 175.474358 
L 86.884829 175.706119 
L 86.983708 176.362776 
L 87.082588 177.753342 
L 87.115548 177.328447 
L 87.247387 174.161045 
L 87.313307 175.512985 
L 87.412186 176.710417 
L 87.445146 176.478656 
L 87.544026 176.517283 
L 87.576986 175.590239 
L 87.642905 176.749044 
L 87.675865 176.517283 
L 87.807705 174.547313 
L 88.005464 177.90785 
L 88.137303 177.482954 
L 88.203223 177.28982 
L 88.499862 174.817701 
L 88.697621 175.899253 
L 88.730581 175.822 
L 88.76354 177.328447 
L 88.82946 176.169641 
L 88.86242 176.324149 
L 88.89538 177.598835 
L 88.961299 177.17394 
L 89.027219 177.482954 
L 89.093139 176.517283 
L 89.126099 176.440029 
L 89.159059 175.397104 
L 89.192018 177.444328 
L 89.224978 176.324149 
L 89.257938 177.019432 
L 89.290898 175.976507 
L 89.488657 173.813403 
L 89.521617 174.624567 
L 89.554577 173.813403 
L 89.719376 172.268329 
L 89.785296 174.083791 
L 89.818256 173.11812 
L 89.884175 173.156747 
L 89.917135 172.770478 
L 89.950095 173.079493 
L 89.983055 173.040866 
L 90.114894 170.298359 
L 90.147854 171.573046 
L 90.213774 170.491494 
L 90.246734 170.723255 
L 90.279694 170.607374 
L 90.411533 169.834837 
L 90.510413 171.727553 
L 90.576332 171.457165 
L 90.642252 170.182479 
L 90.675212 168.830539 
L 90.741132 168.946419 
L 90.938891 171.302658 
L 90.97185 170.761882 
L 91.03777 170.877762 
L 91.07073 171.88206 
L 91.13665 171.070896 
L 91.202569 170.684628 
L 91.400329 173.813403 
L 91.598088 170.993643 
L 91.631048 171.225404 
L 91.795847 172.577344 
L 91.861766 171.534419 
L 91.894726 172.693224 
L 91.927686 173.040866 
L 91.993606 172.770478 
L 92.026566 172.731851 
L 92.125445 174.933582 
L 92.191365 174.392806 
L 92.323204 171.225404 
L 92.356164 170.993643 
L 92.389124 171.109523 
L 92.520964 172.577344 
L 92.553923 172.229702 
L 92.718723 170.259732 
L 92.784642 172.075195 
L 92.850562 171.650299 
L 92.916482 170.723255 
L 92.982401 170.877762 
L 93.015361 171.14815 
L 93.081281 169.912091 
L 93.147201 170.259732 
L 93.24608 172.345583 
L 93.312 171.959314 
L 93.443839 174.354179 
L 93.476799 173.465761 
L 93.542719 173.774776 
L 93.575679 173.388508 
L 93.608639 173.967911 
L 93.641599 174.045164 
L 93.806398 176.633164 
L 93.707518 173.543015 
L 93.839358 176.169641 
L 93.905277 175.706119 
L 93.971197 175.744746 
L 94.103036 177.251193 
L 94.201916 175.049463 
L 94.234876 175.474358 
L 94.267836 174.856328 
L 94.333755 175.20397 
L 94.498555 176.749044 
L 94.531515 176.478656 
L 94.564474 176.324149 
L 94.630394 177.869223 
L 94.663354 177.714716 
L 94.795193 175.899253 
L 94.861113 176.246895 
L 94.927033 174.663194 
L 94.959993 176.169641 
L 94.992952 176.169641 
L 95.058872 177.367074 
L 95.124792 176.826298 
L 95.322551 178.796268 
L 95.355511 178.719014 
L 95.388471 178.757641 
L 95.45439 179.221163 
L 95.55327 177.560208 
L 95.58623 177.90785 
L 95.61919 177.985104 
L 95.65215 177.869223 
L 95.718069 181.113879 
L 95.783989 180.650357 
L 95.816949 181.654655 
L 95.882868 181.036625 
L 96.014708 180.148208 
L 96.080628 180.341342 
L 96.113587 180.225461 
L 96.344306 175.590239 
L 96.377266 176.131015 
L 96.410226 176.633164 
L 96.575025 173.040866 
L 96.607985 172.731851 
L 96.640945 173.388508 
L 96.805744 174.817701 
L 96.838704 173.620269 
L 96.937584 173.658896 
L 97.003503 174.161045 
L 97.036463 173.11812 
L 97.102383 173.774776 
L 97.300142 177.676089 
L 97.333102 177.251193 
L 97.399022 176.594537 
L 97.464941 176.749044 
L 97.497901 176.749044 
L 97.662701 179.414297 
L 97.69566 178.757641 
L 97.79454 177.058059 
L 97.8275 177.28982 
L 97.893419 177.17394 
L 97.926379 177.637462 
L 97.959339 177.212567 
L 98.025259 178.719014 
L 98.091179 178.603133 
L 98.288938 176.749044 
L 98.552617 178.564506 
L 98.585576 178.409999 
L 98.717416 175.783373 
L 98.750376 173.813403 
L 98.816295 174.894955 
L 98.882215 175.474358 
L 98.948135 173.311254 
L 99.014054 173.465761 
L 99.178854 176.246895 
L 99.211814 175.976507 
L 99.244773 174.508687 
L 99.310693 174.817701 
L 99.376613 175.744746 
L 99.409573 175.551612 
L 99.541412 174.122418 
L 99.739171 176.942179 
L 99.838051 175.474358 
L 99.871011 175.628865 
L 99.90397 176.710417 
L 100.00285 176.594537 
L 100.03581 177.328447 
L 100.10173 176.362776 
L 100.266529 173.427135 
L 100.299489 173.465761 
L 100.365408 172.461463 
L 100.398368 173.272627 
L 100.563168 174.161045 
L 100.596127 173.774776 
L 100.662047 170.41424 
L 100.727967 171.804807 
L 100.826846 171.109523 
L 101.024605 173.311254 
L 101.189405 172.615971 
L 101.288284 173.697523 
L 101.321244 173.581642 
L 101.354204 172.654597 
L 101.387164 174.547313 
L 101.551963 178.139611 
L 101.815642 176.131015 
L 101.848602 176.246895 
L 101.947481 174.431433 
L 101.980441 175.358477 
L 102.013401 175.628865 
L 102.046361 175.319851 
L 102.079321 175.049463 
L 102.1782 176.092388 
L 102.27708 173.543015 
L 102.31004 174.354179 
L 102.343 174.47006 
L 102.540759 172.847732 
L 102.672598 174.701821 
L 102.771478 177.019432 
L 102.804437 176.169641 
L 102.837397 176.362776 
L 102.870357 177.251193 
L 102.936277 176.246895 
L 103.002197 177.598835 
L 103.035156 176.246895 
L 103.199956 175.088089 
L 103.232916 175.242597 
L 103.298835 174.199672 
L 103.331795 174.276925 
L 103.463635 176.208268 
L 103.562514 174.238299 
L 103.595474 175.088089 
L 103.628434 174.508687 
L 103.661394 174.972209 
L 103.760273 175.435731 
L 103.859153 174.740448 
L 103.892113 175.783373 
L 103.958032 175.242597 
L 104.056912 175.281224 
L 104.089872 173.736149 
L 104.254671 175.319851 
L 104.51835 172.654597 
L 104.617229 172.654597 
L 104.716109 173.388508 
L 104.749069 173.581642 
L 104.814988 174.624567 
L 104.847948 173.465761 
L 104.913868 174.547313 
L 104.946828 173.543015 
L 105.012748 172.770478 
L 105.045707 173.156747 
L 105.243467 175.049463 
L 105.276426 175.049463 
L 105.441226 176.440029 
L 105.474186 176.246895 
L 105.671945 173.156747 
L 105.704904 173.774776 
L 105.737864 173.736149 
L 105.902664 175.126716 
L 105.968583 174.701821 
L 106.034503 176.015134 
L 106.067463 174.817701 
L 106.133383 175.860627 
L 106.232262 174.315552 
L 106.265222 174.58594 
L 106.298182 175.126716 
L 106.331142 173.929284 
L 106.364102 173.929284 
L 106.430021 174.392806 
L 106.59482 171.650299 
L 106.62778 171.611672 
L 106.79258 174.276925 
L 106.957379 171.650299 
L 107.023299 171.804807 
L 107.056258 171.109523 
L 107.089218 171.76618 
L 107.550656 176.208268 
L 107.616576 175.822 
L 107.649536 174.547313 
L 107.748415 174.817701 
L 108.045054 171.843433 
L 108.078014 172.268329 
L 108.110974 172.924985 
L 108.176893 172.577344 
L 108.209853 172.538717 
L 108.275773 173.156747 
L 108.407612 167.903494 
L 108.440572 168.482897 
L 108.539452 169.255434 
L 108.572412 169.139554 
L 108.605371 169.834837 
L 108.671291 169.487195 
L 108.704251 169.448568 
L 108.770171 168.985046 
L 108.83609 169.100927 
L 108.86905 168.946419 
L 109.00089 169.950718 
L 109.099769 169.371315 
L 109.132729 170.143852 
L 109.198649 169.603076 
L 109.231609 169.255434 
L 109.264569 169.757583 
L 109.363448 170.839135 
L 109.396408 170.491494 
L 109.429368 170.568747 
L 109.495287 171.534419 
L 109.561207 169.409942 
L 109.627127 169.873464 
L 109.660087 169.873464 
L 110.088565 166.899196 
L 110.154485 169.332688 
L 110.220404 169.100927 
L 110.286324 168.135255 
L 110.352244 166.435674 
L 110.418163 167.401345 
L 110.582963 168.753285 
L 110.615922 168.714658 
L 110.813682 164.736092 
L 110.879601 165.160987 
L 111.24216 170.607374 
L 111.27512 170.916389 
L 111.308079 170.259732 
L 111.341039 170.723255 
L 111.373999 169.757583 
L 111.406959 169.950718 
L 111.538798 172.963612 
L 111.736557 170.066598 
L 111.769517 171.109523 
L 111.868397 173.040866 
L 111.901357 172.693224 
L 111.967276 172.770478 
L 112.033196 172.268329 
L 112.263915 167.015076 
L 112.362795 168.521524 
L 112.395754 167.942121 
L 112.527594 165.894898 
L 112.560554 166.242539 
L 112.692393 167.439972 
L 112.758313 167.787614 
L 112.791273 167.401345 
L 112.824233 167.362718 
L 112.857192 167.787614 
L 112.890152 166.667435 
L 112.923112 168.44427 
L 113.021992 169.641703 
L 113.087911 167.362718 
L 113.153831 167.942121 
L 113.219751 167.517226 
L 113.35159 171.650299 
L 113.45047 171.070896 
L 113.48343 170.568747 
L 113.549349 171.14815 
L 113.582309 171.109523 
L 113.813028 174.122418 
L 113.845988 173.620269 
L 113.878948 173.658896 
L 113.977827 174.392806 
L 114.010787 174.083791 
L 114.076707 174.122418 
L 114.175587 172.963612 
L 114.505185 175.590239 
L 114.637024 172.770478 
L 114.669984 172.847732 
L 114.735904 173.11812 
L 114.768864 172.809105 
L 114.834784 172.229702 
L 114.867743 171.997941 
L 114.900703 172.229702 
L 115.032543 173.272627 
L 115.098462 171.843433 
L 115.164382 171.997941 
L 115.263262 172.847732 
L 115.395101 170.839135 
L 115.461021 173.427135 
L 115.52694 171.959314 
L 115.5599 171.457165 
L 115.59286 171.997941 
L 115.62582 172.152448 
L 115.69174 173.079493 
L 115.757659 173.040866 
L 115.823579 173.658896 
L 115.955419 171.264031 
L 115.988378 171.534419 
L 116.021338 171.804807 
L 116.186138 169.216807 
L 116.350937 170.684628 
L 116.416856 171.302658 
L 116.515736 172.615971 
L 116.548696 172.384209 
L 116.614616 173.388508 
L 116.647575 173.311254 
L 116.779415 171.457165 
L 116.812375 171.650299 
L 116.911254 172.345583 
L 116.977174 171.804807 
L 117.010134 172.113821 
L 117.076054 171.959314 
L 117.207893 174.122418 
L 117.339732 173.002239 
L 117.372692 173.890657 
L 117.471572 173.736149 
L 117.735251 169.100927 
L 117.80117 169.487195 
L 118.031889 174.624567 
L 118.097809 173.427135 
L 118.130769 173.465761 
L 118.163729 173.967911 
L 118.196689 173.311254 
L 118.328528 171.727553 
L 118.427407 173.813403 
L 118.460367 173.079493 
L 118.526287 172.384209 
L 118.691086 169.834837 
L 118.789966 171.611672 
L 118.822926 171.573046 
L 118.888845 170.839135 
L 118.921805 170.877762 
L 119.119564 175.397104 
L 119.152524 174.547313 
L 119.185484 175.358477 
L 119.218444 176.246895 
L 119.284364 175.512985 
L 119.416203 176.208268 
L 119.449163 175.512985 
L 119.482123 177.096686 
L 119.613962 180.495849 
L 119.646922 180.302715 
L 119.679882 179.916446 
L 119.712842 180.264088 
L 119.844681 181.809162 
L 119.910601 179.9937 
L 119.976521 180.457222 
L 120.14132 178.796268 
L 120.20724 179.723312 
L 120.240199 181.461521 
L 120.306119 181.113879 
L 120.404999 179.143909 
L 120.437958 179.800566 
L 120.470918 179.955073 
L 120.569798 181.268386 
L 120.635718 180.341342 
L 120.734597 182.465819 
L 120.767557 181.925043 
L 120.800517 181.422894 
L 120.866437 181.538774 
L 120.899396 182.774834 
L 120.998276 182.504446 
L 121.031236 182.69758 
L 121.064196 181.847789 
L 121.097156 182.465819 
L 121.228995 184.397162 
L 121.261955 183.701878 
L 121.294915 183.701878 
L 121.393794 180.650357 
L 121.459714 180.72761 
L 121.525634 179.87782 
L 121.558593 180.804864 
L 121.690433 182.967968 
L 121.756353 182.5817 
L 121.789312 183.083849 
L 121.822272 182.852087 
L 121.888192 182.311312 
L 121.921152 182.69758 
L 121.954112 182.967968 
L 121.987072 182.504446 
L 122.020031 182.543073 
L 122.085951 181.925043 
L 122.151871 181.96367 
L 122.184831 182.002297 
L 122.31667 180.688984 
L 122.481469 182.311312 
L 122.514429 182.118177 
L 122.547389 180.882118 
L 122.613309 181.96367 
L 122.646269 182.427192 
L 122.712188 181.96367 
L 122.745148 181.96367 
L 122.778108 182.852087 
L 122.844028 181.654655 
L 123.107707 177.753342 
L 123.140666 178.255492 
L 123.272506 180.379969 
L 123.371385 179.028029 
L 123.404345 179.800566 
L 123.437305 179.530178 
L 123.470265 180.070954 
L 123.536185 180.302715 
L 123.569144 180.032327 
L 123.668024 179.414297 
L 123.700984 179.723312 
L 123.733944 179.221163 
L 123.799863 178.834894 
L 124.162422 174.276925 
L 124.261301 173.195373 
L 124.327221 172.345583 
L 124.360181 172.886359 
L 124.393141 173.234 
L 124.52498 169.023673 
L 124.5909 169.68033 
L 124.62386 170.066598 
L 124.65682 170.027971 
L 124.755699 168.482897 
L 124.788659 168.946419 
L 124.854579 170.877762 
L 124.953458 170.800508 
L 124.986418 170.684628 
L 125.118257 171.341284 
L 125.217137 170.375613 
L 125.250097 170.452867 
L 125.283057 171.109523 
L 125.348976 170.452867 
L 125.381936 170.607374 
L 125.480816 171.920687 
L 125.513776 171.688926 
L 125.711535 169.79621 
L 125.810414 170.336986 
L 125.942254 168.676031 
L 125.975214 168.251136 
L 126.008174 169.912091 
L 126.107053 169.332688 
L 126.140013 169.487195 
L 126.172973 168.676031 
L 126.205933 169.79621 
L 126.271852 168.830539 
L 126.370732 168.676031 
L 126.436652 170.027971 
L 126.469611 169.989344 
L 126.535531 167.671733 
L 126.601451 168.637404 
L 126.634411 169.100927 
L 126.667371 168.560151 
L 126.70033 168.212509 
L 126.76625 168.367016 
L 126.964009 171.959314 
L 126.996969 171.688926 
L 127.029929 171.341284 
L 127.062889 169.718956 
L 127.128808 170.684628 
L 127.260648 173.11812 
L 127.293608 172.345583 
L 127.326568 172.654597 
L 127.359527 172.152448 
L 127.392487 172.152448 
L 127.656166 174.817701 
L 127.689126 174.779075 
L 127.722086 173.890657 
L 127.788006 173.967911 
L 128.051684 178.100984 
L 128.117604 177.869223 
L 128.216484 176.401403 
L 128.249443 176.710417 
L 128.282403 177.482954 
L 128.315363 176.440029 
L 128.348323 176.401403 
L 128.381283 176.517283 
L 128.612002 179.607432 
L 128.743841 178.719014 
L 128.908641 181.693282 
L 129.172319 183.740505 
L 129.304159 181.96367 
L 129.370078 182.967968 
L 129.468958 185.903609 
L 129.534878 185.053818 
L 129.600797 185.440087 
L 129.798557 186.637519 
L 129.897436 185.517341 
L 129.963356 185.826355 
L 130.095195 186.792027 
L 130.128155 186.173997 
L 130.194075 186.869281 
L 130.259994 187.448683 
L 130.391834 184.976565 
L 130.424794 185.246953 
L 130.490713 186.483012 
L 130.589593 186.173997 
L 130.688473 185.478714 
L 130.886232 188.607489 
L 130.919192 188.452982 
L 131.083991 185.864982 
L 131.116951 186.444385 
L 131.24879 184.281281 
L 131.31471 185.015191 
L 131.34767 184.628923 
L 131.446549 183.740505 
L 131.512469 184.513042 
L 131.545429 183.624625 
L 131.611348 183.238356 
L 131.677268 183.470117 
L 131.710228 184.126774 
L 131.743188 183.31561 
L 131.809108 182.272685 
L 131.842067 182.349938 
L 131.907987 182.118177 
L 132.006867 184.088147 
L 132.204626 181.809162 
L 132.237586 182.658953 
L 132.303505 182.002297 
L 132.402385 180.920745 
L 132.435345 181.422894 
L 132.501264 180.804864 
L 132.534224 180.882118 
L 132.600144 180.997998 
L 132.731983 179.839193 
L 132.863823 180.457222 
L 132.929743 180.225461 
L 133.061582 178.989402 
L 133.160461 179.337044 
L 133.193421 179.491551 
L 133.292301 181.307013 
L 133.325261 180.534476 
L 133.49006 178.100984 
L 133.55598 177.019432 
L 133.654859 177.17394 
L 133.687819 177.482954 
L 133.720779 176.749044 
L 133.918538 173.736149 
L 133.984458 175.165343 
L 134.017418 173.465761 
L 134.116297 172.268329 
L 134.248137 174.894955 
L 134.281096 173.890657 
L 134.742534 170.105225 
L 134.775494 170.143852 
L 134.940293 167.980748 
L 135.039173 167.594479 
L 135.072133 166.744688 
L 135.138053 166.821942 
L 135.500611 171.611672 
L 135.599491 169.718956 
L 135.63245 170.105225 
L 135.66541 170.182479 
L 135.69837 169.294061 
L 135.76429 170.259732 
L 135.83021 168.907792 
L 135.863169 169.989344 
L 136.324607 174.122418 
L 136.357567 173.774776 
L 136.390527 174.894955 
L 136.489407 174.740448 
L 136.522366 173.890657 
L 136.555326 174.894955 
L 136.621246 175.899253 
L 136.687166 175.435731 
L 136.720126 175.319851 
L 136.753085 175.706119 
L 136.851965 175.667492 
L 136.917885 175.126716 
L 136.983804 175.20397 
L 137.148604 176.169641 
L 137.214523 175.126716 
L 137.280443 175.281224 
L 137.511162 177.444328 
L 137.544122 176.517283 
L 137.610042 177.521581 
L 137.643001 176.710417 
L 137.675961 177.714716 
L 137.741881 177.251193 
L 137.807801 176.208268 
L 137.84076 176.440029 
L 138.00556 178.255492 
L 138.236279 176.478656 
L 138.302198 181.152506 
L 138.368118 179.491551 
L 138.401078 179.414297 
L 138.664757 176.246895 
L 138.763636 178.02373 
L 138.796596 177.869223 
L 138.928436 176.710417 
L 139.027315 178.255492 
L 139.093235 177.90785 
L 139.290994 179.182536 
L 139.323954 180.186834 
L 139.389874 180.032327 
L 139.488753 178.100984 
L 139.587633 178.680387 
L 139.620593 178.989402 
L 139.653552 178.64176 
L 139.686512 178.719014 
L 139.719472 178.719014 
L 139.785392 179.684685 
L 139.818352 178.332745 
L 139.917231 178.603133 
L 139.950191 178.100984 
L 139.983151 178.409999 
L 140.016111 180.070954 
L 140.08203 179.839193 
L 140.11499 178.757641 
L 140.21387 179.066656 
L 140.345709 176.478656 
L 140.378669 174.740448 
L 140.444589 176.131015 
L 140.642348 179.105282 
L 140.708268 178.487253 
L 140.741228 178.603133 
L 140.938987 176.092388 
L 140.971946 177.28982 
L 141.037866 176.55591 
L 141.070826 176.787671 
L 141.103786 176.633164 
L 141.334505 174.315552 
L 141.169706 176.787671 
L 141.367465 174.624567 
L 141.499304 176.324149 
L 141.532264 176.131015 
L 141.664103 174.006537 
L 141.762983 175.049463 
L 141.795943 175.010836 
L 141.960742 173.813403 
L 141.993702 174.276925 
L 142.059622 173.929284 
L 142.125541 174.817701 
L 142.224421 175.20397 
L 142.3233 173.543015 
L 142.35626 173.929284 
L 142.45514 173.234 
L 142.52106 173.349881 
L 142.554019 173.465761 
L 142.586979 174.547313 
L 142.652899 173.427135 
L 142.685859 173.581642 
L 142.850658 171.534419 
L 142.883618 171.650299 
L 143.015457 173.504388 
L 143.081377 172.538717 
L 143.114337 173.040866 
L 143.147297 173.349881 
L 143.246176 169.216807 
L 143.345056 169.448568 
L 144.004253 174.740448 
L 144.037213 174.083791 
L 144.070173 174.894955 
L 144.103132 175.242597 
L 144.136092 174.547313 
L 144.169052 174.58594 
L 144.333851 173.002239 
L 144.366811 173.195373 
L 144.399771 174.701821 
L 144.465691 173.002239 
L 144.795289 175.590239 
L 144.894169 176.517283 
L 144.960089 176.401403 
L 144.993048 176.478656 
L 145.388567 180.495849 
L 145.454486 179.530178 
L 145.553366 178.603133 
L 145.586326 178.757641 
L 145.685205 179.607432 
L 145.718165 179.143909 
L 145.784085 179.568805 
L 145.817045 179.298417 
L 145.850005 178.873521 
L 145.882964 180.186834 
L 145.948884 178.564506 
L 145.981844 178.796268 
L 146.014804 178.64176 
L 146.047764 178.139611 
L 146.080724 178.989402 
L 146.113683 178.448626 
L 146.146643 178.487253 
L 146.278483 179.761939 
L 146.311443 179.298417 
L 146.344402 179.221163 
L 146.476242 175.822 
L 146.509202 176.787671 
L 146.575121 178.52588 
L 146.641041 177.946477 
L 146.674001 178.100984 
L 146.77288 177.251193 
L 146.90472 178.255492 
L 147.036559 177.482954 
L 147.168399 178.52588 
L 147.201359 178.409999 
L 147.234318 177.869223 
L 147.267278 179.143909 
L 147.333198 179.452924 
L 147.366158 180.109581 
L 147.432078 179.491551 
L 147.465037 179.646058 
L 147.629837 178.603133 
L 147.662796 179.955073 
L 147.728716 179.607432 
L 147.761676 179.105282 
L 147.794636 179.800566 
L 147.827596 179.9937 
L 147.959435 178.719014 
L 148.157194 181.577401 
L 148.190154 181.268386 
L 148.223114 181.886416 
L 148.289034 182.69758 
L 148.354953 182.118177 
L 148.453833 181.538774 
L 148.486793 181.847789 
L 148.684552 185.053818 
L 148.783431 183.045222 
L 148.882311 183.122475 
L 148.915271 183.238356 
L 148.948231 183.006595 
L 148.981191 184.204027 
L 149.01415 183.122475 
L 149.04711 181.886416 
L 149.11303 182.465819 
L 149.14599 183.663251 
L 149.21191 183.43149 
L 149.277829 182.195431 
L 149.310789 182.504446 
L 149.508548 185.131072 
L 149.607428 183.470117 
L 149.640388 184.04952 
L 149.673347 184.126774 
L 149.706307 184.78343 
L 149.739267 183.740505 
L 149.772227 184.088147 
L 149.871107 182.427192 
L 149.904066 182.5817 
L 149.937026 183.199729 
L 149.969986 182.156804 
L 150.035906 182.195431 
L 150.200705 179.761939 
L 150.266625 180.804864 
L 150.299585 180.264088 
L 150.398464 178.255492 
L 150.431424 179.066656 
L 150.497344 179.37567 
L 150.530304 179.028029 
L 150.563263 179.105282 
L 150.596223 178.873521 
L 150.629183 179.066656 
L 150.695103 179.800566 
L 150.761023 179.723312 
L 150.859902 178.178238 
L 150.892862 178.603133 
L 150.991742 180.341342 
L 151.024701 179.37567 
L 151.057661 179.066656 
L 151.090621 179.761939 
L 151.123581 179.723312 
L 151.222461 180.766237 
L 151.3543 178.989402 
L 151.42022 181.384267 
L 151.486139 180.225461 
L 151.519099 179.414297 
L 151.585019 179.9937 
L 151.650939 179.87782 
L 151.683898 180.032327 
L 151.815738 180.882118 
L 151.848698 180.341342 
L 151.914617 181.036625 
L 151.947577 181.422894 
L 151.980537 180.843491 
L 152.046457 180.341342 
L 152.112377 180.573103 
L 152.178296 180.997998 
L 152.310136 178.757641 
L 152.573814 181.500148 
L 152.771574 178.834894 
L 153.101172 174.856328 
L 153.167092 175.126716 
L 153.233012 175.281224 
L 153.49669 172.577344 
L 153.52965 172.731851 
L 153.694449 171.225404 
L 153.760369 170.877762 
L 153.859249 172.345583 
L 153.925168 170.259732 
L 154.024048 170.646001 
L 154.452526 166.551554 
L 154.617325 168.637404 
L 154.749165 167.594479 
L 154.782125 167.942121 
L 154.815084 168.173882 
L 154.946924 167.053703 
L 154.979884 167.285464 
L 155.012844 166.667435 
L 155.078763 167.208211 
L 155.144683 166.551554 
L 155.177643 165.00648 
L 155.276522 165.276868 
L 155.342442 166.667435 
L 155.375402 166.397047 
L 155.408362 165.817644 
L 155.441322 166.744688 
L 155.474281 166.937823 
L 155.573161 165.508629 
L 155.606121 166.35842 
L 155.672041 166.126659 
L 155.705 165.701763 
L 155.73796 165.933525 
L 155.80388 167.053703 
L 155.83684 166.512927 
L 155.8698 165.663137 
L 155.90276 166.783315 
L 155.935719 166.088032 
L 156.001639 166.860569 
L 156.034599 166.126659 
L 156.067559 165.894898 
L 156.100519 164.658838 
L 156.199398 164.813346 
L 156.298278 165.933525 
L 156.331238 165.392749 
L 156.397157 165.122361 
L 156.594916 166.281166 
L 156.726756 164.427077 
L 156.825635 164.890599 
L 156.858595 165.276868 
L 156.891555 164.736092 
L 156.924515 165.238241 
L 157.056354 164.118062 
L 157.188194 165.663137 
L 157.287073 166.203913 
L 157.418913 164.311197 
L 157.616672 168.019375 
L 157.649632 167.980748 
L 157.748511 168.560151 
L 157.781471 168.482897 
L 157.94627 166.937823 
L 158.04515 169.718956 
L 158.07811 168.560151 
L 158.11107 168.637404 
L 158.176989 167.864867 
L 158.209949 168.212509 
L 158.308829 170.259732 
L 158.341789 169.371315 
L 158.407708 170.298359 
L 158.473628 170.105225 
L 158.638427 167.71036 
L 158.671387 168.251136 
L 158.770267 169.525822 
L 158.803227 169.448568 
L 158.902106 170.993643 
L 158.968026 170.298359 
L 159.033946 170.491494 
L 159.132825 167.555852 
L 159.165785 167.787614 
L 159.297624 168.830539 
L 159.231705 167.555852 
L 159.330584 168.637404 
L 159.363544 168.212509 
L 159.396504 169.641703 
L 159.462424 168.482897 
L 159.495383 168.405643 
L 159.594263 166.281166 
L 159.627223 167.169584 
L 159.660183 167.130957 
L 159.792022 168.869166 
L 159.890902 168.289763 
L 159.923862 168.521524 
L 160.022741 170.336986 
L 160.055701 170.298359 
L 160.088661 169.757583 
L 160.121621 170.877762 
L 160.154581 170.105225 
L 160.18754 170.955016 
L 160.2205 170.684628 
L 160.28642 169.0623 
L 160.31938 169.834837 
L 160.35234 170.221106 
L 160.385299 169.100927 
L 160.451219 169.448568 
L 160.517139 170.066598 
L 160.616018 168.173882 
L 160.681938 168.521524 
L 160.747858 167.787614 
L 160.780818 168.096628 
L 160.813778 168.32839 
L 160.912657 165.701763 
L 161.011537 166.281166 
L 161.242256 164.620211 
L 161.275216 164.697465 
L 161.505934 160.448511 
L 161.538894 160.680272 
L 161.571854 160.564392 
L 161.604814 160.718899 
L 161.670734 161.105167 
L 161.736653 158.671676 
L 161.835533 158.86481 
L 161.934413 160.796153 
L 162.000332 160.255377 
L 162.033292 159.135198 
L 162.099212 159.830481 
L 162.132172 159.869108 
L 162.165132 160.718899 
L 162.264011 160.448511 
L 162.329931 160.680272 
L 162.362891 160.603018 
L 162.56065 157.281109 
L 162.692489 157.51287 
L 162.890248 159.251078 
L 162.923208 159.096571 
L 162.956168 159.289705 
L 162.989128 159.135198 
L 163.120967 161.182421 
L 163.285766 160.33263 
L 163.318726 160.062242 
L 163.417606 160.100869 
L 163.582405 164.040809 
L 163.615365 163.538659 
L 163.747204 161.530063 
L 163.780164 162.379854 
L 163.813124 162.225346 
L 163.879044 160.680272 
L 163.944964 161.182421 
L 163.977923 161.105167 
L 164.175683 165.585883 
L 164.208642 165.083734 
L 164.241602 165.856271 
L 164.274562 165.779017 
L 164.373442 164.542958 
L 164.604161 168.405643 
L 164.67008 168.521524 
L 164.736 167.864867 
L 164.76896 167.671733 
L 164.83488 168.830539 
L 164.867839 168.637404 
L 164.999679 166.937823 
L 165.032639 168.251136 
L 165.131518 168.019375 
L 165.230398 169.409942 
L 165.263358 169.294061 
L 165.329277 168.907792 
L 165.395197 169.023673 
L 165.658876 171.997941 
L 165.691836 172.461463 
L 165.757755 171.997941 
L 165.823675 172.615971 
L 165.856635 173.736149 
L 165.922555 172.963612 
L 165.955515 173.002239 
L 166.746551 185.710475 
L 166.812471 185.285579 
L 166.845431 185.324206 
L 167.04319 186.907907 
L 167.07615 187.023788 
L 167.207989 185.092445 
L 167.240949 185.826355 
L 167.372788 187.873579 
L 167.438708 187.37143 
L 167.471668 189.418653 
L 167.537587 188.10534 
L 167.636467 189.071011 
L 167.834226 190.616086 
L 167.867186 190.152563 
L 167.900146 190.036683 
L 168.097905 192.856443 
L 168.196784 191.929399 
L 168.361584 194.24701 
L 168.526383 191.736264 
L 168.592303 193.358592 
L 168.658222 192.470175 
L 168.724142 192.354294 
L 168.757102 192.856443 
L 168.823022 194.903667 
L 168.888941 194.401517 
L 168.954861 194.671905 
L 169.15262 197.028144 
L 169.18558 196.371487 
L 169.21854 195.59895 
L 169.2515 196.410114 
L 169.28446 196.294233 
L 169.317419 197.105397 
L 169.416299 196.873636 
L 169.449259 194.86504 
L 169.548138 195.289935 
L 169.647018 194.826413 
L 170.042536 200.156919 
L 170.075496 199.307128 
L 170.108456 199.229875 
L 170.141416 198.611845 
L 170.207335 198.766352 
L 170.372135 200.427307 
L 170.405095 199.886531 
L 170.438054 199.77065 
L 170.536934 201.470232 
L 170.602854 200.929456 
L 170.668773 201.315725 
L 170.734693 200.465934 
L 170.899492 202.97668 
L 170.932452 204.019605 
L 170.965412 202.590411 
L 170.998372 202.629038 
L 171.097251 201.392978 
L 171.229091 202.590411 
L 171.52573 198.766352 
L 171.657569 199.345755 
L 171.690529 198.804979 
L 171.756449 199.538889 
L 171.822368 198.225576 
L 171.888288 198.92086 
L 171.921248 199.075367 
L 172.020127 196.680502 
L 172.119007 197.144024 
L 172.151967 196.989517 
L 172.250846 194.942293 
L 172.283806 195.753457 
L 172.316766 195.367189 
L 172.514525 198.186949 
L 172.547485 198.264203 
L 172.646365 196.448741 
L 172.679324 196.603248 
L 172.844124 197.56892 
L 172.877084 197.530293 
L 173.008923 198.611845 
L 173.041883 197.259905 
L 173.140762 197.646173 
L 173.305562 195.985219 
L 173.404441 198.225576 
L 173.437401 197.375785 
L 173.56924 194.324264 
L 173.6022 194.401517 
L 173.66812 195.560323 
L 173.70108 195.174055 
L 173.73404 194.478771 
L 173.767 194.98092 
L 173.898839 195.560323 
L 173.997719 193.899368 
L 174.030678 194.324264 
L 174.162518 196.525995 
L 174.294357 196.062472 
L 174.327317 196.062472 
L 174.393237 195.830711 
L 174.426197 196.139726 
L 174.459156 195.676204 
L 174.722835 192.547428 
L 174.755795 192.547428 
L 174.920594 189.882175 
L 174.986514 188.684743 
L 175.052434 189.264146 
L 175.118353 189.534534 
L 175.217233 187.757698 
L 175.283153 188.10534 
L 175.349072 189.418653 
L 175.414992 188.530235 
L 175.645711 183.972266 
L 175.678671 184.937938 
L 175.711631 184.744803 
L 175.744591 185.015191 
L 175.777551 185.015191 
L 175.81051 185.053818 
L 175.84347 184.899311 
L 176.008269 183.31561 
L 176.304908 181.384267 
L 176.337868 182.272685 
L 176.370828 181.075252 
L 176.568587 178.989402 
L 176.733386 177.405701 
L 176.832266 177.367074 
L 176.898186 178.448626 
L 177.161864 179.723312 
L 177.326664 178.100984 
L 177.458503 177.019432 
L 177.524423 178.564506 
L 177.557383 178.216865 
L 177.886981 171.03227 
L 177.952901 170.298359 
L 178.01882 169.718956 
L 178.05178 170.221106 
L 178.1177 171.920687 
L 178.18362 171.341284 
L 178.249539 172.075195 
L 178.348419 169.718956 
L 178.381379 169.912091 
L 178.513218 170.53012 
L 178.579138 169.487195 
L 178.743937 171.573046 
L 178.809857 169.873464 
L 178.842817 170.027971 
L 178.908737 171.070896 
L 178.941696 170.41424 
L 179.040576 168.560151 
L 179.073536 169.023673 
L 179.238335 170.568747 
L 179.271295 170.646001 
L 179.304255 170.027971 
L 179.337215 171.804807 
L 179.436094 171.534419 
L 179.469054 171.573046 
L 179.765693 175.783373 
L 179.798653 175.358477 
L 179.831612 175.358477 
L 180.095291 178.950775 
L 180.128251 178.873521 
L 180.29305 177.058059 
L 180.589689 182.852087 
L 180.721528 182.118177 
L 180.853368 181.22976 
L 180.886328 181.422894 
L 181.117047 184.513042 
L 181.150006 184.435789 
L 181.182966 184.590296 
L 181.248886 185.324206 
L 181.281846 185.285579 
L 181.314806 184.319908 
L 181.380725 185.208326 
L 181.413685 185.131072 
L 181.479605 186.444385 
L 181.545525 185.594594 
L 181.611444 185.40146 
L 181.710324 186.212624 
L 181.842163 184.088147 
L 181.875123 185.053818 
L 181.941043 184.822057 
L 181.974003 184.66755 
L 182.006963 185.40146 
L 182.039922 184.513042 
L 182.072882 185.053818 
L 182.468401 181.268386 
L 182.60024 182.311312 
L 182.6332 182.311312 
L 182.66616 182.040924 
L 182.69912 182.156804 
L 182.765039 183.276983 
L 182.797999 182.272685 
L 182.830959 182.311312 
L 183.193517 176.131015 
L 183.259437 176.401403 
L 183.325357 175.551612 
L 183.358317 176.092388 
L 183.391276 176.478656 
L 183.654955 169.79621 
L 183.687915 168.946419 
L 183.720875 170.607374 
L 183.753835 170.607374 
L 183.918634 166.744688 
L 183.951594 167.015076 
L 184.017514 165.74039 
L 184.215273 158.671676 
L 184.248233 158.594422 
L 184.544871 151.757468 
L 185.072229 138.044934 
L 185.105189 138.122188 
L 185.500707 129.778787 
L 185.533667 129.894668 
L 185.995105 121.319506 
L 186.028065 122.323804 
L 186.061024 121.242252 
L 186.093984 121.319506 
L 186.159904 120.662849 
L 186.225824 120.971864 
L 186.291743 123.057714 
L 186.324703 122.86458 
L 186.423583 120.353834 
L 186.489503 120.585595 
L 186.522462 120.469715 
L 186.555422 120.585595 
L 186.687262 121.589894 
L 186.720222 121.087745 
L 186.753181 121.358133 
L 186.786141 122.053416 
L 186.819101 120.585595 
L 186.885021 120.199327 
L 186.917981 121.242252 
L 186.95094 120.740103 
L 186.9839 121.589894 
L 187.04982 122.903207 
L 187.11574 122.323804 
L 187.1487 121.937535 
L 187.181659 122.787326 
L 187.346459 124.525535 
L 187.412378 123.868878 
L 187.445338 124.525535 
L 188.104535 141.096456 
L 188.269335 146.735977 
L 188.302294 146.620096 
L 188.335254 145.808932 
L 188.368214 147.354007 
L 188.598933 155.465646 
L 189.455889 174.431433 
L 189.488849 174.276925 
L 189.686608 172.577344 
L 189.719568 173.890657 
L 189.785488 173.85203 
L 190.181006 166.628808 
L 190.312845 164.195316 
L 190.345805 164.813346 
L 190.510605 160.33263 
L 190.543564 160.95066 
L 190.576524 160.33263 
L 190.609484 159.675974 
L 190.642444 161.221048 
L 190.708364 159.907735 
L 190.741323 160.062242 
L 190.774283 159.830481 
L 190.840203 159.366959 
L 190.873163 159.59872 
L 191.103882 153.920572 
L 191.301641 152.10511 
L 191.334601 152.607259 
L 191.367561 152.954901 
L 191.400521 152.10511 
L 191.43348 153.263916 
L 191.46644 153.186662 
L 191.4994 153.070781 
L 191.828999 156.045049 
L 191.993798 154.345468 
L 192.323396 158.1309 
L 192.356356 157.937765 
L 193.048513 135.070666 
L 193.345152 120.933237 
L 194.070269 93.933065 
L 194.103228 94.087572 
L 194.432827 91.074677 
L 194.630586 93.392289 
L 194.663546 93.083274 
L 194.696506 93.199154 
L 194.729466 92.851513 
L 194.762425 93.276408 
L 195.026104 96.212049 
L 195.059064 95.478139 
L 195.092024 96.134795 
L 195.322743 99.070437 
L 195.355703 98.104765 
L 195.388663 98.954556 
L 195.652341 103.551152 
L 195.685301 103.358018 
L 195.718261 102.624107 
L 195.784181 102.933122 
L 195.88306 104.362316 
L 195.98194 104.246435 
L 196.0149 103.20351 
L 196.08082 103.280764 
L 196.245619 106.52542 
L 196.311539 105.868763 
L 196.344498 106.873061 
L 196.377458 105.830136 
L 196.410418 105.946017 
L 196.476338 105.559748 
L 196.542257 105.637002 
L 196.608177 106.564047 
L 196.740017 104.130555 
L 196.772976 103.860167 
L 196.937776 105.984644 
L 196.970736 105.90739 
L 197.135535 102.662734 
L 197.201455 102.971749 
L 197.432174 107.452464 
L 197.629933 112.976105 
L 197.695852 114.521179 
L 198.882407 169.950718 
L 199.310885 192.508802 
L 199.541604 200.774949 
L 200.003042 221.131302 
L 200.036002 221.324436 
L 201.024797 261.264605 
L 201.057757 260.955591 
L 201.090717 261.341859 
L 201.453275 271.848364 
L 202.376151 288.573793 
L 202.409111 287.414987 
L 202.442071 286.449316 
L 202.475031 287.337733 
L 202.57391 287.105972 
L 202.63983 289.191822 
L 202.67279 288.380658 
L 202.70575 289.075942 
L 202.77167 288.882808 
L 202.837589 289.500837 
L 202.870549 289.500837 
L 202.969429 289.732598 
L 203.529746 281.350571 
L 203.793425 271.423469 
L 204.353743 253.384727 
L 204.518542 247.088549 
L 204.584461 246.084251 
L 205.441418 217.809392 
L 205.738056 201.972381 
L 206.792772 152.568632 
L 206.858691 149.40123 
L 207.023491 141.405471 
L 207.451969 121.51264 
L 207.517888 122.092043 
L 207.550848 120.083446 
L 207.781567 111.778672 
L 208.111166 100.38375 
L 208.177085 99.456705 
L 208.902202 81.147575 
L 208.935162 81.263456 
L 209.29772 73.924353 
L 209.33068 75.353547 
L 209.3966 74.890025 
L 209.528439 72.379279 
L 209.759158 67.512295 
L 209.956917 65.11743 
L 210.121717 64.035878 
L 210.253556 64.962923 
L 210.319476 64.460773 
L 210.352436 64.847042 
L 210.385395 65.73546 
L 210.451315 64.808415 
L 210.517235 63.726863 
L 210.550195 64.035878 
L 210.616114 65.194684 
L 210.649074 64.4994 
L 210.714994 63.76549 
L 210.747954 64.615281 
L 210.780914 64.576654 
L 210.978673 68.516593 
L 211.011633 67.666802 
L 211.044593 68.632474 
L 211.143472 71.104593 
L 211.242352 70.52519 
L 211.275311 70.370682 
L 211.57195 75.31492 
L 211.60491 74.465129 
L 211.67083 73.885726 
L 211.70379 74.426502 
L 212.033388 79.216232 
L 212.066348 78.520949 
L 212.132268 79.100352 
L 212.395946 84.314977 
L 212.428906 85.126141 
L 212.461866 83.117545 
L 212.494826 84.430858 
L 212.725545 91.383692 
L 212.857384 95.207751 
L 213.055144 101.079033 
L 213.088103 100.615511 
L 213.121063 100.461003 
L 214.538337 151.757468 
L 215.098654 178.294118 
L 215.626012 198.495964 
L 215.98857 214.719244 
L 216.318169 225.727898 
L 216.614808 240.097088 
L 217.537683 272.698155 
L 218.29576 290.041613 
L 218.32872 289.693972 
L 218.526479 292.629613 
L 218.592399 292.088837 
L 218.625359 291.857076 
L 218.658318 292.475105 
L 218.691278 291.857076 
L 218.757198 291.3163 
L 218.790158 291.972956 
L 218.856078 291.354926 
L 218.987917 290.852777 
L 219.086796 293.324896 
L 219.119756 292.861374 
L 219.185676 291.818449 
L 219.218636 292.359225 
L 219.251596 292.359225 
L 219.284556 291.663941 
L 219.350475 292.05021 
L 219.515275 293.904299 
L 219.548234 293.093135 
L 219.581194 292.900001 
L 219.778953 295.488 
L 219.811913 294.86997 
L 219.844873 294.676836 
L 219.877833 294.985851 
L 219.910793 295.217612 
L 220.207431 289.925733 
L 220.240391 290.466509 
L 220.273351 290.002986 
L 220.43815 286.951465 
L 220.47111 288.535166 
L 220.50407 287.608121 
L 220.767749 281.196063 
L 220.899588 277.835527 
L 221.229187 270.341917 
L 221.262147 269.994275 
L 221.426946 262.539292 
L 221.459906 262.616545 
L 221.723585 253.96413 
L 222.81126 214.062587 
L 223.074939 202.744918 
L 223.107898 203.09256 
L 223.140858 202.281396 
L 223.470457 185.633221 
L 223.503417 185.942236 
L 223.931895 169.834837 
L 224.327413 154.461348 
L 224.98661 127.461176 
L 225.08549 125.452579 
L 225.942446 98.877302 
L 225.975406 98.915929 
L 226.206125 92.735632 
L 226.239084 92.697005 
L 226.568683 84.199097 
L 226.997161 74.001607 
L 227.030121 74.040234 
L 227.26084 69.636772 
L 227.2938 69.636772 
L 227.359719 69.17325 
L 227.425639 67.705429 
L 227.458599 68.362086 
L 227.491559 68.902862 
L 227.524519 67.705429 
L 227.689318 65.426445 
L 227.722278 66.662504 
L 227.755238 67.048773 
L 227.920037 65.349191 
L 227.952997 65.078803 
L 227.985957 65.426445 
L 228.150756 66.507997 
L 228.183716 66.585251 
L 228.282595 65.774087 
L 228.315555 65.889967 
L 228.348515 66.778385 
L 228.414435 66.701131 
L 228.513314 65.233311 
L 228.678114 68.902862 
L 228.776993 71.027339 
L 228.809953 70.138921 
L 228.908832 70.52519 
L 229.040672 68.786981 
L 229.238431 71.838503 
L 229.271391 71.645369 
L 229.897628 82.345008 
L 229.930588 82.113247 
L 229.963548 81.765605 
L 230.721624 103.782913 
L 230.886424 108.456763 
L 230.919383 108.61127 
L 231.216022 121.860282 
L 231.809299 144.6115 
L 232.633296 181.152506 
L 232.732175 185.594594 
L 233.061774 198.418711 
L 234.182409 235.307358 
L 234.413128 242.491953 
L 234.973445 255.972726 
L 235.006405 255.934099 
L 235.039365 256.04998 
L 235.401923 262.307531 
L 235.434883 261.57362 
L 235.467843 263.234575 
L 235.797442 270.921319 
L 235.830401 270.032902 
L 235.863361 271.423469 
L 235.896321 270.457797 
L 235.995201 272.698155 
L 236.028161 270.959946 
L 236.12704 271.539349 
L 236.19296 272.311886 
L 236.291839 274.706751 
L 236.324799 275.595169 
L 236.390719 274.397737 
L 236.423679 274.47499 
L 236.654398 278.723944 
L 236.687358 277.333378 
L 236.918077 275.286154 
L 237.082876 273.470692 
L 237.115836 273.316185 
L 237.247675 274.938513 
L 237.280635 274.629498 
L 237.313595 274.629498 
L 237.379515 274.127349 
L 237.511354 276.174572 
L 237.544314 275.363408 
L 237.643193 274.397737 
L 237.676153 274.977139 
L 237.709113 275.015766 
L 237.742073 275.286154 
L 237.775033 274.243229 
L 237.873912 274.552244 
L 238.236471 268.603708 
L 238.269431 268.835469 
L 238.40127 267.290395 
L 238.50015 267.831171 
L 238.566069 266.131589 
L 238.599029 266.286097 
L 238.763828 262.500665 
L 238.895668 260.723829 
L 238.928628 261.534993 
L 238.961587 261.264605 
L 239.423025 250.410459 
L 239.620784 245.891117 
L 243.411168 103.280764 
L 243.510047 100.654138 
L 243.674846 95.787154 
L 243.740766 96.018915 
L 243.773726 95.825781 
L 244.070365 90.379394 
L 244.103324 90.30214 
L 244.301084 85.705544 
L 244.334043 85.975932 
L 244.367003 85.975932 
L 245.05916 77.439397 
L 245.223959 73.615338 
L 245.256919 73.653965 
L 245.289879 74.040234 
L 245.355799 73.885726 
L 245.388759 73.576711 
L 245.421719 75.276293 
L 245.487638 74.078861 
L 245.520598 73.96298 
L 245.619478 72.302025 
L 245.652437 72.765548 
L 245.685397 72.417906 
L 245.718357 72.572413 
L 245.784277 74.040234 
L 245.850197 73.576711 
L 245.916116 72.070264 
L 245.982036 72.726921 
L 246.014996 73.34495 
L 246.080916 72.804174 
L 246.113875 72.61104 
L 246.146835 73.422204 
L 246.179795 70.100294 
L 246.278675 70.563817 
L 246.311635 71.2591 
L 246.344594 69.829906 
L 246.641233 73.769846 
L 246.674193 72.649667 
L 246.740113 73.653965 
L 246.806032 73.074562 
L 246.871952 74.542383 
L 246.937872 74.194741 
L 247.003791 74.194741 
L 247.036751 74.812771 
L 247.069711 74.542383 
L 247.102671 73.460831 
L 247.168591 74.619637 
L 247.201551 74.967278 
L 247.23451 74.233368 
L 247.26747 74.928651 
L 247.30043 74.774144 
L 247.39931 73.113189 
L 247.827788 81.186202 
L 247.926667 81.688351 
L 248.486985 94.705602 
L 248.519945 94.473841 
L 248.552904 94.551094 
L 248.750664 98.915929 
L 249.113222 107.220703 
L 249.278021 113.401 
L 249.50874 120.199327 
L 249.673539 126.765892 
L 249.937218 138.276696 
L 250.200897 149.632991 
L 250.266817 150.560036 
L 250.497536 160.912033 
L 250.530496 161.066541 
L 250.860094 173.85203 
L 250.926014 175.512985 
L 251.090813 182.929341 
L 251.321532 195.058174 
L 251.354492 195.251308 
L 251.585211 204.637634 
L 251.618171 204.599008 
L 252.211448 228.972554 
L 252.738806 250.796727 
L 253.496882 272.196006 
L 253.529842 271.500722 
L 253.727601 277.526512 
L 253.95832 281.041556 
L 253.99128 280.384899 
L 254.02424 281.11881 
L 254.189039 285.213256 
L 254.221999 284.208958 
L 254.419758 288.7283 
L 254.518638 291.663941 
L 254.584557 290.273374 
L 254.617517 290.81415 
L 254.650477 289.809852 
L 254.716397 290.69827 
L 254.815276 291.393553 
L 254.881196 291.239046 
L 254.914156 290.505136 
L 254.947116 290.621016 
L 255.013036 291.741195 
L 255.078955 291.702568 
L 255.111915 291.663941 
L 255.144875 290.968658 
L 255.177835 292.011583 
L 255.210795 292.436478 
L 255.243754 291.972956 
L 255.276714 291.548061 
L 255.309674 292.16609 
L 255.342634 293.015881 
L 255.408554 292.16609 
L 255.441514 291.625314 
L 255.474473 292.436478 
L 255.507433 292.243344 
L 255.540393 292.706866 
L 255.573353 292.552359 
L 255.606313 291.702568 
L 255.672233 292.66824 
L 255.705192 292.397852 
L 255.837032 293.711165 
L 256.23255 286.140301 
L 256.26551 286.487943 
L 256.29847 286.951465 
L 256.33143 286.217555 
L 256.397349 285.406391 
L 256.496229 283.011525 
L 256.529189 283.475048 
L 256.595108 285.90854 
L 256.628068 284.749734 
L 256.891747 281.196063 
L 257.188386 274.011468 
L 257.221346 274.050095 
L 257.353185 271.230334 
L 258.210141 241.140013 
L 258.47382 232.21721 
L 258.869338 213.830826 
L 259.264856 198.457337 
L 259.528535 185.208326 
L 260.484371 147.547141 
L 260.517331 147.392634 
L 262.461962 86.400828 
L 262.626761 84.933007 
L 262.725641 83.117545 
L 262.85748 80.72268 
L 262.89044 81.379336 
L 262.9234 80.645426 
L 262.95636 80.954441 
L 262.98932 80.83856 
L 263.384838 72.108891 
L 263.450758 73.422204 
L 263.483718 75.31492 
L 263.549637 74.310622 
L 263.582597 73.847099 
L 263.615557 73.924353 
L 263.648517 76.04883 
L 263.714437 74.156114 
L 263.747396 73.731219 
L 263.780356 74.310622 
L 263.813316 74.310622 
L 263.912196 72.997309 
L 263.945156 73.306323 
L 263.978115 74.156114 
L 264.044035 73.074562 
L 264.571393 66.198982 
L 264.604353 66.237609 
L 264.802112 68.323459 
L 264.835072 68.284832 
L 264.868031 68.43934 
L 264.900991 67.589549 
L 264.999871 67.666802 
L 265.09875 68.902862 
L 265.13171 68.748354 
L 265.16467 68.593847 
L 265.329469 69.250504 
L 265.362429 69.520892 
L 265.395389 69.211877 
L 265.461309 69.443638 
L 265.494269 69.482265 
L 265.560188 68.43934 
L 265.593148 68.941489 
L 265.856827 73.615338 
L 265.889787 73.499458 
L 265.922747 72.61104 
L 265.988666 72.958682 
L 266.021626 72.958682 
L 266.285305 77.748412 
L 266.318265 77.323517 
L 266.351225 77.864293 
L 266.450104 78.75271 
L 266.614904 80.452292 
L 267.043382 90.224886 
L 267.241141 96.212049 
L 267.30706 95.09187 
L 267.34002 95.787154 
L 267.636659 104.787211 
L 267.669619 104.864465 
L 267.867378 111.199269 
L 267.966257 113.555508 
L 269.71313 180.650357 
L 270.042728 191.504503 
L 270.339367 204.289993 
L 270.701925 218.388795 
L 270.734885 218.195661 
L 270.767845 218.620556 
L 271.591841 245.195833 
L 271.624801 245.195833 
L 271.92144 254.775294 
L 271.987359 254.466279 
L 272.152159 257.363293 
L 272.283998 259.680904 
L 272.316958 259.333263 
L 272.481757 262.19165 
L 273.009115 270.535051 
L 273.075035 270.187409 
L 273.107994 269.878394 
L 273.140954 270.573678 
L 273.173914 270.650932 
L 273.470553 275.015766 
L 273.503513 274.899886 
L 273.569432 273.393438 
L 273.635352 274.320483 
L 273.833111 276.947109 
L 273.866071 277.101616 
L 273.931991 276.406333 
L 273.964951 276.869855 
L 273.99791 277.719646 
L 274.06383 277.140243 
L 274.19567 274.977139 
L 274.261589 275.672423 
L 274.360469 277.17887 
L 274.393429 277.06299 
L 274.426389 277.06299 
L 274.459348 277.372004 
L 274.525268 277.06299 
L 274.591188 275.865557 
L 274.624148 276.329079 
L 274.755987 277.333378 
L 274.854867 276.44496 
L 275.019666 279.26472 
L 275.052626 279.187467 
L 275.085586 279.071586 
L 275.151505 280.771168 
L 275.217425 280.191765 
L 275.316305 279.380601 
L 275.382224 280.809795 
L 275.448144 280.462153 
L 275.481104 280.61666 
L 275.645903 277.101616 
L 275.711823 277.17887 
L 275.744783 276.56084 
L 275.909582 273.856961 
L 275.975502 274.011468 
L 276.008461 274.397737 
L 276.041421 273.74108 
L 276.074381 274.281856 
L 276.40398 269.260365 
L 276.601739 264.354754 
L 276.634699 264.972784 
L 276.667659 264.586515 
L 277.359815 247.745206 
L 277.590534 239.170044 
L 277.623494 238.976909 
L 277.821253 231.483299 
L 277.854213 231.135658 
L 278.348611 212.594767 
L 280.029563 150.482782 
L 280.326202 136.074965 
L 280.622841 125.452579 
L 280.985399 112.78297 
L 281.776436 89.375096 
L 281.809395 89.413722 
L 282.303793 79.48662 
L 282.336753 79.602501 
L 282.501552 75.430801 
L 282.798191 71.104593 
L 282.831151 71.413608 
L 282.93003 69.752653 
L 282.99595 70.370682 
L 283.02891 72.572413 
L 283.09483 70.988712 
L 283.12779 71.027339 
L 283.160749 71.529488 
L 283.193709 70.911458 
L 283.490348 64.267639 
L 283.523308 64.344893 
L 283.754027 61.409252 
L 283.786987 61.486506 
L 283.819946 61.331998 
L 283.951786 60.057312 
L 283.984746 60.404954 
L 284.050665 60.173192 
L 284.182505 58.203223 
L 284.215465 58.937133 
L 284.281384 58.203223 
L 284.479144 54.379164 
L 284.512103 55.074447 
L 284.643943 56.542268 
L 284.676903 56.503641 
L 284.808742 54.997194 
L 284.841702 56.696775 
L 284.907622 55.190328 
L 284.940581 55.344835 
L 284.973541 55.190328 
L 285.072421 55.344835 
L 285.105381 54.031522 
L 285.27018 55.460716 
L 285.3361 55.53797 
L 285.500899 53.568 
L 285.797538 56.928536 
L 285.995297 60.482207 
L 286.028257 59.941431 
L 286.061216 60.675342 
L 286.094176 60.752595 
L 286.621534 72.302025 
L 286.654494 70.988712 
L 286.720413 71.452234 
L 286.753373 71.568115 
L 287.181851 80.954441 
L 287.214811 80.993068 
L 287.643289 94.898736 
L 287.676249 94.97599 
L 287.841048 99.881601 
L 288.665045 132.250906 
L 288.862804 139.165113 
L 289.291282 156.77896 
L 289.587921 168.869166 
L 289.81864 180.186834 
L 290.411917 210.238529 
L 290.939275 226.616316 
L 291.664391 247.552072 
L 291.697351 247.590698 
L 292.158789 260.994217 
L 292.587267 269.723887 
L 292.719107 271.462095 
L 292.752066 270.689558 
L 292.785026 270.921319 
L 292.949826 273.277558 
L 292.982785 273.393438 
L 293.180545 277.449258 
L 293.213504 276.985736 
L 293.411263 279.341974 
L 293.477183 278.917079 
L 293.576063 276.522214 
L 293.641982 276.599467 
L 293.674942 276.483587 
L 293.740862 278.492183 
L 293.773822 277.835527 
L 293.806782 275.981438 
L 293.872701 276.406333 
L 294.004541 279.88275 
L 294.2023 280.771168 
L 294.23526 280.423526 
L 294.26822 279.380601 
L 294.334139 280.230392 
L 294.400059 280.153138 
L 294.465979 279.187467 
L 294.498939 279.76687 
L 294.531898 279.88275 
L 294.663738 276.329079 
L 294.696698 276.715348 
L 294.729658 276.599467 
L 294.894457 278.337676 
L 294.927417 278.260422 
L 295.191096 273.779707 
L 294.993336 278.376303 
L 295.224055 274.281856 
L 295.289975 275.324781 
L 295.355895 273.625199 
L 295.388855 274.745378 
L 295.421814 274.784005 
L 295.454774 275.054393 
L 295.619574 271.384842 
L 295.652533 271.577976 
L 295.685493 271.230334 
L 295.718453 272.080125 
L 295.784373 271.925618 
L 295.850293 271.462095 
L 295.949172 272.350513 
L 295.982132 272.041498 
L 296.245811 267.71529 
L 296.41061 265.51356 
L 296.44357 265.51356 
L 297.761964 244.037028 
L 298.058603 236.891059 
L 298.124522 236.195776 
L 298.816679 220.629153 
L 299.113318 211.82223 
L 299.245157 206.491723 
L 299.442916 201.470232 
L 299.475876 201.470232 
L 299.640676 197.993815 
L 299.904354 186.637519 
L 300.102114 179.955073 
L 300.200993 176.826298 
L 300.497632 164.233943 
L 300.530592 164.079435 
L 300.695391 158.1309 
L 300.95907 146.195201 
L 300.99203 146.040694 
L 301.156829 142.409769 
L 301.189789 142.487023 
L 301.222749 142.062127 
L 301.453467 133.448338 
L 301.486427 133.409712 
L 301.717146 127.808817 
L 302.046745 117.147805 
L 302.079705 116.916044 
L 302.343383 108.031867 
L 303.002581 88.525305 
L 303.20034 81.186202 
L 303.233299 81.417963 
L 303.266259 82.113247 
L 303.332179 81.842859 
L 303.365139 79.872889 
L 303.464018 80.259158 
L 303.694737 75.353547 
L 303.826577 73.808473 
L 303.991376 69.559518 
L 304.156175 70.447936 
L 304.255055 72.726921 
L 304.419854 68.980116 
L 304.683533 66.739758 
L 304.716493 67.164653 
L 304.749453 67.010146 
L 304.914252 64.847042 
L 304.980172 66.353489 
L 305.046091 66.276236 
L 305.34273 63.804117 
L 305.37569 64.074505 
L 305.40865 63.649609 
L 305.44161 63.881371 
L 305.507529 62.104535 
L 305.573449 62.877072 
L 305.639369 63.533729 
L 305.771208 65.73546 
L 305.968967 64.151759 
L 306.001927 64.653908 
L 306.067847 64.4994 
L 306.166726 61.525132 
L 306.199686 62.220416 
L 306.364485 63.688236 
L 306.430405 63.76549 
L 306.463365 63.14746 
L 306.496325 64.113132 
L 306.529285 64.074505 
L 306.825923 66.276236 
L 306.957763 69.559518 
L 307.023683 69.211877 
L 307.056642 69.868533 
L 307.089602 69.405011 
L 307.155522 68.362086 
L 307.320321 72.881428 
L 307.353281 72.417906 
L 307.386241 72.49516 
L 307.68288 81.108948 
L 308.111358 91.615453 
L 308.243197 93.701304 
L 309.462712 121.358133 
L 309.89119 134.298129 
L 310.023029 138.547084 
L 310.418547 156.701706 
L 311.407343 190.80922 
L 311.605102 198.148323 
L 311.638062 198.186949 
L 312.00062 208.886589 
L 312.231339 215.491781 
L 312.264299 214.487483 
L 312.297259 214.52611 
L 312.593898 224.607719 
L 312.725737 227.736494 
L 312.923496 231.59918 
L 312.956456 231.830941 
L 313.286054 238.861029 
L 313.483814 243.26449 
L 313.747492 251.144369 
L 313.780452 251.144369 
L 313.879332 253.770995 
L 313.945251 253.732369 
L 314.20893 258.251711 
L 314.24189 257.247412 
L 314.30781 257.788188 
L 314.34077 257.324666 
L 314.406689 257.131532 
L 314.505569 259.333263 
L 314.604449 261.766755 
L 314.670368 261.225979 
L 314.703328 261.187352 
L 314.769248 262.616545 
L 314.868127 264.084366 
L 314.934047 262.886933 
L 314.999967 263.041441 
L 315.032927 262.848307 
L 315.164766 264.547888 
L 315.197726 264.200247 
L 315.230686 263.698097 
L 315.263646 264.045739 
L 315.296605 264.393381 
L 315.329565 262.655172 
L 315.395485 263.775351 
L 315.659164 266.556485 
L 315.791003 266.208843 
L 315.856923 264.856903 
L 315.922843 265.359052 
L 316.021722 265.590813 
L 316.153562 266.208843 
L 316.285401 264.432008 
L 316.351321 266.440604 
L 316.4502 265.822574 
L 316.615 267.831171 
L 316.713879 266.826873 
L 316.746839 266.942753 
L 316.779799 267.444902 
L 316.812759 266.826873 
L 317.043478 262.964187 
L 317.109397 263.891232 
L 317.340116 267.097261 
L 317.504916 264.007112 
L 317.603795 265.243172 
L 317.636755 264.625142 
L 317.735635 264.122993 
L 317.768594 264.586515 
L 317.801554 264.2775 
L 318.098193 261.264605 
L 318.131153 261.844008 
L 318.164113 260.801083 
L 318.262992 259.680904 
L 318.295952 260.298934 
L 318.394832 260.646576 
L 318.427791 260.607949 
L 318.82331 253.848249 
L 318.856269 253.770995 
L 319.152908 248.131474 
L 319.284748 250.603593 
L 319.317707 250.912608 
L 319.515467 246.316012 
L 319.548426 247.011296 
L 319.581386 247.706579 
L 319.647306 247.629325 
L 320.009864 239.208671 
L 320.042824 239.208671 
L 320.174664 238.513387 
L 320.471302 231.444673 
L 320.504262 231.946822 
L 320.537222 231.019777 
L 320.767941 222.792257 
L 320.86682 221.208556 
L 321.130499 213.753572 
L 321.229379 211.706349 
L 321.756737 193.049578 
L 321.789696 192.77919 
L 322.086335 184.204027 
L 322.481853 171.843433 
L 322.646653 167.169584 
L 323.10809 153.109408 
L 323.14105 153.109408 
L 323.470649 140.941949 
L 324.228725 119.735805 
L 324.591284 110.194971 
L 324.624244 110.851628 
L 324.690163 110.001837 
L 324.789043 109.306553 
L 324.822003 108.997539 
L 325.052722 102.933122 
L 325.085682 103.08763 
L 325.217521 100.847272 
L 325.250481 101.23354 
L 325.44824 97.216347 
L 325.4812 97.370855 
L 325.580079 96.868706 
L 325.711919 97.834377 
L 325.876718 93.392289 
L 325.909678 93.73993 
L 326.074477 90.263513 
L 326.206317 88.139036 
L 326.239276 88.486678 
L 326.305196 88.370797 
L 326.404076 88.100409 
L 326.371116 88.563932 
L 326.437036 88.139036 
L 326.469995 88.177663 
L 326.502955 88.409424 
L 326.535915 88.293544 
L 326.601835 86.13044 
L 326.667754 86.516708 
L 326.733674 85.860052 
L 326.766634 87.868648 
L 326.832554 87.289245 
L 326.997353 85.010261 
L 327.030313 84.16047 
L 327.063273 84.89438 
L 327.195112 86.439455 
L 327.392871 84.237724 
L 327.59063 82.460888 
L 327.62359 82.69265 
L 327.75543 83.812828 
L 327.788389 83.735575 
L 327.821349 83.851455 
L 327.953189 85.087515 
L 327.986149 85.280649 
L 328.019108 83.696948 
L 328.117988 84.276351 
L 328.282787 87.211992 
L 328.315747 86.787096 
L 328.480546 84.199097 
L 328.612386 87.057484 
L 328.678305 86.941604 
L 328.711265 85.937305 
L 328.777185 86.593962 
L 329.007904 89.993125 
L 329.073824 89.297842 
L 329.106784 89.413722 
L 329.469342 95.632646 
L 329.568222 93.160528 
L 329.601181 93.430916 
L 329.634141 93.662677 
L 329.667101 93.199154 
L 329.700061 93.00602 
L 329.79894 95.941661 
L 329.8319 94.860109 
L 329.86486 94.782856 
L 329.89782 93.855811 
L 329.93078 94.551094 
L 330.095579 97.911631 
L 330.128539 97.563989 
L 330.326298 101.503928 
L 330.359258 101.079033 
L 330.425178 100.229242 
L 330.787736 108.379509 
L 330.820696 107.684225 
L 330.853656 108.534016 
L 331.150294 116.259388 
L 331.381013 121.705774 
L 331.875411 135.456935 
L 331.941331 138.199442 
L 332.10613 142.564277 
L 332.336849 150.714543 
L 332.534608 156.431318 
L 332.633488 159.907735 
L 332.831247 164.542958 
L 333.029006 170.916389 
L 333.292685 178.564506 
L 333.325645 179.028029 
L 333.490444 184.551669 
L 333.655243 189.109638 
L 333.885962 196.139726 
L 333.918922 196.023845 
L 334.3474 209.697753 
L 334.38036 209.775006 
L 334.742918 220.011123 
L 335.006597 228.972554 
L 335.039557 229.127061 
L 335.468035 242.916849 
L 335.566915 244.075654 
L 335.962433 252.534936 
L 336.061312 254.891174 
L 336.127232 254.543532 
L 336.259072 252.998458 
L 336.292031 253.268846 
L 336.324991 254.775294 
L 336.423871 254.504906 
L 336.819389 260.337561 
L 336.852349 260.762456 
L 336.885309 260.067173 
L 336.918269 259.874039 
L 336.951228 260.260307 
L 336.984188 260.453441 
L 337.247867 265.783948 
L 337.280827 265.822574 
L 337.346747 264.702396 
L 337.379707 265.204545 
L 337.544506 266.98138 
L 337.610425 265.62944 
L 337.775225 269.06723 
L 337.940024 270.882693 
L 338.005944 271.114454 
L 338.038904 271.268961 
L 338.170743 273.509319 
L 338.236663 273.277558 
L 338.401462 275.749677 
L 338.599221 277.91278 
L 338.76402 275.286154 
L 338.82994 274.668125 
L 338.8629 275.247527 
L 338.961779 276.135945 
L 338.994739 275.904184 
L 339.027699 275.749677 
L 339.093619 274.243229 
L 339.159539 274.899886 
L 339.192498 274.706751 
L 339.291378 272.273259 
L 339.324338 272.505021 
L 339.357298 272.543647 
L 339.390257 272.775409 
L 339.423217 272.234633 
L 339.489137 271.346215 
L 339.522097 271.848364 
L 339.588017 272.350513 
L 339.950575 266.286097 
L 339.983535 266.788246 
L 340.016495 265.938455 
L 340.049455 266.170216 
L 340.247214 263.080068 
L 340.346093 265.281798 
L 340.379053 264.2775 
L 340.708652 260.723829 
L 340.741611 261.225979 
L 340.774571 261.264605 
L 340.840491 261.534993 
L 340.939371 259.758158 
L 341.07121 257.247412 
L 341.10417 257.595054 
L 341.13713 257.788188 
L 341.236009 258.01995 
L 341.367849 254.08001 
L 341.400808 254.002757 
L 341.565608 249.831056 
L 341.598568 249.869683 
L 341.961126 241.024133 
L 342.422564 228.779419 
L 342.620323 225.264376 
L 342.719203 221.40169 
L 342.949922 214.52611 
L 343.411359 201.74062 
L 343.609119 195.289935 
L 343.675038 194.826413 
L 344.696794 160.603018 
L 344.729754 160.641645 
L 344.795673 159.830481 
L 346.179987 116.336641 
L 346.212947 117.031925 
L 346.278867 116.182134 
L 346.674385 108.340882 
L 346.806224 109.576941 
L 347.465421 99.186317 
L 347.498381 99.842974 
L 347.531341 98.761422 
L 347.7291 95.207751 
L 347.79502 95.362258 
L 347.86094 96.482437 
L 347.893899 95.478139 
L 348.124618 90.765662 
L 348.157578 90.688409 
L 348.355337 87.675514 
L 348.388297 88.332171 
L 348.421257 88.409424 
L 348.619016 86.709843 
L 348.684936 87.752768 
L 348.717896 87.405126 
L 348.783815 86.478081 
L 348.816775 86.787096 
L 348.882695 88.757066 
L 348.948615 88.563932 
L 349.080454 87.791395 
L 349.212293 90.340767 
L 349.311173 92.078976 
L 349.344133 91.151931 
L 349.443012 90.031752 
L 349.475972 90.92017 
L 349.541892 90.263513 
L 349.739651 89.181961 
L 349.772611 89.915872 
L 349.805571 89.104708 
L 349.838531 89.375096 
L 349.871491 88.795693 
L 349.90445 89.143335 
L 349.97037 89.027454 
L 350.06925 91.731334 
L 350.10221 90.997424 
L 350.168129 91.345065 
L 350.497728 94.937363 
L 350.695487 96.405183 
L 350.794366 95.825781 
L 350.893246 98.915929 
L 350.926206 98.182019 
L 351.025085 97.563989 
L 351.058045 97.757123 
L 351.156925 97.023213 
L 351.453563 101.619809 
L 351.585403 100.49963 
L 351.618363 100.692764 
L 351.783162 98.336526 
L 351.816122 97.873004 
L 351.849082 97.911631 
L 351.915001 99.920227 
L 351.980921 99.263571 
L 352.013881 98.915929 
L 352.046841 99.572586 
L 352.17868 102.4696 
L 352.21164 101.967451 
L 352.27756 102.855868 
L 352.343479 102.58548 
L 352.376439 102.624107 
L 352.409399 102.933122 
L 352.442359 102.237839 
L 352.541239 101.85157 
L 352.706038 105.327987 
L 352.771958 104.748584 
L 352.804917 105.482495 
L 352.837877 105.134853 
L 353.002677 108.881658 
L 353.068596 108.843031 
L 353.101556 108.843031 
L 353.299315 113.053358 
L 354.45291 132.289533 
L 354.782509 140.053531 
L 355.079147 149.594364 
L 355.309866 153.727438 
L 355.342826 153.920572 
L 355.870184 165.238241 
L 356.100903 172.809105 
L 357.913695 214.719244 
L 358.671771 227.581987 
L 358.704731 227.041211 
L 358.737691 227.891002 
L 359.00137 233.067 
L 359.133209 234.225806 
L 359.232089 235.886761 
L 359.265048 235.655 
L 359.396888 237.74085 
L 359.528727 239.517685 
L 359.594647 239.324551 
L 359.627607 239.054163 
L 359.660567 239.672193 
L 359.693527 240.483357 
L 359.759446 240.135715 
L 359.891286 236.852432 
L 359.957205 237.393208 
L 360.056085 237.933984 
L 360.089045 237.856731 
L 360.154964 238.049865 
L 360.187924 238.011238 
L 360.220884 237.62497 
L 360.253844 238.204372 
L 360.286804 238.011238 
L 360.385683 239.401805 
L 360.418643 238.552014 
L 360.484563 239.479059 
L 360.517523 239.556312 
L 360.583443 238.629268 
L 360.649362 238.976909 
L 360.781202 240.44473 
L 360.913041 241.912551 
L 360.946001 241.564909 
L 361.14376 240.058461 
L 361.341519 238.127119 
L 361.407439 238.47476 
L 361.638158 240.212969 
L 361.704078 239.363178 
L 361.737037 240.174342 
L 361.769997 240.637864 
L 361.901837 237.74085 
L 361.934796 239.09279 
L 362.000716 239.054163 
L 362.033676 238.320253 
L 362.099596 238.35888 
L 362.330315 241.912551 
L 362.396234 241.217267 
L 362.429194 240.908252 
L 362.462154 241.449028 
L 362.495114 240.946879 
L 362.528074 241.217267 
L 362.561034 240.908252 
L 362.593994 241.024133 
L 362.692873 240.406103 
L 362.824713 241.06276 
L 362.923592 240.135715 
L 362.956552 240.560611 
L 363.187271 238.899656 
L 363.220231 239.247297 
L 363.253191 239.208671 
L 363.35207 236.929686 
L 363.38503 238.049865 
L 363.48391 239.131417 
L 363.516869 238.47476 
L 363.582789 237.779477 
L 363.615749 238.281626 
L 363.648709 238.436133 
L 363.846468 233.878164 
L 363.879428 233.607776 
L 363.912388 233.955418 
L 363.945347 233.994045 
L 364.011267 234.534821 
L 364.176066 231.058404 
L 364.209026 231.792314 
L 364.274946 231.676434 
L 364.505665 228.27727 
L 364.538625 229.011181 
L 364.571585 229.204315 
L 364.604545 229.165688 
L 364.637504 228.818046 
L 364.703424 229.088434 
L 364.802304 229.165688 
L 364.868223 229.706464 
L 364.901183 229.667837 
L 364.967103 229.320195 
L 365.065982 227.813748 
L 365.098942 228.27727 
L 365.131902 228.663539 
L 365.164862 228.045509 
L 365.230782 227.272972 
L 365.296701 227.504733 
L 365.395581 226.268674 
L 365.494461 226.577689 
L 365.52742 228.006882 
L 365.59334 227.272972 
L 365.72518 225.071241 
L 365.758139 225.689271 
L 365.791099 225.650644 
L 365.955898 223.101272 
L 366.153658 224.569092 
L 366.186617 224.491838 
L 366.219577 225.303002 
L 366.252537 223.835182 
L 366.285497 223.680674 
L 366.384377 222.058346 
L 366.417336 223.101272 
L 366.483256 222.985391 
L 366.681015 220.204257 
L 366.713975 220.745033 
L 366.746935 220.822287 
L 366.812855 221.092675 
L 367.142453 216.61196 
L 367.175413 217.886646 
L 367.208373 216.766467 
L 367.406132 211.744976 
L 367.439092 211.590468 
L 367.702771 204.251366 
L 367.735731 204.753515 
L 367.76869 203.82647 
L 367.80165 203.749217 
L 367.86757 204.058232 
L 368.131249 198.998113 
L 368.329008 193.822115 
L 368.493807 190.963727 
L 368.658606 188.298474 
L 368.724526 189.998056 
L 368.823406 189.186892 
L 368.955245 185.787729 
L 369.021165 186.907907 
L 369.054125 186.676146 
L 369.350763 179.87782 
L 369.383723 179.87782 
L 369.911081 166.97645 
L 369.944041 167.324091 
L 369.977 167.671733 
L 370.405479 158.826183 
L 370.438438 159.212452 
L 370.669157 152.10511 
L 370.899876 148.66732 
L 370.932836 148.203798 
L 371.130595 141.057829 
L 371.295395 138.431203 
L 371.328354 138.315322 
L 371.493154 134.877532 
L 371.657953 132.907563 
L 371.690913 133.255204 
L 371.723873 133.100697 
L 371.822752 131.169354 
L 371.855712 131.246608 
L 371.888672 131.903264 
L 371.921632 130.396817 
L 372.152351 124.525535 
L 372.185311 125.993355 
L 372.25123 124.95043 
L 372.38307 124.100639 
L 372.41603 124.255147 
L 372.481949 125.877475 
L 372.514909 124.448281 
L 372.613789 124.757296 
L 372.811548 118.422491 
L 372.910427 119.465417 
L 373.009307 118.07485 
L 373.042267 118.576999 
L 373.174106 117.340939 
L 373.108186 118.80876 
L 373.207066 117.958969 
L 373.240026 117.997596 
L 373.305946 116.877417 
L 373.338905 115.023328 
L 373.404825 115.641358 
L 373.470745 116.066253 
L 373.503705 116.298014 
L 373.668504 112.319448 
L 373.701464 112.589836 
L 373.965143 108.881658 
L 373.998102 108.997539 
L 374.064022 109.538315 
L 374.096982 108.958912 
L 374.162902 108.997539 
L 374.294741 109.924583 
L 374.327701 108.649897 
L 374.393621 109.422434 
L 374.55842 112.435329 
L 374.59138 113.130612 
L 374.690259 113.014732 
L 374.723219 113.091985 
L 375.052818 108.843031 
L 375.151697 109.615568 
L 375.184657 109.576941 
L 375.250577 110.117717 
L 375.283537 109.615568 
L 375.382416 109.036165 
L 375.415376 109.267927 
L 375.613135 113.130612 
L 375.810894 110.349479 
L 375.876814 110.040464 
L 375.942734 111.93318 
L 376.008653 111.43103 
L 376.140493 113.014732 
L 376.173453 112.589836 
L 376.206413 113.439627 
L 376.338252 115.525477 
L 376.371212 115.023328 
L 376.404172 113.632761 
L 376.470091 115.061955 
L 376.503051 114.675686 
L 376.568971 114.791567 
L 376.601931 115.293716 
L 376.634891 114.675686 
L 376.70081 115.255089 
L 376.73377 114.443925 
L 376.76673 115.564104 
L 376.79969 114.946074 
L 376.86561 115.834492 
L 376.931529 115.795865 
L 376.997449 115.216462 
L 377.096329 117.572701 
L 377.228168 114.598433 
L 377.261128 115.448224 
L 377.327048 114.443925 
L 377.360007 113.941776 
L 377.491847 116.529776 
L 377.524807 116.452522 
L 377.557766 115.989 
L 377.623686 116.10488 
L 377.755526 118.499745 
L 377.788485 117.649954 
L 377.821445 117.765835 
L 377.854405 117.340939 
L 378.019204 119.774431 
L 378.052164 120.122073 
L 378.118084 119.774431 
L 378.151044 119.079148 
L 378.216964 119.156402 
L 378.282883 122.092043 
L 378.348803 121.474013 
L 378.381763 121.628521 
L 378.414723 121.474013 
L 378.447683 121.242252 
L 378.480642 121.667147 
L 378.678401 123.173595 
L 378.711361 122.710072 
L 378.876161 126.070609 
L 378.90912 125.56846 
L 378.97504 126.147863 
L 379.205759 129.662907 
L 379.238719 129.817414 
L 379.271679 131.285235 
L 379.337599 130.898966 
L 379.436478 129.353892 
L 379.469438 130.551324 
L 379.568317 130.319563 
L 379.601277 130.126429 
L 380.161595 138.431203 
L 380.194555 136.963382 
L 380.260474 138.662964 
L 380.293434 138.662964 
L 380.853752 152.336871 
L 380.919671 154.07508 
L 380.952631 155.736034 
L 381.051511 155.311139 
L 381.743668 174.083791 
L 381.776628 173.697523 
L 381.809587 174.58594 
L 381.941427 178.02373 
L 381.974387 177.676089 
L 382.007347 177.560208 
L 382.435825 188.83925 
L 382.534704 192.083906 
L 382.732463 199.229875 
L 382.765423 199.191248 
L 382.864303 200.118292 
L 382.897263 198.882233 
L 382.963182 199.847904 
L 383.029102 201.856501 
L 383.226861 206.221335 
L 383.259821 206.144082 
L 383.688299 217.268616 
L 383.787179 219.238586 
L 384.017898 223.873809 
L 384.347496 228.27727 
L 384.380456 230.054106 
L 384.479335 229.551957 
L 384.710054 234.573448 
L 384.743014 233.723657 
L 384.808934 234.148552 
L 385.138533 239.633566 
L 385.237412 239.71082 
L 385.270372 239.09279 
L 385.303332 240.406103 
L 385.402211 240.174342 
L 385.435171 239.981208 
L 385.468131 240.406103 
L 385.501091 240.676491 
L 385.534051 240.328849 
L 385.59997 239.170044 
L 385.76477 243.380371 
L 385.79773 243.959774 
L 385.863649 243.380371 
L 385.896609 243.457625 
L 385.995489 245.813863 
L 386.028449 244.848192 
L 386.226208 240.521984 
L 386.259168 240.985506 
L 386.391007 239.054163 
L 386.423967 238.938283 
L 386.588766 236.27303 
L 386.786525 238.861029 
L 386.819485 238.049865 
L 386.885405 237.470462 
L 386.918365 237.663596 
L 386.951324 238.242999 
L 387.017244 237.895357 
L 387.083164 237.200074 
L 387.215003 238.629268 
L 387.445722 236.311656 
L 387.478682 237.238701 
L 387.610521 233.800911 
L 387.676441 232.719359 
L 387.8742 237.972611 
L 388.269719 233.453269 
L 388.302678 234.109926 
L 388.335638 234.187179 
L 388.500437 231.676434 
L 388.533397 231.290165 
L 388.566357 231.830941 
L 388.632277 232.33309 
L 388.665237 231.908195 
L 389.060755 226.307301 
L 389.093715 227.118465 
L 389.126675 228.393151 
L 389.192594 228.315897 
L 389.390353 226.230047 
L 389.423313 227.041211 
L 389.456273 226.616316 
L 389.621072 224.646346 
L 389.654032 224.569092 
L 389.686992 225.071241 
L 389.719952 224.530465 
L 389.752912 224.916734 
L 389.785872 224.298704 
L 389.818832 225.303002 
L 389.851791 225.303002 
L 389.983631 223.217152 
L 390.016591 223.255779 
L 390.08251 223.680674 
L 390.379149 219.161332 
L 390.412109 219.238586 
L 390.510988 220.281511 
L 390.543948 220.088377 
L 390.675788 217.423124 
L 390.708748 217.500377 
L 390.939467 214.835124 
L 390.972426 215.337274 
L 391.005386 215.646288 
L 391.038346 215.028259 
L 391.367945 211.899483 
L 391.499784 212.131244 
L 391.532744 212.131244 
L 391.697543 209.041096 
L 391.862342 206.568977 
L 391.928262 206.375843 
L 391.994182 207.187007 
L 392.126021 205.371545 
L 392.158981 205.410171 
L 392.191941 205.719186 
L 392.32378 202.629038 
L 392.35674 203.208441 
L 392.3897 202.204142 
L 392.554499 198.573218 
L 392.587459 199.191248 
L 392.620419 198.650472 
L 392.818178 192.856443 
L 392.851138 192.663309 
L 392.950018 190.9251 
L 392.982977 191.002354 
L 393.015937 191.581757 
L 393.180737 187.603191 
L 393.213696 187.796325 
L 393.642174 179.568805 
L 393.675134 179.337044 
L 393.905853 174.740448 
L 393.971773 175.899253 
L 394.004733 175.088089 
L 394.169532 171.88206 
L 394.202492 171.843433 
L 394.334331 170.336986 
L 394.367291 170.336986 
L 394.53209 166.628808 
L 394.56505 166.899196 
L 394.63097 165.74039 
L 394.66393 166.4743 
L 394.72985 167.285464 
L 394.894649 163.538659 
L 394.927609 163.770421 
L 394.960569 162.92063 
L 395.059448 163.113764 
L 395.092408 163.229645 
L 395.290167 160.178123 
L 395.323127 160.873406 
L 395.454966 156.469945 
L 395.487926 156.624452 
L 395.520886 156.817586 
L 395.685685 153.418423 
L 395.718645 153.688811 
L 395.751605 153.688811 
L 395.784565 153.534304 
L 395.916404 151.757468 
L 395.982324 151.409827 
L 396.015284 152.530005 
L 396.608561 144.109351 
L 396.740401 145.113649 
L 396.87224 143.645829 
L 396.93816 141.946247 
L 397.004079 142.602903 
L 397.135919 140.401173 
L 397.234798 140.864695 
L 397.300718 140.787441 
L 397.498477 143.645829 
L 397.729196 139.20374 
L 397.795116 138.778845 
L 397.828076 139.628635 
L 397.861036 138.353949 
L 397.959915 137.349651 
L 398.091754 140.401173 
L 398.421353 138.199442 
L 398.487273 137.504158 
L 398.487273 137.504158 
" style="fill:none;stroke:#1f77b4;stroke-linecap:square;"/>
   </g>
   <g id="patch_3">
    <path d="M 57.6 307.584 
L 57.6 41.472 
" style="fill:none;stroke:#000000;stroke-linecap:square;stroke-linejoin:miter;stroke-width:0.8;"/>
   </g>
   <g id="patch_4">
    <path d="M 414.72 307.584 
L 414.72 41.472 
" style="fill:none;stroke:#000000;stroke-linecap:square;stroke-linejoin:miter;stroke-width:0.8;"/>
   </g>
   <g id="patch_5">
    <path d="M 57.6 307.584 
L 414.72 307.584 
" style="fill:none;stroke:#000000;stroke-linecap:square;stroke-linejoin:miter;stroke-width:0.8;"/>
   </g>
   <g id="patch_6">
    <path d="M 57.6 41.472 
L 414.72 41.472 
" style="fill:none;stroke:#000000;stroke-linecap:square;stroke-linejoin:miter;stroke-width:0.8;"/>
   </g>
  </g>
 </g>
 <defs>
  <clipPath id="p393bd6ea40">
   <rect height="266.112" width="357.12" x="57.6" y="41.472"/>
  </clipPath>
 </defs>
</svg>
