<?xml version="1.0" encoding="utf-8" standalone="no"?>
<!DOCTYPE svg PUBLIC "-//W3C//DTD SVG 1.1//EN"
  "http://www.w3.org/Graphics/SVG/1.1/DTD/svg11.dtd">
<svg height="345.6pt" version="1.1" viewBox="0 0 460.8 345.6" width="460.8pt" xmlns="http://www.w3.org/2000/svg" xmlns:xlink="http://www.w3.org/1999/xlink">
 <metadata>
  <rdf:RDF xmlns:cc="http://creativecommons.org/ns#" xmlns:dc="http://purl.org/dc/elements/1.1/" xmlns:rdf="http://www.w3.org/1999/02/22-rdf-syntax-ns#">
   <cc:Work>
    <dc:type rdf:resource="http://purl.org/dc/dcmitype/StillImage"/>
    <dc:date>2021-12-10T23:35:42.718565</dc:date>
    <dc:format>image/svg+xml</dc:format>
    <dc:creator>
     <cc:Agent>
      <dc:title>Matplotlib v3.4.3, https://matplotlib.org/</dc:title>
     </cc:Agent>
    </dc:creator>
   </cc:Work>
  </rdf:RDF>
 </metadata>
 <defs>
  <style type="text/css">*{stroke-linecap:butt;stroke-linejoin:round;}</style>
 </defs>
 <g id="figure_1">
  <g id="patch_1">
   <path d="M 0 345.6 
L 460.8 345.6 
L 460.8 0 
L 0 0 
z
" style="fill:#ffffff;"/>
  </g>
  <g id="axes_1">
   <g id="patch_2">
    <path d="M 57.6 307.584 
L 414.72 307.584 
L 414.72 41.472 
L 57.6 41.472 
z
" style="fill:#ffffff;"/>
   </g>
   <g id="matplotlib.axis_1">
    <g id="xtick_1">
     <g id="line2d_1">
      <path clip-path="url(#pb5dd7b1ad5)" d="M 73.832727 307.584 
L 73.832727 41.472 
" style="fill:none;stroke:#b0b0b0;stroke-linecap:square;stroke-width:0.8;"/>
     </g>
     <g id="line2d_2">
      <defs>
       <path d="M 0 0 
L 0 3.5 
" id="m7663ad417f" style="stroke:#000000;stroke-width:0.8;"/>
      </defs>
      <g>
       <use style="stroke:#000000;stroke-width:0.8;" x="73.832727" xlink:href="#m7663ad417f" y="307.584"/>
      </g>
     </g>
     <g id="text_1">
      <!-- 0 -->
      <g transform="translate(70.651477 322.182437)scale(0.1 -0.1)">
       <defs>
        <path d="M 2034 4250 
Q 1547 4250 1301 3770 
Q 1056 3291 1056 2328 
Q 1056 1369 1301 889 
Q 1547 409 2034 409 
Q 2525 409 2770 889 
Q 3016 1369 3016 2328 
Q 3016 3291 2770 3770 
Q 2525 4250 2034 4250 
z
M 2034 4750 
Q 2819 4750 3233 4129 
Q 3647 3509 3647 2328 
Q 3647 1150 3233 529 
Q 2819 -91 2034 -91 
Q 1250 -91 836 529 
Q 422 1150 422 2328 
Q 422 3509 836 4129 
Q 1250 4750 2034 4750 
z
" id="DejaVuSans-30" transform="scale(0.015625)"/>
       </defs>
       <use xlink:href="#DejaVuSans-30"/>
      </g>
     </g>
    </g>
    <g id="xtick_2">
     <g id="line2d_3">
      <path clip-path="url(#pb5dd7b1ad5)" d="M 139.74574 307.584 
L 139.74574 41.472 
" style="fill:none;stroke:#b0b0b0;stroke-linecap:square;stroke-width:0.8;"/>
     </g>
     <g id="line2d_4">
      <g>
       <use style="stroke:#000000;stroke-width:0.8;" x="139.74574" xlink:href="#m7663ad417f" y="307.584"/>
      </g>
     </g>
     <g id="text_2">
      <!-- 100 -->
      <g transform="translate(130.20199 322.182437)scale(0.1 -0.1)">
       <defs>
        <path d="M 794 531 
L 1825 531 
L 1825 4091 
L 703 3866 
L 703 4441 
L 1819 4666 
L 2450 4666 
L 2450 531 
L 3481 531 
L 3481 0 
L 794 0 
L 794 531 
z
" id="DejaVuSans-31" transform="scale(0.015625)"/>
       </defs>
       <use xlink:href="#DejaVuSans-31"/>
       <use x="63.623047" xlink:href="#DejaVuSans-30"/>
       <use x="127.246094" xlink:href="#DejaVuSans-30"/>
      </g>
     </g>
    </g>
    <g id="xtick_3">
     <g id="line2d_5">
      <path clip-path="url(#pb5dd7b1ad5)" d="M 205.658753 307.584 
L 205.658753 41.472 
" style="fill:none;stroke:#b0b0b0;stroke-linecap:square;stroke-width:0.8;"/>
     </g>
     <g id="line2d_6">
      <g>
       <use style="stroke:#000000;stroke-width:0.8;" x="205.658753" xlink:href="#m7663ad417f" y="307.584"/>
      </g>
     </g>
     <g id="text_3">
      <!-- 200 -->
      <g transform="translate(196.115003 322.182437)scale(0.1 -0.1)">
       <defs>
        <path d="M 1228 531 
L 3431 531 
L 3431 0 
L 469 0 
L 469 531 
Q 828 903 1448 1529 
Q 2069 2156 2228 2338 
Q 2531 2678 2651 2914 
Q 2772 3150 2772 3378 
Q 2772 3750 2511 3984 
Q 2250 4219 1831 4219 
Q 1534 4219 1204 4116 
Q 875 4013 500 3803 
L 500 4441 
Q 881 4594 1212 4672 
Q 1544 4750 1819 4750 
Q 2544 4750 2975 4387 
Q 3406 4025 3406 3419 
Q 3406 3131 3298 2873 
Q 3191 2616 2906 2266 
Q 2828 2175 2409 1742 
Q 1991 1309 1228 531 
z
" id="DejaVuSans-32" transform="scale(0.015625)"/>
       </defs>
       <use xlink:href="#DejaVuSans-32"/>
       <use x="63.623047" xlink:href="#DejaVuSans-30"/>
       <use x="127.246094" xlink:href="#DejaVuSans-30"/>
      </g>
     </g>
    </g>
    <g id="xtick_4">
     <g id="line2d_7">
      <path clip-path="url(#pb5dd7b1ad5)" d="M 271.571766 307.584 
L 271.571766 41.472 
" style="fill:none;stroke:#b0b0b0;stroke-linecap:square;stroke-width:0.8;"/>
     </g>
     <g id="line2d_8">
      <g>
       <use style="stroke:#000000;stroke-width:0.8;" x="271.571766" xlink:href="#m7663ad417f" y="307.584"/>
      </g>
     </g>
     <g id="text_4">
      <!-- 300 -->
      <g transform="translate(262.028016 322.182437)scale(0.1 -0.1)">
       <defs>
        <path d="M 2597 2516 
Q 3050 2419 3304 2112 
Q 3559 1806 3559 1356 
Q 3559 666 3084 287 
Q 2609 -91 1734 -91 
Q 1441 -91 1130 -33 
Q 819 25 488 141 
L 488 750 
Q 750 597 1062 519 
Q 1375 441 1716 441 
Q 2309 441 2620 675 
Q 2931 909 2931 1356 
Q 2931 1769 2642 2001 
Q 2353 2234 1838 2234 
L 1294 2234 
L 1294 2753 
L 1863 2753 
Q 2328 2753 2575 2939 
Q 2822 3125 2822 3475 
Q 2822 3834 2567 4026 
Q 2313 4219 1838 4219 
Q 1578 4219 1281 4162 
Q 984 4106 628 3988 
L 628 4550 
Q 988 4650 1302 4700 
Q 1616 4750 1894 4750 
Q 2613 4750 3031 4423 
Q 3450 4097 3450 3541 
Q 3450 3153 3228 2886 
Q 3006 2619 2597 2516 
z
" id="DejaVuSans-33" transform="scale(0.015625)"/>
       </defs>
       <use xlink:href="#DejaVuSans-33"/>
       <use x="63.623047" xlink:href="#DejaVuSans-30"/>
       <use x="127.246094" xlink:href="#DejaVuSans-30"/>
      </g>
     </g>
    </g>
    <g id="xtick_5">
     <g id="line2d_9">
      <path clip-path="url(#pb5dd7b1ad5)" d="M 337.484779 307.584 
L 337.484779 41.472 
" style="fill:none;stroke:#b0b0b0;stroke-linecap:square;stroke-width:0.8;"/>
     </g>
     <g id="line2d_10">
      <g>
       <use style="stroke:#000000;stroke-width:0.8;" x="337.484779" xlink:href="#m7663ad417f" y="307.584"/>
      </g>
     </g>
     <g id="text_5">
      <!-- 400 -->
      <g transform="translate(327.941029 322.182437)scale(0.1 -0.1)">
       <defs>
        <path d="M 2419 4116 
L 825 1625 
L 2419 1625 
L 2419 4116 
z
M 2253 4666 
L 3047 4666 
L 3047 1625 
L 3713 1625 
L 3713 1100 
L 3047 1100 
L 3047 0 
L 2419 0 
L 2419 1100 
L 313 1100 
L 313 1709 
L 2253 4666 
z
" id="DejaVuSans-34" transform="scale(0.015625)"/>
       </defs>
       <use xlink:href="#DejaVuSans-34"/>
       <use x="63.623047" xlink:href="#DejaVuSans-30"/>
       <use x="127.246094" xlink:href="#DejaVuSans-30"/>
      </g>
     </g>
    </g>
    <g id="xtick_6">
     <g id="line2d_11">
      <path clip-path="url(#pb5dd7b1ad5)" d="M 403.397792 307.584 
L 403.397792 41.472 
" style="fill:none;stroke:#b0b0b0;stroke-linecap:square;stroke-width:0.8;"/>
     </g>
     <g id="line2d_12">
      <g>
       <use style="stroke:#000000;stroke-width:0.8;" x="403.397792" xlink:href="#m7663ad417f" y="307.584"/>
      </g>
     </g>
     <g id="text_6">
      <!-- 500 -->
      <g transform="translate(393.854042 322.182437)scale(0.1 -0.1)">
       <defs>
        <path d="M 691 4666 
L 3169 4666 
L 3169 4134 
L 1269 4134 
L 1269 2991 
Q 1406 3038 1543 3061 
Q 1681 3084 1819 3084 
Q 2600 3084 3056 2656 
Q 3513 2228 3513 1497 
Q 3513 744 3044 326 
Q 2575 -91 1722 -91 
Q 1428 -91 1123 -41 
Q 819 9 494 109 
L 494 744 
Q 775 591 1075 516 
Q 1375 441 1709 441 
Q 2250 441 2565 725 
Q 2881 1009 2881 1497 
Q 2881 1984 2565 2268 
Q 2250 2553 1709 2553 
Q 1456 2553 1204 2497 
Q 953 2441 691 2322 
L 691 4666 
z
" id="DejaVuSans-35" transform="scale(0.015625)"/>
       </defs>
       <use xlink:href="#DejaVuSans-35"/>
       <use x="63.623047" xlink:href="#DejaVuSans-30"/>
       <use x="127.246094" xlink:href="#DejaVuSans-30"/>
      </g>
     </g>
    </g>
   </g>
   <g id="matplotlib.axis_2">
    <g id="ytick_1">
     <g id="line2d_13">
      <path clip-path="url(#pb5dd7b1ad5)" d="M 57.6 305.761523 
L 414.72 305.761523 
" style="fill:none;stroke:#b0b0b0;stroke-linecap:square;stroke-width:0.8;"/>
     </g>
     <g id="line2d_14">
      <defs>
       <path d="M 0 0 
L -3.5 0 
" id="mc38a133b1d" style="stroke:#000000;stroke-width:0.8;"/>
      </defs>
      <g>
       <use style="stroke:#000000;stroke-width:0.8;" x="57.6" xlink:href="#mc38a133b1d" y="305.761523"/>
      </g>
     </g>
     <g id="text_7">
      <!-- −0.015 -->
      <g transform="translate(13.592188 309.560741)scale(0.1 -0.1)">
       <defs>
        <path d="M 678 2272 
L 4684 2272 
L 4684 1741 
L 678 1741 
L 678 2272 
z
" id="DejaVuSans-2212" transform="scale(0.015625)"/>
        <path d="M 684 794 
L 1344 794 
L 1344 0 
L 684 0 
L 684 794 
z
" id="DejaVuSans-2e" transform="scale(0.015625)"/>
       </defs>
       <use xlink:href="#DejaVuSans-2212"/>
       <use x="83.789062" xlink:href="#DejaVuSans-30"/>
       <use x="147.412109" xlink:href="#DejaVuSans-2e"/>
       <use x="179.199219" xlink:href="#DejaVuSans-30"/>
       <use x="242.822266" xlink:href="#DejaVuSans-31"/>
       <use x="306.445312" xlink:href="#DejaVuSans-35"/>
      </g>
     </g>
    </g>
    <g id="ytick_2">
     <g id="line2d_15">
      <path clip-path="url(#pb5dd7b1ad5)" d="M 57.6 258.432641 
L 414.72 258.432641 
" style="fill:none;stroke:#b0b0b0;stroke-linecap:square;stroke-width:0.8;"/>
     </g>
     <g id="line2d_16">
      <g>
       <use style="stroke:#000000;stroke-width:0.8;" x="57.6" xlink:href="#mc38a133b1d" y="258.432641"/>
      </g>
     </g>
     <g id="text_8">
      <!-- −0.010 -->
      <g transform="translate(13.592188 262.23186)scale(0.1 -0.1)">
       <use xlink:href="#DejaVuSans-2212"/>
       <use x="83.789062" xlink:href="#DejaVuSans-30"/>
       <use x="147.412109" xlink:href="#DejaVuSans-2e"/>
       <use x="179.199219" xlink:href="#DejaVuSans-30"/>
       <use x="242.822266" xlink:href="#DejaVuSans-31"/>
       <use x="306.445312" xlink:href="#DejaVuSans-30"/>
      </g>
     </g>
    </g>
    <g id="ytick_3">
     <g id="line2d_17">
      <path clip-path="url(#pb5dd7b1ad5)" d="M 57.6 211.10376 
L 414.72 211.10376 
" style="fill:none;stroke:#b0b0b0;stroke-linecap:square;stroke-width:0.8;"/>
     </g>
     <g id="line2d_18">
      <g>
       <use style="stroke:#000000;stroke-width:0.8;" x="57.6" xlink:href="#mc38a133b1d" y="211.10376"/>
      </g>
     </g>
     <g id="text_9">
      <!-- −0.005 -->
      <g transform="translate(13.592188 214.902978)scale(0.1 -0.1)">
       <use xlink:href="#DejaVuSans-2212"/>
       <use x="83.789062" xlink:href="#DejaVuSans-30"/>
       <use x="147.412109" xlink:href="#DejaVuSans-2e"/>
       <use x="179.199219" xlink:href="#DejaVuSans-30"/>
       <use x="242.822266" xlink:href="#DejaVuSans-30"/>
       <use x="306.445312" xlink:href="#DejaVuSans-35"/>
      </g>
     </g>
    </g>
    <g id="ytick_4">
     <g id="line2d_19">
      <path clip-path="url(#pb5dd7b1ad5)" d="M 57.6 163.774878 
L 414.72 163.774878 
" style="fill:none;stroke:#b0b0b0;stroke-linecap:square;stroke-width:0.8;"/>
     </g>
     <g id="line2d_20">
      <g>
       <use style="stroke:#000000;stroke-width:0.8;" x="57.6" xlink:href="#mc38a133b1d" y="163.774878"/>
      </g>
     </g>
     <g id="text_10">
      <!-- 0.000 -->
      <g transform="translate(21.971875 167.574097)scale(0.1 -0.1)">
       <use xlink:href="#DejaVuSans-30"/>
       <use x="63.623047" xlink:href="#DejaVuSans-2e"/>
       <use x="95.410156" xlink:href="#DejaVuSans-30"/>
       <use x="159.033203" xlink:href="#DejaVuSans-30"/>
       <use x="222.65625" xlink:href="#DejaVuSans-30"/>
      </g>
     </g>
    </g>
    <g id="ytick_5">
     <g id="line2d_21">
      <path clip-path="url(#pb5dd7b1ad5)" d="M 57.6 116.445997 
L 414.72 116.445997 
" style="fill:none;stroke:#b0b0b0;stroke-linecap:square;stroke-width:0.8;"/>
     </g>
     <g id="line2d_22">
      <g>
       <use style="stroke:#000000;stroke-width:0.8;" x="57.6" xlink:href="#mc38a133b1d" y="116.445997"/>
      </g>
     </g>
     <g id="text_11">
      <!-- 0.005 -->
      <g transform="translate(21.971875 120.245215)scale(0.1 -0.1)">
       <use xlink:href="#DejaVuSans-30"/>
       <use x="63.623047" xlink:href="#DejaVuSans-2e"/>
       <use x="95.410156" xlink:href="#DejaVuSans-30"/>
       <use x="159.033203" xlink:href="#DejaVuSans-30"/>
       <use x="222.65625" xlink:href="#DejaVuSans-35"/>
      </g>
     </g>
    </g>
    <g id="ytick_6">
     <g id="line2d_23">
      <path clip-path="url(#pb5dd7b1ad5)" d="M 57.6 69.117115 
L 414.72 69.117115 
" style="fill:none;stroke:#b0b0b0;stroke-linecap:square;stroke-width:0.8;"/>
     </g>
     <g id="line2d_24">
      <g>
       <use style="stroke:#000000;stroke-width:0.8;" x="57.6" xlink:href="#mc38a133b1d" y="69.117115"/>
      </g>
     </g>
     <g id="text_12">
      <!-- 0.010 -->
      <g transform="translate(21.971875 72.916334)scale(0.1 -0.1)">
       <use xlink:href="#DejaVuSans-30"/>
       <use x="63.623047" xlink:href="#DejaVuSans-2e"/>
       <use x="95.410156" xlink:href="#DejaVuSans-30"/>
       <use x="159.033203" xlink:href="#DejaVuSans-31"/>
       <use x="222.65625" xlink:href="#DejaVuSans-30"/>
      </g>
     </g>
    </g>
   </g>
   <g id="line2d_25">
    <path clip-path="url(#pb5dd7b1ad5)" d="M 73.832727 129.218484 
L 73.865684 132.323259 
L 73.931597 128.839853 
L 74.65664 95.621289 
L 74.722553 94.611606 
L 74.920292 87.089469 
L 74.953248 87.493342 
L 74.986205 86.786564 
L 75.150988 76.639252 
L 75.216901 77.194578 
L 75.31577 75.074244 
L 75.348727 75.528601 
L 75.645335 69.470504 
L 75.843074 65.684194 
L 75.876031 65.785162 
L 76.106726 62.200788 
L 76.139683 62.09982 
L 76.172639 62.705629 
L 76.205596 61.948367 
L 76.502204 57.051406 
L 76.666987 59.17174 
L 76.699943 59.373676 
L 76.7329 59.121255 
L 76.765856 59.121255 
L 76.963595 55.133008 
L 76.996552 56.142691 
L 77.029508 57.202858 
L 77.128378 56.950437 
L 77.161334 57.152374 
L 77.260204 55.082524 
L 77.29316 55.486397 
L 77.39203 58.56593 
L 77.457943 57.859152 
L 77.589769 56.546564 
L 77.655682 57.303826 
L 77.688639 57.859152 
L 77.721595 57.556247 
L 77.886378 54.628167 
L 77.919334 54.577683 
L 77.952291 53.568 
L 77.985247 55.233977 
L 78.084117 55.03204 
L 78.15003 56.243659 
L 78.182986 55.63785 
L 78.215943 56.294144 
L 78.281856 58.868835 
L 78.347769 57.909636 
L 78.413682 56.748501 
L 78.446638 56.899953 
L 78.578464 59.979486 
L 78.611421 59.020287 
L 78.644377 58.010604 
L 78.677334 58.616414 
L 78.776203 60.484327 
L 78.80916 60.332875 
L 78.842116 59.828033 
L 78.875073 60.736748 
L 79.171681 69.924861 
L 79.830811 85.171072 
L 79.863768 85.070104 
L 79.896724 84.161389 
L 79.929681 84.716715 
L 80.259246 97.994043 
L 80.292203 97.691139 
L 80.325159 98.397917 
L 80.358116 98.347432 
L 80.588811 105.061823 
L 80.621768 104.405529 
L 80.852463 112.987833 
L 81.280898 129.243726 
L 84.378809 252.92987 
L 84.543592 256.968601 
L 84.708374 263.329603 
L 85.136809 274.991439 
L 85.169766 274.739018 
L 85.202722 274.991439 
L 85.268635 276.354511 
L 85.466374 283.371806 
L 85.532287 284.532942 
L 85.69707 286.552307 
L 85.993678 288.1678 
L 86.158461 291.701689 
L 86.191417 291.09588 
L 86.25733 291.853142 
L 86.290287 292.055078 
L 86.389156 290.389102 
L 86.422113 291.398785 
L 86.619852 295.488 
L 86.784634 293.41815 
L 86.850547 294.427833 
L 86.91646 294.377349 
L 87.01533 293.41815 
L 87.081243 294.62977 
L 87.114199 293.317182 
L 87.147156 294.326865 
L 87.180112 294.175412 
L 87.278982 291.651205 
L 87.311938 293.064761 
L 87.344895 293.16573 
L 87.443764 294.326865 
L 87.608547 292.55992 
L 87.740373 294.680254 
L 87.839243 294.478317 
L 87.971069 292.257015 
L 88.004025 293.216214 
L 88.036982 293.216214 
L 88.168808 289.985229 
L 88.201764 290.136681 
L 88.399503 283.321322 
L 88.465416 283.725195 
L 88.498373 283.523259 
L 88.531329 283.573743 
L 88.564286 283.826164 
L 89.025677 274.63805 
L 89.09159 274.890471 
L 89.223416 272.366264 
L 89.256372 272.921589 
L 89.289329 273.17401 
L 89.322285 273.073042 
L 89.454111 271.356581 
L 89.684807 264.187833 
L 90.146198 254.797783 
L 91.101937 227.485863 
L 91.134893 227.334411 
L 91.431502 217.439519 
L 91.530371 215.117249 
L 91.859936 205.272841 
L 91.892893 205.575746 
L 91.925849 205.828167 
L 92.584979 175.38623 
L 95.287413 103.900688 
L 95.32037 104.102624 
L 95.452196 99.861957 
L 95.485152 99.003726 
L 95.518109 99.66002 
L 95.551065 100.669703 
L 95.584022 100.164861 
L 95.682891 97.388234 
L 95.715848 97.640654 
L 95.88063 95.520321 
L 95.913587 95.469836 
L 96.078369 91.077716 
L 96.111326 91.582558 
L 96.144282 91.683526 
L 96.177239 92.996114 
L 96.243152 92.491272 
L 96.374978 89.361255 
L 96.572717 84.969135 
L 96.605673 85.776881 
L 96.63863 85.019619 
L 96.671586 84.66623 
L 96.869325 78.860554 
L 96.968195 77.598451 
L 97.001151 78.002324 
L 97.100021 78.557649 
L 97.132977 78.456681 
L 97.165934 78.81007 
L 97.231847 76.790705 
L 97.29776 77.648935 
L 97.330716 77.699419 
L 97.429586 78.557649 
L 97.462542 77.295546 
L 97.495499 77.598451 
L 97.594368 79.920721 
L 97.627325 78.961523 
L 97.660281 78.911038 
L 97.759151 77.34603 
L 97.792107 78.002324 
L 97.890977 74.115045 
L 97.95689 75.579085 
L 97.989847 76.588768 
L 98.022803 76.235379 
L 98.154629 73.862624 
L 98.187586 74.720855 
L 98.220542 74.670371 
L 98.352368 72.449068 
L 98.418281 72.651005 
L 98.550107 69.369536 
L 98.61602 69.722925 
L 98.681933 70.581155 
L 98.747846 70.328735 
L 98.780803 69.218083 
L 98.813759 70.631639 
L 98.846716 70.783092 
L 98.945585 72.095679 
L 98.978542 71.74229 
L 99.077411 69.268568 
L 99.110368 70.27825 
L 99.27515 71.792775 
L 99.308107 71.439386 
L 99.341063 71.843259 
L 99.37402 72.398584 
L 99.406976 71.540354 
L 99.439933 72.045195 
L 99.472889 71.590838 
L 99.802454 80.375078 
L 99.835411 78.608134 
L 99.901324 80.173142 
L 99.93428 79.718785 
L 99.967237 80.223626 
L 100.000193 80.223626 
L 100.362715 89.007866 
L 100.428628 88.553509 
L 100.494541 87.745763 
L 100.527498 88.048668 
L 100.758193 95.065963 
L 100.79115 94.864027 
L 100.824106 94.914511 
L 100.955932 96.530003 
L 101.153671 101.679386 
L 101.186628 101.628902 
L 102.834453 165.945696 
L 102.900366 168.116514 
L 102.999236 173.164928 
L 104.383409 223.951973 
L 105.174365 249.547432 
L 105.207321 249.446464 
L 105.240278 249.345496 
L 105.569843 261.158785 
L 105.6028 260.704427 
L 106.327843 269.034311 
L 106.426712 267.065429 
L 106.459669 268.327533 
L 106.525582 266.762524 
L 106.789234 270.195446 
L 106.82219 269.690604 
L 106.855147 269.236247 
L 106.888103 270.902224 
L 106.954016 269.539152 
L 106.986973 268.579953 
L 107.019929 269.791573 
L 107.052886 269.589636 
L 107.085842 269.286731 
L 107.118799 270.397382 
L 107.151755 269.337215 
L 107.184712 268.78189 
L 107.283581 268.933342 
L 107.382451 267.216881 
L 107.448364 267.267366 
L 107.48132 265.85381 
L 107.58019 265.954778 
L 107.646103 265.248 
L 107.679059 266.207199 
L 107.744972 265.197516 
L 107.810885 264.995579 
L 107.909755 265.904294 
L 107.975668 265.550905 
L 108.008625 265.954778 
L 108.074538 267.469302 
L 108.107494 266.409135 
L 108.206364 265.752841 
L 108.305233 268.024628 
L 108.33819 266.560588 
L 108.404103 264.743159 
L 108.437059 264.844127 
L 108.470016 265.904294 
L 108.502972 264.995579 
L 108.601842 263.380087 
L 108.634798 263.834444 
L 108.667755 264.591706 
L 108.700711 263.78396 
L 108.89845 260.704427 
L 108.931407 260.956848 
L 108.964363 261.057816 
L 109.162102 257.776347 
L 109.195059 257.826831 
L 109.260972 256.817149 
L 109.293928 257.422958 
L 109.326885 257.877316 
L 109.359841 257.624895 
L 109.491667 254.545362 
L 109.986015 241.671907 
L 110.183754 238.037048 
L 110.21671 238.491406 
L 110.249667 237.532207 
L 110.31558 237.380755 
L 110.414449 234.957516 
L 110.678102 226.981022 
L 110.711058 227.94022 
L 110.744015 226.47618 
L 110.776971 226.274244 
L 110.809928 226.526664 
L 111.040623 218.499686 
L 111.106536 219.963726 
L 111.172449 218.853075 
L 111.205406 219.206464 
L 111.567927 210.523192 
L 111.600884 210.725129 
L 111.831579 201.032174 
L 111.864536 201.991372 
L 111.930449 200.779753 
L 112.128188 195.226497 
L 112.260014 192.500354 
L 112.523666 183.91805 
L 112.589579 183.968534 
L 112.820274 178.263826 
L 113.05097 170.337816 
L 113.083927 170.337816 
L 113.215753 168.116514 
L 113.413492 161.099219 
L 113.446448 161.149703 
L 113.578274 159.029369 
L 113.776013 153.577082 
L 113.80897 154.081923 
L 113.841926 152.971272 
L 114.039665 148.983025 
L 114.072622 149.083993 
L 114.204448 145.398651 
L 114.36923 139.492007 
L 114.402187 140.047332 
L 114.731752 133.282457 
L 114.995404 129.597115 
L 115.061317 129.90002 
L 115.12723 130.859219 
L 115.160186 130.202925 
L 115.753404 118.389636 
L 115.78636 119.197382 
L 115.852273 118.541088 
L 115.984099 117.278985 
L 116.148882 111.372341 
L 116.181838 111.826698 
L 116.214795 112.180087 
L 116.280708 110.968467 
L 116.346621 111.271372 
L 116.610273 108.797649 
L 116.643229 110.059753 
L 116.742099 109.908301 
L 116.972794 106.677316 
L 117.038707 106.7278 
L 117.170533 107.384093 
L 117.20349 107.384093 
L 117.269403 108.343292 
L 117.302359 106.626831 
L 117.368272 107.030705 
L 117.434185 106.778284 
L 117.467142 107.888935 
L 117.664881 103.597783 
L 117.697837 104.153109 
L 117.730794 103.850204 
L 117.928533 101.325997 
L 118.027402 100.467766 
L 118.159229 97.792107 
L 118.291055 98.700821 
L 118.422881 95.924194 
L 118.455837 96.580487 
L 118.52175 95.722257 
L 118.554707 95.520321 
L 118.587663 95.87371 
L 118.653576 91.986431 
L 118.719489 92.188367 
L 118.917228 89.967065 
L 118.983141 91.380621 
L 119.016098 90.471907 
L 119.082011 89.916581 
L 119.114967 90.26997 
L 119.27975 91.834978 
L 119.312706 91.481589 
L 119.345663 91.834978 
L 119.477489 93.904828 
L 119.510445 94.157249 
L 119.543402 92.996114 
L 119.609315 94.005796 
L 119.872967 92.59224 
L 119.93888 94.359185 
L 120.004793 93.097082 
L 120.103662 90.926264 
L 120.136619 91.279653 
L 120.169575 91.380621 
L 120.202532 90.623359 
L 120.235488 92.390304 
L 120.367314 94.207733 
L 120.400271 93.854344 
L 120.69688 101.325997 
L 120.729836 101.376481 
L 120.795749 100.467766 
L 120.894619 100.770671 
L 120.960532 101.225028 
L 121.290097 109.302491 
L 121.35601 108.242324 
L 121.388966 108.696681 
L 121.685575 111.776214 
L 122.01514 119.247866 
L 122.114009 118.541088 
L 122.377661 126.012741 
L 122.410618 125.305963 
L 122.443574 126.164194 
L 122.476531 126.467098 
L 122.641313 132.8281 
L 122.970878 141.258952 
L 123.168617 150.396581 
L 123.267487 153.829503 
L 123.366357 155.949836 
L 123.399313 154.940154 
L 123.465226 157.161456 
L 124.256182 187.199519 
L 124.289139 186.088868 
L 124.322095 185.180154 
L 124.355052 186.644194 
L 124.552791 197.397316 
L 125.146008 216.985162 
L 125.178964 216.631773 
L 125.442616 221.427766 
L 125.475573 222.639386 
L 125.541486 221.074377 
L 125.838095 229.707165 
L 126.002877 232.887666 
L 126.06879 232.281856 
L 126.101747 232.93815 
L 126.266529 237.07785 
L 126.431312 244.448534 
L 126.464268 243.640788 
L 126.497225 244.549503 
L 126.760877 249.042591 
L 126.892703 253.7881 
L 126.925659 253.636648 
L 126.958616 252.727933 
L 126.991572 253.990037 
L 127.38705 261.562658 
L 127.420007 262.420888 
L 127.452963 259.64426 
L 127.518876 260.351038 
L 127.782528 265.803326 
L 127.815485 266.308167 
L 127.848441 265.197516 
L 127.881398 265.248 
L 127.914354 266.308167 
L 127.980267 265.248 
L 128.079137 264.086865 
L 128.14505 264.591706 
L 128.178006 264.591706 
L 128.342789 266.611072 
L 128.243919 264.339285 
L 128.375746 266.10623 
L 128.474615 264.793643 
L 128.606441 267.721723 
L 128.639398 267.469302 
L 128.837137 269.387699 
L 128.870093 268.983826 
L 128.90305 269.034311 
L 129.034876 267.671239 
L 129.100789 268.378017 
L 129.133745 268.17608 
L 129.199658 267.418818 
L 129.265571 268.983826 
L 129.298528 268.832374 
L 129.397397 265.046063 
L 129.430354 265.904294 
L 129.56218 263.632508 
L 129.628093 264.288801 
L 129.726962 263.682992 
L 129.759919 261.815078 
L 129.825832 262.420888 
L 129.891745 262.269436 
L 129.924701 263.127666 
L 130.089484 259.240387 
L 130.12244 260.048134 
L 130.155397 260.098618 
L 130.254266 263.380087 
L 130.353136 262.572341 
L 130.452005 260.754912 
L 130.484962 261.360721 
L 130.517918 261.613142 
L 130.550875 261.562658 
L 130.682701 258.079252 
L 130.715657 258.079252 
L 130.847484 254.444394 
L 130.88044 254.747299 
L 130.946353 256.261823 
L 130.97931 255.555045 
L 132.429396 219.15598 
L 132.594178 214.359987 
L 132.726004 209.76593 
L 132.758961 209.816414 
L 132.824874 208.049469 
L 133.648787 182.605462 
L 133.945395 171.801856 
L 134.143134 165.440855 
L 134.37383 158.524528 
L 135.000003 143.227833 
L 135.03296 143.833643 
L 135.197742 137.876514 
L 135.230699 138.734745 
L 135.395481 137.22022 
L 135.428438 137.523125 
L 135.560264 135.453275 
L 135.889829 127.123392 
L 136.120525 118.541088 
L 136.219394 117.127533 
L 136.252351 118.036247 
L 136.285307 118.086731 
L 136.35122 117.632374 
L 136.384177 118.389636 
L 136.45009 117.430437 
L 136.581916 117.178017 
L 136.713742 113.644127 
L 136.746698 113.846063 
L 136.779655 114.502357 
L 136.944437 110.059753 
L 136.977394 110.312174 
L 137.208089 105.819085 
L 137.241046 105.718117 
L 137.339915 105.617149 
L 137.405828 108.141356 
L 137.801306 104.304561 
L 137.834263 104.708434 
L 137.900176 105.617149 
L 137.933132 105.415212 
L 138.064958 101.578417 
L 138.130871 102.5881 
L 138.196784 102.234711 
L 138.229741 102.941489 
L 138.32861 100.51825 
L 138.42748 101.72987 
L 138.493393 101.931806 
L 138.52635 101.527933 
L 138.691132 103.698751 
L 138.724089 103.345362 
L 138.757045 103.395846 
L 138.790002 104.254077 
L 138.855915 103.749235 
L 138.954784 102.487132 
L 138.987741 103.900688 
L 139.053654 102.335679 
L 139.119567 103.79972 
L 139.218436 103.092942 
L 139.449132 101.275513 
L 139.580958 104.102624 
L 139.679827 100.972608 
L 139.712784 101.830838 
L 139.74574 101.780354 
L 139.877566 99.912441 
L 139.910523 100.013409 
L 139.976436 99.66002 
L 140.009392 100.417282 
L 140.108262 96.328067 
L 140.141218 98.347432 
L 140.338957 96.328067 
L 140.371914 96.378551 
L 140.50374 98.19598 
L 140.602609 96.277583 
L 140.635566 97.438718 
L 140.668522 97.59017 
L 140.701479 96.883392 
L 140.734435 98.044528 
L 140.998088 105.667633 
L 141.031044 105.26376 
L 141.064001 104.65795 
L 141.129914 105.26376 
L 141.327653 107.131673 
L 141.360609 105.819085 
L 141.459479 106.222958 
L 141.525392 105.26376 
L 141.558348 106.273442 
L 141.624261 105.566664 
L 141.887913 110.968467 
L 141.986783 111.624761 
L 142.151565 115.158651 
L 142.250435 113.745095 
L 142.415217 115.966397 
L 142.448174 114.90623 
L 142.48113 115.562524 
L 142.645913 118.591573 
L 142.678869 118.187699 
L 142.711826 118.44012 
L 142.843652 122.630304 
L 142.876608 122.327399 
L 142.942521 122.529336 
L 143.272086 131.515513 
L 143.337999 131.465028 
L 143.799391 142.066698 
L 144.030086 148.175279 
L 144.063043 147.973342 
L 144.293738 156.505162 
L 144.458521 160.99825 
L 144.524434 160.190504 
L 145.447216 189.572274 
L 145.480172 189.622758 
L 145.776781 196.23618 
L 145.842694 198.053609 
L 146.304085 210.018351 
L 146.864346 225.113109 
L 146.930259 227.6878 
L 146.963215 226.577149 
L 147.029128 225.920855 
L 147.062085 226.577149 
L 147.325737 232.433309 
L 147.457563 230.666364 
L 147.655302 234.705095 
L 147.787128 236.673977 
L 147.918954 241.116581 
L 147.95191 239.753509 
L 147.984867 239.349636 
L 148.017823 240.056414 
L 148.149649 240.510771 
L 148.182606 240.460287 
L 148.215562 240.056414 
L 148.248519 240.510771 
L 148.380345 242.025295 
L 148.545127 245.710638 
L 148.676954 246.518384 
L 148.70991 246.669836 
L 148.841736 245.761122 
L 149.006519 248.184361 
L 149.039475 248.133876 
L 149.237214 246.4679 
L 149.632692 251.162925 
L 149.665649 250.304694 
L 149.698605 251.162925 
L 149.797475 252.828902 
L 149.830431 252.626965 
L 149.896344 252.727933 
L 149.929301 251.869703 
L 150.061127 253.939553 
L 150.094083 253.586164 
L 150.159996 252.374544 
L 150.192953 253.687132 
L 150.258866 252.92987 
L 150.324779 252.980354 
L 150.390692 251.566798 
L 150.489561 253.131806 
L 150.522518 251.819219 
L 150.588431 252.879386 
L 150.621387 253.737616 
L 150.6873 253.384227 
L 150.819126 250.456147 
L 150.852083 250.86002 
L 150.885039 250.86002 
L 150.917996 250.25421 
L 150.950952 251.011472 
L 150.983909 251.213409 
L 151.115735 249.143559 
L 151.247561 251.415346 
L 151.313474 249.547432 
L 151.478257 245.407733 
L 151.511213 245.205796 
L 151.840778 236.976881 
L 151.939648 237.683659 
L 152.2033 232.433309 
L 152.236256 232.988634 
L 152.269213 232.231372 
L 152.368082 232.281856 
L 152.401039 229.757649 
L 152.433995 228.848935 
L 152.466952 229.555713 
L 152.499908 230.464427 
L 152.532865 229.909102 
L 152.730604 225.214077 
L 152.796517 223.851005 
L 152.994256 219.458885 
L 153.126082 218.247265 
L 153.159038 219.509369 
L 153.191995 218.701623 
L 153.356777 213.55224 
L 153.389734 214.057082 
L 153.42269 212.895947 
L 153.455647 212.845462 
L 153.653386 205.676715 
L 153.949995 200.678785 
L 154.081821 197.548768 
L 154.114777 198.205062 
L 154.18069 198.507967 
L 154.740951 184.77628 
L 154.773907 184.826765 
L 155.663733 157.918718 
L 155.828515 156.151773 
L 155.861472 158.776948 
L 155.927385 157.413876 
L 155.960341 157.464361 
L 156.322863 149.184962 
L 156.35582 149.639319 
L 156.883124 142.622023 
L 156.421733 149.841255 
L 156.949037 142.722992 
L 156.981993 143.833643 
L 157.047906 142.82396 
L 157.146776 140.703626 
L 157.311558 135.958117 
L 157.344515 139.391038 
L 157.410428 136.917316 
L 157.739993 130.253409 
L 157.772949 131.868902 
L 157.838862 130.909703 
L 157.871819 130.808735 
L 157.937732 130.859219 
L 158.135471 125.760321 
L 158.168427 126.568067 
L 158.201384 125.406932 
L 158.662775 118.187699 
L 158.728688 118.793509 
L 158.761645 118.692541 
L 158.827558 117.935279 
L 158.860514 118.944962 
L 158.926427 118.44012 
L 158.99234 118.591573 
L 159.025297 117.480922 
L 159.255992 112.634444 
L 159.288949 112.432508 
L 159.420775 108.646197 
L 159.519644 109.605396 
L 159.552601 109.151038 
L 159.783296 106.12199 
L 159.915122 108.646197 
L 160.013992 110.716047 
L 160.046948 110.059753 
L 160.211731 108.797649 
L 160.3106 110.463626 
L 160.376513 108.545229 
L 160.442426 108.646197 
L 160.508339 109.100554 
L 160.541296 108.747165 
L 160.706078 107.182157 
L 160.771991 107.686998 
L 160.903817 104.556982 
L 160.96973 104.05214 
L 161.0686 106.525863 
L 161.134513 106.021022 
L 161.200426 105.51618 
L 161.233382 104.65795 
L 161.266339 105.566664 
L 161.497035 109.252007 
L 161.562948 109.403459 
L 161.694774 110.665563 
L 161.72773 109.756848 
L 161.760687 109.857816 
L 161.892513 111.372341 
L 161.991382 109.807332 
L 162.024339 110.564594 
L 162.090252 111.675245 
L 162.123208 110.766531 
L 162.156165 110.817015 
L 162.353904 112.987833 
L 162.452773 107.838451 
L 162.48573 108.44426 
L 162.584599 110.463626 
L 162.683469 110.564594 
L 162.716425 108.494745 
L 162.947121 112.129603 
L 163.013034 111.321856 
L 163.04599 111.776214 
L 163.342599 115.915913 
L 163.375555 115.663492 
L 163.408512 116.269302 
L 163.606251 118.793509 
L 163.639207 118.086731 
L 163.738077 117.58189 
L 163.70512 118.389636 
L 163.771033 117.733342 
L 163.80399 117.733342 
L 163.935816 115.209135 
L 163.968773 116.673175 
L 164.166512 121.317716 
L 164.364251 124.851606 
L 164.430164 125.406932 
L 164.46312 125.154511 
L 164.726772 130.50583 
L 164.759729 130.101957 
L 164.924511 134.29214 
L 164.990424 135.604728 
L 165.023381 134.090204 
L 165.089294 134.645529 
L 165.385902 144.89381 
L 165.418859 144.792841 
L 165.451815 144.843326 
L 165.550685 147.367533 
L 165.616598 146.711239 
L 165.649554 146.761723 
L 165.814337 149.437382 
L 165.913206 152.971272 
L 165.979119 152.365462 
L 166.012076 152.163526 
L 166.242771 158.272107 
L 166.308684 157.666297 
L 166.605293 167.46022 
L 166.63825 167.005863 
L 166.671206 167.510705 
L 166.704163 167.712641 
L 167.626945 199.618618 
L 167.791727 204.969937 
L 167.824684 204.515579 
L 167.85764 205.272841 
L 167.890597 205.020421 
L 168.121292 210.37174 
L 168.154249 208.402858 
L 168.187205 209.412541 
L 168.319031 213.905629 
L 168.351988 213.451272 
L 168.549727 217.944361 
L 169.077031 229.858618 
L 169.109988 229.757649 
L 169.175901 231.171205 
L 169.472509 235.310905 
L 169.505466 235.209937 
L 169.538422 235.411873 
L 169.637292 236.623492 
L 169.670248 236.270104 
L 169.736161 234.503159 
L 169.769118 235.260421 
L 169.802074 235.86623 
L 169.835031 235.310905 
L 169.867987 234.503159 
L 169.900944 235.361389 
L 170.065726 239.349636 
L 170.098683 238.592374 
L 170.131639 238.440922 
L 170.164596 239.248668 
L 170.197552 237.33027 
L 170.263465 237.835112 
L 170.395291 239.955446 
L 170.428248 238.945763 
L 170.461204 240.157382 
L 170.560074 242.580621 
L 170.658943 243.590304 
L 170.6919 243.438851 
L 170.724856 243.691272 
L 170.757813 243.489336 
L 170.823726 241.46997 
L 170.856682 243.085462 
L 171.120334 249.042591 
L 171.153291 248.891139 
L 171.285117 245.761122 
L 171.318073 245.963058 
L 171.4499 246.922257 
L 171.614682 243.53982 
L 171.647639 245.00386 
L 171.713552 244.347566 
L 171.812421 244.39805 
L 171.911291 242.479653 
L 171.977204 239.803993 
L 172.043117 240.460287 
L 172.076073 240.409803 
L 172.141986 239.198184 
L 172.174943 239.854477 
L 172.339725 242.025295 
L 172.471551 239.602057 
L 172.504508 239.602057 
L 172.537464 239.904962 
L 172.570421 239.248668 
L 172.735203 236.371072 
L 172.76816 236.320588 
L 172.965899 239.248668 
L 173.064768 236.875913 
L 173.130681 238.794311 
L 173.196594 238.238985 
L 173.361377 235.058484 
L 173.394333 235.61381 
L 173.460246 235.361389 
L 173.493203 233.897349 
L 173.559116 234.604127 
L 173.592072 235.361389 
L 173.625029 234.40219 
L 173.657985 234.604127 
L 173.921637 228.445062 
L 173.954594 228.394578 
L 173.987551 228.848935 
L 174.020507 228.344093 
L 174.218246 226.526664 
L 174.251203 227.435379 
L 174.284159 225.971339 
L 174.613724 220.468568 
L 174.679637 222.08406 
L 174.712594 221.22583 
L 175.042159 215.975479 
L 175.075115 217.69194 
L 175.141028 217.389035 
L 175.305811 215.319185 
L 175.371724 216.2279 
L 175.40468 215.874511 
L 175.569463 212.996915 
L 175.602419 213.198851 
L 175.635376 213.198851 
L 175.668332 213.400788 
L 176.096767 197.346831 
L 176.16268 197.144895 
L 176.195636 197.498284 
L 176.228593 196.993442 
L 176.393375 192.803259 
L 177.546853 169.429102 
L 177.57981 169.479586 
L 177.612766 169.126197 
L 177.810505 163.825362 
L 177.843462 163.825362 
L 178.107114 157.464361 
L 178.14007 157.767265 
L 178.173027 158.877917 
L 178.205983 157.615813 
L 178.23894 157.81775 
L 178.271896 158.423559 
L 178.304853 157.868234 
L 178.568505 152.920788 
L 178.601461 153.07224 
L 178.634418 153.879987 
L 178.700331 152.920788 
L 178.733287 153.779018 
L 178.832157 150.951907 
L 178.865113 151.759653 
L 179.029896 148.579152 
L 179.194679 144.641389 
L 179.260592 144.086063 
L 179.392418 146.408334 
L 179.65607 140.198785 
L 179.689026 141.057015 
L 179.754939 140.451205 
L 180.611808 117.430437 
L 180.644765 118.086731 
L 180.677721 117.077048 
L 180.87546 113.644127 
L 181.040243 115.814945 
L 181.106156 115.966397 
L 181.501634 110.211205 
L 181.172069 116.067366 
L 181.63346 110.817015 
L 181.765286 113.391706 
L 181.864156 110.261689 
L 181.963025 110.362658 
L 181.995982 112.684928 
L 182.061895 111.11992 
L 182.094851 110.413142 
L 182.127808 111.018952 
L 182.160764 111.72573 
L 182.193721 110.716047 
L 182.358503 107.485062 
L 182.457373 108.494745 
L 182.490329 108.292808 
L 182.556242 107.030705 
L 182.589199 107.939419 
L 182.622155 108.19184 
L 182.688068 107.939419 
L 182.721025 104.960855 
L 182.786938 105.566664 
L 182.918764 106.98022 
L 182.95172 106.576347 
L 182.984677 107.232641 
L 183.05059 108.393776 
L 183.083546 107.989903 
L 183.149459 106.475379 
L 183.215372 106.525863 
L 183.248329 106.576347 
L 183.281285 107.081189 
L 183.347198 107.030705 
L 183.511981 104.607466 
L 183.676763 103.345362 
L 183.775633 105.667633 
L 183.808589 104.607466 
L 183.841546 104.001656 
L 183.874502 104.708434 
L 183.907459 104.607466 
L 183.940415 104.960855 
L 183.973372 103.698751 
L 184.039285 104.456013 
L 184.138155 106.475379 
L 184.204068 105.819085 
L 184.237024 105.26376 
L 184.302937 105.970538 
L 184.335894 105.718117 
L 184.533633 109.958785 
L 184.599546 109.504427 
L 184.698415 108.090871 
L 184.731372 108.898618 
L 184.830241 108.848134 
L 184.896154 107.737482 
L 184.962067 108.19184 
L 185.02798 107.686998 
L 185.588241 121.97401 
L 185.818936 128.991306 
L 185.851893 128.738885 
L 185.983719 130.354377 
L 186.016675 129.748568 
L 186.049632 129.849536 
L 186.576936 144.086063 
L 186.708762 145.045262 
L 186.873545 148.882057 
L 186.906501 149.033509 
L 186.939458 148.074311 
L 187.005371 148.932541 
L 187.301979 155.444995 
L 187.961109 174.275579 
L 188.059979 175.38623 
L 188.125892 177.809469 
L 188.191805 177.304628 
L 188.224761 177.506564 
L 188.620239 192.651806 
L 188.752065 195.781823 
L 188.982761 202.496214 
L 189.048674 202.950571 
L 189.08163 202.496214 
L 189.114587 202.395245 
L 189.1805 204.768 
L 189.246413 204.212674 
L 189.444152 206.938818 
L 189.477109 206.938818 
L 189.510065 207.241723 
L 189.905543 219.76179 
L 190.103282 222.487933 
L 190.136239 221.47825 
L 190.169195 223.295679 
L 190.432847 230.060554 
L 190.465804 229.15184 
L 190.564673 227.233442 
L 190.663543 228.192641 
L 190.696499 228.54603 
L 190.729456 228.243125 
L 190.762412 227.990705 
L 190.960151 232.887666 
L 190.993108 232.837182 
L 191.059021 232.332341 
L 191.190847 235.61381 
L 191.223803 234.755579 
L 191.25676 234.755579 
L 191.289716 234.452674 
L 191.355629 236.068167 
L 191.421542 235.916715 
L 191.454499 235.967199 
L 191.652238 237.734144 
L 191.685194 237.784628 
L 191.91589 241.570938 
L 191.948847 240.914644 
L 192.245455 246.366932 
L 192.344325 246.316447 
L 192.377281 244.095145 
L 192.443194 245.508701 
L 192.772759 242.580621 
L 192.937542 244.499018 
L 193.168237 246.922257 
L 193.300063 246.619352 
L 193.431889 244.549503 
L 193.530759 244.902891 
L 193.662585 243.186431 
L 193.761454 244.801923 
L 193.827367 244.700955 
L 193.89328 241.621422 
L 193.926237 243.388367 
L 194.058063 245.710638 
L 193.99215 243.337883 
L 194.156932 245.660154 
L 194.354672 242.126264 
L 194.486498 243.388367 
L 194.947889 238.339953 
L 195.079715 241.116581 
L 195.178584 240.561255 
L 195.376323 235.058484 
L 195.40928 236.270104 
L 195.475193 235.86623 
L 195.607019 234.856548 
L 195.639975 234.957516 
L 196.134323 225.567466 
L 196.200236 225.819886 
L 196.233192 226.375212 
L 196.430931 222.336481 
L 196.694583 216.025963 
L 196.793453 216.126932 
L 196.82641 215.924995 
L 197.024149 213.047399 
L 197.090062 213.097883 
L 197.287801 208.554311 
L 197.320757 210.775613 
L 197.38667 209.967866 
L 197.584409 205.727199 
L 197.617366 206.282524 
L 197.650322 205.171873 
L 198.14467 194.368267 
L 198.309452 190.228568 
L 198.342409 190.581957 
L 198.639017 183.110304 
L 198.836756 181.292875 
L 199.001539 175.537683 
L 199.034495 175.790104 
L 199.067452 175.689135 
L 199.331104 170.842658 
L 199.364061 171.044594 
L 199.528843 165.390371 
L 199.5618 165.895212 
L 199.660669 164.077783 
L 199.858408 160.947766 
L 199.891365 161.351639 
L 200.12206 150.850938 
L 200.155017 151.507232 
L 200.187973 151.406264 
L 200.385712 148.528668 
L 200.418669 148.781088 
L 200.451625 149.083993 
L 200.583451 148.023826 
L 200.649364 149.28593 
L 200.682321 148.225763 
L 200.913016 143.328801 
L 200.945973 142.722992 
L 200.978929 143.631706 
L 201.011886 143.732674 
L 201.143712 142.369603 
L 201.209625 142.521055 
L 201.242581 143.177349 
L 201.275538 142.420087 
L 201.308494 142.420087 
L 201.44032 138.835713 
L 201.473277 139.088134 
L 201.506233 139.088134 
L 201.572146 138.68426 
L 201.769885 134.140688 
L 201.802842 134.746497 
L 201.835798 134.03972 
L 201.901712 134.241656 
L 202.000581 133.030037 
L 202.033538 133.635846 
L 202.099451 131.313576 
L 202.165364 132.626164 
L 202.231277 131.162124 
L 202.363103 126.921456 
L 202.396059 127.022424 
L 202.560842 122.933209 
L 202.626755 124.245796 
L 202.791537 119.853676 
L 202.923363 118.793509 
L 202.85745 120.207065 
L 202.95632 119.197382 
L 203.154059 122.377883 
L 203.252928 122.529336 
L 203.351798 120.156581 
L 203.384754 120.106097 
L 203.61545 116.521723 
L 203.747276 117.58189 
L 203.780232 117.278985 
L 203.813189 117.935279 
L 203.879102 118.642057 
L 203.912058 118.137215 
L 204.076841 116.875112 
L 204.109797 118.389636 
L 204.17571 117.58189 
L 204.208667 117.783826 
L 204.373449 121.97401 
L 204.406406 121.923526 
L 204.538232 119.803192 
L 204.571189 120.005129 
L 204.604145 119.90416 
L 204.637102 120.156581 
L 204.703015 121.721589 
L 204.735971 120.409002 
L 204.768928 119.449803 
L 204.801884 120.661422 
L 204.834841 120.459486 
L 204.867797 121.317716 
L 204.900754 120.358518 
L 204.93371 119.449803 
L 204.966667 120.308033 
L 205.065536 122.074978 
L 205.098493 121.822558 
L 205.197362 122.529336 
L 205.362145 120.762391 
L 205.559884 118.541088 
L 205.59284 117.632374 
L 205.658753 118.339152 
L 205.889449 122.529336 
L 205.922405 122.428367 
L 205.988318 121.519653 
L 206.021275 121.822558 
L 206.153101 122.377883 
L 206.186057 121.97401 
L 206.219014 122.83224 
L 206.449709 127.224361 
L 206.482666 126.315646 
L 206.515622 126.820487 
L 206.647448 129.546631 
L 206.713361 130.101957 
L 206.746318 128.637917 
L 206.812231 129.597115 
L 206.9111 130.75825 
L 206.944057 130.657282 
L 207.10884 128.688401 
L 207.141796 128.738885 
L 207.207709 130.75825 
L 207.273622 130.051472 
L 207.306579 130.152441 
L 207.339535 129.395179 
L 207.372492 130.50583 
L 207.504318 133.282457 
L 207.537274 132.878584 
L 207.570231 132.979553 
L 207.800926 139.088134 
L 207.899796 140.804594 
L 207.932752 139.996848 
L 208.32823 146.155913 
L 208.558926 152.163526 
L 208.624839 151.456748 
L 208.657795 151.810137 
L 208.723708 153.627566 
L 208.822578 153.577082 
L 208.855534 153.476114 
L 209.119186 161.301155 
L 209.152143 160.897282 
L 209.185099 159.332274 
L 209.251012 160.99825 
L 209.448751 165.339886 
L 209.613534 168.92426 
L 209.646491 168.469903 
L 209.679447 169.53007 
L 209.910143 176.698818 
L 209.976056 178.011406 
L 210.206751 184.725796 
L 210.305621 185.684995 
L 210.931794 197.599252 
L 210.964751 197.498284 
L 211.129533 200.173943 
L 211.228403 199.669102 
L 211.261359 198.659419 
L 211.294316 199.921523 
L 211.393185 200.274912 
L 211.459098 202.294277 
L 211.492055 200.527332 
L 211.525011 200.476848 
L 211.755707 209.513509 
L 211.788663 209.109636 
L 211.854576 209.16012 
L 211.920489 210.62416 
L 212.118229 216.884194 
L 212.217098 219.004528 
L 212.612576 228.091673 
L 212.645533 227.182958 
L 212.711446 228.293609 
L 212.876228 230.111038 
L 212.942141 232.130404 
L 213.008054 231.47411 
L 213.041011 231.070237 
L 213.073967 232.332341 
L 213.106924 231.423626 
L 213.13988 229.202324 
L 213.23875 229.707165 
L 213.370576 231.070237 
L 213.535358 229.656681 
L 213.634228 231.978952 
L 213.700141 231.928467 
L 213.766054 232.93815 
L 213.831967 235.411873 
L 213.864923 234.856548 
L 214.029706 232.736214 
L 214.161532 236.623492 
L 214.227445 236.068167 
L 214.260401 235.967199 
L 214.392227 236.774945 
L 214.45814 235.361389 
L 214.524053 237.532207 
L 214.55701 236.421556 
L 214.589967 236.270104 
L 214.622923 236.926397 
L 214.65588 235.563326 
L 214.721793 236.118651 
L 214.754749 235.815746 
L 214.787706 235.664294 
L 214.919532 237.178818 
L 215.018401 235.108968 
L 215.051358 235.462357 
L 215.084314 234.301222 
L 215.117271 235.916715 
L 215.150227 234.806063 
L 215.21614 235.815746 
L 215.249097 235.714778 
L 215.31501 234.806063 
L 215.347966 235.411873 
L 215.380923 236.926397 
L 215.413879 235.108968 
L 215.446836 234.654611 
L 215.479792 235.108968 
L 215.578662 237.07785 
L 215.611618 236.522524 
L 215.710488 235.765262 
L 215.743444 236.169135 
L 215.809357 237.178818 
L 215.842314 236.673977 
L 215.87527 236.219619 
L 215.908227 237.33027 
L 216.007096 237.07785 
L 216.105966 238.743826 
L 216.073009 236.673977 
L 216.171879 237.633175 
L 216.237792 235.714778 
L 216.270748 234.604127 
L 216.336661 236.068167 
L 216.435531 236.724461 
L 216.468487 236.673977 
L 216.63327 233.342023 
L 216.666226 232.635245 
L 216.732139 232.93815 
L 216.831009 233.493476 
L 216.798052 232.786698 
L 216.863965 233.089603 
L 216.896922 232.382825 
L 216.929878 233.442992 
L 216.962835 233.089603 
L 216.995791 233.846865 
L 217.028748 232.68573 
L 217.094661 231.524594 
L 217.160574 232.433309 
L 217.193531 233.089603 
L 217.259444 232.635245 
L 217.2924 232.433309 
L 217.457183 228.394578 
L 217.490139 229.050871 
L 217.523096 227.889736 
L 217.556052 227.283927 
L 217.589009 227.788768 
L 217.621965 228.596514 
L 217.654922 227.738284 
L 217.786748 225.920855 
L 217.819704 226.880053 
L 217.852661 225.214077 
L 217.918574 223.144227 
L 217.984487 223.497616 
L 218.017443 223.346164 
L 218.0504 223.699553 
L 218.149269 225.61795 
L 218.215182 223.396648 
L 218.281095 224.658751 
L 218.314052 224.507299 
L 218.347008 224.860688 
L 218.379965 223.497616 
L 218.445878 224.305362 
L 218.478834 224.15391 
L 218.676573 219.004528 
L 218.70953 219.105496 
L 219.302747 206.181556 
L 219.335703 207.847533 
L 219.401616 207.140755 
L 219.500486 203.606865 
L 219.566399 204.313643 
L 219.599355 204.16219 
L 219.797095 200.628301 
L 219.830051 200.577816 
L 220.357355 189.976147 
L 220.555094 183.665629 
L 221.049442 171.902825 
L 221.082398 171.650404 
L 221.115355 172.155245 
L 221.148311 171.953309 
L 221.214224 172.609603 
L 221.44492 166.046664 
L 221.477876 166.400053 
L 221.510833 166.349569 
L 221.609702 164.734077 
L 221.642659 164.885529 
L 221.675615 164.481656 
L 221.708572 165.13795 
L 221.741528 165.087466 
L 221.939267 156.60613 
L 221.972224 157.969202 
L 222.10405 155.091606 
L 222.20292 152.617883 
L 222.268833 152.971272 
L 222.301789 154.233376 
L 222.367702 153.07224 
L 222.76318 146.105429 
L 222.829093 148.225763 
L 222.86205 148.629636 
L 222.895006 147.973342 
L 222.927963 147.872374 
L 222.993876 148.427699 
L 223.026832 147.973342 
L 223.191615 145.600588 
L 223.356397 143.833643 
L 223.389354 144.691873 
L 223.455267 143.732674 
L 223.488223 144.489937 
L 223.52118 144.439452 
L 223.554136 144.590905 
L 223.587093 144.944294 
L 223.620049 144.489937 
L 223.751875 140.703626 
L 223.784832 142.066698 
L 223.817788 141.814277 
L 223.916658 142.975412 
L 223.949614 142.773476 
L 224.015527 143.227833 
L 224.08144 143.025896 
L 224.147353 142.571539 
L 224.345092 138.027967 
L 224.378049 137.775546 
L 224.443962 139.340554 
L 224.476918 138.835713 
L 224.509875 138.128935 
L 224.575788 138.936681 
L 224.740571 135.75618 
L 224.806484 133.938751 
L 224.872397 134.494077 
L 224.905353 135.049402 
L 224.93831 134.494077 
L 224.971266 134.191172 
L 225.037179 135.958117 
L 225.070136 135.301823 
L 225.136049 134.29214 
L 225.234918 134.89795 
L 225.300831 135.251339 
L 225.333788 136.816347 
L 225.399701 136.160053 
L 225.531527 133.080521 
L 225.564483 133.383426 
L 225.59744 132.323259 
L 225.663353 133.736815 
L 225.729266 133.938751 
L 225.795179 132.373743 
L 225.828135 133.231973 
L 225.894048 134.191172 
L 225.959961 135.099886 
L 225.992918 134.494077 
L 226.091787 133.585362 
L 226.124744 134.89795 
L 226.190657 134.191172 
L 226.322483 132.979553 
L 226.355439 134.645529 
L 226.421352 134.241656 
L 226.685004 130.152441 
L 226.882743 134.645529 
L 227.014569 133.231973 
L 227.146395 135.453275 
L 227.278222 131.515513 
L 227.311178 132.272775 
L 227.377091 131.465028 
L 227.410048 129.799052 
L 227.475961 130.707766 
L 227.508917 130.859219 
L 227.6737 128.183559 
L 227.706656 128.43598 
L 227.904395 124.447733 
L 227.970308 124.346765 
L 228.036221 126.11371 
L 228.069178 124.397249 
L 228.102134 124.851606 
L 228.135091 124.094344 
L 228.168047 124.29628 
L 228.33283 122.882725 
L 228.365786 123.488534 
L 228.398743 124.447733 
L 228.464656 124.245796 
L 228.563525 123.135145 
L 228.596482 123.589503 
L 228.89309 129.344694 
L 228.926047 128.486464 
L 229.024916 126.870972 
L 229.057873 127.375813 
L 229.156742 129.193242 
L 229.189699 128.890337 
L 229.354481 125.709836 
L 229.420394 127.476781 
L 229.453351 126.921456 
L 229.55222 125.356447 
L 229.585177 126.214678 
L 229.914742 133.686331 
L 230.013612 133.332942 
L 230.145438 132.171806 
L 230.277264 134.696013 
L 230.475003 140.451205 
L 230.507959 139.441523 
L 230.573872 139.946364 
L 230.837524 142.167666 
L 230.870481 141.561856 
L 230.936394 142.319119 
L 230.96935 142.117182 
L 231.233002 146.408334 
L 231.265959 146.307366 
L 231.298915 146.307366 
L 231.364828 146.256881 
L 231.463698 147.872374 
L 231.496654 147.518985 
L 231.529611 148.023826 
L 231.694393 151.153843 
L 231.859176 152.415947 
L 231.892132 152.062558 
L 232.155784 160.039052 
L 232.188741 159.584694 
L 232.38648 165.642791 
L 232.419437 165.390371 
L 232.452393 164.835045 
L 232.683089 172.45815 
L 233.309262 188.966464 
L 233.342219 188.815012 
L 233.474045 190.98583 
L 233.539958 191.086798 
L 233.572914 190.632441 
L 233.70474 192.601322 
L 233.80361 196.690538 
L 233.836566 193.156648 
L 233.902479 195.37795 
L 233.968392 197.801189 
L 234.034305 197.094411 
L 234.166131 199.921523 
L 234.396827 204.667032 
L 234.726392 209.261088 
L 234.792305 209.563993 
L 234.858218 209.513509 
L 235.187783 217.288067 
L 235.22074 216.429836 
L 235.286653 216.783225 
L 235.418479 218.449202 
L 235.550305 219.76179 
L 235.583261 219.76179 
L 236.011696 227.586831 
L 236.044652 226.779085 
L 236.209435 230.363459 
L 236.242391 230.312975 
L 236.374217 233.897349 
L 236.44013 233.442992 
L 236.571956 232.281856 
L 236.604913 233.039119 
L 236.637869 232.281856 
L 236.703782 230.61588 
L 236.769695 231.423626 
L 236.967434 234.099285 
L 237.000391 233.796381 
L 237.033347 234.048801 
L 237.066304 233.846865 
L 237.09926 233.190571 
L 237.132217 235.008 
L 237.19813 233.644928 
L 237.527695 237.279786 
L 237.560652 237.380755 
L 237.593608 238.188501 
L 237.626565 237.33027 
L 237.725434 235.361389 
L 237.758391 235.815746 
L 237.890217 236.573008 
L 237.989086 232.988634 
L 238.054999 234.856548 
L 238.087956 236.017683 
L 238.153869 235.159452 
L 238.186825 235.361389 
L 238.219782 235.159452 
L 238.318651 232.433309 
L 238.351608 233.54396 
L 238.417521 233.342023 
L 238.483434 234.351706 
L 238.51639 235.967199 
L 238.582303 234.907032 
L 238.61526 235.260421 
L 238.648216 234.705095 
L 238.747086 233.039119 
L 238.812999 235.815746 
L 238.878912 234.503159 
L 238.977781 233.039119 
L 239.010738 233.291539 
L 239.043694 234.099285 
L 239.109607 233.644928 
L 239.142564 233.695412 
L 239.307346 231.272174 
L 239.505085 227.536347 
L 239.538042 228.192641 
L 239.570998 229.101356 
L 239.603955 227.990705 
L 239.636911 228.445062 
L 239.966476 222.487933 
L 239.999433 222.68987 
L 240.197172 220.367599 
L 240.230129 220.872441 
L 240.263085 220.01421 
L 240.296042 219.913242 
L 240.427868 220.922925 
L 240.460824 221.124861 
L 240.493781 220.670504 
L 240.658563 216.025963 
L 240.724476 216.2279 
L 240.757433 215.975479 
L 240.988128 211.633843 
L 241.25178 204.818484 
L 241.317693 205.37381 
L 241.383606 206.484461 
L 241.416563 205.929135 
L 241.449519 205.727199 
L 241.581345 203.001055 
L 241.614302 203.354444 
L 241.647258 204.061222 
L 241.680215 203.051539 
L 241.713171 203.404928 
L 242.471171 181.494811 
L 242.504127 181.59578 
L 242.635954 179.576414 
L 242.66891 179.929803 
L 242.701867 179.424962 
L 242.932562 172.609603 
L 243.163258 165.087466 
L 243.262127 166.046664 
L 243.295084 165.541823 
L 243.32804 165.238918 
L 243.360997 165.339886 
L 243.558736 158.221623 
L 243.591692 158.776948 
L 243.624649 157.716781 
L 243.888301 153.375145 
L 243.921257 154.182891 
L 244.08604 149.134477 
L 244.250822 151.507232 
L 244.316735 152.21401 
L 244.349692 151.658684 
L 244.74517 145.449135 
L 244.811083 143.783159 
L 244.844039 143.833643 
L 244.942909 146.35785 
L 244.975865 145.853008 
L 245.272474 140.905563 
L 245.371344 139.542491 
L 245.4043 139.794912 
L 245.536126 138.633776 
L 245.569083 139.996848 
L 245.602039 138.734745 
L 245.799778 132.727132 
L 245.832735 132.727132 
L 245.964561 131.717449 
L 245.997517 131.767933 
L 246.06343 132.979553 
L 246.129343 132.777616 
L 246.360039 129.193242 
L 246.491865 129.344694 
L 246.524821 129.496147 
L 246.689604 127.072908 
L 246.755517 129.04179 
L 246.788473 127.678718 
L 246.82143 127.123392 
L 246.887343 129.344694 
L 246.920299 127.57775 
L 246.986212 127.880654 
L 247.019169 127.628234 
L 247.052125 128.082591 
L 247.118038 125.861289 
L 247.183951 126.467098 
L 247.249864 128.587432 
L 247.282821 129.546631 
L 247.348734 128.637917 
L 247.38169 128.43598 
L 247.414647 127.476781 
L 247.513516 127.527265 
L 247.678299 130.051472 
L 247.777169 129.950504 
L 247.810125 128.839853 
L 247.843082 130.000988 
L 247.908995 129.243726 
L 247.941951 129.243726 
L 247.974908 129.395179 
L 248.106734 131.666965 
L 248.271516 128.940821 
L 248.304473 128.890337 
L 248.370386 131.717449 
L 248.403342 129.597115 
L 248.469255 128.940821 
L 248.502212 129.748568 
L 248.535168 129.092274 
L 248.568125 129.496147 
L 248.601081 129.395179 
L 248.765864 127.83017 
L 248.831777 128.738885 
L 248.864733 127.274845 
L 248.930646 128.183559 
L 248.963603 128.183559 
L 249.029516 129.597115 
L 249.062472 128.839853 
L 249.359081 125.154511 
L 249.392037 125.204995 
L 249.424994 126.214678 
L 249.45795 125.305963 
L 249.490907 124.750638 
L 249.55682 125.406932 
L 249.622733 126.265162 
L 249.754559 124.700154 
L 249.820472 123.387566 
L 249.886385 120.50997 
L 249.985254 120.661422 
L 250.018211 121.11578 
L 250.051167 120.610938 
L 250.084124 120.913843 
L 250.11708 120.055613 
L 250.182994 121.065295 
L 250.31482 122.478851 
L 250.380733 120.610938 
L 250.446646 121.519653 
L 250.479602 121.620621 
L 250.512559 120.610938 
L 250.545515 122.731272 
L 250.578472 124.397249 
L 250.677341 124.195312 
L 250.842124 127.022424 
L 250.87508 125.5079 
L 250.97395 125.558384 
L 251.006906 125.5079 
L 251.072819 127.325329 
L 251.105776 127.173876 
L 251.204645 121.923526 
L 251.237602 123.337082 
L 251.435341 125.457416 
L 251.468297 123.488534 
L 251.53421 124.447733 
L 251.600123 125.255479 
L 251.63308 124.952574 
L 251.698993 124.548701 
L 251.764906 126.870972 
L 251.797862 124.851606 
L 251.830819 124.801122 
L 251.896732 127.527265 
L 251.962645 126.820487 
L 252.028558 126.164194 
L 252.061514 126.820487 
L 252.127427 126.517583 
L 252.160384 126.568067 
L 252.259253 125.204995 
L 252.325166 125.608868 
L 252.489949 127.83017 
L 252.522905 127.880654 
L 252.786558 131.666965 
L 253.05021 138.532808 
L 253.214992 141.96573 
L 253.247949 141.309436 
L 253.313862 142.117182 
L 253.445688 147.064628 
L 253.478644 146.711239 
L 253.511601 146.711239 
L 253.643427 149.28593 
L 253.808209 151.305295 
L 253.841166 151.305295 
L 253.972992 153.375145 
L 254.005948 152.920788 
L 254.203687 156.454678 
L 254.236644 156.454678 
L 254.533252 163.67391 
L 254.566209 163.421489 
L 254.895774 173.568801 
L 255.060556 180.232708 
L 255.093513 179.475446 
L 255.126469 180.485129 
L 255.159426 180.232708 
L 255.488991 189.168401 
L 255.521948 189.319853 
L 255.719687 196.337149 
L 255.752643 195.832307 
L 255.7856 196.488601 
L 255.950382 201.082658 
L 255.983339 201.183626 
L 256.049252 202.344761 
L 256.148121 208.099953 
L 256.214034 207.191239 
L 256.279947 207.797048 
L 256.378817 210.068835 
L 256.642469 216.429836 
L 256.774295 218.499686 
L 256.807251 217.237583 
L 256.873164 218.449202 
L 257.136816 227.283927 
L 257.169773 227.485863 
L 257.400468 233.846865 
L 257.433425 233.190571 
L 257.499338 233.998317 
L 257.532294 233.342023 
L 257.730033 236.371072 
L 257.795947 236.47204 
L 257.828903 236.017683 
L 257.927773 237.431239 
L 258.026642 235.058484 
L 258.059599 235.815746 
L 258.356207 241.217549 
L 258.389164 240.409803 
L 258.42212 241.823359 
L 258.455077 241.823359 
L 258.652816 244.499018 
L 258.685772 243.691272 
L 258.718729 244.347566 
L 258.883511 248.588234 
L 258.916468 248.386297 
L 258.982381 249.093075 
L 259.114207 245.407733 
L 259.147163 246.215479 
L 259.18012 246.568868 
L 259.213076 246.366932 
L 259.311946 245.155312 
L 259.344902 245.407733 
L 259.608554 249.194043 
L 259.905163 240.61174 
L 259.938119 242.782558 
L 260.036989 243.842725 
L 260.069945 242.176748 
L 260.168815 242.479653 
L 260.201771 243.438851 
L 260.234728 242.883526 
L 260.366554 239.299152 
L 260.531337 240.965129 
L 260.564293 241.46997 
L 260.729076 237.532207 
L 260.959771 234.452674 
L 261.15751 236.522524 
L 261.190467 235.462357 
L 261.223423 235.108968 
L 261.25638 236.270104 
L 261.322293 234.705095 
L 261.355249 235.512841 
L 261.388206 234.806063 
L 261.520032 231.120721 
L 261.552988 231.120721 
L 261.750727 234.099285 
L 261.783684 233.291539 
L 261.849597 233.846865 
L 261.882553 233.695412 
L 261.91551 234.200254 
L 261.948466 233.089603 
L 262.212118 226.274244 
L 262.245075 227.233442 
L 262.278031 226.425696 
L 262.442814 224.507299 
L 262.47577 224.911172 
L 262.508727 224.810204 
L 262.673509 223.194711 
L 262.706466 223.346164 
L 262.871249 220.266631 
L 263.23377 211.83578 
L 263.596292 201.082658 
L 263.662205 201.688467 
L 263.695161 202.193309 
L 263.958813 193.964394 
L 264.024726 194.923593 
L 264.057683 196.438117 
L 264.090639 195.327466 
L 264.354291 189.471306 
L 264.387248 189.370337 
L 264.420204 189.420821 
L 264.6509 184.725796 
L 264.683856 184.271439 
L 264.716813 186.038384 
L 264.815682 185.684995 
L 264.848639 185.584027 
L 264.947508 182.100621 
L 264.980465 182.655947 
L 265.079334 184.52386 
L 265.145247 184.019018 
L 265.178204 183.766598 
L 265.277073 184.826765 
L 265.507769 176.900755 
L 265.540726 176.799786 
L 265.606639 175.790104 
L 265.639595 177.001723 
L 265.672552 177.001723 
L 265.837334 173.619285 
L 265.870291 173.720254 
L 266.100986 169.025229 
L 266.166899 170.539753 
L 266.199856 168.772808 
L 266.232812 169.227165 
L 266.298725 167.409736 
L 266.364638 167.712641 
L 266.529421 164.330204 
L 266.694203 161.402124 
L 266.72716 161.705028 
L 266.858986 156.050805 
L 266.957855 156.555646 
L 267.056725 157.666297 
L 267.089681 157.110972 
L 267.254464 155.798384 
L 267.28742 156.707098 
L 267.320377 155.091606 
L 267.419246 152.870304 
L 267.584029 148.983025 
L 267.814724 143.833643 
L 267.847681 144.89381 
L 267.880637 143.732674 
L 267.913594 143.833643 
L 268.078377 140.198785 
L 268.243159 143.379285 
L 268.309072 142.924928 
L 268.342029 145.398651 
L 268.407942 143.379285 
L 268.440898 142.874444 
L 268.473855 143.985095 
L 268.539768 143.783159 
L 268.671594 140.804594 
L 268.737507 141.258952 
L 268.770463 142.167666 
L 268.836376 142.117182 
L 268.968202 139.693943 
L 269.001159 139.845396 
L 269.100028 143.177349 
L 269.165941 141.864761 
L 269.231854 141.561856 
L 269.264811 141.915245 
L 269.297767 141.96573 
L 269.396637 139.794912 
L 269.495506 137.674578 
L 269.528463 138.482324 
L 269.561419 138.229903 
L 269.594376 139.946364 
L 269.660289 138.381356 
L 269.726202 139.239586 
L 269.923941 135.099886 
L 270.187593 127.375813 
L 270.220549 126.012741 
L 270.253506 127.981623 
L 270.286462 127.628234 
L 270.319419 128.183559 
L 270.352375 127.880654 
L 270.616028 123.387566 
L 270.78081 125.608868 
L 270.813767 125.003058 
L 270.846723 125.810805 
L 270.87968 126.870972 
L 270.912636 125.558384 
L 271.176288 120.711907 
L 271.209245 120.762391 
L 271.242201 121.671105 
L 271.341071 121.620621 
L 271.374027 121.671105 
L 271.637679 117.884795 
L 271.670636 117.935279 
L 271.868375 119.90416 
L 272.164983 114.451873 
L 272.19794 114.350905 
L 272.230896 115.613008 
L 272.296809 115.562524 
L 272.329766 114.90623 
L 272.362722 115.51204 
L 272.395679 116.168334 
L 272.428635 115.259619 
L 272.494548 113.341222 
L 272.527505 113.543159 
L 272.560461 115.966397 
L 272.659331 115.360588 
L 272.7582 116.067366 
L 272.791157 115.360588 
L 272.824113 116.016881 
L 272.955939 119.601255 
L 273.021853 120.812875 
L 273.054809 120.308033 
L 273.120722 118.692541 
L 273.186635 119.247866 
L 273.219592 119.90416 
L 273.285505 119.500287 
L 273.318461 119.04593 
L 273.351418 120.055613 
L 273.417331 120.308033 
L 273.5162 118.541088 
L 273.582113 119.500287 
L 273.61507 119.550771 
L 273.680983 118.288668 
L 273.779852 118.591573 
L 273.845765 119.348835 
L 273.944635 121.570137 
L 273.977591 120.106097 
L 274.010548 120.661422 
L 274.043504 119.702224 
L 274.076461 119.853676 
L 274.109417 118.793509 
L 274.142374 119.247866 
L 274.17533 120.560454 
L 274.241243 120.156581 
L 274.2742 119.954644 
L 274.504895 123.589503 
L 274.537852 123.084661 
L 274.603765 123.740955 
L 274.636721 123.185629 
L 274.900373 128.183559 
L 274.93333 127.880654 
L 274.966286 127.83017 
L 274.999243 126.820487 
L 275.032199 127.931139 
L 275.229938 131.818417 
L 275.262895 130.808735 
L 275.295851 130.202925 
L 275.559504 138.128935 
L 275.658373 140.299753 
L 275.757243 139.996848 
L 275.823156 138.886197 
L 276.020895 143.177349 
L 276.053851 143.278317 
L 276.218634 147.014144 
L 276.284547 145.802524 
L 276.449329 149.89174 
L 276.647068 153.879987 
L 276.778894 156.303225 
L 276.811851 156.101289 
L 277.141416 168.116514 
L 277.174372 166.349569 
L 277.207329 167.106831 
L 277.470981 177.001723 
L 277.503937 175.285262 
L 277.536894 177.355112 
L 277.56985 177.001723 
L 277.602807 177.052207 
L 277.833502 183.716114 
L 277.866459 185.533543 
L 277.899415 183.362725 
L 277.932372 183.968534 
L 278.031241 186.896614 
L 278.261937 194.166331 
L 278.294894 194.065362 
L 278.888111 207.847533 
L 278.954024 208.857215 
L 279.217676 214.006598 
L 279.250632 213.804661 
L 279.283589 213.653209 
L 279.448371 217.792908 
L 279.613154 220.317115 
L 279.777936 222.790838 
L 279.810893 222.336481 
L 279.909762 221.781155 
L 279.975675 221.427766 
L 280.008632 222.94229 
L 280.041588 222.336481 
L 280.074545 222.538417 
L 280.239327 225.466497 
L 280.30524 225.01214 
L 280.437066 226.678117 
L 280.601849 225.920855 
L 280.700719 229.40426 
L 280.931414 236.623492 
L 281.129153 236.421556 
L 281.16211 236.47204 
L 281.293936 239.652541 
L 281.326892 239.450604 
L 281.491675 236.825429 
L 281.590544 235.664294 
L 281.623501 235.967199 
L 281.656457 236.774945 
L 281.689414 235.512841 
L 281.72237 235.765262 
L 282.018979 232.07992 
L 282.051935 232.483793 
L 282.249674 235.361389 
L 282.315587 234.048801 
L 282.3815 234.40219 
L 282.447413 235.209937 
L 282.48037 233.796381 
L 282.513326 235.86623 
L 282.546283 236.219619 
L 282.612196 236.068167 
L 282.875848 231.676047 
L 282.908804 231.575078 
L 282.941761 232.180888 
L 282.974717 231.272174 
L 283.073587 230.212007 
L 283.106543 230.464427 
L 283.1395 230.212007 
L 283.271326 227.990705 
L 283.337239 227.182958 
L 283.370196 228.293609 
L 283.436109 226.981022 
L 283.666804 225.466497 
L 283.699761 225.870371 
L 283.765674 225.567466 
L 283.930456 222.538417 
L 283.996369 222.639386 
L 284.128195 224.305362 
L 284.260021 222.134544 
L 284.292978 221.730671 
L 284.424804 216.884194 
L 284.45776 217.389035 
L 284.523673 218.045329 
L 284.721412 215.571606 
L 284.754369 215.571606 
L 284.919151 218.600654 
L 284.952108 217.338551 
L 285.018021 217.187098 
L 285.11689 215.319185 
L 285.149847 216.278384 
L 285.182803 215.773543 
L 285.21576 216.2279 
L 285.248716 216.530805 
L 285.446455 214.006598 
L 285.512368 214.359987 
L 285.710108 211.22997 
L 285.776021 210.977549 
L 285.907847 207.393175 
L 285.940803 207.595112 
L 285.97376 208.958184 
L 286.006716 207.595112 
L 286.270368 203.455412 
L 286.468107 208.200922 
L 286.501064 207.039786 
L 286.53402 206.989302 
L 286.665846 205.272841 
L 286.698803 205.727199 
L 286.731759 206.787366 
L 286.764716 205.828167 
L 286.929498 203.960254 
L 287.489759 192.752775 
L 287.654541 191.743092 
L 288.676193 174.124127 
L 288.70915 176.345429 
L 288.775063 176.143492 
L 289.071671 170.438785 
L 289.104628 171.196047 
L 289.137584 170.640721 
L 289.236454 168.469903 
L 289.26941 169.227165 
L 289.302367 170.438785 
L 289.335323 169.126197 
L 289.401236 167.2078 
L 289.566019 160.796314 
L 289.598975 160.392441 
L 289.664888 161.654544 
L 289.697845 161.503092 
L 289.862627 158.373075 
L 289.895584 158.575012 
L 289.92854 158.524528 
L 290.192192 152.567399 
L 290.225149 152.718851 
L 290.291062 153.223693 
L 290.389931 150.346097 
L 290.422888 150.447065 
L 290.620627 146.206397 
L 290.653583 146.004461 
L 290.884279 142.521055 
L 290.917236 141.713309 
L 290.983149 142.722992 
L 291.246801 138.734745 
L 291.279757 139.088134 
L 291.411583 135.200855 
L 291.477496 135.352307 
L 291.543409 135.806664 
L 291.609322 135.604728 
L 291.642279 135.200855 
L 291.708192 135.50376 
L 291.741148 136.008601 
L 291.774105 135.604728 
L 292.10367 129.849536 
L 292.202539 129.90002 
L 292.235496 130.051472 
L 292.301409 130.202925 
L 292.367322 128.688401 
L 292.400278 129.597115 
L 292.433235 128.536948 
L 292.466191 129.243726 
L 292.532104 127.57775 
L 292.598017 128.385496 
L 292.630974 127.981623 
L 292.66393 130.000988 
L 292.729843 128.385496 
L 292.795756 125.962257 
L 292.861669 126.416614 
L 292.927582 127.123392 
L 293.059408 124.851606 
L 293.125321 124.649669 
L 293.191234 125.911773 
L 293.224191 126.164194 
L 293.257147 125.154511 
L 293.290104 125.457416 
L 293.323061 126.870972 
L 293.388974 126.214678 
L 293.553756 123.740955 
L 293.586713 123.791439 
L 293.619669 123.539018 
L 293.718539 119.702224 
L 293.751495 120.055613 
L 293.883321 120.863359 
L 294.015147 118.692541 
L 294.146973 120.661422 
L 294.17993 120.50997 
L 294.212886 121.317716 
L 294.245843 120.257549 
L 294.278799 120.106097 
L 294.311756 120.409002 
L 294.509495 122.630304 
L 294.542451 122.125462 
L 294.575408 122.226431 
L 294.641321 121.11578 
L 294.707234 121.267232 
L 294.773147 123.841923 
L 294.806103 122.83224 
L 294.83906 121.97401 
L 294.904973 122.933209 
L 294.937929 124.094344 
L 294.970886 122.074978 
L 295.003842 122.680788 
L 295.102712 121.418684 
L 295.069755 122.731272 
L 295.135668 122.226431 
L 295.168625 122.125462 
L 295.234538 121.721589 
L 295.333407 123.993376 
L 295.366364 123.639987 
L 295.432277 125.558384 
L 295.49819 125.457416 
L 295.597059 123.236114 
L 295.662972 126.416614 
L 295.728885 126.012741 
L 295.827755 127.375813 
L 295.893668 126.770003 
L 296.058451 124.548701 
L 296.124364 125.457416 
L 296.289146 126.36613 
L 296.322103 126.36613 
L 296.388016 126.921456 
L 296.420972 126.568067 
L 296.486885 125.810805 
L 296.519842 125.911773 
L 296.552798 127.274845 
L 296.618711 126.36613 
L 296.717581 126.719519 
L 296.750537 126.265162 
L 296.91532 129.04179 
L 297.178972 131.868902 
L 297.211928 131.414544 
L 297.244885 131.717449 
L 297.310798 132.878584 
L 297.376711 132.525195 
L 297.442624 131.414544 
L 297.47558 132.272775 
L 297.541493 132.22229 
L 297.57445 133.231973 
L 297.607406 131.616481 
L 297.640363 131.818417 
L 297.838102 137.321189 
L 297.871058 137.371673 
L 298.002884 140.299753 
L 298.89271 156.35371 
L 299.123406 165.339886 
L 299.156362 164.633109 
L 299.189319 165.036982 
L 299.420014 171.59992 
L 299.452971 171.751372 
L 299.518884 171.59992 
L 299.584797 173.568801 
L 299.617753 173.467833 
L 299.65071 174.477516 
L 299.716623 173.467833 
L 299.914362 176.193977 
L 300.013231 178.06189 
L 300.178014 181.545295 
L 300.21097 182.100621 
L 300.243927 184.77628 
L 300.342796 184.271439 
L 300.375753 183.766598 
L 300.738274 193.459553 
L 300.771231 193.207132 
L 300.804187 193.762457 
L 300.837144 193.409068 
L 300.8701 193.409068 
L 301.331492 199.315713 
L 302.089491 211.83578 
L 302.122448 210.725129 
L 302.188361 211.684327 
L 302.221317 211.381422 
L 302.254274 212.0882 
L 302.3861 215.924995 
L 302.419056 215.62209 
L 302.452013 214.662891 
L 302.484969 215.62209 
L 302.748621 218.651139 
L 302.781578 217.641456 
L 302.847491 218.348234 
L 303.078186 220.569536 
L 303.144099 222.437449 
L 303.177056 222.185028 
L 303.308882 225.01214 
L 303.341838 225.113109 
L 303.374795 224.860688 
L 303.605491 230.060554 
L 303.638447 229.555713 
L 303.836186 227.94022 
L 303.869143 226.324728 
L 303.968012 226.880053 
L 304.000969 226.728601 
L 304.033925 224.860688 
L 304.132795 225.264561 
L 304.330534 223.245195 
L 304.46236 226.880053 
L 304.528273 226.274244 
L 304.561229 226.274244 
L 304.693055 229.050871 
L 304.758968 228.596514 
L 304.791925 228.848935 
L 304.956707 230.363459 
L 305.187403 226.880053 
L 305.220359 227.182958 
L 305.418098 229.858618 
L 305.451055 229.555713 
L 305.68175 224.557783 
L 305.714707 225.113109 
L 305.912446 229.656681 
L 305.945402 228.798451 
L 305.978359 229.454745 
L 306.044272 230.464427 
L 306.077229 230.413943 
L 306.670446 220.872441 
L 306.901141 217.288067 
L 306.934098 217.237583 
L 307.000011 217.994845 
L 307.032967 217.035646 
L 307.09888 217.136614 
L 307.164793 217.944361 
L 307.19775 217.035646 
L 307.329576 213.602725 
L 307.362532 214.107566 
L 307.395489 215.01628 
L 307.428445 213.703693 
L 307.461402 213.602725 
L 307.560271 211.734811 
L 307.593228 211.987232 
L 307.626184 212.593042 
L 307.659141 211.936748 
L 307.725054 212.138684 
L 308.087575 207.09027 
L 308.548967 198.861356 
L 308.581923 198.659419 
L 308.61488 199.012808 
L 308.680793 199.820554 
L 308.713749 199.063292 
L 308.812619 199.16426 
L 308.878532 197.649736 
L 309.010358 194.216815 
L 309.043314 194.671172 
L 309.142184 193.560521 
L 309.17514 194.166331 
L 309.208097 194.873109 
L 309.27401 194.216815 
L 309.306966 193.91391 
L 309.603575 185.129669 
L 309.636531 185.836447 
L 309.702444 185.735479 
L 310.196792 177.859953 
L 310.361574 174.729937 
L 310.394531 175.184294 
L 310.427487 174.931873 
L 310.625226 171.044594 
L 310.658183 171.347499 
L 310.855922 167.611673 
L 310.888878 167.763125 
L 311.119574 164.53214 
L 311.152531 164.380688 
L 311.218444 165.794244 
L 311.2514 164.582624 
L 311.284357 164.784561 
L 311.317313 164.683593 
L 311.515052 161.048735 
L 311.646878 161.654544 
L 311.679835 161.906965 
L 311.745748 160.74583 
L 311.811661 160.947766 
L 311.844617 161.099219 
L 311.877574 162.512775 
L 311.91053 162.058417 
L 312.075313 159.079853 
L 312.273052 156.454678 
L 312.306008 156.656614 
L 312.734443 149.28593 
L 312.767399 149.28593 
L 312.833312 146.862691 
L 312.932182 144.388968 
L 312.998095 145.095746 
L 313.031051 145.095746 
L 313.261747 141.309436 
L 313.360616 141.864761 
L 313.690182 135.907633 
L 313.789051 136.563927 
L 313.920877 138.734745 
L 313.953834 137.926998 
L 314.283399 131.414544 
L 314.316355 131.36406 
L 314.349312 131.717449 
L 314.382268 131.263092 
L 314.448181 130.000988 
L 314.514094 130.808735 
L 314.547051 131.313576 
L 314.580007 130.404861 
L 314.678877 129.597115 
L 314.777746 130.455346 
L 314.975485 127.022424 
L 315.008442 127.426297 
L 315.041398 127.173876 
L 315.239137 123.286598 
L 315.370963 121.065295 
L 315.40392 122.377883 
L 315.469833 121.065295 
L 315.667572 117.127533 
L 315.766441 117.834311 
L 315.865311 118.238184 
L 315.931224 116.016881 
L 315.997137 117.178017 
L 316.16192 114.552841 
L 316.194876 115.865429 
L 316.260789 114.401389 
L 316.293746 114.552841 
L 316.326702 115.966397 
L 316.392615 115.310104 
L 316.557398 113.18977 
L 316.623311 113.038317 
L 316.72218 114.148968 
L 316.886963 110.261689 
L 316.919919 110.564594 
L 317.315397 113.846063 
L 317.348354 113.341222 
L 317.414267 115.411072 
L 317.447223 114.199452 
L 317.48018 114.401389 
L 317.513136 114.048 
L 317.743832 111.523793 
L 317.776788 112.382023 
L 317.875658 114.754778 
L 317.908614 113.492674 
L 317.941571 114.805262 
L 318.106353 117.379953 
L 318.13931 116.471239 
L 318.205223 117.077048 
L 318.304092 116.471239 
L 318.633657 123.690471 
L 318.666614 122.57982 
L 318.765484 120.560454 
L 318.79844 121.469169 
L 318.831397 121.721589 
L 318.864353 120.560454 
L 318.930266 121.3682 
L 319.589396 130.909703 
L 319.622353 130.808735 
L 319.754179 130.000988 
L 319.820092 132.474711 
L 319.853048 129.29421 
L 320.050787 132.272775 
L 320.083744 131.767933 
L 320.248526 135.402791 
L 320.347396 136.715379 
L 320.479222 142.571539 
L 320.545135 141.662825 
L 320.644004 145.853008 
L 320.709917 144.944294 
L 320.742874 144.288 
L 320.77583 145.348167 
L 321.006526 148.831573 
L 321.072439 148.326731 
L 321.138352 148.023826 
L 321.171308 148.175279 
L 321.402004 153.879987 
L 321.434961 153.425629 
L 321.599743 156.505162 
L 321.731569 159.332274 
L 321.797482 159.28179 
L 321.962265 162.159386 
L 322.85209 188.461623 
L 322.885047 187.048067 
L 322.95096 188.663559 
L 323.049829 187.855813 
L 323.247568 191.995513 
L 323.280525 191.743092 
L 323.313481 190.329536 
L 323.346438 191.137282 
L 323.544177 196.135212 
L 323.577133 194.51972 
L 323.61009 196.337149 
L 323.774873 202.395245 
L 323.939655 203.505896 
L 323.972612 202.799119 
L 324.005568 203.657349 
L 324.071481 202.900087 
L 324.335133 207.69608 
L 324.36809 207.494144 
L 324.664698 214.864828 
L 324.895394 219.408401 
L 324.92835 219.458885 
L 325.290872 224.355846 
L 325.356785 223.194711 
L 325.422698 223.245195 
L 325.521567 225.819886 
L 325.58748 222.841322 
L 325.653393 223.851005 
L 325.68635 225.365529 
L 325.785219 225.01214 
L 325.818176 224.961656 
L 325.851132 224.658751 
L 325.884089 225.163593 
L 325.917045 224.860688 
L 326.015915 227.283927 
L 326.081828 226.072307 
L 326.213654 227.485863 
L 326.24661 227.334411 
L 326.411393 234.654611 
L 326.477306 236.169135 
L 326.543219 235.714778 
L 326.576176 236.421556 
L 326.609132 235.209937 
L 326.642089 234.452674 
L 326.675045 235.411873 
L 326.740958 237.683659 
L 326.806871 237.633175 
L 326.872784 237.027366 
L 326.905741 238.138017 
L 326.971654 237.582691 
L 327.037567 236.017683 
L 327.070523 236.875913 
L 327.10348 238.996247 
L 327.169393 237.128334 
L 327.334175 235.563326 
L 327.76261 231.221689 
L 327.795566 231.575078 
L 327.828523 232.483793 
L 327.861479 230.565396 
L 327.993305 233.644928 
L 328.026262 232.887666 
L 328.125131 231.827499 
L 328.158088 232.130404 
L 328.224001 231.524594 
L 328.256957 233.190571 
L 328.32287 232.534277 
L 328.454696 230.666364 
L 328.487653 231.120721 
L 328.520609 230.918785 
L 328.718348 224.507299 
L 328.751305 225.567466 
L 328.916088 227.384895 
L 328.949044 227.182958 
L 328.982001 227.990705 
L 329.014957 227.031506 
L 329.047914 227.334411 
L 329.278609 223.447132 
L 329.707044 218.55017 
L 329.772957 222.033576 
L 329.805913 221.326798 
L 329.83887 218.499686 
L 329.937739 218.853075 
L 330.234348 214.259018 
L 330.465043 211.280454 
L 330.563913 214.006598 
L 330.596869 212.744494 
L 330.728695 211.936748 
L 330.761652 211.734811 
L 330.794608 212.340621 
L 330.959391 207.898017 
L 331.025304 209.008668 
L 331.05826 207.847533 
L 331.15713 208.352374 
L 331.288956 205.020421 
L 331.420782 199.669102 
L 331.453739 200.123459 
L 331.486695 200.072975 
L 331.519652 199.618618 
L 331.552608 200.577816 
L 331.585565 200.274912 
L 331.783304 195.226497 
L 332.013999 193.661489 
L 332.145825 189.976147 
L 332.178782 189.824694 
L 332.376521 186.644194 
L 332.673129 182.807399 
L 332.706086 183.564661 
L 332.771999 183.009336 
L 332.837912 181.444327 
L 333.101564 174.679452 
L 333.13452 174.982357 
L 333.167477 175.083326 
L 333.464085 165.642791 
L 333.497042 165.794244 
L 333.727737 161.503092 
L 333.760694 162.866164 
L 333.79365 161.200187 
L 333.925477 158.171139 
L 333.958433 159.079853 
L 333.99139 157.615813 
L 334.189129 153.223693 
L 334.55165 146.711239 
L 334.584607 147.771406 
L 334.65052 147.21608 
L 334.749389 143.985095 
L 334.815302 144.035579 
L 334.848259 144.035579 
L 334.881215 144.187032 
L 334.914172 143.985095 
L 334.947128 143.985095 
L 335.144867 140.855078 
L 335.177824 141.208467 
L 335.21078 141.662825 
L 335.243737 141.410404 
L 335.408519 139.744427 
L 335.441476 140.451205 
L 335.474432 140.299753 
L 335.573302 138.886197 
L 335.606258 139.340554 
L 335.672171 138.633776 
L 335.771041 138.785229 
L 335.803997 139.239586 
L 335.836954 138.785229 
L 335.86991 138.179419 
L 335.902867 138.633776 
L 336.001736 140.552174 
L 336.034693 139.845396 
L 336.133562 137.977482 
L 336.232432 136.311506 
L 336.265388 136.614411 
L 336.298345 137.169736 
L 336.529041 131.767933 
L 336.561997 132.626164 
L 336.62791 132.424227 
L 336.693823 131.162124 
L 336.825649 128.587432 
L 336.858606 128.738885 
L 336.891562 129.04179 
L 336.990432 127.173876 
L 337.023388 127.83017 
L 337.056345 126.820487 
L 337.122258 127.476781 
L 337.188171 129.496147 
L 337.221127 128.587432 
L 337.451823 125.659352 
L 337.517736 127.274845 
L 337.583649 126.36613 
L 337.649562 126.820487 
L 337.715475 125.053543 
L 337.781388 125.255479 
L 337.847301 125.911773 
L 337.880257 125.608868 
L 337.913214 125.104027 
L 337.94617 125.558384 
L 338.04504 127.274845 
L 338.143909 127.224361 
L 338.176866 127.426297 
L 338.209822 126.517583 
L 338.242779 128.032107 
L 338.407561 129.243726 
L 338.473474 127.83017 
L 338.506431 129.142758 
L 338.539387 128.940821 
L 338.6053 128.991306 
L 338.638257 130.051472 
L 338.671213 129.950504 
L 338.70417 128.43598 
L 338.770083 130.000988 
L 338.868952 128.43598 
L 338.901909 129.344694 
L 339.099648 131.666965 
L 339.132605 131.465028 
L 339.165561 132.020354 
L 339.198518 131.36406 
L 339.264431 130.556314 
L 339.297387 130.808735 
L 339.3633 130.960187 
L 339.46217 128.587432 
L 339.495126 128.43598 
L 339.528083 126.719519 
L 339.593996 127.83017 
L 339.626952 127.57775 
L 339.725822 129.748568 
L 339.758778 129.698083 
L 339.791735 128.234043 
L 339.857648 128.385496 
L 339.989474 129.90002 
L 340.253126 124.548701 
L 340.351995 126.012741 
L 340.582691 120.50997 
L 340.714517 122.428367 
L 340.747473 121.873042 
L 340.813386 122.882725 
L 340.846343 122.327399 
L 340.879299 121.97401 
L 340.912256 122.074978 
L 340.945212 119.702224 
L 341.044082 120.50997 
L 341.077038 119.90416 
L 341.142951 120.610938 
L 341.274777 121.267232 
L 341.406603 123.488534 
L 341.53843 125.255479 
L 341.571386 124.952574 
L 341.703212 127.83017 
L 341.835038 126.467098 
L 341.900951 126.669035 
L 341.933908 126.820487 
L 341.999821 128.637917 
L 342.032777 128.082591 
L 342.131647 125.5079 
L 342.164603 126.315646 
L 342.296429 130.051472 
L 342.329386 129.29421 
L 342.395299 131.061155 
L 342.461212 130.404861 
L 342.494168 130.859219 
L 342.560081 130.404861 
L 342.625994 131.111639 
L 342.724864 132.676648 
L 342.75782 132.626164 
L 342.790777 132.22229 
L 342.823733 133.181489 
L 342.85669 133.282457 
L 342.988516 134.746497 
L 343.021472 133.888267 
L 343.087385 134.191172 
L 343.120342 134.393109 
L 343.285124 136.462958 
L 343.318081 135.604728 
L 343.383994 136.614411 
L 343.614689 139.794912 
L 343.647646 139.794912 
L 344.339733 152.870304 
L 344.372689 152.365462 
L 344.471559 158.575012 
L 344.504515 158.221623 
L 344.537472 158.07017 
L 344.669298 159.887599 
L 344.702254 159.635179 
L 345.163645 171.246531 
L 345.196602 170.99411 
L 345.229558 169.681523 
L 345.295471 170.640721 
L 345.526167 179.828835 
L 345.690949 179.677382 
L 345.723906 179.778351 
L 345.855732 181.949169 
L 346.053471 188.360654 
L 346.086427 187.956781 
L 346.25121 191.440187 
L 346.317123 190.127599 
L 346.383036 190.834377 
L 346.415992 190.98583 
L 346.547818 191.84406 
L 346.613732 193.005195 
L 347.108079 205.37381 
L 347.141036 204.515579 
L 347.173992 204.818484 
L 347.272862 208.150437 
L 347.338775 207.69608 
L 347.437644 210.018351 
L 347.56947 213.855145 
L 347.602427 213.804661 
L 347.964948 221.47825 
L 347.997905 221.47825 
L 348.162687 223.649068 
L 348.195644 221.276314 
L 348.261557 222.487933 
L 348.426339 224.507299 
L 348.459296 224.052942 
L 348.492252 224.557783 
L 348.591122 228.293609 
L 348.657035 227.788768 
L 348.689991 226.981022 
L 348.722948 227.839252 
L 348.854774 229.858618 
L 348.88773 228.091673 
L 348.953643 229.656681 
L 349.052513 230.161523 
L 349.085469 229.656681 
L 349.217296 231.676047 
L 349.316165 233.493476 
L 349.382078 230.716848 
L 349.447991 231.171205 
L 349.546861 232.029436 
L 349.678687 233.846865 
L 349.843469 232.180888 
L 349.876426 231.877983 
L 349.909382 232.837182 
L 350.008252 232.584761 
L 350.041208 232.382825 
L 350.074165 232.68573 
L 350.30486 237.380755 
L 350.337817 236.724461 
L 350.40373 235.462357 
L 350.469643 235.61381 
L 350.502599 237.532207 
L 350.568512 237.178818 
L 350.634425 235.058484 
L 350.700338 236.068167 
L 350.766251 234.604127 
L 350.832164 235.411873 
L 350.865121 235.765262 
L 350.898077 235.008 
L 351.128773 232.433309 
L 351.293555 235.714778 
L 351.359468 236.724461 
L 351.458338 236.219619 
L 351.491294 236.068167 
L 351.524251 236.371072 
L 351.557207 236.875913 
L 351.590164 236.673977 
L 351.754947 234.099285 
L 351.787903 233.897349 
L 351.82086 235.765262 
L 351.886773 235.058484 
L 351.919729 235.008 
L 352.051555 232.68573 
L 352.084512 233.089603 
L 352.117468 232.786698 
L 352.183381 231.070237 
L 352.249294 231.625563 
L 352.282251 231.575078 
L 352.611816 223.951973 
L 352.677729 222.285997 
L 352.743642 222.94229 
L 352.776598 223.093743 
L 353.007294 219.610337 
L 353.13912 222.336481 
L 353.172076 221.629703 
L 353.205033 220.922925 
L 353.270946 221.730671 
L 353.303902 221.124861 
L 353.402772 219.509369 
L 353.567554 216.076447 
L 353.633467 217.288067 
L 353.666424 216.2279 
L 354.160771 208.503826 
L 354.226685 208.857215 
L 354.259641 209.109636 
L 354.292598 208.655279 
L 354.325554 209.059152 
L 354.523293 205.121389 
L 354.391467 209.614477 
L 354.55625 205.37381 
L 354.589206 205.878651 
L 354.622163 204.566063 
L 354.688076 206.131072 
L 355.017641 201.637983 
L 355.248336 193.560521 
L 355.347206 193.964394 
L 355.380162 194.216815 
L 355.511988 192.550838 
L 355.544945 193.409068 
L 355.577901 193.207132 
L 355.610858 190.430504 
L 355.709727 191.339219 
L 355.841553 188.815012 
L 355.87451 189.77421 
L 355.907466 189.622758 
L 356.039292 185.180154 
L 356.072249 185.886932 
L 356.863205 171.145563 
L 356.896162 171.59992 
L 356.929118 170.893142 
L 357.159814 165.339886 
L 357.258683 165.693275 
L 357.29164 165.794244 
L 357.390509 164.986497 
L 357.423466 165.844728 
L 357.522335 165.794244 
L 357.785987 160.644861 
L 357.8519 157.918718 
L 357.917813 159.231306 
L 357.95077 159.180821 
L 358.115552 155.293543 
L 358.148509 155.7479 
L 358.181465 154.334344 
L 358.247378 155.596447 
L 358.379204 156.555646 
L 358.543987 152.365462 
L 358.6099 154.384828 
L 358.675813 153.375145 
L 358.708769 153.779018 
L 358.741726 153.577082 
L 358.906508 150.295613 
L 358.939465 150.74997 
L 358.972421 150.245129 
L 359.005378 149.992708 
L 359.038334 150.548033 
L 359.203117 145.499619 
L 359.236073 145.499619 
L 359.3679 140.552174 
L 359.400856 142.722992 
L 359.433813 142.672508 
L 359.466769 143.278317 
L 359.532682 141.157983 
L 359.598595 141.864761 
L 359.829291 137.977482 
L 359.895204 138.027967 
L 359.994073 136.866831 
L 360.059986 139.744427 
L 360.125899 138.68426 
L 360.290682 135.907633 
L 360.356595 136.210538 
L 360.455464 134.645529 
L 360.521377 134.696013 
L 360.554334 135.049402 
L 360.719116 132.373743 
L 360.785029 133.131005 
L 360.916855 131.414544 
L 360.949812 131.515513 
L 361.081638 132.575679 
L 361.147551 133.635846 
L 361.180507 133.231973 
L 361.24642 132.171806 
L 361.279377 132.979553 
L 361.411203 134.89795 
L 361.510072 135.907633 
L 361.707811 132.626164 
L 361.740768 132.676648 
L 361.872594 131.616481 
L 361.938507 131.919386 
L 362.037377 133.181489 
L 362.00442 131.818417 
L 362.070333 133.030037 
L 362.235116 130.50583 
L 362.268072 131.111639 
L 362.301029 130.455346 
L 362.333985 130.253409 
L 362.366942 130.354377 
L 362.399898 130.75825 
L 362.432855 129.849536 
L 362.531724 127.426297 
L 362.564681 127.83017 
L 362.597637 128.385496 
L 362.66355 127.729202 
L 362.795376 128.890337 
L 362.927202 130.859219 
L 362.960159 129.799052 
L 362.993115 131.111639 
L 363.059028 132.929068 
L 363.124941 132.070838 
L 363.289724 129.395179 
L 363.355637 130.303893 
L 363.388593 130.657282 
L 363.454506 130.859219 
L 363.520419 129.092274 
L 363.619289 128.688401 
L 363.751115 130.50583 
L 363.784071 130.051472 
L 363.817028 129.344694 
L 363.849984 130.152441 
L 363.882941 130.101957 
L 363.915897 130.606798 
L 363.948854 129.395179 
L 364.014767 131.010671 
L 364.047723 131.061155 
L 364.08068 131.36406 
L 364.113636 130.606798 
L 364.146593 132.272775 
L 364.179549 131.515513 
L 364.212506 131.515513 
L 364.311375 133.282457 
L 364.377289 132.474711 
L 364.410245 131.96987 
L 364.443202 132.8281 
L 364.476158 133.383426 
L 364.509115 132.070838 
L 364.575028 131.96987 
L 364.607984 132.424227 
L 364.673897 131.868902 
L 364.73981 133.484394 
L 364.772767 132.323259 
L 364.904593 133.282457 
L 364.937549 133.080521 
L 365.036419 132.525195 
L 365.201201 134.443593 
L 365.234158 134.645529 
L 365.267114 134.342624 
L 365.333027 133.332942 
L 365.365984 134.342624 
L 365.530766 136.36199 
L 365.563723 136.36199 
L 365.695549 138.229903 
L 365.728505 137.321189 
L 365.761462 139.391038 
L 365.794418 139.138618 
L 366.091027 143.278317 
L 366.189896 144.843326 
L 366.222853 144.792841 
L 366.255809 143.581222 
L 366.288766 144.89381 
L 366.354679 143.833643 
L 366.453548 142.975412 
L 366.486505 143.42977 
L 366.651287 148.175279 
L 366.684244 147.872374 
L 366.7172 148.528668 
L 367.013809 154.031439 
L 367.178592 159.332274 
L 367.211548 159.079853 
L 367.244505 160.442925 
L 367.310418 159.180821 
L 367.343374 158.928401 
L 367.738852 165.238918 
L 367.804765 164.481656 
L 367.870678 164.885529 
L 367.903635 166.702958 
L 368.002504 166.450538 
L 368.13433 167.712641 
L 368.167287 167.561189 
L 368.332069 171.044594 
L 368.430939 172.559119 
L 368.463895 172.054277 
L 368.496852 172.155245 
L 368.79346 182.151105 
L 368.859373 184.119987 
L 368.925286 186.947098 
L 368.958243 185.129669 
L 369.024156 185.735479 
L 369.353721 193.459553 
L 369.386677 193.358584 
L 369.419634 193.207132 
L 369.617373 198.205062 
L 369.65033 197.599252 
L 369.683286 198.457482 
L 369.815112 200.981689 
L 369.848069 200.527332 
L 369.881025 200.981689 
L 370.21059 207.292207 
L 370.30946 208.352374 
L 370.507199 212.542558 
L 370.573112 212.391105 
L 370.737894 216.83371 
L 370.770851 217.288067 
L 370.803807 216.177416 
L 370.902677 216.328868 
L 371.001546 214.612407 
L 371.034503 214.915312 
L 371.199285 217.792908 
L 371.232242 217.742424 
L 371.397024 221.730671 
L 371.594763 220.317115 
L 371.62772 220.418083 
L 371.693633 220.62002 
L 371.726589 220.01421 
L 371.858415 223.093743 
L 371.990242 220.821957 
L 372.023198 222.841322 
L 372.089111 220.872441 
L 372.38572 225.113109 
L 372.451633 224.406331 
L 372.583459 225.163593 
L 372.748241 228.848935 
L 372.847111 228.293609 
L 372.880067 229.252808 
L 372.94598 228.899419 
L 372.978937 228.445062 
L 373.011893 229.15184 
L 373.110763 229.606197 
L 373.143719 228.091673 
L 373.176676 229.101356 
L 373.242589 230.565396 
L 373.275545 229.959586 
L 373.374415 229.454745 
L 373.440328 230.565396 
L 373.473284 230.060554 
L 373.572154 228.54603 
L 373.671023 226.22376 
L 373.868762 221.22583 
L 374.000588 225.062624 
L 374.033545 224.709235 
L 374.066501 224.75972 
L 374.099458 225.567466 
L 374.132414 225.163593 
L 374.36311 219.206464 
L 374.396066 220.115179 
L 374.429023 220.115179 
L 374.659719 217.237583 
L 374.824501 219.913242 
L 374.857458 219.913242 
L 374.956327 219.963726 
L 374.989284 219.15598 
L 375.02224 219.307432 
L 375.154066 216.934678 
L 375.187023 217.187098 
L 375.219979 216.682257 
L 375.252936 216.732741 
L 375.417718 213.855145 
L 375.846153 208.099953 
L 375.912066 209.76593 
L 375.945022 209.563993 
L 376.109805 207.241723 
L 376.208674 206.080588 
L 376.274587 204.919452 
L 376.3405 205.525262 
L 376.43937 204.868968 
L 376.637109 201.637983 
L 376.670065 201.537015 
L 376.933717 195.226497 
L 376.99963 193.91391 
L 377.032587 195.176013 
L 377.065544 194.974077 
L 377.19737 192.146965 
L 377.230326 192.298417 
L 377.296239 192.803259 
L 377.329196 192.247933 
L 377.395109 190.682925 
L 377.461022 191.490671 
L 377.493978 191.490671 
L 377.526935 192.096481 
L 377.559891 191.137282 
L 377.625804 189.117917 
L 377.724674 189.269369 
L 377.790587 190.531472 
L 377.922413 190.480988 
L 378.054239 189.168401 
L 378.087195 189.622758 
L 378.284934 184.220955 
L 378.581543 178.617215 
L 378.614499 181.141422 
L 378.713369 180.687065 
L 378.812238 179.677382 
L 379.108847 174.073643 
L 379.141803 174.023159 
L 379.273629 176.85027 
L 379.306586 176.749302 
L 379.405455 175.335746 
L 379.438412 176.900755 
L 379.504325 175.436715 
L 379.537281 176.143492 
L 379.570238 174.931873 
L 379.603195 175.790104 
L 380.130499 166.400053 
L 380.196412 166.652474 
L 380.229368 167.2078 
L 380.262325 165.99618 
L 380.690759 161.856481 
L 380.328238 166.400053 
L 380.723716 162.007933 
L 380.756672 162.815679 
L 380.789629 162.20987 
L 380.888498 160.14002 
L 380.921455 160.74583 
L 381.514672 150.951907 
L 381.547628 151.103359 
L 381.877193 154.132407 
L 382.041976 149.942224 
L 382.074932 150.447065 
L 382.107889 149.639319 
L 382.140846 150.093676 
L 382.239715 148.932541 
L 382.272672 149.487866 
L 382.305628 149.639319 
L 382.338585 149.538351 
L 382.536324 145.196715 
L 382.56928 145.701556 
L 382.602237 144.540421 
L 382.635193 144.792841 
L 382.865889 140.097816 
L 382.997715 141.258952 
L 383.030671 139.89588 
L 383.129541 140.249269 
L 383.162497 141.208467 
L 383.195454 139.693943 
L 383.22841 140.047332 
L 383.294323 140.552174 
L 383.32728 140.400721 
L 383.426149 140.148301 
L 383.492062 140.198785 
L 383.722758 134.443593 
L 383.755714 135.150371 
L 383.788671 133.888267 
L 383.920497 134.494077 
L 384.085279 131.818417 
L 384.151192 132.020354 
L 384.283018 131.212608 
L 384.315975 131.767933 
L 384.348931 130.455346 
L 384.414844 130.152441 
L 384.480757 128.940821 
L 384.513714 129.04179 
L 384.54667 129.90002 
L 384.579627 129.193242 
L 384.64554 127.375813 
L 384.678497 128.688401 
L 384.74441 128.486464 
L 384.777366 127.375813 
L 384.843279 128.385496 
L 384.876236 129.344694 
L 384.942149 128.991306 
L 384.975105 127.981623 
L 385.073975 128.133075 
L 385.106931 128.284528 
L 385.139888 128.133075 
L 385.172844 127.729202 
L 385.238757 129.092274 
L 385.30467 128.43598 
L 385.370583 128.738885 
L 385.40354 128.385496 
L 385.469453 128.43598 
L 385.700148 124.700154 
L 385.766061 123.539018 
L 385.831974 122.226431 
L 385.864931 123.589503 
L 385.897887 123.387566 
L 385.930844 123.43805 
L 386.029713 125.255479 
L 386.095626 124.548701 
L 386.128583 123.841923 
L 386.161539 124.29628 
L 386.194496 126.265162 
L 386.260409 124.094344 
L 386.293365 124.094344 
L 386.326322 124.498217 
L 386.359278 123.841923 
L 386.392235 123.942891 
L 386.820669 117.58189 
L 386.458148 124.29628 
L 386.853626 118.843993 
L 387.051365 122.83224 
L 387.117278 122.074978 
L 387.150234 121.923526 
L 387.347974 126.719519 
L 387.38093 125.911773 
L 387.545713 129.496147 
L 387.611626 129.698083 
L 387.644582 128.991306 
L 387.710495 130.808735 
L 387.776408 130.253409 
L 387.809365 130.960187 
L 387.842321 130.101957 
L 387.875278 130.101957 
L 387.908234 128.738885 
L 387.974147 130.101957 
L 388.007104 130.051472 
L 388.04006 129.29421 
L 388.073017 130.606798 
L 388.171886 133.484394 
L 388.237799 132.22229 
L 388.270756 132.272775 
L 388.303712 131.868902 
L 388.534408 136.008601 
L 388.863973 140.249269 
L 388.962842 144.187032 
L 389.028755 143.379285 
L 389.193538 145.651072 
L 389.259451 145.247199 
L 389.45719 149.841255 
L 389.490146 147.922858 
L 389.556059 150.346097 
L 389.621972 151.709169 
L 389.687885 151.002391 
L 389.984494 155.495479 
L 390.149277 157.868234 
L 390.182233 157.918718 
L 390.511798 165.99618 
L 390.77545 175.083326 
L 390.808407 173.366865 
L 390.841363 174.729937 
L 390.940233 176.900755 
L 390.973189 176.294945 
L 391.53345 193.207132 
L 391.599363 192.752775 
L 391.632319 192.045997 
L 391.665276 192.550838 
L 391.895971 197.548768 
L 391.928928 197.195379 
L 391.961884 197.801189 
L 392.027797 199.113776 
L 392.09371 200.931205 
L 392.126667 200.325396 
L 392.19258 199.517649 
L 392.258493 199.719586 
L 392.324406 199.921523 
L 392.357363 199.568134 
L 392.588058 201.890404 
L 392.621015 201.335078 
L 392.686928 201.83992 
L 392.752841 202.294277 
L 392.983536 209.311573 
L 393.016493 208.806731 
L 393.049449 209.210604 
L 393.082406 209.967866 
L 393.115362 208.402858 
L 393.444927 212.0882 
L 393.642666 215.874511 
L 393.675623 215.874511 
L 393.807449 214.76386 
L 393.741536 215.924995 
L 393.906318 214.965796 
L 393.972231 217.136614 
L 394.005188 216.278384 
L 394.071101 214.359987 
L 394.137014 215.01628 
L 394.235883 218.095813 
L 394.26884 217.641456 
L 394.433622 215.924995 
L 394.532492 216.631773 
L 394.565448 215.773543 
L 394.697274 220.468568 
L 394.730231 220.165663 
L 394.763187 218.853075 
L 394.829101 219.509369 
L 394.862057 220.62002 
L 394.92797 220.569536 
L 394.960927 219.913242 
L 395.02684 220.720988 
L 395.059796 220.418083 
L 395.224579 222.437449 
L 395.323448 221.781155 
L 395.356405 220.468568 
L 395.422318 220.720988 
L 395.455274 220.973409 
L 395.488231 220.519052 
L 395.521187 220.771472 
L 395.620057 217.742424 
L 395.68597 218.600654 
L 395.751883 219.812274 
L 395.784839 218.701623 
L 395.883709 218.247265 
L 395.916665 218.449202 
L 395.949622 218.651139 
L 395.982578 218.196781 
L 396.015535 218.398718 
L 396.114404 218.701623 
L 396.180317 219.711306 
L 396.3451 216.934678 
L 396.411013 216.076447 
L 396.443969 214.76386 
L 396.509882 216.480321 
L 396.641708 218.449202 
L 396.674665 217.69194 
L 396.707621 217.490003 
L 396.806491 216.177416 
L 396.773534 217.69194 
L 396.839447 216.530805 
L 396.872404 216.783225 
L 396.90536 216.177416 
L 397.00423 214.410471 
L 397.103099 213.097883 
L 397.136056 213.29982 
L 397.300838 215.01628 
L 397.399708 214.006598 
L 397.432665 214.359987 
L 397.465621 214.814344 
L 397.498578 214.208534 
L 397.531534 214.057082 
L 397.564491 214.309503 
L 397.597447 214.965796 
L 397.66336 214.814344 
L 397.992925 208.958184 
L 398.025882 209.059152 
L 398.058838 208.251406 
L 398.091795 209.563993 
L 398.124751 210.37174 
L 398.190664 209.866898 
L 398.223621 209.866898 
L 398.256577 210.169803 
L 398.42136 208.453342 
L 398.487273 209.715446 
L 398.487273 209.715446 
" style="fill:none;stroke:#1f77b4;stroke-linecap:square;"/>
   </g>
   <g id="patch_3">
    <path d="M 57.6 307.584 
L 57.6 41.472 
" style="fill:none;stroke:#000000;stroke-linecap:square;stroke-linejoin:miter;stroke-width:0.8;"/>
   </g>
   <g id="patch_4">
    <path d="M 414.72 307.584 
L 414.72 41.472 
" style="fill:none;stroke:#000000;stroke-linecap:square;stroke-linejoin:miter;stroke-width:0.8;"/>
   </g>
   <g id="patch_5">
    <path d="M 57.6 307.584 
L 414.72 307.584 
" style="fill:none;stroke:#000000;stroke-linecap:square;stroke-linejoin:miter;stroke-width:0.8;"/>
   </g>
   <g id="patch_6">
    <path d="M 57.6 41.472 
L 414.72 41.472 
" style="fill:none;stroke:#000000;stroke-linecap:square;stroke-linejoin:miter;stroke-width:0.8;"/>
   </g>
  </g>
 </g>
 <defs>
  <clipPath id="pb5dd7b1ad5">
   <rect height="266.112" width="357.12" x="57.6" y="41.472"/>
  </clipPath>
 </defs>
</svg>
