<?xml version="1.0" encoding="utf-8" standalone="no"?>
<!DOCTYPE svg PUBLIC "-//W3C//DTD SVG 1.1//EN"
  "http://www.w3.org/Graphics/SVG/1.1/DTD/svg11.dtd">
<svg height="345.6pt" version="1.1" viewBox="0 0 460.8 345.6" width="460.8pt" xmlns="http://www.w3.org/2000/svg" xmlns:xlink="http://www.w3.org/1999/xlink">
 <metadata>
  <rdf:RDF xmlns:cc="http://creativecommons.org/ns#" xmlns:dc="http://purl.org/dc/elements/1.1/" xmlns:rdf="http://www.w3.org/1999/02/22-rdf-syntax-ns#">
   <cc:Work>
    <dc:type rdf:resource="http://purl.org/dc/dcmitype/StillImage"/>
    <dc:date>2021-12-10T23:35:43.341244</dc:date>
    <dc:format>image/svg+xml</dc:format>
    <dc:creator>
     <cc:Agent>
      <dc:title>Matplotlib v3.4.3, https://matplotlib.org/</dc:title>
     </cc:Agent>
    </dc:creator>
   </cc:Work>
  </rdf:RDF>
 </metadata>
 <defs>
  <style type="text/css">*{stroke-linecap:butt;stroke-linejoin:round;}</style>
 </defs>
 <g id="figure_1">
  <g id="patch_1">
   <path d="M 0 345.6 
L 460.8 345.6 
L 460.8 0 
L 0 0 
z
" style="fill:#ffffff;"/>
  </g>
  <g id="axes_1">
   <g id="patch_2">
    <path d="M 57.6 307.584 
L 414.72 307.584 
L 414.72 41.472 
L 57.6 41.472 
z
" style="fill:#ffffff;"/>
   </g>
   <g id="matplotlib.axis_1">
    <g id="xtick_1">
     <g id="line2d_1">
      <path clip-path="url(#pfef554a13d)" d="M 73.832727 307.584 
L 73.832727 41.472 
" style="fill:none;stroke:#b0b0b0;stroke-linecap:square;stroke-width:0.8;"/>
     </g>
     <g id="line2d_2">
      <defs>
       <path d="M 0 0 
L 0 3.5 
" id="m11cf294e37" style="stroke:#000000;stroke-width:0.8;"/>
      </defs>
      <g>
       <use style="stroke:#000000;stroke-width:0.8;" x="73.832727" xlink:href="#m11cf294e37" y="307.584"/>
      </g>
     </g>
     <g id="text_1">
      <!-- 0 -->
      <g transform="translate(70.651477 322.182437)scale(0.1 -0.1)">
       <defs>
        <path d="M 2034 4250 
Q 1547 4250 1301 3770 
Q 1056 3291 1056 2328 
Q 1056 1369 1301 889 
Q 1547 409 2034 409 
Q 2525 409 2770 889 
Q 3016 1369 3016 2328 
Q 3016 3291 2770 3770 
Q 2525 4250 2034 4250 
z
M 2034 4750 
Q 2819 4750 3233 4129 
Q 3647 3509 3647 2328 
Q 3647 1150 3233 529 
Q 2819 -91 2034 -91 
Q 1250 -91 836 529 
Q 422 1150 422 2328 
Q 422 3509 836 4129 
Q 1250 4750 2034 4750 
z
" id="DejaVuSans-30" transform="scale(0.015625)"/>
       </defs>
       <use xlink:href="#DejaVuSans-30"/>
      </g>
     </g>
    </g>
    <g id="xtick_2">
     <g id="line2d_3">
      <path clip-path="url(#pfef554a13d)" d="M 139.732361 307.584 
L 139.732361 41.472 
" style="fill:none;stroke:#b0b0b0;stroke-linecap:square;stroke-width:0.8;"/>
     </g>
     <g id="line2d_4">
      <g>
       <use style="stroke:#000000;stroke-width:0.8;" x="139.732361" xlink:href="#m11cf294e37" y="307.584"/>
      </g>
     </g>
     <g id="text_2">
      <!-- 100 -->
      <g transform="translate(130.188611 322.182437)scale(0.1 -0.1)">
       <defs>
        <path d="M 794 531 
L 1825 531 
L 1825 4091 
L 703 3866 
L 703 4441 
L 1819 4666 
L 2450 4666 
L 2450 531 
L 3481 531 
L 3481 0 
L 794 0 
L 794 531 
z
" id="DejaVuSans-31" transform="scale(0.015625)"/>
       </defs>
       <use xlink:href="#DejaVuSans-31"/>
       <use x="63.623047" xlink:href="#DejaVuSans-30"/>
       <use x="127.246094" xlink:href="#DejaVuSans-30"/>
      </g>
     </g>
    </g>
    <g id="xtick_3">
     <g id="line2d_5">
      <path clip-path="url(#pfef554a13d)" d="M 205.631995 307.584 
L 205.631995 41.472 
" style="fill:none;stroke:#b0b0b0;stroke-linecap:square;stroke-width:0.8;"/>
     </g>
     <g id="line2d_6">
      <g>
       <use style="stroke:#000000;stroke-width:0.8;" x="205.631995" xlink:href="#m11cf294e37" y="307.584"/>
      </g>
     </g>
     <g id="text_3">
      <!-- 200 -->
      <g transform="translate(196.088245 322.182437)scale(0.1 -0.1)">
       <defs>
        <path d="M 1228 531 
L 3431 531 
L 3431 0 
L 469 0 
L 469 531 
Q 828 903 1448 1529 
Q 2069 2156 2228 2338 
Q 2531 2678 2651 2914 
Q 2772 3150 2772 3378 
Q 2772 3750 2511 3984 
Q 2250 4219 1831 4219 
Q 1534 4219 1204 4116 
Q 875 4013 500 3803 
L 500 4441 
Q 881 4594 1212 4672 
Q 1544 4750 1819 4750 
Q 2544 4750 2975 4387 
Q 3406 4025 3406 3419 
Q 3406 3131 3298 2873 
Q 3191 2616 2906 2266 
Q 2828 2175 2409 1742 
Q 1991 1309 1228 531 
z
" id="DejaVuSans-32" transform="scale(0.015625)"/>
       </defs>
       <use xlink:href="#DejaVuSans-32"/>
       <use x="63.623047" xlink:href="#DejaVuSans-30"/>
       <use x="127.246094" xlink:href="#DejaVuSans-30"/>
      </g>
     </g>
    </g>
    <g id="xtick_4">
     <g id="line2d_7">
      <path clip-path="url(#pfef554a13d)" d="M 271.531628 307.584 
L 271.531628 41.472 
" style="fill:none;stroke:#b0b0b0;stroke-linecap:square;stroke-width:0.8;"/>
     </g>
     <g id="line2d_8">
      <g>
       <use style="stroke:#000000;stroke-width:0.8;" x="271.531628" xlink:href="#m11cf294e37" y="307.584"/>
      </g>
     </g>
     <g id="text_4">
      <!-- 300 -->
      <g transform="translate(261.987878 322.182437)scale(0.1 -0.1)">
       <defs>
        <path d="M 2597 2516 
Q 3050 2419 3304 2112 
Q 3559 1806 3559 1356 
Q 3559 666 3084 287 
Q 2609 -91 1734 -91 
Q 1441 -91 1130 -33 
Q 819 25 488 141 
L 488 750 
Q 750 597 1062 519 
Q 1375 441 1716 441 
Q 2309 441 2620 675 
Q 2931 909 2931 1356 
Q 2931 1769 2642 2001 
Q 2353 2234 1838 2234 
L 1294 2234 
L 1294 2753 
L 1863 2753 
Q 2328 2753 2575 2939 
Q 2822 3125 2822 3475 
Q 2822 3834 2567 4026 
Q 2313 4219 1838 4219 
Q 1578 4219 1281 4162 
Q 984 4106 628 3988 
L 628 4550 
Q 988 4650 1302 4700 
Q 1616 4750 1894 4750 
Q 2613 4750 3031 4423 
Q 3450 4097 3450 3541 
Q 3450 3153 3228 2886 
Q 3006 2619 2597 2516 
z
" id="DejaVuSans-33" transform="scale(0.015625)"/>
       </defs>
       <use xlink:href="#DejaVuSans-33"/>
       <use x="63.623047" xlink:href="#DejaVuSans-30"/>
       <use x="127.246094" xlink:href="#DejaVuSans-30"/>
      </g>
     </g>
    </g>
    <g id="xtick_5">
     <g id="line2d_9">
      <path clip-path="url(#pfef554a13d)" d="M 337.431262 307.584 
L 337.431262 41.472 
" style="fill:none;stroke:#b0b0b0;stroke-linecap:square;stroke-width:0.8;"/>
     </g>
     <g id="line2d_10">
      <g>
       <use style="stroke:#000000;stroke-width:0.8;" x="337.431262" xlink:href="#m11cf294e37" y="307.584"/>
      </g>
     </g>
     <g id="text_5">
      <!-- 400 -->
      <g transform="translate(327.887512 322.182437)scale(0.1 -0.1)">
       <defs>
        <path d="M 2419 4116 
L 825 1625 
L 2419 1625 
L 2419 4116 
z
M 2253 4666 
L 3047 4666 
L 3047 1625 
L 3713 1625 
L 3713 1100 
L 3047 1100 
L 3047 0 
L 2419 0 
L 2419 1100 
L 313 1100 
L 313 1709 
L 2253 4666 
z
" id="DejaVuSans-34" transform="scale(0.015625)"/>
       </defs>
       <use xlink:href="#DejaVuSans-34"/>
       <use x="63.623047" xlink:href="#DejaVuSans-30"/>
       <use x="127.246094" xlink:href="#DejaVuSans-30"/>
      </g>
     </g>
    </g>
    <g id="xtick_6">
     <g id="line2d_11">
      <path clip-path="url(#pfef554a13d)" d="M 403.330896 307.584 
L 403.330896 41.472 
" style="fill:none;stroke:#b0b0b0;stroke-linecap:square;stroke-width:0.8;"/>
     </g>
     <g id="line2d_12">
      <g>
       <use style="stroke:#000000;stroke-width:0.8;" x="403.330896" xlink:href="#m11cf294e37" y="307.584"/>
      </g>
     </g>
     <g id="text_6">
      <!-- 500 -->
      <g transform="translate(393.787146 322.182437)scale(0.1 -0.1)">
       <defs>
        <path d="M 691 4666 
L 3169 4666 
L 3169 4134 
L 1269 4134 
L 1269 2991 
Q 1406 3038 1543 3061 
Q 1681 3084 1819 3084 
Q 2600 3084 3056 2656 
Q 3513 2228 3513 1497 
Q 3513 744 3044 326 
Q 2575 -91 1722 -91 
Q 1428 -91 1123 -41 
Q 819 9 494 109 
L 494 744 
Q 775 591 1075 516 
Q 1375 441 1709 441 
Q 2250 441 2565 725 
Q 2881 1009 2881 1497 
Q 2881 1984 2565 2268 
Q 2250 2553 1709 2553 
Q 1456 2553 1204 2497 
Q 953 2441 691 2322 
L 691 4666 
z
" id="DejaVuSans-35" transform="scale(0.015625)"/>
       </defs>
       <use xlink:href="#DejaVuSans-35"/>
       <use x="63.623047" xlink:href="#DejaVuSans-30"/>
       <use x="127.246094" xlink:href="#DejaVuSans-30"/>
      </g>
     </g>
    </g>
   </g>
   <g id="matplotlib.axis_2">
    <g id="ytick_1">
     <g id="line2d_13">
      <path clip-path="url(#pfef554a13d)" d="M 57.6 272.833349 
L 414.72 272.833349 
" style="fill:none;stroke:#b0b0b0;stroke-linecap:square;stroke-width:0.8;"/>
     </g>
     <g id="line2d_14">
      <defs>
       <path d="M 0 0 
L -3.5 0 
" id="m0909196c06" style="stroke:#000000;stroke-width:0.8;"/>
      </defs>
      <g>
       <use style="stroke:#000000;stroke-width:0.8;" x="57.6" xlink:href="#m0909196c06" y="272.833349"/>
      </g>
     </g>
     <g id="text_7">
      <!-- −0.015 -->
      <g transform="translate(13.592188 276.632568)scale(0.1 -0.1)">
       <defs>
        <path d="M 678 2272 
L 4684 2272 
L 4684 1741 
L 678 1741 
L 678 2272 
z
" id="DejaVuSans-2212" transform="scale(0.015625)"/>
        <path d="M 684 794 
L 1344 794 
L 1344 0 
L 684 0 
L 684 794 
z
" id="DejaVuSans-2e" transform="scale(0.015625)"/>
       </defs>
       <use xlink:href="#DejaVuSans-2212"/>
       <use x="83.789062" xlink:href="#DejaVuSans-30"/>
       <use x="147.412109" xlink:href="#DejaVuSans-2e"/>
       <use x="179.199219" xlink:href="#DejaVuSans-30"/>
       <use x="242.822266" xlink:href="#DejaVuSans-31"/>
       <use x="306.445312" xlink:href="#DejaVuSans-35"/>
      </g>
     </g>
    </g>
    <g id="ytick_2">
     <g id="line2d_15">
      <path clip-path="url(#pfef554a13d)" d="M 57.6 236.620671 
L 414.72 236.620671 
" style="fill:none;stroke:#b0b0b0;stroke-linecap:square;stroke-width:0.8;"/>
     </g>
     <g id="line2d_16">
      <g>
       <use style="stroke:#000000;stroke-width:0.8;" x="57.6" xlink:href="#m0909196c06" y="236.620671"/>
      </g>
     </g>
     <g id="text_8">
      <!-- −0.010 -->
      <g transform="translate(13.592188 240.41989)scale(0.1 -0.1)">
       <use xlink:href="#DejaVuSans-2212"/>
       <use x="83.789062" xlink:href="#DejaVuSans-30"/>
       <use x="147.412109" xlink:href="#DejaVuSans-2e"/>
       <use x="179.199219" xlink:href="#DejaVuSans-30"/>
       <use x="242.822266" xlink:href="#DejaVuSans-31"/>
       <use x="306.445312" xlink:href="#DejaVuSans-30"/>
      </g>
     </g>
    </g>
    <g id="ytick_3">
     <g id="line2d_17">
      <path clip-path="url(#pfef554a13d)" d="M 57.6 200.407994 
L 414.72 200.407994 
" style="fill:none;stroke:#b0b0b0;stroke-linecap:square;stroke-width:0.8;"/>
     </g>
     <g id="line2d_18">
      <g>
       <use style="stroke:#000000;stroke-width:0.8;" x="57.6" xlink:href="#m0909196c06" y="200.407994"/>
      </g>
     </g>
     <g id="text_9">
      <!-- −0.005 -->
      <g transform="translate(13.592188 204.207212)scale(0.1 -0.1)">
       <use xlink:href="#DejaVuSans-2212"/>
       <use x="83.789062" xlink:href="#DejaVuSans-30"/>
       <use x="147.412109" xlink:href="#DejaVuSans-2e"/>
       <use x="179.199219" xlink:href="#DejaVuSans-30"/>
       <use x="242.822266" xlink:href="#DejaVuSans-30"/>
       <use x="306.445312" xlink:href="#DejaVuSans-35"/>
      </g>
     </g>
    </g>
    <g id="ytick_4">
     <g id="line2d_19">
      <path clip-path="url(#pfef554a13d)" d="M 57.6 164.195316 
L 414.72 164.195316 
" style="fill:none;stroke:#b0b0b0;stroke-linecap:square;stroke-width:0.8;"/>
     </g>
     <g id="line2d_20">
      <g>
       <use style="stroke:#000000;stroke-width:0.8;" x="57.6" xlink:href="#m0909196c06" y="164.195316"/>
      </g>
     </g>
     <g id="text_10">
      <!-- 0.000 -->
      <g transform="translate(21.971875 167.994535)scale(0.1 -0.1)">
       <use xlink:href="#DejaVuSans-30"/>
       <use x="63.623047" xlink:href="#DejaVuSans-2e"/>
       <use x="95.410156" xlink:href="#DejaVuSans-30"/>
       <use x="159.033203" xlink:href="#DejaVuSans-30"/>
       <use x="222.65625" xlink:href="#DejaVuSans-30"/>
      </g>
     </g>
    </g>
    <g id="ytick_5">
     <g id="line2d_21">
      <path clip-path="url(#pfef554a13d)" d="M 57.6 127.982638 
L 414.72 127.982638 
" style="fill:none;stroke:#b0b0b0;stroke-linecap:square;stroke-width:0.8;"/>
     </g>
     <g id="line2d_22">
      <g>
       <use style="stroke:#000000;stroke-width:0.8;" x="57.6" xlink:href="#m0909196c06" y="127.982638"/>
      </g>
     </g>
     <g id="text_11">
      <!-- 0.005 -->
      <g transform="translate(21.971875 131.781857)scale(0.1 -0.1)">
       <use xlink:href="#DejaVuSans-30"/>
       <use x="63.623047" xlink:href="#DejaVuSans-2e"/>
       <use x="95.410156" xlink:href="#DejaVuSans-30"/>
       <use x="159.033203" xlink:href="#DejaVuSans-30"/>
       <use x="222.65625" xlink:href="#DejaVuSans-35"/>
      </g>
     </g>
    </g>
    <g id="ytick_6">
     <g id="line2d_23">
      <path clip-path="url(#pfef554a13d)" d="M 57.6 91.769961 
L 414.72 91.769961 
" style="fill:none;stroke:#b0b0b0;stroke-linecap:square;stroke-width:0.8;"/>
     </g>
     <g id="line2d_24">
      <g>
       <use style="stroke:#000000;stroke-width:0.8;" x="57.6" xlink:href="#m0909196c06" y="91.769961"/>
      </g>
     </g>
     <g id="text_12">
      <!-- 0.010 -->
      <g transform="translate(21.971875 95.569179)scale(0.1 -0.1)">
       <use xlink:href="#DejaVuSans-30"/>
       <use x="63.623047" xlink:href="#DejaVuSans-2e"/>
       <use x="95.410156" xlink:href="#DejaVuSans-30"/>
       <use x="159.033203" xlink:href="#DejaVuSans-31"/>
       <use x="222.65625" xlink:href="#DejaVuSans-30"/>
      </g>
     </g>
    </g>
    <g id="ytick_7">
     <g id="line2d_25">
      <path clip-path="url(#pfef554a13d)" d="M 57.6 55.557283 
L 414.72 55.557283 
" style="fill:none;stroke:#b0b0b0;stroke-linecap:square;stroke-width:0.8;"/>
     </g>
     <g id="line2d_26">
      <g>
       <use style="stroke:#000000;stroke-width:0.8;" x="57.6" xlink:href="#m0909196c06" y="55.557283"/>
      </g>
     </g>
     <g id="text_13">
      <!-- 0.015 -->
      <g transform="translate(21.971875 59.356502)scale(0.1 -0.1)">
       <use xlink:href="#DejaVuSans-30"/>
       <use x="63.623047" xlink:href="#DejaVuSans-2e"/>
       <use x="95.410156" xlink:href="#DejaVuSans-30"/>
       <use x="159.033203" xlink:href="#DejaVuSans-31"/>
       <use x="222.65625" xlink:href="#DejaVuSans-35"/>
      </g>
     </g>
    </g>
   </g>
   <g id="line2d_27">
    <path clip-path="url(#pfef554a13d)" d="M 73.832727 172.007598 
L 73.964527 174.199672 
L 74.030426 175.590239 
L 74.096326 175.242597 
L 74.162225 173.658896 
L 74.195175 174.161045 
L 74.326975 175.783373 
L 74.491724 173.234 
L 74.590573 174.354179 
L 74.623523 174.083791 
L 74.722372 172.345583 
L 74.755322 172.847732 
L 74.788272 173.311254 
L 74.854172 171.457165 
L 74.920071 172.036568 
L 74.953021 172.306956 
L 75.11777 171.14815 
L 75.18367 170.027971 
L 75.249569 170.955016 
L 75.381369 171.611672 
L 75.414318 171.534419 
L 75.447268 170.684628 
L 75.513168 171.727553 
L 75.612017 171.920687 
L 75.644967 171.88206 
L 75.677917 171.457165 
L 75.710867 172.036568 
L 75.743817 172.384209 
L 75.875616 175.822 
L 75.908566 175.667492 
L 76.040365 176.787671 
L 76.073315 176.131015 
L 76.139214 176.324149 
L 76.205114 176.517283 
L 76.238064 177.598835 
L 76.271014 176.749044 
L 76.303964 176.053761 
L 76.369863 176.980805 
L 76.435763 177.985104 
L 76.468713 177.28982 
L 76.567562 175.860627 
L 76.633462 176.440029 
L 76.666412 177.598835 
L 76.732311 176.053761 
L 76.831161 174.508687 
L 76.86411 175.20397 
L 76.99591 173.581642 
L 77.02886 174.856328 
L 77.127709 174.508687 
L 77.457207 172.461463 
L 77.589006 173.774776 
L 77.621956 173.929284 
L 77.654906 173.504388 
L 77.687856 174.315552 
L 77.720806 174.006537 
L 77.852605 175.822 
L 77.918505 175.474358 
L 78.017354 174.663194 
L 77.984404 175.706119 
L 78.050304 174.856328 
L 78.182103 175.783373 
L 78.346852 172.268329 
L 78.643401 174.972209 
L 78.67635 174.238299 
L 78.74225 173.697523 
L 78.7752 173.929284 
L 78.906999 176.478656 
L 78.972899 175.165343 
L 79.038798 173.427135 
L 79.071748 174.392806 
L 79.104698 174.972209 
L 79.137648 174.856328 
L 79.170598 173.890657 
L 79.236497 174.624567 
L 79.269447 174.508687 
L 79.302397 175.010836 
L 79.335347 174.972209 
L 79.368297 174.083791 
L 79.434196 175.242597 
L 79.467146 175.281224 
L 79.533046 173.388508 
L 79.598945 174.006537 
L 79.664845 175.667492 
L 79.697795 174.58594 
L 79.730744 174.58594 
L 79.763694 174.894955 
L 79.796644 174.392806 
L 79.829594 173.774776 
L 79.895494 174.354179 
L 79.928443 174.972209 
L 79.961393 174.045164 
L 79.994343 174.894955 
L 80.027293 174.508687 
L 80.060243 175.435731 
L 80.126142 174.238299 
L 80.192042 173.427135 
L 80.257942 173.697523 
L 80.323841 174.47006 
L 80.389741 175.551612 
L 80.422691 174.663194 
L 80.52154 171.920687 
L 80.55449 172.152448 
L 80.851038 168.946419 
L 80.62039 172.191075 
L 80.883988 168.985046 
L 80.916938 168.907792 
L 80.949888 167.787614 
L 81.015787 168.830539 
L 81.147587 170.761882 
L 81.213486 170.684628 
L 81.312336 169.873464 
L 81.378235 170.027971 
L 81.542984 172.036568 
L 81.575934 171.611672 
L 81.641834 171.804807 
L 81.740683 173.658896 
L 81.773633 173.311254 
L 81.905432 171.727553 
L 81.938382 174.045164 
L 82.037232 173.272627 
L 82.201981 171.76618 
L 82.26788 172.191075 
L 82.30083 171.843433 
L 82.33378 171.804807 
L 82.39968 174.045164 
L 82.465579 173.581642 
L 82.498529 173.85203 
L 82.696228 171.804807 
L 82.729178 172.036568 
L 82.762128 171.573046 
L 82.795077 171.573046 
L 82.893927 174.972209 
L 82.959827 174.47006 
L 83.124576 171.302658 
L 83.157525 171.611672 
L 83.289325 173.079493 
L 83.322275 172.924985 
L 83.487024 171.186777 
L 83.552923 172.461463 
L 83.651773 171.727553 
L 83.882421 168.560151 
L 83.915371 168.637404 
L 83.981271 170.568747 
L 84.11307 170.105225 
L 84.14602 169.409942 
L 84.21192 169.718956 
L 84.310769 170.607374 
L 84.409618 169.332688 
L 84.508468 172.191075 
L 84.574368 171.959314 
L 84.706167 173.156747 
L 84.772066 174.276925 
L 84.805016 174.083791 
L 84.936816 171.76618 
L 85.134514 174.508687 
L 85.233364 175.319851 
L 85.266314 175.281224 
L 85.299264 174.122418 
L 85.365163 175.706119 
L 85.496962 178.757641 
L 85.529912 179.221163 
L 85.562862 178.64176 
L 85.595812 179.105282 
L 85.661712 177.869223 
L 85.727611 178.178238 
L 85.89236 181.113879 
L 86.057109 176.787671 
L 86.090059 176.749044 
L 86.123009 177.598835 
L 86.221858 177.482954 
L 86.254808 177.482954 
L 86.584306 174.817701 
L 86.617256 175.088089 
L 86.749055 177.28982 
L 86.847905 176.749044 
L 86.880855 175.474358 
L 86.979704 175.706119 
L 87.078554 176.362776 
L 87.177403 177.753342 
L 87.210353 177.328447 
L 87.342152 174.161045 
L 87.408052 175.512985 
L 87.506901 176.710417 
L 87.539851 176.478656 
L 87.638701 176.517283 
L 87.67165 175.590239 
L 87.73755 176.749044 
L 87.7705 176.517283 
L 87.902299 174.547313 
L 88.099998 177.90785 
L 88.231797 177.482954 
L 88.297697 177.28982 
L 88.594245 174.817701 
L 88.791944 175.899253 
L 88.824894 175.822 
L 88.857844 177.328447 
L 88.923743 176.169641 
L 88.956693 176.324149 
L 88.989643 177.598835 
L 89.055543 177.17394 
L 89.121442 177.482954 
L 89.187342 176.517283 
L 89.220292 176.440029 
L 89.253242 175.397104 
L 89.286191 177.444328 
L 89.319141 176.324149 
L 89.352091 177.019432 
L 89.385041 175.976507 
L 89.58274 173.813403 
L 89.61569 174.624567 
L 89.648639 173.813403 
L 89.813388 172.268329 
L 89.879288 174.083791 
L 89.912238 173.11812 
L 89.978138 173.156747 
L 90.011087 172.770478 
L 90.044037 173.079493 
L 90.076987 173.040866 
L 90.208786 170.298359 
L 90.241736 171.573046 
L 90.307636 170.491494 
L 90.340586 170.723255 
L 90.373535 170.607374 
L 90.505335 169.834837 
L 90.604184 171.727553 
L 90.670084 171.457165 
L 90.735983 170.182479 
L 90.768933 168.830539 
L 90.834833 168.946419 
L 91.032532 171.302658 
L 91.065481 170.761882 
L 91.131381 170.877762 
L 91.164331 171.88206 
L 91.230231 171.070896 
L 91.29613 170.684628 
L 91.493829 173.813403 
L 91.691528 170.993643 
L 91.724478 171.225404 
L 91.889227 172.577344 
L 91.955127 171.534419 
L 91.988076 172.693224 
L 92.021026 173.040866 
L 92.086926 172.770478 
L 92.119876 172.731851 
L 92.218725 174.933582 
L 92.284625 174.392806 
L 92.416424 171.225404 
L 92.449374 170.993643 
L 92.482324 171.109523 
L 92.614123 172.577344 
L 92.647073 172.229702 
L 92.811822 170.259732 
L 92.877721 172.075195 
L 92.943621 171.650299 
L 93.009521 170.723255 
L 93.07542 170.877762 
L 93.10837 171.14815 
L 93.17427 169.912091 
L 93.240169 170.259732 
L 93.339019 172.345583 
L 93.404918 171.959314 
L 93.536718 174.354179 
L 93.569668 173.465761 
L 93.635567 173.774776 
L 93.668517 173.388508 
L 93.701467 173.967911 
L 93.734417 174.045164 
L 93.899166 176.633164 
L 93.800316 173.543015 
L 93.932116 176.169641 
L 93.998015 175.706119 
L 94.063915 175.744746 
L 94.195714 177.251193 
L 94.294564 175.049463 
L 94.327513 175.474358 
L 94.360463 174.856328 
L 94.426363 175.20397 
L 94.591112 176.749044 
L 94.624062 176.478656 
L 94.657012 176.324149 
L 94.722911 177.869223 
L 94.755861 177.714716 
L 94.88766 175.899253 
L 94.95356 176.246895 
L 95.01946 174.663194 
L 95.052409 176.169641 
L 95.085359 176.169641 
L 95.151259 177.367074 
L 95.217158 176.826298 
L 95.414857 178.796268 
L 95.447807 178.719014 
L 95.480757 178.757641 
L 95.546657 179.221163 
L 95.645506 177.560208 
L 95.678456 177.90785 
L 95.711406 177.985104 
L 95.744355 177.869223 
L 95.810255 181.113879 
L 95.876155 180.650357 
L 95.909105 181.654655 
L 95.975004 181.036625 
L 96.106803 180.148208 
L 96.172703 180.341342 
L 96.205653 180.225461 
L 96.436302 175.590239 
L 96.469251 176.131015 
L 96.502201 176.633164 
L 96.66695 173.040866 
L 96.6999 172.731851 
L 96.73285 173.388508 
L 96.897599 174.817701 
L 96.930549 173.620269 
L 97.029398 173.658896 
L 97.095298 174.161045 
L 97.128248 173.11812 
L 97.194147 173.774776 
L 97.391846 177.676089 
L 97.424796 177.251193 
L 97.490696 176.594537 
L 97.556595 176.749044 
L 97.589545 176.749044 
L 97.754294 179.414297 
L 97.787244 178.757641 
L 97.886094 177.058059 
L 97.919043 177.28982 
L 97.984943 177.17394 
L 98.017893 177.637462 
L 98.050843 177.212567 
L 98.116742 178.719014 
L 98.182642 178.603133 
L 98.380341 176.749044 
L 98.643939 178.564506 
L 98.676889 178.409999 
L 98.808688 175.783373 
L 98.841638 173.813403 
L 98.907538 174.894955 
L 98.973438 175.474358 
L 99.039337 173.311254 
L 99.105237 173.465761 
L 99.269986 176.246895 
L 99.302936 175.976507 
L 99.335886 174.508687 
L 99.401785 174.817701 
L 99.467685 175.744746 
L 99.500635 175.551612 
L 99.632434 174.122418 
L 99.830133 176.942179 
L 99.928982 175.474358 
L 99.961932 175.628865 
L 99.994882 176.710417 
L 100.093731 176.594537 
L 100.126681 177.328447 
L 100.192581 176.362776 
L 100.35733 173.427135 
L 100.39028 173.465761 
L 100.456179 172.461463 
L 100.489129 173.272627 
L 100.653878 174.161045 
L 100.686828 173.774776 
L 100.752728 170.41424 
L 100.818627 171.804807 
L 100.917477 171.109523 
L 101.115176 173.311254 
L 101.279925 172.615971 
L 101.378774 173.697523 
L 101.411724 173.581642 
L 101.444674 172.654597 
L 101.477624 174.547313 
L 101.642373 178.139611 
L 101.905971 176.131015 
L 101.938921 176.246895 
L 102.03777 174.431433 
L 102.07072 175.358477 
L 102.10367 175.628865 
L 102.13662 175.319851 
L 102.16957 175.049463 
L 102.268419 176.092388 
L 102.367269 173.543015 
L 102.400218 174.354179 
L 102.433168 174.47006 
L 102.630867 172.847732 
L 102.762666 174.701821 
L 102.861516 177.019432 
L 102.894466 176.169641 
L 102.927416 176.362776 
L 102.960365 177.251193 
L 103.026265 176.246895 
L 103.092165 177.598835 
L 103.125114 176.246895 
L 103.289864 175.088089 
L 103.322813 175.242597 
L 103.388713 174.199672 
L 103.421663 174.276925 
L 103.553462 176.208268 
L 103.652312 174.238299 
L 103.685261 175.088089 
L 103.718211 174.508687 
L 103.751161 174.972209 
L 103.85001 175.435731 
L 103.94886 174.740448 
L 103.98181 175.783373 
L 104.047709 175.242597 
L 104.146559 175.281224 
L 104.179509 173.736149 
L 104.344258 175.319851 
L 104.607856 172.654597 
L 104.706706 172.654597 
L 104.805555 173.388508 
L 104.838505 173.581642 
L 104.904405 174.624567 
L 104.937354 173.465761 
L 105.003254 174.547313 
L 105.036204 173.543015 
L 105.102103 172.770478 
L 105.135053 173.156747 
L 105.332752 175.049463 
L 105.365702 175.049463 
L 105.530451 176.440029 
L 105.563401 176.246895 
L 105.7611 173.156747 
L 105.79405 173.774776 
L 105.826999 173.736149 
L 105.991749 175.126716 
L 106.057648 174.701821 
L 106.123548 176.015134 
L 106.156498 174.817701 
L 106.222397 175.860627 
L 106.321247 174.315552 
L 106.354197 174.58594 
L 106.387146 175.126716 
L 106.420096 173.929284 
L 106.453046 173.929284 
L 106.518946 174.392806 
L 106.683695 171.650299 
L 106.716644 171.611672 
L 106.881394 174.276925 
L 107.046143 171.650299 
L 107.112042 171.804807 
L 107.144992 171.109523 
L 107.177942 171.76618 
L 107.639239 176.208268 
L 107.705139 175.822 
L 107.738089 174.547313 
L 107.836938 174.817701 
L 108.133487 171.843433 
L 108.166436 172.268329 
L 108.199386 172.924985 
L 108.265286 172.577344 
L 108.298236 172.538717 
L 108.364135 173.156747 
L 108.495935 167.903494 
L 108.528884 168.482897 
L 108.627734 169.255434 
L 108.660684 169.139554 
L 108.693634 169.834837 
L 108.759533 169.487195 
L 108.792483 169.448568 
L 108.858383 168.985046 
L 108.924282 169.100927 
L 108.957232 168.946419 
L 109.089031 169.950718 
L 109.187881 169.371315 
L 109.220831 170.143852 
L 109.28673 169.603076 
L 109.31968 169.255434 
L 109.35263 169.757583 
L 109.451479 170.839135 
L 109.484429 170.491494 
L 109.517379 170.568747 
L 109.583279 171.534419 
L 109.649178 169.409942 
L 109.715078 169.873464 
L 109.748028 169.873464 
L 110.176375 166.899196 
L 110.242275 169.332688 
L 110.308175 169.100927 
L 110.374074 168.135255 
L 110.439974 166.435674 
L 110.505873 167.401345 
L 110.670623 168.753285 
L 110.703572 168.714658 
L 110.901271 164.736092 
L 110.967171 165.160987 
L 111.329619 170.607374 
L 111.362569 170.916389 
L 111.395518 170.259732 
L 111.428468 170.723255 
L 111.461418 169.757583 
L 111.494368 169.950718 
L 111.626167 172.963612 
L 111.823866 170.066598 
L 111.856816 171.109523 
L 111.955665 173.040866 
L 111.988615 172.693224 
L 112.054515 172.770478 
L 112.120414 172.268329 
L 112.351063 167.015076 
L 112.449913 168.521524 
L 112.482862 167.942121 
L 112.614662 165.894898 
L 112.647612 166.242539 
L 112.779411 167.439972 
L 112.84531 167.787614 
L 112.87826 167.401345 
L 112.91121 167.362718 
L 112.94416 167.787614 
L 112.97711 166.667435 
L 113.01006 168.44427 
L 113.108909 169.641703 
L 113.174809 167.362718 
L 113.240708 167.942121 
L 113.306608 167.517226 
L 113.438407 171.650299 
L 113.537257 171.070896 
L 113.570206 170.568747 
L 113.636106 171.14815 
L 113.669056 171.109523 
L 113.899705 174.122418 
L 113.932654 173.620269 
L 113.965604 173.658896 
L 114.064454 174.392806 
L 114.097403 174.083791 
L 114.163303 174.122418 
L 114.262153 172.963612 
L 114.591651 175.590239 
L 114.72345 172.770478 
L 114.7564 172.847732 
L 114.822299 173.11812 
L 114.855249 172.809105 
L 114.921149 172.229702 
L 114.954099 171.997941 
L 114.987049 172.229702 
L 115.118848 173.272627 
L 115.184747 171.843433 
L 115.250647 171.997941 
L 115.349497 172.847732 
L 115.481296 170.839135 
L 115.547195 173.427135 
L 115.613095 171.959314 
L 115.646045 171.457165 
L 115.678995 171.997941 
L 115.711944 172.152448 
L 115.777844 173.079493 
L 115.843744 173.040866 
L 115.909643 173.658896 
L 116.041443 171.264031 
L 116.074392 171.534419 
L 116.107342 171.804807 
L 116.272091 169.216807 
L 116.43684 170.684628 
L 116.50274 171.302658 
L 116.60159 172.615971 
L 116.634539 172.384209 
L 116.700439 173.388508 
L 116.733389 173.311254 
L 116.865188 171.457165 
L 116.898138 171.650299 
L 116.996987 172.345583 
L 117.062887 171.804807 
L 117.095837 172.113821 
L 117.161736 171.959314 
L 117.293536 174.122418 
L 117.425335 173.002239 
L 117.458285 173.890657 
L 117.557134 173.736149 
L 117.820733 169.100927 
L 117.886632 169.487195 
L 118.117281 174.624567 
L 118.183181 173.427135 
L 118.216131 173.465761 
L 118.24908 173.967911 
L 118.28203 173.311254 
L 118.413829 171.727553 
L 118.512679 173.813403 
L 118.545629 173.079493 
L 118.611528 172.384209 
L 118.776277 169.834837 
L 118.875127 171.611672 
L 118.908077 171.573046 
L 118.973976 170.839135 
L 119.006926 170.877762 
L 119.204625 175.397104 
L 119.237575 174.547313 
L 119.270525 175.358477 
L 119.303475 176.246895 
L 119.369374 175.512985 
L 119.501173 176.208268 
L 119.534123 175.512985 
L 119.567073 177.096686 
L 119.698872 180.495849 
L 119.731822 180.302715 
L 119.764772 179.916446 
L 119.797722 180.264088 
L 119.929521 181.809162 
L 119.995421 179.9937 
L 120.06132 180.457222 
L 120.226069 178.796268 
L 120.291969 179.723312 
L 120.324919 181.461521 
L 120.390818 181.113879 
L 120.489668 179.143909 
L 120.522618 179.800566 
L 120.555568 179.955073 
L 120.654417 181.268386 
L 120.720317 180.341342 
L 120.819166 182.465819 
L 120.852116 181.925043 
L 120.885066 181.422894 
L 120.950965 181.538774 
L 120.983915 182.774834 
L 121.082765 182.504446 
L 121.115714 182.69758 
L 121.148664 181.847789 
L 121.181614 182.465819 
L 121.313413 184.397162 
L 121.346363 183.701878 
L 121.379313 183.701878 
L 121.478162 180.650357 
L 121.544062 180.72761 
L 121.609962 179.87782 
L 121.642912 180.804864 
L 121.774711 182.967968 
L 121.84061 182.5817 
L 121.87356 183.083849 
L 121.90651 182.852087 
L 121.97241 182.311312 
L 122.00536 182.69758 
L 122.038309 182.967968 
L 122.071259 182.504446 
L 122.104209 182.543073 
L 122.170109 181.925043 
L 122.236008 181.96367 
L 122.268958 182.002297 
L 122.400757 180.688984 
L 122.565506 182.311312 
L 122.598456 182.118177 
L 122.631406 180.882118 
L 122.697306 181.96367 
L 122.730255 182.427192 
L 122.796155 181.96367 
L 122.829105 181.96367 
L 122.862055 182.852087 
L 122.927954 181.654655 
L 123.191553 177.753342 
L 123.224503 178.255492 
L 123.356302 180.379969 
L 123.455151 179.028029 
L 123.488101 179.800566 
L 123.521051 179.530178 
L 123.554001 180.070954 
L 123.619901 180.302715 
L 123.65285 180.032327 
L 123.7517 179.414297 
L 123.78465 179.723312 
L 123.817599 179.221163 
L 123.883499 178.834894 
L 124.245947 174.276925 
L 124.344797 173.195373 
L 124.410696 172.345583 
L 124.443646 172.886359 
L 124.476596 173.234 
L 124.608395 169.023673 
L 124.674295 169.68033 
L 124.707244 170.066598 
L 124.740194 170.027971 
L 124.839044 168.482897 
L 124.871994 168.946419 
L 124.937893 170.877762 
L 125.036743 170.800508 
L 125.069692 170.684628 
L 125.201492 171.341284 
L 125.300341 170.375613 
L 125.333291 170.452867 
L 125.366241 171.109523 
L 125.43214 170.452867 
L 125.46509 170.607374 
L 125.56394 171.920687 
L 125.59689 171.688926 
L 125.794588 169.79621 
L 125.893438 170.336986 
L 126.025237 168.676031 
L 126.058187 168.251136 
L 126.091137 169.912091 
L 126.189986 169.332688 
L 126.222936 169.487195 
L 126.255886 168.676031 
L 126.288836 169.79621 
L 126.354735 168.830539 
L 126.453585 168.676031 
L 126.519484 170.027971 
L 126.552434 169.989344 
L 126.618334 167.671733 
L 126.684234 168.637404 
L 126.717183 169.100927 
L 126.750133 168.560151 
L 126.783083 168.212509 
L 126.848983 168.367016 
L 127.046681 171.959314 
L 127.079631 171.688926 
L 127.112581 171.341284 
L 127.145531 169.718956 
L 127.211431 170.684628 
L 127.34323 173.11812 
L 127.37618 172.345583 
L 127.409129 172.654597 
L 127.442079 172.152448 
L 127.475029 172.152448 
L 127.738628 174.817701 
L 127.771577 174.779075 
L 127.804527 173.890657 
L 127.870427 173.967911 
L 128.134025 178.100984 
L 128.199925 177.869223 
L 128.298775 176.401403 
L 128.331724 176.710417 
L 128.364674 177.482954 
L 128.397624 176.440029 
L 128.430574 176.401403 
L 128.463524 176.517283 
L 128.694172 179.607432 
L 128.825972 178.719014 
L 128.990721 181.693282 
L 129.254319 183.740505 
L 129.386118 181.96367 
L 129.452018 182.967968 
L 129.550868 185.903609 
L 129.616767 185.053818 
L 129.682667 185.440087 
L 129.880366 186.637519 
L 129.979215 185.517341 
L 130.045115 185.826355 
L 130.176914 186.792027 
L 130.209864 186.173997 
L 130.275764 186.869281 
L 130.341663 187.448683 
L 130.473462 184.976565 
L 130.506412 185.246953 
L 130.572312 186.483012 
L 130.671161 186.173997 
L 130.770011 185.478714 
L 130.96771 188.607489 
L 131.00066 188.452982 
L 131.165409 185.864982 
L 131.198358 186.444385 
L 131.330158 184.281281 
L 131.396057 185.015191 
L 131.429007 184.628923 
L 131.527857 183.740505 
L 131.593756 184.513042 
L 131.626706 183.624625 
L 131.692606 183.238356 
L 131.758505 183.470117 
L 131.791455 184.126774 
L 131.824405 183.31561 
L 131.890305 182.272685 
L 131.923254 182.349938 
L 131.989154 182.118177 
L 132.088003 184.088147 
L 132.285702 181.809162 
L 132.318652 182.658953 
L 132.384552 182.002297 
L 132.483401 180.920745 
L 132.516351 181.422894 
L 132.582251 180.804864 
L 132.615201 180.882118 
L 132.6811 180.997998 
L 132.812899 179.839193 
L 132.944699 180.457222 
L 133.010598 180.225461 
L 133.142398 178.989402 
L 133.241247 179.337044 
L 133.274197 179.491551 
L 133.373046 181.307013 
L 133.405996 180.534476 
L 133.570745 178.100984 
L 133.636645 177.019432 
L 133.735494 177.17394 
L 133.768444 177.482954 
L 133.801394 176.749044 
L 133.999093 173.736149 
L 134.064992 175.165343 
L 134.097942 173.465761 
L 134.196792 172.268329 
L 134.328591 174.894955 
L 134.361541 173.890657 
L 134.822838 170.105225 
L 134.855788 170.143852 
L 135.020537 167.980748 
L 135.119387 167.594479 
L 135.152336 166.744688 
L 135.218236 166.821942 
L 135.580684 171.611672 
L 135.679534 169.718956 
L 135.712483 170.105225 
L 135.745433 170.182479 
L 135.778383 169.294061 
L 135.844283 170.259732 
L 135.910182 168.907792 
L 135.943132 169.989344 
L 136.404429 174.122418 
L 136.437379 173.774776 
L 136.470329 174.894955 
L 136.569179 174.740448 
L 136.602128 173.890657 
L 136.635078 174.894955 
L 136.700978 175.899253 
L 136.766877 175.435731 
L 136.799827 175.319851 
L 136.832777 175.706119 
L 136.931627 175.667492 
L 136.997526 175.126716 
L 137.063426 175.20397 
L 137.228175 176.169641 
L 137.294075 175.126716 
L 137.359974 175.281224 
L 137.590623 177.444328 
L 137.623573 176.517283 
L 137.689472 177.521581 
L 137.722422 176.710417 
L 137.755372 177.714716 
L 137.821272 177.251193 
L 137.887171 176.208268 
L 137.920121 176.440029 
L 138.08487 178.255492 
L 138.315519 176.478656 
L 138.381418 181.152506 
L 138.447318 179.491551 
L 138.480268 179.414297 
L 138.743866 176.246895 
L 138.842716 178.02373 
L 138.875666 177.869223 
L 139.007465 176.710417 
L 139.106314 178.255492 
L 139.172214 177.90785 
L 139.369913 179.182536 
L 139.402863 180.186834 
L 139.468762 180.032327 
L 139.567612 178.100984 
L 139.666461 178.680387 
L 139.699411 178.989402 
L 139.732361 178.64176 
L 139.765311 178.719014 
L 139.798261 178.719014 
L 139.86416 179.684685 
L 139.89711 178.332745 
L 139.99596 178.603133 
L 140.028909 178.100984 
L 140.061859 178.409999 
L 140.094809 180.070954 
L 140.160709 179.839193 
L 140.193658 178.757641 
L 140.292508 179.066656 
L 140.424307 176.478656 
L 140.457257 174.740448 
L 140.523157 176.131015 
L 140.720855 179.105282 
L 140.786755 178.487253 
L 140.819705 178.603133 
L 141.017404 176.092388 
L 141.050354 177.28982 
L 141.116253 176.55591 
L 141.149203 176.787671 
L 141.182153 176.633164 
L 141.412802 174.315552 
L 141.248053 176.787671 
L 141.445751 174.624567 
L 141.577551 176.324149 
L 141.610501 176.131015 
L 141.7423 174.006537 
L 141.841149 175.049463 
L 141.874099 175.010836 
L 142.038848 173.813403 
L 142.071798 174.276925 
L 142.137698 173.929284 
L 142.203597 174.817701 
L 142.302447 175.20397 
L 142.401296 173.543015 
L 142.434246 173.929284 
L 142.533095 173.234 
L 142.598995 173.349881 
L 142.631945 173.465761 
L 142.664895 174.547313 
L 142.730794 173.427135 
L 142.763744 173.581642 
L 142.928493 171.534419 
L 142.961443 171.650299 
L 143.093242 173.504388 
L 143.159142 172.538717 
L 143.192092 173.040866 
L 143.225042 173.349881 
L 143.323891 169.216807 
L 143.42274 169.448568 
L 144.081737 174.740448 
L 144.114687 174.083791 
L 144.147636 174.894955 
L 144.180586 175.242597 
L 144.213536 174.547313 
L 144.246486 174.58594 
L 144.411235 173.002239 
L 144.444185 173.195373 
L 144.477135 174.701821 
L 144.543034 173.002239 
L 144.872532 175.590239 
L 144.971382 176.517283 
L 145.037281 176.401403 
L 145.070231 176.478656 
L 145.465629 180.495849 
L 145.531529 179.530178 
L 145.630378 178.603133 
L 145.663328 178.757641 
L 145.762177 179.607432 
L 145.795127 179.143909 
L 145.861027 179.568805 
L 145.893977 179.298417 
L 145.926927 178.873521 
L 145.959876 180.186834 
L 146.025776 178.564506 
L 146.058726 178.796268 
L 146.091676 178.64176 
L 146.124625 178.139611 
L 146.157575 178.989402 
L 146.190525 178.448626 
L 146.223475 178.487253 
L 146.355274 179.761939 
L 146.388224 179.298417 
L 146.421174 179.221163 
L 146.552973 175.822 
L 146.585923 176.787671 
L 146.651823 178.52588 
L 146.717722 177.946477 
L 146.750672 178.100984 
L 146.849521 177.251193 
L 146.981321 178.255492 
L 147.11312 177.482954 
L 147.244919 178.52588 
L 147.277869 178.409999 
L 147.310819 177.869223 
L 147.343769 179.143909 
L 147.409668 179.452924 
L 147.442618 180.109581 
L 147.508518 179.491551 
L 147.541468 179.646058 
L 147.706217 178.603133 
L 147.739166 179.955073 
L 147.805066 179.607432 
L 147.838016 179.105282 
L 147.870966 179.800566 
L 147.903916 179.9937 
L 148.035715 178.719014 
L 148.233414 181.577401 
L 148.266364 181.268386 
L 148.299313 181.886416 
L 148.365213 182.69758 
L 148.431113 182.118177 
L 148.529962 181.538774 
L 148.562912 181.847789 
L 148.760611 185.053818 
L 148.85946 183.045222 
L 148.95831 183.122475 
L 148.99126 183.238356 
L 149.024209 183.006595 
L 149.057159 184.204027 
L 149.090109 183.122475 
L 149.123059 181.886416 
L 149.188958 182.465819 
L 149.221908 183.663251 
L 149.287808 183.43149 
L 149.353708 182.195431 
L 149.386657 182.504446 
L 149.584356 185.131072 
L 149.683206 183.470117 
L 149.716155 184.04952 
L 149.749105 184.126774 
L 149.782055 184.78343 
L 149.815005 183.740505 
L 149.847955 184.088147 
L 149.946804 182.427192 
L 149.979754 182.5817 
L 150.012704 183.199729 
L 150.045654 182.156804 
L 150.111553 182.195431 
L 150.276302 179.761939 
L 150.342202 180.804864 
L 150.375152 180.264088 
L 150.474001 178.255492 
L 150.506951 179.066656 
L 150.572851 179.37567 
L 150.605801 179.028029 
L 150.63875 179.105282 
L 150.6717 178.873521 
L 150.70465 179.066656 
L 150.77055 179.800566 
L 150.836449 179.723312 
L 150.935299 178.178238 
L 150.968249 178.603133 
L 151.067098 180.341342 
L 151.100048 179.37567 
L 151.132998 179.066656 
L 151.165947 179.761939 
L 151.198897 179.723312 
L 151.297747 180.766237 
L 151.429546 178.989402 
L 151.495446 181.384267 
L 151.561345 180.225461 
L 151.594295 179.414297 
L 151.660195 179.9937 
L 151.726094 179.87782 
L 151.759044 180.032327 
L 151.890843 180.882118 
L 151.923793 180.341342 
L 151.989693 181.036625 
L 152.022643 181.422894 
L 152.055592 180.843491 
L 152.121492 180.341342 
L 152.187392 180.573103 
L 152.253291 180.997998 
L 152.385091 178.757641 
L 152.648689 181.500148 
L 152.846388 178.834894 
L 153.175886 174.856328 
L 153.241786 175.126716 
L 153.307686 175.281224 
L 153.571284 172.577344 
L 153.604234 172.731851 
L 153.768983 171.225404 
L 153.834883 170.877762 
L 153.933732 172.345583 
L 153.999632 170.259732 
L 154.098481 170.646001 
L 154.526829 166.551554 
L 154.691578 168.637404 
L 154.823377 167.594479 
L 154.856327 167.942121 
L 154.889277 168.173882 
L 155.021076 167.053703 
L 155.054026 167.285464 
L 155.086976 166.667435 
L 155.152875 167.208211 
L 155.218775 166.551554 
L 155.251725 165.00648 
L 155.350574 165.276868 
L 155.416474 166.667435 
L 155.449424 166.397047 
L 155.482373 165.817644 
L 155.515323 166.744688 
L 155.548273 166.937823 
L 155.647123 165.508629 
L 155.680072 166.35842 
L 155.745972 166.126659 
L 155.778922 165.701763 
L 155.811872 165.933525 
L 155.877771 167.053703 
L 155.910721 166.512927 
L 155.943671 165.663137 
L 155.976621 166.783315 
L 156.009571 166.088032 
L 156.07547 166.860569 
L 156.10842 166.126659 
L 156.14137 165.894898 
L 156.17432 164.658838 
L 156.273169 164.813346 
L 156.372018 165.933525 
L 156.404968 165.392749 
L 156.470868 165.122361 
L 156.668567 166.281166 
L 156.800366 164.427077 
L 156.899216 164.890599 
L 156.932165 165.276868 
L 156.965115 164.736092 
L 156.998065 165.238241 
L 157.129864 164.118062 
L 157.261664 165.663137 
L 157.360513 166.203913 
L 157.492312 164.311197 
L 157.690011 168.019375 
L 157.722961 167.980748 
L 157.82181 168.560151 
L 157.85476 168.482897 
L 158.019509 166.937823 
L 158.118359 169.718956 
L 158.151309 168.560151 
L 158.184258 168.637404 
L 158.250158 167.864867 
L 158.283108 168.212509 
L 158.381957 170.259732 
L 158.414907 169.371315 
L 158.480807 170.298359 
L 158.546706 170.105225 
L 158.711455 167.71036 
L 158.744405 168.251136 
L 158.843255 169.525822 
L 158.876205 169.448568 
L 158.975054 170.993643 
L 159.040954 170.298359 
L 159.106853 170.491494 
L 159.205703 167.555852 
L 159.238653 167.787614 
L 159.370452 168.830539 
L 159.304552 167.555852 
L 159.403402 168.637404 
L 159.436351 168.212509 
L 159.469301 169.641703 
L 159.535201 168.482897 
L 159.568151 168.405643 
L 159.667 166.281166 
L 159.69995 167.169584 
L 159.7329 167.130957 
L 159.864699 168.869166 
L 159.963549 168.289763 
L 159.996498 168.521524 
L 160.095348 170.336986 
L 160.128298 170.298359 
L 160.161247 169.757583 
L 160.194197 170.877762 
L 160.227147 170.105225 
L 160.260097 170.955016 
L 160.293047 170.684628 
L 160.358946 169.0623 
L 160.391896 169.834837 
L 160.424846 170.221106 
L 160.457796 169.100927 
L 160.523695 169.448568 
L 160.589595 170.066598 
L 160.688444 168.173882 
L 160.754344 168.521524 
L 160.820244 167.787614 
L 160.853194 168.096628 
L 160.886143 168.32839 
L 160.984993 165.701763 
L 161.083842 166.281166 
L 161.314491 164.620211 
L 161.347441 164.697465 
L 161.57809 160.448511 
L 161.611039 160.680272 
L 161.643989 160.564392 
L 161.676939 160.718899 
L 161.742839 161.105167 
L 161.808738 158.671676 
L 161.907588 158.86481 
L 162.006437 160.796153 
L 162.072337 160.255377 
L 162.105287 159.135198 
L 162.171186 159.830481 
L 162.204136 159.869108 
L 162.237086 160.718899 
L 162.335935 160.448511 
L 162.401835 160.680272 
L 162.434785 160.603018 
L 162.632484 157.281109 
L 162.764283 157.51287 
L 162.961982 159.251078 
L 162.994932 159.096571 
L 163.027881 159.289705 
L 163.060831 159.135198 
L 163.192631 161.182421 
L 163.35738 160.33263 
L 163.390329 160.062242 
L 163.489179 160.100869 
L 163.653928 164.040809 
L 163.686878 163.538659 
L 163.818677 161.530063 
L 163.851627 162.379854 
L 163.884577 162.225346 
L 163.950476 160.680272 
L 164.016376 161.182421 
L 164.049326 161.105167 
L 164.247025 165.585883 
L 164.279975 165.083734 
L 164.312924 165.856271 
L 164.345874 165.779017 
L 164.444724 164.542958 
L 164.675372 168.405643 
L 164.741272 168.521524 
L 164.807172 167.864867 
L 164.840121 167.671733 
L 164.906021 168.830539 
L 164.938971 168.637404 
L 165.07077 166.937823 
L 165.10372 168.251136 
L 165.202569 168.019375 
L 165.301419 169.409942 
L 165.334369 169.294061 
L 165.400268 168.907792 
L 165.466168 169.023673 
L 165.729766 171.997941 
L 165.762716 172.461463 
L 165.828616 171.997941 
L 165.894516 172.615971 
L 165.927465 173.736149 
L 165.993365 172.963612 
L 166.026315 173.002239 
L 166.81711 185.710475 
L 166.88301 185.285579 
L 166.91596 185.324206 
L 167.113659 186.907907 
L 167.146609 187.023788 
L 167.278408 185.092445 
L 167.311358 185.826355 
L 167.443157 187.873579 
L 167.509057 187.37143 
L 167.542006 189.418653 
L 167.607906 188.10534 
L 167.706755 189.071011 
L 167.904454 190.616086 
L 167.937404 190.152563 
L 167.970354 190.036683 
L 168.168053 192.856443 
L 168.266902 191.929399 
L 168.431651 194.24701 
L 168.596401 191.736264 
L 168.6623 193.358592 
L 168.7282 192.470175 
L 168.794099 192.354294 
L 168.827049 192.856443 
L 168.892949 194.903667 
L 168.958849 194.401517 
L 169.024748 194.671905 
L 169.222447 197.028144 
L 169.255397 196.371487 
L 169.288347 195.59895 
L 169.321297 196.410114 
L 169.354246 196.294233 
L 169.387196 197.105397 
L 169.486046 196.873636 
L 169.518995 194.86504 
L 169.617845 195.289935 
L 169.716694 194.826413 
L 170.112092 200.156919 
L 170.145042 199.307128 
L 170.177992 199.229875 
L 170.210942 198.611845 
L 170.276841 198.766352 
L 170.44159 200.427307 
L 170.47454 199.886531 
L 170.50749 199.77065 
L 170.606339 201.470232 
L 170.672239 200.929456 
L 170.738139 201.315725 
L 170.804038 200.465934 
L 170.968787 202.97668 
L 171.001737 204.019605 
L 171.034687 202.590411 
L 171.067637 202.629038 
L 171.166486 201.392978 
L 171.298286 202.590411 
L 171.594834 198.766352 
L 171.726633 199.345755 
L 171.759583 198.804979 
L 171.825483 199.538889 
L 171.891382 198.225576 
L 171.957282 198.92086 
L 171.990232 199.075367 
L 172.089081 196.680502 
L 172.187931 197.144024 
L 172.22088 196.989517 
L 172.31973 194.942293 
L 172.35268 195.753457 
L 172.385629 195.367189 
L 172.583328 198.186949 
L 172.616278 198.264203 
L 172.715128 196.448741 
L 172.748077 196.603248 
L 172.912827 197.56892 
L 172.945776 197.530293 
L 173.077576 198.611845 
L 173.110525 197.259905 
L 173.209375 197.646173 
L 173.374124 195.985219 
L 173.472973 198.225576 
L 173.505923 197.375785 
L 173.637723 194.324264 
L 173.670672 194.401517 
L 173.736572 195.560323 
L 173.769522 195.174055 
L 173.802472 194.478771 
L 173.835421 194.98092 
L 173.967221 195.560323 
L 174.06607 193.899368 
L 174.09902 194.324264 
L 174.230819 196.525995 
L 174.362618 196.062472 
L 174.395568 196.062472 
L 174.461468 195.830711 
L 174.494418 196.139726 
L 174.527368 195.676204 
L 174.790966 192.547428 
L 174.823916 192.547428 
L 174.988665 189.882175 
L 175.054565 188.684743 
L 175.120464 189.264146 
L 175.186364 189.534534 
L 175.285213 187.757698 
L 175.351113 188.10534 
L 175.417013 189.418653 
L 175.482912 188.530235 
L 175.713561 183.972266 
L 175.746511 184.937938 
L 175.779461 184.744803 
L 175.81241 185.015191 
L 175.84536 185.015191 
L 175.87831 185.053818 
L 175.91126 184.899311 
L 176.076009 183.31561 
L 176.372557 181.384267 
L 176.405507 182.272685 
L 176.438457 181.075252 
L 176.636156 178.989402 
L 176.800905 177.405701 
L 176.899754 177.367074 
L 176.965654 178.448626 
L 177.229253 179.723312 
L 177.394002 178.100984 
L 177.525801 177.019432 
L 177.591701 178.564506 
L 177.62465 178.216865 
L 177.954149 171.03227 
L 178.020048 170.298359 
L 178.085948 169.718956 
L 178.118898 170.221106 
L 178.184797 171.920687 
L 178.250697 171.341284 
L 178.316597 172.075195 
L 178.415446 169.718956 
L 178.448396 169.912091 
L 178.580195 170.53012 
L 178.646095 169.487195 
L 178.810844 171.573046 
L 178.876743 169.873464 
L 178.909693 170.027971 
L 178.975593 171.070896 
L 179.008543 170.41424 
L 179.107392 168.560151 
L 179.140342 169.023673 
L 179.305091 170.568747 
L 179.338041 170.646001 
L 179.370991 170.027971 
L 179.40394 171.804807 
L 179.50279 171.534419 
L 179.53574 171.573046 
L 179.832288 175.783373 
L 179.865238 175.358477 
L 179.898188 175.358477 
L 180.161786 178.950775 
L 180.194736 178.873521 
L 180.359485 177.058059 
L 180.656034 182.852087 
L 180.787833 182.118177 
L 180.919632 181.22976 
L 180.952582 181.422894 
L 181.183231 184.513042 
L 181.21618 184.435789 
L 181.24913 184.590296 
L 181.31503 185.324206 
L 181.34798 185.285579 
L 181.380929 184.319908 
L 181.446829 185.208326 
L 181.479779 185.131072 
L 181.545679 186.444385 
L 181.611578 185.594594 
L 181.677478 185.40146 
L 181.776327 186.212624 
L 181.908127 184.088147 
L 181.941076 185.053818 
L 182.006976 184.822057 
L 182.039926 184.66755 
L 182.072876 185.40146 
L 182.105825 184.513042 
L 182.138775 185.053818 
L 182.534173 181.268386 
L 182.665972 182.311312 
L 182.698922 182.311312 
L 182.731872 182.040924 
L 182.764822 182.156804 
L 182.830721 183.276983 
L 182.863671 182.272685 
L 182.896621 182.311312 
L 183.259069 176.131015 
L 183.324969 176.401403 
L 183.390868 175.551612 
L 183.423818 176.092388 
L 183.456768 176.478656 
L 183.720366 169.79621 
L 183.753316 168.946419 
L 183.786266 170.607374 
L 183.819216 170.607374 
L 183.983965 166.744688 
L 184.016915 167.015076 
L 184.082814 165.74039 
L 184.280513 158.671676 
L 184.313463 158.594422 
L 184.610012 151.757468 
L 185.137209 138.044934 
L 185.170158 138.122188 
L 185.565556 129.778787 
L 185.598506 129.894668 
L 186.059803 121.319506 
L 186.092753 122.323804 
L 186.125703 121.242252 
L 186.158653 121.319506 
L 186.224553 120.662849 
L 186.290452 120.971864 
L 186.356352 123.057714 
L 186.389302 122.86458 
L 186.488151 120.353834 
L 186.554051 120.585595 
L 186.587001 120.469715 
L 186.61995 120.585595 
L 186.75175 121.589894 
L 186.784699 121.087745 
L 186.817649 121.358133 
L 186.850599 122.053416 
L 186.883549 120.585595 
L 186.949449 120.199327 
L 186.982398 121.242252 
L 187.015348 120.740103 
L 187.048298 121.589894 
L 187.114198 122.903207 
L 187.180097 122.323804 
L 187.213047 121.937535 
L 187.245997 122.787326 
L 187.410746 124.525535 
L 187.476646 123.868878 
L 187.509595 124.525535 
L 188.168592 141.096456 
L 188.333341 146.735977 
L 188.366291 146.620096 
L 188.39924 145.808932 
L 188.43219 147.354007 
L 188.662839 155.465646 
L 189.519534 174.431433 
L 189.552484 174.276925 
L 189.750183 172.577344 
L 189.783133 173.890657 
L 189.849032 173.85203 
L 190.24443 166.628808 
L 190.376229 164.195316 
L 190.409179 164.813346 
L 190.573928 160.33263 
L 190.606878 160.95066 
L 190.639828 160.33263 
L 190.672778 159.675974 
L 190.705728 161.221048 
L 190.771627 159.907735 
L 190.804577 160.062242 
L 190.837527 159.830481 
L 190.903427 159.366959 
L 190.936376 159.59872 
L 191.167025 153.920572 
L 191.364724 152.10511 
L 191.397674 152.607259 
L 191.430624 152.954901 
L 191.463573 152.10511 
L 191.496523 153.263916 
L 191.529473 153.186662 
L 191.562423 153.070781 
L 191.891921 156.045049 
L 192.05667 154.345468 
L 192.386168 158.1309 
L 192.419118 157.937765 
L 193.111064 135.070666 
L 193.407613 120.933237 
L 194.132509 93.933065 
L 194.165458 94.087572 
L 194.494957 91.074677 
L 194.692655 93.392289 
L 194.725605 93.083274 
L 194.758555 93.199154 
L 194.791505 92.851513 
L 194.824455 93.276408 
L 195.088053 96.212049 
L 195.121003 95.478139 
L 195.153953 96.134795 
L 195.384602 99.070437 
L 195.417551 98.104765 
L 195.450501 98.954556 
L 195.7141 103.551152 
L 195.74705 103.358018 
L 195.779999 102.624107 
L 195.845899 102.933122 
L 195.944749 104.362316 
L 196.043598 104.246435 
L 196.076548 103.20351 
L 196.142447 103.280764 
L 196.307197 106.52542 
L 196.373096 105.868763 
L 196.406046 106.873061 
L 196.438996 105.830136 
L 196.471946 105.946017 
L 196.537845 105.559748 
L 196.603745 105.637002 
L 196.669645 106.564047 
L 196.801444 104.130555 
L 196.834394 103.860167 
L 196.999143 105.984644 
L 197.032092 105.90739 
L 197.196842 102.662734 
L 197.262741 102.971749 
L 197.49339 107.452464 
L 197.691089 112.976105 
L 197.756988 114.521179 
L 198.943182 169.950718 
L 199.371529 192.508802 
L 199.602178 200.774949 
L 200.063476 221.131302 
L 200.096425 221.324436 
L 201.08492 261.264605 
L 201.11787 260.955591 
L 201.15082 261.341859 
L 201.513268 271.848364 
L 202.435862 288.573793 
L 202.468812 287.414987 
L 202.501762 286.449316 
L 202.534712 287.337733 
L 202.633561 287.105972 
L 202.699461 289.191822 
L 202.732411 288.380658 
L 202.765361 289.075942 
L 202.83126 288.882808 
L 202.89716 289.500837 
L 202.93011 289.500837 
L 203.028959 289.732598 
L 203.589106 281.350571 
L 203.852705 271.423469 
L 204.412851 253.384727 
L 204.577601 247.088549 
L 204.6435 246.084251 
L 205.500195 217.809392 
L 205.796744 201.972381 
L 206.851138 152.568632 
L 206.917038 149.40123 
L 207.081787 141.405471 
L 207.510134 121.51264 
L 207.576034 122.092043 
L 207.608984 120.083446 
L 207.839632 111.778672 
L 208.169131 100.38375 
L 208.23503 99.456705 
L 208.959926 81.147575 
L 208.992876 81.263456 
L 209.355324 73.924353 
L 209.388274 75.353547 
L 209.454173 74.890025 
L 209.585973 72.379279 
L 209.816621 67.512295 
L 210.01432 65.11743 
L 210.179069 64.035878 
L 210.310869 64.962923 
L 210.376768 64.460773 
L 210.409718 64.847042 
L 210.442668 65.73546 
L 210.508568 64.808415 
L 210.574467 63.726863 
L 210.607417 64.035878 
L 210.673317 65.194684 
L 210.706266 64.4994 
L 210.772166 63.76549 
L 210.805116 64.615281 
L 210.838066 64.576654 
L 211.035765 68.516593 
L 211.068714 67.666802 
L 211.101664 68.632474 
L 211.200514 71.104593 
L 211.299363 70.52519 
L 211.332313 70.370682 
L 211.628861 75.31492 
L 211.661811 74.465129 
L 211.727711 73.885726 
L 211.760661 74.426502 
L 212.090159 79.216232 
L 212.123109 78.520949 
L 212.189008 79.100352 
L 212.452607 84.314977 
L 212.485557 85.126141 
L 212.518506 83.117545 
L 212.551456 84.430858 
L 212.782105 91.383692 
L 212.913904 95.207751 
L 213.111603 101.079033 
L 213.144553 100.615511 
L 213.177503 100.461003 
L 214.594345 151.757468 
L 215.154492 178.294118 
L 215.681689 198.495964 
L 216.044137 214.719244 
L 216.373635 225.727898 
L 216.670183 240.097088 
L 217.592778 272.698155 
L 218.350624 290.041613 
L 218.383574 289.693972 
L 218.581273 292.629613 
L 218.647172 292.088837 
L 218.680122 291.857076 
L 218.713072 292.475105 
L 218.746022 291.857076 
L 218.811921 291.3163 
L 218.844871 291.972956 
L 218.910771 291.354926 
L 219.04257 290.852777 
L 219.14142 293.324896 
L 219.174369 292.861374 
L 219.240269 291.818449 
L 219.273219 292.359225 
L 219.306169 292.359225 
L 219.339118 291.663941 
L 219.405018 292.05021 
L 219.569767 293.904299 
L 219.602717 293.093135 
L 219.635667 292.900001 
L 219.833366 295.488 
L 219.866316 294.86997 
L 219.899265 294.676836 
L 219.932215 294.985851 
L 219.965165 295.217612 
L 220.261713 289.925733 
L 220.294663 290.466509 
L 220.327613 290.002986 
L 220.492362 286.951465 
L 220.525312 288.535166 
L 220.558262 287.608121 
L 220.82186 281.196063 
L 220.95366 277.835527 
L 221.283158 270.341917 
L 221.316108 269.994275 
L 221.480857 262.539292 
L 221.513806 262.616545 
L 221.777405 253.96413 
L 222.864749 214.062587 
L 223.128347 202.744918 
L 223.161297 203.09256 
L 223.194247 202.281396 
L 223.523745 185.633221 
L 223.556695 185.942236 
L 223.985043 169.834837 
L 224.38044 154.461348 
L 225.039437 127.461176 
L 225.138286 125.452579 
L 225.994982 98.877302 
L 226.027931 98.915929 
L 226.25858 92.735632 
L 226.29153 92.697005 
L 226.621028 84.199097 
L 227.049376 74.001607 
L 227.082325 74.040234 
L 227.312974 69.636772 
L 227.345924 69.636772 
L 227.411824 69.17325 
L 227.477723 67.705429 
L 227.510673 68.362086 
L 227.543623 68.902862 
L 227.576573 67.705429 
L 227.741322 65.426445 
L 227.774272 66.662504 
L 227.807221 67.048773 
L 227.971971 65.349191 
L 228.00492 65.078803 
L 228.03787 65.426445 
L 228.202619 66.507997 
L 228.235569 66.585251 
L 228.334418 65.774087 
L 228.367368 65.889967 
L 228.400318 66.778385 
L 228.466218 66.701131 
L 228.565067 65.233311 
L 228.729816 68.902862 
L 228.828666 71.027339 
L 228.861616 70.138921 
L 228.960465 70.52519 
L 229.092264 68.786981 
L 229.289963 71.838503 
L 229.322913 71.645369 
L 229.94896 82.345008 
L 229.981909 82.113247 
L 230.014859 81.765605 
L 230.772705 103.782913 
L 230.937454 108.456763 
L 230.970404 108.61127 
L 231.266952 121.860282 
L 231.860049 144.6115 
L 232.683794 181.152506 
L 232.782644 185.594594 
L 233.112142 198.418711 
L 234.232436 235.307358 
L 234.463084 242.491953 
L 235.023231 255.972726 
L 235.056181 255.934099 
L 235.089131 256.04998 
L 235.451579 262.307531 
L 235.484529 261.57362 
L 235.517479 263.234575 
L 235.846977 270.921319 
L 235.879927 270.032902 
L 235.912876 271.423469 
L 235.945826 270.457797 
L 236.044676 272.698155 
L 236.077625 270.959946 
L 236.176475 271.539349 
L 236.242375 272.311886 
L 236.341224 274.706751 
L 236.374174 275.595169 
L 236.440073 274.397737 
L 236.473023 274.47499 
L 236.703672 278.723944 
L 236.736622 277.333378 
L 236.967271 275.286154 
L 237.13202 273.470692 
L 237.164969 273.316185 
L 237.296769 274.938513 
L 237.329718 274.629498 
L 237.362668 274.629498 
L 237.428568 274.127349 
L 237.560367 276.174572 
L 237.593317 275.363408 
L 237.692166 274.397737 
L 237.725116 274.977139 
L 237.758066 275.015766 
L 237.791016 275.286154 
L 237.823966 274.243229 
L 237.922815 274.552244 
L 238.285263 268.603708 
L 238.318213 268.835469 
L 238.450012 267.290395 
L 238.548862 267.831171 
L 238.614761 266.131589 
L 238.647711 266.286097 
L 238.81246 262.500665 
L 238.94426 260.723829 
L 238.977209 261.534993 
L 239.010159 261.264605 
L 239.471457 250.410459 
L 239.669155 245.891117 
L 243.458384 103.280764 
L 243.557234 100.654138 
L 243.721983 95.787154 
L 243.787883 96.018915 
L 243.820832 95.825781 
L 244.117381 90.379394 
L 244.150331 90.30214 
L 244.348029 85.705544 
L 244.380979 85.975932 
L 244.413929 85.975932 
L 245.105875 77.439397 
L 245.270624 73.615338 
L 245.303574 73.653965 
L 245.336524 74.040234 
L 245.402424 73.885726 
L 245.435373 73.576711 
L 245.468323 75.276293 
L 245.534223 74.078861 
L 245.567173 73.96298 
L 245.666022 72.302025 
L 245.698972 72.765548 
L 245.731922 72.417906 
L 245.764872 72.572413 
L 245.830771 74.040234 
L 245.896671 73.576711 
L 245.962571 72.070264 
L 246.02847 72.726921 
L 246.06142 73.34495 
L 246.12732 72.804174 
L 246.160269 72.61104 
L 246.193219 73.422204 
L 246.226169 70.100294 
L 246.325018 70.563817 
L 246.357968 71.2591 
L 246.390918 69.829906 
L 246.687466 73.769846 
L 246.720416 72.649667 
L 246.786316 73.653965 
L 246.852216 73.074562 
L 246.918115 74.542383 
L 246.984015 74.194741 
L 247.049914 74.194741 
L 247.082864 74.812771 
L 247.115814 74.542383 
L 247.148764 73.460831 
L 247.214664 74.619637 
L 247.247613 74.967278 
L 247.280563 74.233368 
L 247.313513 74.928651 
L 247.346463 74.774144 
L 247.445312 73.113189 
L 247.87366 81.186202 
L 247.972509 81.688351 
L 248.532656 94.705602 
L 248.565606 94.473841 
L 248.598556 94.551094 
L 248.796255 98.915929 
L 249.158703 107.220703 
L 249.323452 113.401 
L 249.554101 120.199327 
L 249.71885 126.765892 
L 249.982448 138.276696 
L 250.246047 149.632991 
L 250.311946 150.560036 
L 250.542595 160.912033 
L 250.575545 161.066541 
L 250.905043 173.85203 
L 250.970943 175.512985 
L 251.135692 182.929341 
L 251.36634 195.058174 
L 251.39929 195.251308 
L 251.629939 204.637634 
L 251.662889 204.599008 
L 252.255986 228.972554 
L 252.783183 250.796727 
L 253.541028 272.196006 
L 253.573978 271.500722 
L 253.771677 277.526512 
L 254.002326 281.041556 
L 254.035276 280.384899 
L 254.068225 281.11881 
L 254.232975 285.213256 
L 254.265924 284.208958 
L 254.463623 288.7283 
L 254.562473 291.663941 
L 254.628372 290.273374 
L 254.661322 290.81415 
L 254.694272 289.809852 
L 254.760172 290.69827 
L 254.859021 291.393553 
L 254.924921 291.239046 
L 254.957871 290.505136 
L 254.99082 290.621016 
L 255.05672 291.741195 
L 255.12262 291.702568 
L 255.155569 291.663941 
L 255.188519 290.968658 
L 255.221469 292.011583 
L 255.254419 292.436478 
L 255.287369 291.972956 
L 255.320319 291.548061 
L 255.353268 292.16609 
L 255.386218 293.015881 
L 255.452118 292.16609 
L 255.485068 291.625314 
L 255.518017 292.436478 
L 255.550967 292.243344 
L 255.583917 292.706866 
L 255.616867 292.552359 
L 255.649817 291.702568 
L 255.715716 292.66824 
L 255.748666 292.397852 
L 255.880465 293.711165 
L 256.275863 286.140301 
L 256.308813 286.487943 
L 256.341763 286.951465 
L 256.374713 286.217555 
L 256.440612 285.406391 
L 256.539462 283.011525 
L 256.572412 283.475048 
L 256.638311 285.90854 
L 256.671261 284.749734 
L 256.93486 281.196063 
L 257.231408 274.011468 
L 257.264358 274.050095 
L 257.396157 271.230334 
L 258.252852 241.140013 
L 258.516451 232.21721 
L 258.911849 213.830826 
L 259.307246 198.457337 
L 259.570845 185.208326 
L 260.52639 147.547141 
L 260.559339 147.392634 
L 262.503379 86.400828 
L 262.668128 84.933007 
L 262.766977 83.117545 
L 262.898776 80.72268 
L 262.931726 81.379336 
L 262.964676 80.645426 
L 262.997626 80.954441 
L 263.030576 80.83856 
L 263.425973 72.108891 
L 263.491873 73.422204 
L 263.524823 75.31492 
L 263.590723 74.310622 
L 263.623672 73.847099 
L 263.656622 73.924353 
L 263.689572 76.04883 
L 263.755472 74.156114 
L 263.788421 73.731219 
L 263.821371 74.310622 
L 263.854321 74.310622 
L 263.953171 72.997309 
L 263.98612 73.306323 
L 264.01907 74.156114 
L 264.08497 73.074562 
L 264.612167 66.198982 
L 264.645117 66.237609 
L 264.842816 68.323459 
L 264.875765 68.284832 
L 264.908715 68.43934 
L 264.941665 67.589549 
L 265.040514 67.666802 
L 265.139364 68.902862 
L 265.172314 68.748354 
L 265.205264 68.593847 
L 265.370013 69.250504 
L 265.402962 69.520892 
L 265.435912 69.211877 
L 265.501812 69.443638 
L 265.534762 69.482265 
L 265.600661 68.43934 
L 265.633611 68.941489 
L 265.89721 73.615338 
L 265.93016 73.499458 
L 265.963109 72.61104 
L 266.029009 72.958682 
L 266.061959 72.958682 
L 266.325557 77.748412 
L 266.358507 77.323517 
L 266.391457 77.864293 
L 266.490306 78.75271 
L 266.655055 80.452292 
L 267.083403 90.224886 
L 267.281102 96.212049 
L 267.347002 95.09187 
L 267.379951 95.787154 
L 267.6765 104.787211 
L 267.70945 104.864465 
L 267.907149 111.199269 
L 268.005998 113.555508 
L 269.752338 180.650357 
L 270.081836 191.504503 
L 270.378385 204.289993 
L 270.740833 218.388795 
L 270.773783 218.195661 
L 270.806732 218.620556 
L 271.630478 245.195833 
L 271.663428 245.195833 
L 271.959976 254.775294 
L 272.025876 254.466279 
L 272.190625 257.363293 
L 272.322424 259.680904 
L 272.355374 259.333263 
L 272.520123 262.19165 
L 273.04732 270.535051 
L 273.11322 270.187409 
L 273.146169 269.878394 
L 273.179119 270.573678 
L 273.212069 270.650932 
L 273.508617 275.015766 
L 273.541567 274.899886 
L 273.607467 273.393438 
L 273.673366 274.320483 
L 273.871065 276.947109 
L 273.904015 277.101616 
L 273.969915 276.406333 
L 274.002865 276.869855 
L 274.035814 277.719646 
L 274.101714 277.140243 
L 274.233513 274.977139 
L 274.299413 275.672423 
L 274.398262 277.17887 
L 274.431212 277.06299 
L 274.464162 277.06299 
L 274.497112 277.372004 
L 274.563012 277.06299 
L 274.628911 275.865557 
L 274.661861 276.329079 
L 274.79366 277.333378 
L 274.89251 276.44496 
L 275.057259 279.26472 
L 275.090209 279.187467 
L 275.123158 279.071586 
L 275.189058 280.771168 
L 275.254958 280.191765 
L 275.353807 279.380601 
L 275.419707 280.809795 
L 275.485606 280.462153 
L 275.518556 280.61666 
L 275.683305 277.101616 
L 275.749205 277.17887 
L 275.782155 276.56084 
L 275.946904 273.856961 
L 276.012803 274.011468 
L 276.045753 274.397737 
L 276.078703 273.74108 
L 276.111653 274.281856 
L 276.441151 269.260365 
L 276.63885 264.354754 
L 276.6718 264.972784 
L 276.70475 264.586515 
L 277.396696 247.745206 
L 277.627345 239.170044 
L 277.660294 238.976909 
L 277.857993 231.483299 
L 277.890943 231.135658 
L 278.38519 212.594767 
L 280.065631 150.482782 
L 280.362179 136.074965 
L 280.658728 125.452579 
L 281.021176 112.78297 
L 281.811971 89.375096 
L 281.844921 89.413722 
L 282.339168 79.48662 
L 282.372118 79.602501 
L 282.536867 75.430801 
L 282.833416 71.104593 
L 282.866365 71.413608 
L 282.965215 69.752653 
L 283.031114 70.370682 
L 283.064064 72.572413 
L 283.129964 70.988712 
L 283.162914 71.027339 
L 283.195864 71.529488 
L 283.228813 70.911458 
L 283.525362 64.267639 
L 283.558312 64.344893 
L 283.78896 61.409252 
L 283.82191 61.486506 
L 283.85486 61.331998 
L 283.986659 60.057312 
L 284.019609 60.404954 
L 284.085509 60.173192 
L 284.217308 58.203223 
L 284.250258 58.937133 
L 284.316157 58.203223 
L 284.513856 54.379164 
L 284.546806 55.074447 
L 284.678605 56.542268 
L 284.711555 56.503641 
L 284.843354 54.997194 
L 284.876304 56.696775 
L 284.942204 55.190328 
L 284.975154 55.344835 
L 285.008103 55.190328 
L 285.106953 55.344835 
L 285.139903 54.031522 
L 285.304652 55.460716 
L 285.370551 55.53797 
L 285.535301 53.568 
L 285.831849 56.928536 
L 286.029548 60.482207 
L 286.062498 59.941431 
L 286.095447 60.675342 
L 286.128397 60.752595 
L 286.655594 72.302025 
L 286.688544 70.988712 
L 286.754444 71.452234 
L 286.787394 71.568115 
L 287.215741 80.954441 
L 287.248691 80.993068 
L 287.677039 94.898736 
L 287.709988 94.97599 
L 287.874738 99.881601 
L 288.698483 132.250906 
L 288.896182 139.165113 
L 289.324529 156.77896 
L 289.621078 168.869166 
L 289.851727 180.186834 
L 290.444823 210.238529 
L 290.97202 226.616316 
L 291.696916 247.552072 
L 291.729866 247.590698 
L 292.191164 260.994217 
L 292.619511 269.723887 
L 292.75131 271.462095 
L 292.78426 270.689558 
L 292.81721 270.921319 
L 292.981959 273.277558 
L 293.014909 273.393438 
L 293.212608 277.449258 
L 293.245558 276.985736 
L 293.443257 279.341974 
L 293.509156 278.917079 
L 293.608006 276.522214 
L 293.673905 276.599467 
L 293.706855 276.483587 
L 293.772755 278.492183 
L 293.805705 277.835527 
L 293.838654 275.981438 
L 293.904554 276.406333 
L 294.036353 279.88275 
L 294.234052 280.771168 
L 294.267002 280.423526 
L 294.299952 279.380601 
L 294.365851 280.230392 
L 294.431751 280.153138 
L 294.497651 279.187467 
L 294.530601 279.76687 
L 294.56355 279.88275 
L 294.69535 276.329079 
L 294.728299 276.715348 
L 294.761249 276.599467 
L 294.925998 278.337676 
L 294.958948 278.260422 
L 295.222547 273.779707 
L 295.024848 278.376303 
L 295.255497 274.281856 
L 295.321396 275.324781 
L 295.387296 273.625199 
L 295.420246 274.745378 
L 295.453195 274.784005 
L 295.486145 275.054393 
L 295.650894 271.384842 
L 295.683844 271.577976 
L 295.716794 271.230334 
L 295.749744 272.080125 
L 295.815643 271.925618 
L 295.881543 271.462095 
L 295.980392 272.350513 
L 296.013342 272.041498 
L 296.276941 267.71529 
L 296.44169 265.51356 
L 296.47464 265.51356 
L 297.792632 244.037028 
L 298.089181 236.891059 
L 298.15508 236.195776 
L 298.847027 220.629153 
L 299.143575 211.82223 
L 299.275374 206.491723 
L 299.473073 201.470232 
L 299.506023 201.470232 
L 299.670772 197.993815 
L 299.934371 186.637519 
L 300.132069 179.955073 
L 300.230919 176.826298 
L 300.527467 164.233943 
L 300.560417 164.079435 
L 300.725166 158.1309 
L 300.988765 146.195201 
L 301.021714 146.040694 
L 301.186464 142.409769 
L 301.219413 142.487023 
L 301.252363 142.062127 
L 301.483012 133.448338 
L 301.515962 133.409712 
L 301.74661 127.808817 
L 302.076109 117.147805 
L 302.109058 116.916044 
L 302.372657 108.031867 
L 303.031653 88.525305 
L 303.229352 81.186202 
L 303.262302 81.417963 
L 303.295252 82.113247 
L 303.361151 81.842859 
L 303.394101 79.872889 
L 303.492951 80.259158 
L 303.723599 75.353547 
L 303.855399 73.808473 
L 304.020148 69.559518 
L 304.184897 70.447936 
L 304.283746 72.726921 
L 304.448495 68.980116 
L 304.712094 66.739758 
L 304.745044 67.164653 
L 304.777994 67.010146 
L 304.942743 64.847042 
L 305.008642 66.353489 
L 305.074542 66.276236 
L 305.37109 63.804117 
L 305.40404 64.074505 
L 305.43699 63.649609 
L 305.46994 63.881371 
L 305.535839 62.104535 
L 305.601739 62.877072 
L 305.667639 63.533729 
L 305.799438 65.73546 
L 305.997137 64.151759 
L 306.030087 64.653908 
L 306.095986 64.4994 
L 306.194836 61.525132 
L 306.227786 62.220416 
L 306.392535 63.688236 
L 306.458434 63.76549 
L 306.491384 63.14746 
L 306.524334 64.113132 
L 306.557284 64.074505 
L 306.853832 66.276236 
L 306.985631 69.559518 
L 307.051531 69.211877 
L 307.084481 69.868533 
L 307.117431 69.405011 
L 307.18333 68.362086 
L 307.348079 72.881428 
L 307.381029 72.417906 
L 307.413979 72.49516 
L 307.710527 81.108948 
L 308.138875 91.615453 
L 308.270674 93.701304 
L 309.489817 121.358133 
L 309.918165 134.298129 
L 310.049964 138.547084 
L 310.445362 156.701706 
L 311.433857 190.80922 
L 311.631556 198.148323 
L 311.664505 198.186949 
L 312.026953 208.886589 
L 312.257602 215.491781 
L 312.290552 214.487483 
L 312.323502 214.52611 
L 312.62005 224.607719 
L 312.751849 227.736494 
L 312.949548 231.59918 
L 312.982498 231.830941 
L 313.311996 238.861029 
L 313.509695 243.26449 
L 313.773294 251.144369 
L 313.806243 251.144369 
L 313.905093 253.770995 
L 313.970992 253.732369 
L 314.234591 258.251711 
L 314.267541 257.247412 
L 314.33344 257.788188 
L 314.36639 257.324666 
L 314.43229 257.131532 
L 314.531139 259.333263 
L 314.629989 261.766755 
L 314.695888 261.225979 
L 314.728838 261.187352 
L 314.794738 262.616545 
L 314.893587 264.084366 
L 314.959487 262.886933 
L 315.025387 263.041441 
L 315.058336 262.848307 
L 315.190136 264.547888 
L 315.223086 264.200247 
L 315.256035 263.698097 
L 315.288985 264.045739 
L 315.321935 264.393381 
L 315.354885 262.655172 
L 315.420784 263.775351 
L 315.684383 266.556485 
L 315.816182 266.208843 
L 315.882082 264.856903 
L 315.947982 265.359052 
L 316.046831 265.590813 
L 316.17863 266.208843 
L 316.310429 264.432008 
L 316.376329 266.440604 
L 316.475179 265.822574 
L 316.639928 267.831171 
L 316.738777 266.826873 
L 316.771727 266.942753 
L 316.804677 267.444902 
L 316.837627 266.826873 
L 317.068275 262.964187 
L 317.134175 263.891232 
L 317.364824 267.097261 
L 317.529573 264.007112 
L 317.628422 265.243172 
L 317.661372 264.625142 
L 317.760221 264.122993 
L 317.793171 264.586515 
L 317.826121 264.2775 
L 318.122669 261.264605 
L 318.155619 261.844008 
L 318.188569 260.801083 
L 318.287419 259.680904 
L 318.320368 260.298934 
L 318.419218 260.646576 
L 318.452168 260.607949 
L 318.847565 253.848249 
L 318.880515 253.770995 
L 319.177064 248.131474 
L 319.308863 250.603593 
L 319.341813 250.912608 
L 319.539512 246.316012 
L 319.572461 247.011296 
L 319.605411 247.706579 
L 319.671311 247.629325 
L 320.033759 239.208671 
L 320.066709 239.208671 
L 320.198508 238.513387 
L 320.495056 231.444673 
L 320.528006 231.946822 
L 320.560956 231.019777 
L 320.791605 222.792257 
L 320.890454 221.208556 
L 321.154053 213.753572 
L 321.252902 211.706349 
L 321.780099 193.049578 
L 321.813049 192.77919 
L 322.109597 184.204027 
L 322.504995 171.843433 
L 322.669744 167.169584 
L 323.131042 153.109408 
L 323.163991 153.109408 
L 323.49349 140.941949 
L 324.251335 119.735805 
L 324.613783 110.194971 
L 324.646733 110.851628 
L 324.712633 110.001837 
L 324.811482 109.306553 
L 324.844432 108.997539 
L 325.075081 102.933122 
L 325.108031 103.08763 
L 325.23983 100.847272 
L 325.27278 101.23354 
L 325.470479 97.216347 
L 325.503428 97.370855 
L 325.602278 96.868706 
L 325.734077 97.834377 
L 325.898826 93.392289 
L 325.931776 93.73993 
L 326.096525 90.263513 
L 326.228324 88.139036 
L 326.261274 88.486678 
L 326.327174 88.370797 
L 326.426023 88.100409 
L 326.393073 88.563932 
L 326.458973 88.139036 
L 326.491923 88.177663 
L 326.524873 88.409424 
L 326.557823 88.293544 
L 326.623722 86.13044 
L 326.689622 86.516708 
L 326.755521 85.860052 
L 326.788471 87.868648 
L 326.854371 87.289245 
L 327.01912 85.010261 
L 327.05207 84.16047 
L 327.08502 84.89438 
L 327.216819 86.439455 
L 327.414518 84.237724 
L 327.612217 82.460888 
L 327.645166 82.69265 
L 327.776966 83.812828 
L 327.809916 83.735575 
L 327.842865 83.851455 
L 327.974665 85.087515 
L 328.007614 85.280649 
L 328.040564 83.696948 
L 328.139414 84.276351 
L 328.304163 87.211992 
L 328.337113 86.787096 
L 328.501862 84.199097 
L 328.633661 87.057484 
L 328.699561 86.941604 
L 328.73251 85.937305 
L 328.79841 86.593962 
L 329.029059 89.993125 
L 329.094958 89.297842 
L 329.127908 89.413722 
L 329.490356 95.632646 
L 329.589206 93.160528 
L 329.622156 93.430916 
L 329.655105 93.662677 
L 329.688055 93.199154 
L 329.721005 93.00602 
L 329.819854 95.941661 
L 329.852804 94.860109 
L 329.885754 94.782856 
L 329.918704 93.855811 
L 329.951654 94.551094 
L 330.116403 97.911631 
L 330.149353 97.563989 
L 330.347051 101.503928 
L 330.380001 101.079033 
L 330.445901 100.229242 
L 330.808349 108.379509 
L 330.841299 107.684225 
L 330.874249 108.534016 
L 331.170797 116.259388 
L 331.401446 121.705774 
L 331.895693 135.456935 
L 331.961593 138.199442 
L 332.126342 142.564277 
L 332.35699 150.714543 
L 332.554689 156.431318 
L 332.653539 159.907735 
L 332.851238 164.542958 
L 333.048936 170.916389 
L 333.312535 178.564506 
L 333.345485 179.028029 
L 333.510234 184.551669 
L 333.674983 189.109638 
L 333.905632 196.139726 
L 333.938582 196.023845 
L 334.366929 209.697753 
L 334.399879 209.775006 
L 334.762327 220.011123 
L 335.025925 228.972554 
L 335.058875 229.127061 
L 335.487223 242.916849 
L 335.586072 244.075654 
L 335.98147 252.534936 
L 336.08032 254.891174 
L 336.146219 254.543532 
L 336.278019 252.998458 
L 336.310968 253.268846 
L 336.343918 254.775294 
L 336.442768 254.504906 
L 336.838165 260.337561 
L 336.871115 260.762456 
L 336.904065 260.067173 
L 336.937015 259.874039 
L 336.969965 260.260307 
L 337.002914 260.453441 
L 337.266513 265.783948 
L 337.299463 265.822574 
L 337.365362 264.702396 
L 337.398312 265.204545 
L 337.563061 266.98138 
L 337.628961 265.62944 
L 337.79371 269.06723 
L 337.958459 270.882693 
L 338.024359 271.114454 
L 338.057309 271.268961 
L 338.189108 273.509319 
L 338.255008 273.277558 
L 338.419757 275.749677 
L 338.617456 277.91278 
L 338.782205 275.286154 
L 338.848104 274.668125 
L 338.881054 275.247527 
L 338.979903 276.135945 
L 339.012853 275.904184 
L 339.045803 275.749677 
L 339.111703 274.243229 
L 339.177602 274.899886 
L 339.210552 274.706751 
L 339.309402 272.273259 
L 339.342351 272.505021 
L 339.375301 272.543647 
L 339.408251 272.775409 
L 339.441201 272.234633 
L 339.507101 271.346215 
L 339.54005 271.848364 
L 339.60595 272.350513 
L 339.968398 266.286097 
L 340.001348 266.788246 
L 340.034298 265.938455 
L 340.067247 266.170216 
L 340.264946 263.080068 
L 340.363796 265.281798 
L 340.396746 264.2775 
L 340.726244 260.723829 
L 340.759194 261.225979 
L 340.792143 261.264605 
L 340.858043 261.534993 
L 340.956893 259.758158 
L 341.088692 257.247412 
L 341.121642 257.595054 
L 341.154591 257.788188 
L 341.253441 258.01995 
L 341.38524 254.08001 
L 341.41819 254.002757 
L 341.582939 249.831056 
L 341.615889 249.869683 
L 341.978337 241.024133 
L 342.439634 228.779419 
L 342.637333 225.264376 
L 342.736183 221.40169 
L 342.966831 214.52611 
L 343.428129 201.74062 
L 343.625828 195.289935 
L 343.691727 194.826413 
L 344.713172 160.603018 
L 344.746121 160.641645 
L 344.812021 159.830481 
L 346.195913 116.336641 
L 346.228863 117.031925 
L 346.294763 116.182134 
L 346.690161 108.340882 
L 346.82196 109.576941 
L 347.480956 99.186317 
L 347.513906 99.842974 
L 347.546856 98.761422 
L 347.744555 95.207751 
L 347.810454 95.362258 
L 347.876354 96.482437 
L 347.909304 95.478139 
L 348.139953 90.765662 
L 348.172902 90.688409 
L 348.370601 87.675514 
L 348.403551 88.332171 
L 348.436501 88.409424 
L 348.6342 86.709843 
L 348.700099 87.752768 
L 348.733049 87.405126 
L 348.798949 86.478081 
L 348.831899 86.787096 
L 348.897798 88.757066 
L 348.963698 88.563932 
L 349.095497 87.791395 
L 349.227297 90.340767 
L 349.326146 92.078976 
L 349.359096 91.151931 
L 349.457945 90.031752 
L 349.490895 90.92017 
L 349.556795 90.263513 
L 349.754494 89.181961 
L 349.787443 89.915872 
L 349.820393 89.104708 
L 349.853343 89.375096 
L 349.886293 88.795693 
L 349.919243 89.143335 
L 349.985142 89.027454 
L 350.083992 91.731334 
L 350.116942 90.997424 
L 350.182841 91.345065 
L 350.512339 94.937363 
L 350.710038 96.405183 
L 350.808888 95.825781 
L 350.907737 98.915929 
L 350.940687 98.182019 
L 351.039536 97.563989 
L 351.072486 97.757123 
L 351.171336 97.023213 
L 351.467884 101.619809 
L 351.599683 100.49963 
L 351.632633 100.692764 
L 351.797382 98.336526 
L 351.830332 97.873004 
L 351.863282 97.911631 
L 351.929182 99.920227 
L 351.995081 99.263571 
L 352.028031 98.915929 
L 352.060981 99.572586 
L 352.19278 102.4696 
L 352.22573 101.967451 
L 352.291629 102.855868 
L 352.357529 102.58548 
L 352.390479 102.624107 
L 352.423429 102.933122 
L 352.456379 102.237839 
L 352.555228 101.85157 
L 352.719977 105.327987 
L 352.785877 104.748584 
L 352.818827 105.482495 
L 352.851776 105.134853 
L 353.016525 108.881658 
L 353.082425 108.843031 
L 353.115375 108.843031 
L 353.313074 113.053358 
L 354.466317 132.289533 
L 354.795816 140.053531 
L 355.092364 149.594364 
L 355.323013 153.727438 
L 355.355962 153.920572 
L 355.88316 165.238241 
L 356.113808 172.809105 
L 357.926048 214.719244 
L 358.683894 227.581987 
L 358.716844 227.041211 
L 358.749794 227.891002 
L 359.013392 233.067 
L 359.145191 234.225806 
L 359.244041 235.886761 
L 359.276991 235.655 
L 359.40879 237.74085 
L 359.540589 239.517685 
L 359.606489 239.324551 
L 359.639439 239.054163 
L 359.672388 239.672193 
L 359.705338 240.483357 
L 359.771238 240.135715 
L 359.903037 236.852432 
L 359.968937 237.393208 
L 360.067786 237.933984 
L 360.100736 237.856731 
L 360.166636 238.049865 
L 360.199586 238.011238 
L 360.232535 237.62497 
L 360.265485 238.204372 
L 360.298435 238.011238 
L 360.397284 239.401805 
L 360.430234 238.552014 
L 360.496134 239.479059 
L 360.529084 239.556312 
L 360.594983 238.629268 
L 360.660883 238.976909 
L 360.792682 240.44473 
L 360.924482 241.912551 
L 360.957431 241.564909 
L 361.15513 240.058461 
L 361.352829 238.127119 
L 361.418729 238.47476 
L 361.649377 240.212969 
L 361.715277 239.363178 
L 361.748227 240.174342 
L 361.781177 240.637864 
L 361.912976 237.74085 
L 361.945926 239.09279 
L 362.011825 239.054163 
L 362.044775 238.320253 
L 362.110675 238.35888 
L 362.341324 241.912551 
L 362.407223 241.217267 
L 362.440173 240.908252 
L 362.473123 241.449028 
L 362.506073 240.946879 
L 362.539023 241.217267 
L 362.571972 240.908252 
L 362.604922 241.024133 
L 362.703772 240.406103 
L 362.835571 241.06276 
L 362.93442 240.135715 
L 362.96737 240.560611 
L 363.198019 238.899656 
L 363.230969 239.247297 
L 363.263919 239.208671 
L 363.362768 236.929686 
L 363.395718 238.049865 
L 363.494567 239.131417 
L 363.527517 238.47476 
L 363.593417 237.779477 
L 363.626366 238.281626 
L 363.659316 238.436133 
L 363.857015 233.878164 
L 363.889965 233.607776 
L 363.922915 233.955418 
L 363.955865 233.994045 
L 364.021764 234.534821 
L 364.186513 231.058404 
L 364.219463 231.792314 
L 364.285363 231.676434 
L 364.516012 228.27727 
L 364.548961 229.011181 
L 364.581911 229.204315 
L 364.614861 229.165688 
L 364.647811 228.818046 
L 364.71371 229.088434 
L 364.81256 229.165688 
L 364.87846 229.706464 
L 364.911409 229.667837 
L 364.977309 229.320195 
L 365.076158 227.813748 
L 365.109108 228.27727 
L 365.142058 228.663539 
L 365.175008 228.045509 
L 365.240908 227.272972 
L 365.306807 227.504733 
L 365.405657 226.268674 
L 365.504506 226.577689 
L 365.537456 228.006882 
L 365.603356 227.272972 
L 365.735155 225.071241 
L 365.768105 225.689271 
L 365.801054 225.650644 
L 365.965803 223.101272 
L 366.163502 224.569092 
L 366.196452 224.491838 
L 366.229402 225.303002 
L 366.262352 223.835182 
L 366.295302 223.680674 
L 366.394151 222.058346 
L 366.427101 223.101272 
L 366.493001 222.985391 
L 366.690699 220.204257 
L 366.723649 220.745033 
L 366.756599 220.822287 
L 366.822499 221.092675 
L 367.151997 216.61196 
L 367.184947 217.886646 
L 367.217897 216.766467 
L 367.415595 211.744976 
L 367.448545 211.590468 
L 367.712144 204.251366 
L 367.745094 204.753515 
L 367.778043 203.82647 
L 367.810993 203.749217 
L 367.876893 204.058232 
L 368.140491 198.998113 
L 368.33819 193.822115 
L 368.502939 190.963727 
L 368.667688 188.298474 
L 368.733588 189.998056 
L 368.832438 189.186892 
L 368.964237 185.787729 
L 369.030136 186.907907 
L 369.063086 186.676146 
L 369.359635 179.87782 
L 369.392584 179.87782 
L 369.919782 166.97645 
L 369.952731 167.324091 
L 369.985681 167.671733 
L 370.414029 158.826183 
L 370.446979 159.212452 
L 370.677627 152.10511 
L 370.908276 148.66732 
L 370.941226 148.203798 
L 371.138925 141.057829 
L 371.303674 138.431203 
L 371.336624 138.315322 
L 371.501373 134.877532 
L 371.666122 132.907563 
L 371.699072 133.255204 
L 371.732021 133.100697 
L 371.830871 131.169354 
L 371.863821 131.246608 
L 371.896771 131.903264 
L 371.92972 130.396817 
L 372.160369 124.525535 
L 372.193319 125.993355 
L 372.259219 124.95043 
L 372.391018 124.100639 
L 372.423968 124.255147 
L 372.489867 125.877475 
L 372.522817 124.448281 
L 372.621666 124.757296 
L 372.819365 118.422491 
L 372.918215 119.465417 
L 373.017064 118.07485 
L 373.050014 118.576999 
L 373.181813 117.340939 
L 373.115914 118.80876 
L 373.214763 117.958969 
L 373.247713 117.997596 
L 373.313613 116.877417 
L 373.346562 115.023328 
L 373.412462 115.641358 
L 373.478362 116.066253 
L 373.511312 116.298014 
L 373.676061 112.319448 
L 373.70901 112.589836 
L 373.972609 108.881658 
L 374.005559 108.997539 
L 374.071458 109.538315 
L 374.104408 108.958912 
L 374.170308 108.997539 
L 374.302107 109.924583 
L 374.335057 108.649897 
L 374.400957 109.422434 
L 374.565706 112.435329 
L 374.598656 113.130612 
L 374.697505 113.014732 
L 374.730455 113.091985 
L 375.059953 108.843031 
L 375.158802 109.615568 
L 375.191752 109.576941 
L 375.257652 110.117717 
L 375.290602 109.615568 
L 375.389451 109.036165 
L 375.422401 109.267927 
L 375.6201 113.130612 
L 375.817799 110.349479 
L 375.883698 110.040464 
L 375.949598 111.93318 
L 376.015498 111.43103 
L 376.147297 113.014732 
L 376.180247 112.589836 
L 376.213197 113.439627 
L 376.344996 115.525477 
L 376.377946 115.023328 
L 376.410895 113.632761 
L 376.476795 115.061955 
L 376.509745 114.675686 
L 376.575645 114.791567 
L 376.608594 115.293716 
L 376.641544 114.675686 
L 376.707444 115.255089 
L 376.740394 114.443925 
L 376.773343 115.564104 
L 376.806293 114.946074 
L 376.872193 115.834492 
L 376.938093 115.795865 
L 377.003992 115.216462 
L 377.102842 117.572701 
L 377.234641 114.598433 
L 377.267591 115.448224 
L 377.33349 114.443925 
L 377.36644 113.941776 
L 377.498239 116.529776 
L 377.531189 116.452522 
L 377.564139 115.989 
L 377.630039 116.10488 
L 377.761838 118.499745 
L 377.794788 117.649954 
L 377.827738 117.765835 
L 377.860687 117.340939 
L 378.025436 119.774431 
L 378.058386 120.122073 
L 378.124286 119.774431 
L 378.157236 119.079148 
L 378.223135 119.156402 
L 378.289035 122.092043 
L 378.354935 121.474013 
L 378.387884 121.628521 
L 378.420834 121.474013 
L 378.453784 121.242252 
L 378.486734 121.667147 
L 378.684433 123.173595 
L 378.717383 122.710072 
L 378.882132 126.070609 
L 378.915082 125.56846 
L 378.980981 126.147863 
L 379.21163 129.662907 
L 379.24458 129.817414 
L 379.27753 131.285235 
L 379.343429 130.898966 
L 379.442279 129.353892 
L 379.475228 130.551324 
L 379.574078 130.319563 
L 379.607028 130.126429 
L 380.167175 138.431203 
L 380.200124 136.963382 
L 380.266024 138.662964 
L 380.298974 138.662964 
L 380.859121 152.336871 
L 380.92502 154.07508 
L 380.95797 155.736034 
L 381.05682 155.311139 
L 381.748766 174.083791 
L 381.781716 173.697523 
L 381.814665 174.58594 
L 381.946465 178.02373 
L 381.979414 177.676089 
L 382.012364 177.560208 
L 382.440712 188.83925 
L 382.539561 192.083906 
L 382.73726 199.229875 
L 382.77021 199.191248 
L 382.86906 200.118292 
L 382.902009 198.882233 
L 382.967909 199.847904 
L 383.033809 201.856501 
L 383.231508 206.221335 
L 383.264457 206.144082 
L 383.692805 217.268616 
L 383.791654 219.238586 
L 384.022303 223.873809 
L 384.351801 228.27727 
L 384.384751 230.054106 
L 384.483601 229.551957 
L 384.714249 234.573448 
L 384.747199 233.723657 
L 384.813099 234.148552 
L 385.142597 239.633566 
L 385.241446 239.71082 
L 385.274396 239.09279 
L 385.307346 240.406103 
L 385.406195 240.174342 
L 385.439145 239.981208 
L 385.472095 240.406103 
L 385.505045 240.676491 
L 385.537995 240.328849 
L 385.603894 239.170044 
L 385.768643 243.380371 
L 385.801593 243.959774 
L 385.867493 243.380371 
L 385.900443 243.457625 
L 385.999292 245.813863 
L 386.032242 244.848192 
L 386.229941 240.521984 
L 386.262891 240.985506 
L 386.39469 239.054163 
L 386.42764 238.938283 
L 386.592389 236.27303 
L 386.790088 238.861029 
L 386.823038 238.049865 
L 386.888937 237.470462 
L 386.921887 237.663596 
L 386.954837 238.242999 
L 387.020736 237.895357 
L 387.086636 237.200074 
L 387.218435 238.629268 
L 387.449084 236.311656 
L 387.482034 237.238701 
L 387.613833 233.800911 
L 387.679733 232.719359 
L 387.877432 237.972611 
L 388.27283 233.453269 
L 388.305779 234.109926 
L 388.338729 234.187179 
L 388.503478 231.676434 
L 388.536428 231.290165 
L 388.569378 231.830941 
L 388.635277 232.33309 
L 388.668227 231.908195 
L 389.063625 226.307301 
L 389.096575 227.118465 
L 389.129525 228.393151 
L 389.195424 228.315897 
L 389.393123 226.230047 
L 389.426073 227.041211 
L 389.459023 226.616316 
L 389.623772 224.646346 
L 389.656722 224.569092 
L 389.689672 225.071241 
L 389.722621 224.530465 
L 389.755571 224.916734 
L 389.788521 224.298704 
L 389.821471 225.303002 
L 389.854421 225.303002 
L 389.98622 223.217152 
L 390.01917 223.255779 
L 390.085069 223.680674 
L 390.381618 219.161332 
L 390.414568 219.238586 
L 390.513417 220.281511 
L 390.546367 220.088377 
L 390.678166 217.423124 
L 390.711116 217.500377 
L 390.941765 214.835124 
L 390.974714 215.337274 
L 391.007664 215.646288 
L 391.040614 215.028259 
L 391.370112 211.899483 
L 391.501912 212.131244 
L 391.534861 212.131244 
L 391.69961 209.041096 
L 391.86436 206.568977 
L 391.930259 206.375843 
L 391.996159 207.187007 
L 392.127958 205.371545 
L 392.160908 205.410171 
L 392.193858 205.719186 
L 392.325657 202.629038 
L 392.358607 203.208441 
L 392.391557 202.204142 
L 392.556306 198.573218 
L 392.589256 199.191248 
L 392.622205 198.650472 
L 392.819904 192.856443 
L 392.852854 192.663309 
L 392.951703 190.9251 
L 392.984653 191.002354 
L 393.017603 191.581757 
L 393.182352 187.603191 
L 393.215302 187.796325 
L 393.64365 179.568805 
L 393.676599 179.337044 
L 393.907248 174.740448 
L 393.973148 175.899253 
L 394.006098 175.088089 
L 394.170847 171.88206 
L 394.203797 171.843433 
L 394.335596 170.336986 
L 394.368546 170.336986 
L 394.533295 166.628808 
L 394.566245 166.899196 
L 394.632144 165.74039 
L 394.665094 166.4743 
L 394.730994 167.285464 
L 394.895743 163.538659 
L 394.928693 163.770421 
L 394.961642 162.92063 
L 395.060492 163.113764 
L 395.093442 163.229645 
L 395.29114 160.178123 
L 395.32409 160.873406 
L 395.45589 156.469945 
L 395.488839 156.624452 
L 395.521789 156.817586 
L 395.686538 153.418423 
L 395.719488 153.688811 
L 395.752438 153.688811 
L 395.785388 153.534304 
L 395.917187 151.757468 
L 395.983087 151.409827 
L 396.016036 152.530005 
L 396.609133 144.109351 
L 396.740932 145.113649 
L 396.872732 143.645829 
L 396.938631 141.946247 
L 397.004531 142.602903 
L 397.13633 140.401173 
L 397.23518 140.864695 
L 397.301079 140.787441 
L 397.498778 143.645829 
L 397.729427 139.20374 
L 397.795327 138.778845 
L 397.828276 139.628635 
L 397.861226 138.353949 
L 397.960076 137.349651 
L 398.091875 140.401173 
L 398.421373 138.199442 
L 398.487273 137.504158 
L 398.487273 137.504158 
" style="fill:none;stroke:#1f77b4;stroke-linecap:square;"/>
   </g>
   <g id="patch_3">
    <path d="M 57.6 307.584 
L 57.6 41.472 
" style="fill:none;stroke:#000000;stroke-linecap:square;stroke-linejoin:miter;stroke-width:0.8;"/>
   </g>
   <g id="patch_4">
    <path d="M 414.72 307.584 
L 414.72 41.472 
" style="fill:none;stroke:#000000;stroke-linecap:square;stroke-linejoin:miter;stroke-width:0.8;"/>
   </g>
   <g id="patch_5">
    <path d="M 57.6 307.584 
L 414.72 307.584 
" style="fill:none;stroke:#000000;stroke-linecap:square;stroke-linejoin:miter;stroke-width:0.8;"/>
   </g>
   <g id="patch_6">
    <path d="M 57.6 41.472 
L 414.72 41.472 
" style="fill:none;stroke:#000000;stroke-linecap:square;stroke-linejoin:miter;stroke-width:0.8;"/>
   </g>
  </g>
 </g>
 <defs>
  <clipPath id="pfef554a13d">
   <rect height="266.112" width="357.12" x="57.6" y="41.472"/>
  </clipPath>
 </defs>
</svg>
