<?xml version="1.0" encoding="utf-8" standalone="no"?>
<!DOCTYPE svg PUBLIC "-//W3C//DTD SVG 1.1//EN"
  "http://www.w3.org/Graphics/SVG/1.1/DTD/svg11.dtd">
<svg height="345.6pt" version="1.1" viewBox="0 0 460.8 345.6" width="460.8pt" xmlns="http://www.w3.org/2000/svg" xmlns:xlink="http://www.w3.org/1999/xlink">
 <metadata>
  <rdf:RDF xmlns:cc="http://creativecommons.org/ns#" xmlns:dc="http://purl.org/dc/elements/1.1/" xmlns:rdf="http://www.w3.org/1999/02/22-rdf-syntax-ns#">
   <cc:Work>
    <dc:type rdf:resource="http://purl.org/dc/dcmitype/StillImage"/>
    <dc:date>2021-12-16T02:11:02.118595</dc:date>
    <dc:format>image/svg+xml</dc:format>
    <dc:creator>
     <cc:Agent>
      <dc:title>Matplotlib v3.4.3, https://matplotlib.org/</dc:title>
     </cc:Agent>
    </dc:creator>
   </cc:Work>
  </rdf:RDF>
 </metadata>
 <defs>
  <style type="text/css">*{stroke-linecap:butt;stroke-linejoin:round;}</style>
 </defs>
 <g id="figure_1">
  <g id="patch_1">
   <path d="M 0 345.6 
L 460.8 345.6 
L 460.8 0 
L 0 0 
z
" style="fill:#ffffff;"/>
  </g>
  <g id="axes_1">
   <g id="patch_2">
    <path d="M 57.6 307.584 
L 414.72 307.584 
L 414.72 41.472 
L 57.6 41.472 
z
" style="fill:#ffffff;"/>
   </g>
   <g id="matplotlib.axis_1">
    <g id="xtick_1">
     <g id="line2d_1">
      <path clip-path="url(#p835318348e)" d="M 73.832727 307.584 
L 73.832727 41.472 
" style="fill:none;stroke:#b0b0b0;stroke-linecap:square;stroke-width:0.8;"/>
     </g>
     <g id="line2d_2">
      <defs>
       <path d="M 0 0 
L 0 3.5 
" id="m276e792a34" style="stroke:#000000;stroke-width:0.8;"/>
      </defs>
      <g>
       <use style="stroke:#000000;stroke-width:0.8;" x="73.832727" xlink:href="#m276e792a34" y="307.584"/>
      </g>
     </g>
     <g id="text_1">
      <!-- 0.0 -->
      <g transform="translate(65.881165 322.182437)scale(0.1 -0.1)">
       <defs>
        <path d="M 2034 4250 
Q 1547 4250 1301 3770 
Q 1056 3291 1056 2328 
Q 1056 1369 1301 889 
Q 1547 409 2034 409 
Q 2525 409 2770 889 
Q 3016 1369 3016 2328 
Q 3016 3291 2770 3770 
Q 2525 4250 2034 4250 
z
M 2034 4750 
Q 2819 4750 3233 4129 
Q 3647 3509 3647 2328 
Q 3647 1150 3233 529 
Q 2819 -91 2034 -91 
Q 1250 -91 836 529 
Q 422 1150 422 2328 
Q 422 3509 836 4129 
Q 1250 4750 2034 4750 
z
" id="DejaVuSans-30" transform="scale(0.015625)"/>
        <path d="M 684 794 
L 1344 794 
L 1344 0 
L 684 0 
L 684 794 
z
" id="DejaVuSans-2e" transform="scale(0.015625)"/>
       </defs>
       <use xlink:href="#DejaVuSans-30"/>
       <use x="63.623047" xlink:href="#DejaVuSans-2e"/>
       <use x="95.410156" xlink:href="#DejaVuSans-30"/>
      </g>
     </g>
    </g>
    <g id="xtick_2">
     <g id="line2d_3">
      <path clip-path="url(#p835318348e)" d="M 139.752432 307.584 
L 139.752432 41.472 
" style="fill:none;stroke:#b0b0b0;stroke-linecap:square;stroke-width:0.8;"/>
     </g>
     <g id="line2d_4">
      <g>
       <use style="stroke:#000000;stroke-width:0.8;" x="139.752432" xlink:href="#m276e792a34" y="307.584"/>
      </g>
     </g>
     <g id="text_2">
      <!-- 0.1 -->
      <g transform="translate(131.800869 322.182437)scale(0.1 -0.1)">
       <defs>
        <path d="M 794 531 
L 1825 531 
L 1825 4091 
L 703 3866 
L 703 4441 
L 1819 4666 
L 2450 4666 
L 2450 531 
L 3481 531 
L 3481 0 
L 794 0 
L 794 531 
z
" id="DejaVuSans-31" transform="scale(0.015625)"/>
       </defs>
       <use xlink:href="#DejaVuSans-30"/>
       <use x="63.623047" xlink:href="#DejaVuSans-2e"/>
       <use x="95.410156" xlink:href="#DejaVuSans-31"/>
      </g>
     </g>
    </g>
    <g id="xtick_3">
     <g id="line2d_5">
      <path clip-path="url(#p835318348e)" d="M 205.672137 307.584 
L 205.672137 41.472 
" style="fill:none;stroke:#b0b0b0;stroke-linecap:square;stroke-width:0.8;"/>
     </g>
     <g id="line2d_6">
      <g>
       <use style="stroke:#000000;stroke-width:0.8;" x="205.672137" xlink:href="#m276e792a34" y="307.584"/>
      </g>
     </g>
     <g id="text_3">
      <!-- 0.2 -->
      <g transform="translate(197.720574 322.182437)scale(0.1 -0.1)">
       <defs>
        <path d="M 1228 531 
L 3431 531 
L 3431 0 
L 469 0 
L 469 531 
Q 828 903 1448 1529 
Q 2069 2156 2228 2338 
Q 2531 2678 2651 2914 
Q 2772 3150 2772 3378 
Q 2772 3750 2511 3984 
Q 2250 4219 1831 4219 
Q 1534 4219 1204 4116 
Q 875 4013 500 3803 
L 500 4441 
Q 881 4594 1212 4672 
Q 1544 4750 1819 4750 
Q 2544 4750 2975 4387 
Q 3406 4025 3406 3419 
Q 3406 3131 3298 2873 
Q 3191 2616 2906 2266 
Q 2828 2175 2409 1742 
Q 1991 1309 1228 531 
z
" id="DejaVuSans-32" transform="scale(0.015625)"/>
       </defs>
       <use xlink:href="#DejaVuSans-30"/>
       <use x="63.623047" xlink:href="#DejaVuSans-2e"/>
       <use x="95.410156" xlink:href="#DejaVuSans-32"/>
      </g>
     </g>
    </g>
    <g id="xtick_4">
     <g id="line2d_7">
      <path clip-path="url(#p835318348e)" d="M 271.591841 307.584 
L 271.591841 41.472 
" style="fill:none;stroke:#b0b0b0;stroke-linecap:square;stroke-width:0.8;"/>
     </g>
     <g id="line2d_8">
      <g>
       <use style="stroke:#000000;stroke-width:0.8;" x="271.591841" xlink:href="#m276e792a34" y="307.584"/>
      </g>
     </g>
     <g id="text_4">
      <!-- 0.3 -->
      <g transform="translate(263.640279 322.182437)scale(0.1 -0.1)">
       <defs>
        <path d="M 2597 2516 
Q 3050 2419 3304 2112 
Q 3559 1806 3559 1356 
Q 3559 666 3084 287 
Q 2609 -91 1734 -91 
Q 1441 -91 1130 -33 
Q 819 25 488 141 
L 488 750 
Q 750 597 1062 519 
Q 1375 441 1716 441 
Q 2309 441 2620 675 
Q 2931 909 2931 1356 
Q 2931 1769 2642 2001 
Q 2353 2234 1838 2234 
L 1294 2234 
L 1294 2753 
L 1863 2753 
Q 2328 2753 2575 2939 
Q 2822 3125 2822 3475 
Q 2822 3834 2567 4026 
Q 2313 4219 1838 4219 
Q 1578 4219 1281 4162 
Q 984 4106 628 3988 
L 628 4550 
Q 988 4650 1302 4700 
Q 1616 4750 1894 4750 
Q 2613 4750 3031 4423 
Q 3450 4097 3450 3541 
Q 3450 3153 3228 2886 
Q 3006 2619 2597 2516 
z
" id="DejaVuSans-33" transform="scale(0.015625)"/>
       </defs>
       <use xlink:href="#DejaVuSans-30"/>
       <use x="63.623047" xlink:href="#DejaVuSans-2e"/>
       <use x="95.410156" xlink:href="#DejaVuSans-33"/>
      </g>
     </g>
    </g>
    <g id="xtick_5">
     <g id="line2d_9">
      <path clip-path="url(#p835318348e)" d="M 337.511546 307.584 
L 337.511546 41.472 
" style="fill:none;stroke:#b0b0b0;stroke-linecap:square;stroke-width:0.8;"/>
     </g>
     <g id="line2d_10">
      <g>
       <use style="stroke:#000000;stroke-width:0.8;" x="337.511546" xlink:href="#m276e792a34" y="307.584"/>
      </g>
     </g>
     <g id="text_5">
      <!-- 0.4 -->
      <g transform="translate(329.559983 322.182437)scale(0.1 -0.1)">
       <defs>
        <path d="M 2419 4116 
L 825 1625 
L 2419 1625 
L 2419 4116 
z
M 2253 4666 
L 3047 4666 
L 3047 1625 
L 3713 1625 
L 3713 1100 
L 3047 1100 
L 3047 0 
L 2419 0 
L 2419 1100 
L 313 1100 
L 313 1709 
L 2253 4666 
z
" id="DejaVuSans-34" transform="scale(0.015625)"/>
       </defs>
       <use xlink:href="#DejaVuSans-30"/>
       <use x="63.623047" xlink:href="#DejaVuSans-2e"/>
       <use x="95.410156" xlink:href="#DejaVuSans-34"/>
      </g>
     </g>
    </g>
    <g id="xtick_6">
     <g id="line2d_11">
      <path clip-path="url(#p835318348e)" d="M 403.431251 307.584 
L 403.431251 41.472 
" style="fill:none;stroke:#b0b0b0;stroke-linecap:square;stroke-width:0.8;"/>
     </g>
     <g id="line2d_12">
      <g>
       <use style="stroke:#000000;stroke-width:0.8;" x="403.431251" xlink:href="#m276e792a34" y="307.584"/>
      </g>
     </g>
     <g id="text_6">
      <!-- 0.5 -->
      <g transform="translate(395.479688 322.182437)scale(0.1 -0.1)">
       <defs>
        <path d="M 691 4666 
L 3169 4666 
L 3169 4134 
L 1269 4134 
L 1269 2991 
Q 1406 3038 1543 3061 
Q 1681 3084 1819 3084 
Q 2600 3084 3056 2656 
Q 3513 2228 3513 1497 
Q 3513 744 3044 326 
Q 2575 -91 1722 -91 
Q 1428 -91 1123 -41 
Q 819 9 494 109 
L 494 744 
Q 775 591 1075 516 
Q 1375 441 1709 441 
Q 2250 441 2565 725 
Q 2881 1009 2881 1497 
Q 2881 1984 2565 2268 
Q 2250 2553 1709 2553 
Q 1456 2553 1204 2497 
Q 953 2441 691 2322 
L 691 4666 
z
" id="DejaVuSans-35" transform="scale(0.015625)"/>
       </defs>
       <use xlink:href="#DejaVuSans-30"/>
       <use x="63.623047" xlink:href="#DejaVuSans-2e"/>
       <use x="95.410156" xlink:href="#DejaVuSans-35"/>
      </g>
     </g>
    </g>
   </g>
   <g id="matplotlib.axis_2">
    <g id="ytick_1">
     <g id="line2d_13">
      <path clip-path="url(#p835318348e)" d="M 57.6 305.761523 
L 414.72 305.761523 
" style="fill:none;stroke:#b0b0b0;stroke-linecap:square;stroke-width:0.8;"/>
     </g>
     <g id="line2d_14">
      <defs>
       <path d="M 0 0 
L -3.5 0 
" id="mbdfa5e652e" style="stroke:#000000;stroke-width:0.8;"/>
      </defs>
      <g>
       <use style="stroke:#000000;stroke-width:0.8;" x="57.6" xlink:href="#mbdfa5e652e" y="305.761523"/>
      </g>
     </g>
     <g id="text_7">
      <!-- −0.015 -->
      <g transform="translate(13.592188 309.560741)scale(0.1 -0.1)">
       <defs>
        <path d="M 678 2272 
L 4684 2272 
L 4684 1741 
L 678 1741 
L 678 2272 
z
" id="DejaVuSans-2212" transform="scale(0.015625)"/>
       </defs>
       <use xlink:href="#DejaVuSans-2212"/>
       <use x="83.789062" xlink:href="#DejaVuSans-30"/>
       <use x="147.412109" xlink:href="#DejaVuSans-2e"/>
       <use x="179.199219" xlink:href="#DejaVuSans-30"/>
       <use x="242.822266" xlink:href="#DejaVuSans-31"/>
       <use x="306.445312" xlink:href="#DejaVuSans-35"/>
      </g>
     </g>
    </g>
    <g id="ytick_2">
     <g id="line2d_15">
      <path clip-path="url(#p835318348e)" d="M 57.6 258.432641 
L 414.72 258.432641 
" style="fill:none;stroke:#b0b0b0;stroke-linecap:square;stroke-width:0.8;"/>
     </g>
     <g id="line2d_16">
      <g>
       <use style="stroke:#000000;stroke-width:0.8;" x="57.6" xlink:href="#mbdfa5e652e" y="258.432641"/>
      </g>
     </g>
     <g id="text_8">
      <!-- −0.010 -->
      <g transform="translate(13.592188 262.23186)scale(0.1 -0.1)">
       <use xlink:href="#DejaVuSans-2212"/>
       <use x="83.789062" xlink:href="#DejaVuSans-30"/>
       <use x="147.412109" xlink:href="#DejaVuSans-2e"/>
       <use x="179.199219" xlink:href="#DejaVuSans-30"/>
       <use x="242.822266" xlink:href="#DejaVuSans-31"/>
       <use x="306.445312" xlink:href="#DejaVuSans-30"/>
      </g>
     </g>
    </g>
    <g id="ytick_3">
     <g id="line2d_17">
      <path clip-path="url(#p835318348e)" d="M 57.6 211.10376 
L 414.72 211.10376 
" style="fill:none;stroke:#b0b0b0;stroke-linecap:square;stroke-width:0.8;"/>
     </g>
     <g id="line2d_18">
      <g>
       <use style="stroke:#000000;stroke-width:0.8;" x="57.6" xlink:href="#mbdfa5e652e" y="211.10376"/>
      </g>
     </g>
     <g id="text_9">
      <!-- −0.005 -->
      <g transform="translate(13.592188 214.902978)scale(0.1 -0.1)">
       <use xlink:href="#DejaVuSans-2212"/>
       <use x="83.789062" xlink:href="#DejaVuSans-30"/>
       <use x="147.412109" xlink:href="#DejaVuSans-2e"/>
       <use x="179.199219" xlink:href="#DejaVuSans-30"/>
       <use x="242.822266" xlink:href="#DejaVuSans-30"/>
       <use x="306.445312" xlink:href="#DejaVuSans-35"/>
      </g>
     </g>
    </g>
    <g id="ytick_4">
     <g id="line2d_19">
      <path clip-path="url(#p835318348e)" d="M 57.6 163.774878 
L 414.72 163.774878 
" style="fill:none;stroke:#b0b0b0;stroke-linecap:square;stroke-width:0.8;"/>
     </g>
     <g id="line2d_20">
      <g>
       <use style="stroke:#000000;stroke-width:0.8;" x="57.6" xlink:href="#mbdfa5e652e" y="163.774878"/>
      </g>
     </g>
     <g id="text_10">
      <!-- 0.000 -->
      <g transform="translate(21.971875 167.574097)scale(0.1 -0.1)">
       <use xlink:href="#DejaVuSans-30"/>
       <use x="63.623047" xlink:href="#DejaVuSans-2e"/>
       <use x="95.410156" xlink:href="#DejaVuSans-30"/>
       <use x="159.033203" xlink:href="#DejaVuSans-30"/>
       <use x="222.65625" xlink:href="#DejaVuSans-30"/>
      </g>
     </g>
    </g>
    <g id="ytick_5">
     <g id="line2d_21">
      <path clip-path="url(#p835318348e)" d="M 57.6 116.445997 
L 414.72 116.445997 
" style="fill:none;stroke:#b0b0b0;stroke-linecap:square;stroke-width:0.8;"/>
     </g>
     <g id="line2d_22">
      <g>
       <use style="stroke:#000000;stroke-width:0.8;" x="57.6" xlink:href="#mbdfa5e652e" y="116.445997"/>
      </g>
     </g>
     <g id="text_11">
      <!-- 0.005 -->
      <g transform="translate(21.971875 120.245215)scale(0.1 -0.1)">
       <use xlink:href="#DejaVuSans-30"/>
       <use x="63.623047" xlink:href="#DejaVuSans-2e"/>
       <use x="95.410156" xlink:href="#DejaVuSans-30"/>
       <use x="159.033203" xlink:href="#DejaVuSans-30"/>
       <use x="222.65625" xlink:href="#DejaVuSans-35"/>
      </g>
     </g>
    </g>
    <g id="ytick_6">
     <g id="line2d_23">
      <path clip-path="url(#p835318348e)" d="M 57.6 69.117115 
L 414.72 69.117115 
" style="fill:none;stroke:#b0b0b0;stroke-linecap:square;stroke-width:0.8;"/>
     </g>
     <g id="line2d_24">
      <g>
       <use style="stroke:#000000;stroke-width:0.8;" x="57.6" xlink:href="#mbdfa5e652e" y="69.117115"/>
      </g>
     </g>
     <g id="text_12">
      <!-- 0.010 -->
      <g transform="translate(21.971875 72.916334)scale(0.1 -0.1)">
       <use xlink:href="#DejaVuSans-30"/>
       <use x="63.623047" xlink:href="#DejaVuSans-2e"/>
       <use x="95.410156" xlink:href="#DejaVuSans-30"/>
       <use x="159.033203" xlink:href="#DejaVuSans-31"/>
       <use x="222.65625" xlink:href="#DejaVuSans-30"/>
      </g>
     </g>
    </g>
   </g>
   <g id="line2d_25">
    <path clip-path="url(#p835318348e)" d="M 73.832727 132.323259 
L 74.129366 117.127533 
L 74.327125 106.929736 
L 74.393045 105.314244 
L 74.590804 97.186297 
L 74.887443 87.089469 
L 74.920402 87.493342 
L 74.953362 86.786564 
L 75.118162 76.639252 
L 75.184081 77.194578 
L 75.282961 75.074244 
L 75.315921 75.528601 
L 75.612559 69.470504 
L 75.810318 65.684194 
L 75.843278 65.785162 
L 76.073997 62.200788 
L 76.106957 62.09982 
L 76.139917 62.705629 
L 76.172877 61.948367 
L 76.469515 57.051406 
L 76.634315 59.17174 
L 76.667275 59.373676 
L 76.700234 59.121255 
L 76.733194 59.121255 
L 76.930953 55.133008 
L 76.963913 56.142691 
L 76.996873 57.202858 
L 77.095753 56.950437 
L 77.128713 57.152374 
L 77.227592 55.082524 
L 77.260552 55.486397 
L 77.359431 58.56593 
L 77.425351 57.859152 
L 77.557191 56.546564 
L 77.62311 57.303826 
L 77.65607 57.859152 
L 77.68903 57.556247 
L 77.853829 54.628167 
L 77.886789 54.577683 
L 77.919749 53.568 
L 77.952709 55.233977 
L 78.051588 55.03204 
L 78.117508 56.243659 
L 78.150468 55.63785 
L 78.183428 56.294144 
L 78.249347 58.868835 
L 78.315267 57.909636 
L 78.381187 56.748501 
L 78.414147 56.899953 
L 78.545986 59.979486 
L 78.578946 59.020287 
L 78.611906 58.010604 
L 78.644866 58.616414 
L 78.743745 60.484327 
L 78.776705 60.332875 
L 78.809665 59.828033 
L 78.842625 60.736748 
L 79.139263 69.924861 
L 79.798461 85.171072 
L 79.83142 85.070104 
L 79.86438 84.161389 
L 79.89734 84.716715 
L 80.226939 97.994043 
L 80.259898 97.691139 
L 80.292858 98.397917 
L 80.325818 98.347432 
L 80.556537 105.061823 
L 80.589497 104.405529 
L 80.820216 112.987833 
L 81.248694 129.243726 
L 84.34692 252.92987 
L 84.511719 256.968601 
L 84.676519 263.329603 
L 85.104997 274.991439 
L 85.137957 274.739018 
L 85.170916 274.991439 
L 85.236836 276.354511 
L 85.434595 283.371806 
L 85.500515 284.532942 
L 85.665314 286.552307 
L 85.961953 288.1678 
L 86.126752 291.701689 
L 86.159712 291.09588 
L 86.225632 291.853142 
L 86.258592 292.055078 
L 86.357471 290.389102 
L 86.390431 291.398785 
L 86.58819 295.488 
L 86.752989 293.41815 
L 86.818909 294.427833 
L 86.884829 294.377349 
L 86.983708 293.41815 
L 87.049628 294.62977 
L 87.082588 293.317182 
L 87.115548 294.326865 
L 87.148508 294.175412 
L 87.247387 291.651205 
L 87.280347 293.064761 
L 87.313307 293.16573 
L 87.412186 294.326865 
L 87.576986 292.55992 
L 87.708825 294.680254 
L 87.807705 294.478317 
L 87.939544 292.257015 
L 87.972504 293.216214 
L 88.005464 293.216214 
L 88.137303 289.985229 
L 88.170263 290.136681 
L 88.368022 283.321322 
L 88.433942 283.725195 
L 88.466902 283.523259 
L 88.499862 283.573743 
L 88.532821 283.826164 
L 88.994259 274.63805 
L 89.060179 274.890471 
L 89.192018 272.366264 
L 89.224978 272.921589 
L 89.257938 273.17401 
L 89.290898 273.073042 
L 89.422737 271.356581 
L 89.653456 264.187833 
L 90.114894 254.797783 
L 91.07073 227.485863 
L 91.10369 227.334411 
L 91.400329 217.439519 
L 91.499208 215.117249 
L 91.828807 205.272841 
L 91.861766 205.575746 
L 91.894726 205.828167 
L 92.553923 175.38623 
L 95.256631 103.900688 
L 95.289591 104.102624 
L 95.421431 99.861957 
L 95.45439 99.003726 
L 95.48735 99.66002 
L 95.52031 100.669703 
L 95.55327 100.164861 
L 95.65215 97.388234 
L 95.685109 97.640654 
L 95.849909 95.520321 
L 95.882868 95.469836 
L 96.047668 91.077716 
L 96.080628 91.582558 
L 96.113587 91.683526 
L 96.146547 92.996114 
L 96.212467 92.491272 
L 96.344306 89.361255 
L 96.542066 84.969135 
L 96.575025 85.776881 
L 96.607985 85.019619 
L 96.640945 84.66623 
L 96.838704 78.860554 
L 96.937584 77.598451 
L 96.970544 78.002324 
L 97.069423 78.557649 
L 97.102383 78.456681 
L 97.135343 78.81007 
L 97.201263 76.790705 
L 97.267182 77.648935 
L 97.300142 77.699419 
L 97.399022 78.557649 
L 97.431982 77.295546 
L 97.464941 77.598451 
L 97.563821 79.920721 
L 97.596781 78.961523 
L 97.629741 78.911038 
L 97.72862 77.34603 
L 97.76158 78.002324 
L 97.86046 74.115045 
L 97.926379 75.579085 
L 97.959339 76.588768 
L 97.992299 76.235379 
L 98.124138 73.862624 
L 98.157098 74.720855 
L 98.190058 74.670371 
L 98.321898 72.449068 
L 98.387817 72.651005 
L 98.519657 69.369536 
L 98.585576 69.722925 
L 98.651496 70.581155 
L 98.717416 70.328735 
L 98.750376 69.218083 
L 98.783335 70.631639 
L 98.816295 70.783092 
L 98.915175 72.095679 
L 98.948135 71.74229 
L 99.047014 69.268568 
L 99.079974 70.27825 
L 99.244773 71.792775 
L 99.277733 71.439386 
L 99.310693 71.843259 
L 99.343653 72.398584 
L 99.376613 71.540354 
L 99.409573 72.045195 
L 99.442533 71.590838 
L 99.772131 80.375078 
L 99.805091 78.608134 
L 99.871011 80.173142 
L 99.90397 79.718785 
L 99.93693 80.223626 
L 99.96989 80.223626 
L 100.332449 89.007866 
L 100.398368 88.553509 
L 100.464288 87.745763 
L 100.497248 88.048668 
L 100.727967 95.065963 
L 100.760927 94.864027 
L 100.793886 94.914511 
L 100.925726 96.530003 
L 101.123485 101.679386 
L 101.156445 101.628902 
L 102.804437 165.945696 
L 102.870357 168.116514 
L 102.969237 173.164928 
L 104.353551 223.951973 
L 105.144587 249.547432 
L 105.177547 249.446464 
L 105.210507 249.345496 
L 105.540105 261.158785 
L 105.573065 260.704427 
L 106.298182 269.034311 
L 106.397061 267.065429 
L 106.430021 268.327533 
L 106.495941 266.762524 
L 106.75962 270.195446 
L 106.79258 269.690604 
L 106.825539 269.236247 
L 106.858499 270.902224 
L 106.924419 269.539152 
L 106.957379 268.579953 
L 106.990339 269.791573 
L 107.023299 269.589636 
L 107.056258 269.286731 
L 107.089218 270.397382 
L 107.122178 269.337215 
L 107.155138 268.78189 
L 107.254018 268.933342 
L 107.352897 267.216881 
L 107.418817 267.267366 
L 107.451777 265.85381 
L 107.550656 265.954778 
L 107.616576 265.248 
L 107.649536 266.207199 
L 107.715455 265.197516 
L 107.781375 264.995579 
L 107.880255 265.904294 
L 107.946174 265.550905 
L 107.979134 265.954778 
L 108.045054 267.469302 
L 108.078014 266.409135 
L 108.176893 265.752841 
L 108.275773 268.024628 
L 108.308733 266.560588 
L 108.374653 264.743159 
L 108.407612 264.844127 
L 108.440572 265.904294 
L 108.473532 264.995579 
L 108.572412 263.380087 
L 108.605371 263.834444 
L 108.638331 264.591706 
L 108.671291 263.78396 
L 108.86905 260.704427 
L 108.90201 260.956848 
L 108.93497 261.057816 
L 109.132729 257.776347 
L 109.165689 257.826831 
L 109.231609 256.817149 
L 109.264569 257.422958 
L 109.297528 257.877316 
L 109.330488 257.624895 
L 109.462328 254.545362 
L 109.956725 241.671907 
L 110.154485 238.037048 
L 110.187444 238.491406 
L 110.220404 237.532207 
L 110.286324 237.380755 
L 110.385204 234.957516 
L 110.648882 226.981022 
L 110.681842 227.94022 
L 110.714802 226.47618 
L 110.747762 226.274244 
L 110.780722 226.526664 
L 111.011441 218.499686 
L 111.07736 219.963726 
L 111.14328 218.853075 
L 111.17624 219.206464 
L 111.538798 210.523192 
L 111.571758 210.725129 
L 111.802477 201.032174 
L 111.835437 201.991372 
L 111.901357 200.779753 
L 112.099116 195.226497 
L 112.230955 192.500354 
L 112.494634 183.91805 
L 112.560554 183.968534 
L 112.791273 178.263826 
L 113.021992 170.337816 
L 113.054952 170.337816 
L 113.186791 168.116514 
L 113.38455 161.099219 
L 113.41751 161.149703 
L 113.549349 159.029369 
L 113.747108 153.577082 
L 113.780068 154.081923 
L 113.813028 152.971272 
L 114.010787 148.983025 
L 114.043747 149.083993 
L 114.175587 145.398651 
L 114.340386 139.492007 
L 114.373346 140.047332 
L 114.702944 133.282457 
L 114.966623 129.597115 
L 115.032543 129.90002 
L 115.098462 130.859219 
L 115.131422 130.202925 
L 115.7247 118.389636 
L 115.757659 119.197382 
L 115.823579 118.541088 
L 115.955419 117.278985 
L 116.120218 111.372341 
L 116.153178 111.826698 
L 116.186138 112.180087 
L 116.252057 110.968467 
L 116.317977 111.271372 
L 116.581656 108.797649 
L 116.614616 110.059753 
L 116.713495 109.908301 
L 116.944214 106.677316 
L 117.010134 106.7278 
L 117.141973 107.384093 
L 117.174933 107.384093 
L 117.240853 108.343292 
L 117.273813 106.626831 
L 117.339732 107.030705 
L 117.405652 106.778284 
L 117.438612 107.888935 
L 117.636371 103.597783 
L 117.669331 104.153109 
L 117.702291 103.850204 
L 117.90005 101.325997 
L 117.998929 100.467766 
L 118.130769 97.792107 
L 118.262608 98.700821 
L 118.394448 95.924194 
L 118.427407 96.580487 
L 118.493327 95.722257 
L 118.526287 95.520321 
L 118.559247 95.87371 
L 118.625167 91.986431 
L 118.691086 92.188367 
L 118.888845 89.967065 
L 118.954765 91.380621 
L 118.987725 90.471907 
L 119.053645 89.916581 
L 119.086605 90.26997 
L 119.251404 91.834978 
L 119.284364 91.481589 
L 119.317323 91.834978 
L 119.449163 93.904828 
L 119.482123 94.157249 
L 119.515083 92.996114 
L 119.581002 94.005796 
L 119.844681 92.59224 
L 119.910601 94.359185 
L 119.976521 93.097082 
L 120.0754 90.926264 
L 120.10836 91.279653 
L 120.14132 91.380621 
L 120.17428 90.623359 
L 120.20724 92.390304 
L 120.339079 94.207733 
L 120.372039 93.854344 
L 120.668677 101.325997 
L 120.701637 101.376481 
L 120.767557 100.467766 
L 120.866437 100.770671 
L 120.932356 101.225028 
L 121.261955 109.302491 
L 121.327874 108.242324 
L 121.360834 108.696681 
L 121.657473 111.776214 
L 121.987072 119.247866 
L 122.085951 118.541088 
L 122.34963 126.012741 
L 122.38259 125.305963 
L 122.41555 126.164194 
L 122.448509 126.467098 
L 122.613309 132.8281 
L 122.942907 141.258952 
L 123.140666 150.396581 
L 123.239546 153.829503 
L 123.338425 155.949836 
L 123.371385 154.940154 
L 123.437305 157.161456 
L 124.228341 187.199519 
L 124.261301 186.088868 
L 124.294261 185.180154 
L 124.327221 186.644194 
L 124.52498 197.397316 
L 125.118257 216.985162 
L 125.151217 216.631773 
L 125.414896 221.427766 
L 125.447856 222.639386 
L 125.513776 221.074377 
L 125.810414 229.707165 
L 125.975214 232.887666 
L 126.041133 232.281856 
L 126.074093 232.93815 
L 126.238892 237.07785 
L 126.403692 244.448534 
L 126.436652 243.640788 
L 126.469611 244.549503 
L 126.73329 249.042591 
L 126.86513 253.7881 
L 126.89809 253.636648 
L 126.931049 252.727933 
L 126.964009 253.990037 
L 127.359527 261.562658 
L 127.392487 262.420888 
L 127.425447 259.64426 
L 127.491367 260.351038 
L 127.755046 265.803326 
L 127.788006 266.308167 
L 127.820965 265.197516 
L 127.853925 265.248 
L 127.886885 266.308167 
L 127.952805 265.248 
L 128.051684 264.086865 
L 128.117604 264.591706 
L 128.150564 264.591706 
L 128.315363 266.611072 
L 128.216484 264.339285 
L 128.348323 266.10623 
L 128.447203 264.793643 
L 128.579042 267.721723 
L 128.612002 267.469302 
L 128.809761 269.387699 
L 128.842721 268.983826 
L 128.875681 269.034311 
L 129.00752 267.671239 
L 129.07344 268.378017 
L 129.1064 268.17608 
L 129.172319 267.418818 
L 129.238239 268.983826 
L 129.271199 268.832374 
L 129.370078 265.046063 
L 129.403038 265.904294 
L 129.534878 263.632508 
L 129.600797 264.288801 
L 129.699677 263.682992 
L 129.732637 261.815078 
L 129.798557 262.420888 
L 129.864476 262.269436 
L 129.897436 263.127666 
L 130.062235 259.240387 
L 130.095195 260.048134 
L 130.128155 260.098618 
L 130.227035 263.380087 
L 130.325914 262.572341 
L 130.424794 260.754912 
L 130.457754 261.360721 
L 130.490713 261.613142 
L 130.523673 261.562658 
L 130.655513 258.079252 
L 130.688473 258.079252 
L 130.820312 254.444394 
L 130.853272 254.747299 
L 130.919192 256.261823 
L 130.952151 255.555045 
L 132.402385 219.15598 
L 132.567184 214.359987 
L 132.699024 209.76593 
L 132.731983 209.816414 
L 132.797903 208.049469 
L 133.621899 182.605462 
L 133.918538 171.801856 
L 134.116297 165.440855 
L 134.347016 158.524528 
L 134.973253 143.227833 
L 135.006213 143.833643 
L 135.171012 137.876514 
L 135.203972 138.734745 
L 135.368772 137.22022 
L 135.401731 137.523125 
L 135.533571 135.453275 
L 135.863169 127.123392 
L 136.093888 118.541088 
L 136.192768 117.127533 
L 136.225728 118.036247 
L 136.258688 118.086731 
L 136.324607 117.632374 
L 136.357567 118.389636 
L 136.423487 117.430437 
L 136.555326 117.178017 
L 136.687166 113.644127 
L 136.720126 113.846063 
L 136.753085 114.502357 
L 136.917885 110.059753 
L 136.950844 110.312174 
L 137.181563 105.819085 
L 137.214523 105.718117 
L 137.313403 105.617149 
L 137.379323 108.141356 
L 137.774841 104.304561 
L 137.807801 104.708434 
L 137.87372 105.617149 
L 137.90668 105.415212 
L 138.03852 101.578417 
L 138.104439 102.5881 
L 138.137399 102.840521 
L 138.302198 100.51825 
L 138.203319 102.941489 
L 138.335158 100.619219 
L 138.466998 101.931806 
L 138.499958 101.527933 
L 138.664757 103.698751 
L 138.697717 103.345362 
L 138.730677 103.395846 
L 138.763636 104.254077 
L 138.829556 103.749235 
L 138.928436 102.487132 
L 138.961395 103.900688 
L 139.027315 102.335679 
L 139.093235 103.79972 
L 139.192114 103.092942 
L 139.422833 101.275513 
L 139.554673 104.102624 
L 139.653552 100.972608 
L 139.686512 101.830838 
L 139.719472 101.780354 
L 139.851311 99.912441 
L 139.884271 100.013409 
L 139.950191 99.66002 
L 139.983151 100.417282 
L 140.08203 96.328067 
L 140.11499 98.347432 
L 140.312749 96.328067 
L 140.345709 96.378551 
L 140.477549 98.19598 
L 140.576428 96.277583 
L 140.609388 97.438718 
L 140.642348 97.59017 
L 140.675308 96.883392 
L 140.708268 98.044528 
L 140.971946 105.667633 
L 141.004906 105.26376 
L 141.037866 104.65795 
L 141.103786 105.26376 
L 141.301545 107.131673 
L 141.334505 105.819085 
L 141.433384 106.222958 
L 141.499304 105.26376 
L 141.532264 106.273442 
L 141.598184 105.566664 
L 141.861862 110.968467 
L 141.960742 111.624761 
L 142.125541 115.158651 
L 142.224421 113.745095 
L 142.38922 115.966397 
L 142.42218 114.90623 
L 142.45514 115.562524 
L 142.619939 118.591573 
L 142.652899 118.187699 
L 142.685859 118.44012 
L 142.817698 122.630304 
L 142.850658 122.327399 
L 142.916578 122.529336 
L 143.246176 131.515513 
L 143.312096 131.465028 
L 143.773534 142.066698 
L 144.004253 148.175279 
L 144.037213 147.973342 
L 144.267932 156.505162 
L 144.432731 160.99825 
L 144.498651 160.190504 
L 145.421527 189.572274 
L 145.454486 189.622758 
L 145.751125 196.23618 
L 145.817045 198.053609 
L 146.278483 210.018351 
L 146.8388 225.113109 
L 146.90472 227.6878 
L 146.93768 226.577149 
L 147.003599 225.920855 
L 147.036559 226.577149 
L 147.300238 232.433309 
L 147.432078 230.666364 
L 147.629837 234.705095 
L 147.761676 236.673977 
L 147.893515 241.116581 
L 147.926475 239.753509 
L 147.959435 239.349636 
L 147.992395 240.056414 
L 148.124234 240.510771 
L 148.157194 240.460287 
L 148.190154 240.056414 
L 148.223114 240.510771 
L 148.354953 242.025295 
L 148.519753 245.710638 
L 148.651592 246.518384 
L 148.684552 246.669836 
L 148.816391 245.761122 
L 148.981191 248.184361 
L 149.01415 248.133876 
L 149.21191 246.4679 
L 149.607428 251.162925 
L 149.640388 250.304694 
L 149.673347 251.162925 
L 149.772227 252.828902 
L 149.805187 252.626965 
L 149.871107 252.727933 
L 149.904066 251.869703 
L 150.035906 253.939553 
L 150.068866 253.586164 
L 150.134785 252.374544 
L 150.167745 253.687132 
L 150.233665 252.92987 
L 150.299585 252.980354 
L 150.365504 251.566798 
L 150.464384 253.131806 
L 150.497344 251.819219 
L 150.563263 252.879386 
L 150.596223 253.737616 
L 150.662143 253.384227 
L 150.793982 250.456147 
L 150.826942 250.86002 
L 150.859902 250.86002 
L 150.892862 250.25421 
L 150.925822 251.011472 
L 150.958782 251.213409 
L 151.090621 249.143559 
L 151.222461 251.415346 
L 151.28838 249.547432 
L 151.45318 245.407733 
L 151.486139 245.205796 
L 151.815738 236.976881 
L 151.914617 237.683659 
L 152.178296 232.433309 
L 152.211256 232.988634 
L 152.244216 232.231372 
L 152.343096 232.281856 
L 152.376055 229.757649 
L 152.409015 228.848935 
L 152.441975 229.555713 
L 152.474935 230.464427 
L 152.507895 229.909102 
L 152.705654 225.214077 
L 152.771574 223.851005 
L 152.969333 219.458885 
L 153.101172 218.247265 
L 153.134132 219.509369 
L 153.167092 218.701623 
L 153.331891 213.55224 
L 153.364851 214.057082 
L 153.397811 212.895947 
L 153.430771 212.845462 
L 153.62853 205.676715 
L 153.925168 200.678785 
L 154.057008 197.548768 
L 154.089968 198.205062 
L 154.155887 198.507967 
L 154.716205 184.77628 
L 154.749165 184.826765 
L 155.639081 157.918718 
L 155.80388 156.151773 
L 155.83684 158.776948 
L 155.90276 157.413876 
L 155.935719 157.464361 
L 156.298278 149.184962 
L 156.331238 149.639319 
L 156.858595 142.622023 
L 156.397157 149.841255 
L 156.924515 142.722992 
L 156.957475 143.833643 
L 157.023395 142.82396 
L 157.122274 140.703626 
L 157.287073 135.958117 
L 157.320033 139.391038 
L 157.385953 136.917316 
L 157.715551 130.253409 
L 157.748511 131.868902 
L 157.814431 130.909703 
L 157.847391 130.808735 
L 157.913311 130.859219 
L 158.11107 125.760321 
L 158.14403 126.568067 
L 158.176989 125.406932 
L 158.638427 118.187699 
L 158.704347 118.793509 
L 158.737307 118.692541 
L 158.803227 117.935279 
L 158.836186 118.944962 
L 158.902106 118.44012 
L 158.968026 118.591573 
L 159.000986 117.480922 
L 159.231705 112.634444 
L 159.264665 112.432508 
L 159.396504 108.646197 
L 159.495383 109.605396 
L 159.528343 109.151038 
L 159.759062 106.12199 
L 159.890902 108.646197 
L 159.989781 110.716047 
L 160.022741 110.059753 
L 160.18754 108.797649 
L 160.28642 110.463626 
L 160.35234 108.545229 
L 160.418259 108.646197 
L 160.484179 109.100554 
L 160.517139 108.747165 
L 160.681938 107.182157 
L 160.747858 107.686998 
L 160.879697 104.556982 
L 160.945617 104.05214 
L 161.044497 106.525863 
L 161.110416 106.021022 
L 161.176336 105.51618 
L 161.209296 104.65795 
L 161.242256 105.566664 
L 161.472975 109.252007 
L 161.538894 109.403459 
L 161.670734 110.665563 
L 161.703694 109.756848 
L 161.736653 109.857816 
L 161.868493 111.372341 
L 161.967372 109.807332 
L 162.000332 110.564594 
L 162.066252 111.675245 
L 162.099212 110.766531 
L 162.132172 110.817015 
L 162.329931 112.987833 
L 162.42881 107.838451 
L 162.46177 108.44426 
L 162.56065 110.463626 
L 162.659529 110.564594 
L 162.692489 108.494745 
L 162.923208 112.129603 
L 162.989128 111.321856 
L 163.022088 111.776214 
L 163.318726 115.915913 
L 163.351686 115.663492 
L 163.582405 118.793509 
L 163.714245 117.58189 
L 163.780164 117.733342 
L 163.912004 115.209135 
L 163.944964 116.673175 
L 164.142723 121.317716 
L 164.340482 124.851606 
L 164.406401 125.406932 
L 164.439361 125.154511 
L 164.70304 130.50583 
L 164.736 130.101957 
L 164.900799 134.29214 
L 164.966719 135.604728 
L 164.999679 134.090204 
L 165.065599 134.645529 
L 165.362237 144.89381 
L 165.395197 144.792841 
L 165.428157 144.843326 
L 165.527036 147.367533 
L 165.592956 146.711239 
L 165.625916 146.761723 
L 165.790715 149.437382 
L 165.889595 152.971272 
L 165.955515 152.365462 
L 165.988474 152.163526 
L 166.219193 158.272107 
L 166.285113 157.666297 
L 166.581752 167.46022 
L 166.614712 167.005863 
L 166.647671 167.510705 
L 166.680631 167.712641 
L 167.603507 199.618618 
L 167.768306 204.969937 
L 167.801266 204.515579 
L 167.834226 205.272841 
L 167.867186 205.020421 
L 168.097905 210.37174 
L 168.130865 208.402858 
L 168.163825 209.412541 
L 168.295664 213.905629 
L 168.328624 213.451272 
L 168.526383 217.944361 
L 169.053741 229.858618 
L 169.086701 229.757649 
L 169.15262 231.171205 
L 169.449259 235.310905 
L 169.482219 235.209937 
L 169.515179 235.411873 
L 169.614058 236.623492 
L 169.647018 236.270104 
L 169.712938 234.503159 
L 169.745898 235.260421 
L 169.778857 235.86623 
L 169.811817 235.310905 
L 169.844777 234.503159 
L 169.877737 235.361389 
L 170.042536 239.349636 
L 170.075496 238.592374 
L 170.108456 238.440922 
L 170.141416 239.248668 
L 170.174376 237.33027 
L 170.240295 237.835112 
L 170.372135 239.955446 
L 170.405095 238.945763 
L 170.438054 240.157382 
L 170.536934 242.580621 
L 170.635814 243.590304 
L 170.668773 243.438851 
L 170.701733 243.691272 
L 170.734693 243.489336 
L 170.800613 241.46997 
L 170.833573 243.085462 
L 171.097251 249.042591 
L 171.130211 248.891139 
L 171.262051 245.761122 
L 171.295011 245.963058 
L 171.42685 246.922257 
L 171.591649 243.53982 
L 171.624609 245.00386 
L 171.690529 244.347566 
L 171.789408 244.39805 
L 171.888288 242.479653 
L 171.954208 239.803993 
L 172.020127 240.460287 
L 172.053087 240.409803 
L 172.119007 239.198184 
L 172.151967 239.854477 
L 172.316766 242.025295 
L 172.448605 239.602057 
L 172.481565 239.602057 
L 172.514525 239.904962 
L 172.547485 239.248668 
L 172.712284 236.371072 
L 172.745244 236.320588 
L 172.943003 239.248668 
L 173.041883 236.875913 
L 173.107802 238.794311 
L 173.173722 238.238985 
L 173.338521 235.058484 
L 173.371481 235.61381 
L 173.437401 235.361389 
L 173.470361 233.897349 
L 173.536281 234.604127 
L 173.56924 235.361389 
L 173.6022 234.40219 
L 173.63516 234.604127 
L 173.898839 228.445062 
L 173.931799 228.394578 
L 173.964759 228.848935 
L 173.997719 228.344093 
L 174.195478 226.526664 
L 174.228437 227.435379 
L 174.261397 225.971339 
L 174.590996 220.468568 
L 174.656916 222.08406 
L 174.689875 221.22583 
L 175.019474 215.975479 
L 175.052434 217.69194 
L 175.118353 217.389035 
L 175.283153 215.319185 
L 175.349072 216.2279 
L 175.382032 215.874511 
L 175.546832 212.996915 
L 175.579791 213.198851 
L 175.612751 213.198851 
L 175.645711 213.400788 
L 176.074189 197.346831 
L 176.140109 197.144895 
L 176.173069 197.498284 
L 176.206029 196.993442 
L 176.370828 192.803259 
L 177.524423 169.429102 
L 177.557383 169.479586 
L 177.590342 169.126197 
L 177.788102 163.825362 
L 177.821061 163.825362 
L 178.08474 157.464361 
L 178.1177 157.767265 
L 178.15066 158.877917 
L 178.18362 157.615813 
L 178.21658 157.81775 
L 178.249539 158.423559 
L 178.282499 157.868234 
L 178.546178 152.920788 
L 178.579138 153.07224 
L 178.612098 153.879987 
L 178.678018 152.920788 
L 178.710977 153.779018 
L 178.809857 150.951907 
L 178.842817 151.759653 
L 179.007616 148.579152 
L 179.172415 144.641389 
L 179.238335 144.086063 
L 179.370174 146.408334 
L 179.633853 140.198785 
L 179.666813 141.057015 
L 179.732733 140.451205 
L 180.589689 117.430437 
L 180.622649 118.086731 
L 180.655609 117.077048 
L 180.853368 113.644127 
L 181.018167 115.814945 
L 181.084087 115.966397 
L 181.479605 110.211205 
L 181.150006 116.067366 
L 181.611444 110.817015 
L 181.743284 113.391706 
L 181.842163 110.261689 
L 181.941043 110.362658 
L 181.974003 112.684928 
L 182.039922 111.11992 
L 182.072882 110.413142 
L 182.105842 111.018952 
L 182.138802 111.72573 
L 182.171762 110.716047 
L 182.336561 107.485062 
L 182.435441 108.494745 
L 182.468401 108.292808 
L 182.53432 107.030705 
L 182.56728 107.939419 
L 182.60024 108.19184 
L 182.66616 107.939419 
L 182.69912 104.960855 
L 182.765039 105.566664 
L 182.896879 106.98022 
L 182.929838 106.576347 
L 182.962798 107.232641 
L 183.028718 108.393776 
L 183.061678 107.989903 
L 183.127598 106.475379 
L 183.193517 106.525863 
L 183.226477 106.576347 
L 183.259437 107.081189 
L 183.325357 107.030705 
L 183.490156 104.607466 
L 183.654955 103.345362 
L 183.753835 105.667633 
L 183.786795 104.607466 
L 183.819754 104.001656 
L 183.852714 104.708434 
L 183.885674 104.607466 
L 183.918634 104.960855 
L 183.951594 103.698751 
L 184.017514 104.456013 
L 184.116393 106.475379 
L 184.182313 105.819085 
L 184.215273 105.26376 
L 184.281192 105.970538 
L 184.314152 105.718117 
L 184.511911 109.958785 
L 184.577831 109.504427 
L 184.676711 108.090871 
L 184.709671 108.898618 
L 184.80855 108.848134 
L 184.87447 107.737482 
L 184.940389 108.19184 
L 185.006309 107.686998 
L 185.566627 121.97401 
L 185.797346 128.991306 
L 185.830305 128.738885 
L 185.962145 130.354377 
L 185.995105 129.748568 
L 186.028065 129.849536 
L 186.555422 144.086063 
L 186.687262 145.045262 
L 186.852061 148.882057 
L 186.885021 149.033509 
L 186.917981 148.074311 
L 186.9839 148.932541 
L 187.280539 155.444995 
L 187.939736 174.275579 
L 188.038616 175.38623 
L 188.104535 177.809469 
L 188.170455 177.304628 
L 188.203415 177.506564 
L 188.598933 192.651806 
L 188.730772 195.781823 
L 188.961491 202.496214 
L 189.027411 202.950571 
L 189.060371 202.496214 
L 189.093331 202.395245 
L 189.159251 204.768 
L 189.22517 204.212674 
L 189.422929 206.938818 
L 189.455889 206.938818 
L 189.488849 207.241723 
L 189.884367 219.76179 
L 190.082126 222.487933 
L 190.115086 221.47825 
L 190.148046 223.295679 
L 190.411725 230.060554 
L 190.444685 229.15184 
L 190.543564 227.233442 
L 190.642444 228.192641 
L 190.675404 228.54603 
L 190.708364 228.243125 
L 190.741323 227.990705 
L 190.939083 232.887666 
L 190.972042 232.837182 
L 191.037962 232.332341 
L 191.169802 235.61381 
L 191.202761 234.755579 
L 191.235721 234.755579 
L 191.268681 234.452674 
L 191.334601 236.068167 
L 191.400521 235.916715 
L 191.43348 235.967199 
L 191.63124 237.734144 
L 191.664199 237.784628 
L 191.894918 241.570938 
L 191.927878 240.914644 
L 192.224517 246.366932 
L 192.323396 246.316447 
L 192.356356 244.095145 
L 192.422276 245.508701 
L 192.751874 242.580621 
L 192.916674 244.499018 
L 193.147393 246.922257 
L 193.279232 246.619352 
L 193.411072 244.549503 
L 193.509951 244.902891 
L 193.64179 243.186431 
L 193.74067 244.801923 
L 193.80659 244.700955 
L 193.872509 241.621422 
L 193.905469 243.388367 
L 194.037309 245.710638 
L 193.971389 243.337883 
L 194.136188 245.660154 
L 194.333947 242.126264 
L 194.465787 243.388367 
L 194.927225 238.339953 
L 195.059064 241.116581 
L 195.157944 240.561255 
L 195.355703 235.058484 
L 195.388663 236.270104 
L 195.454582 235.86623 
L 195.586422 234.856548 
L 195.619382 234.957516 
L 196.113779 225.567466 
L 196.179699 225.819886 
L 196.212659 226.375212 
L 196.410418 222.336481 
L 196.674097 216.025963 
L 196.772976 216.126932 
L 196.805936 215.924995 
L 197.003695 213.047399 
L 197.069615 213.097883 
L 197.267374 208.554311 
L 197.300334 210.775613 
L 197.366254 209.967866 
L 197.564013 205.727199 
L 197.596973 206.282524 
L 197.629933 205.171873 
L 198.12433 194.368267 
L 198.28913 190.228568 
L 198.32209 190.581957 
L 198.618728 183.110304 
L 198.816487 181.292875 
L 198.981287 175.537683 
L 199.014246 175.790104 
L 199.047206 175.689135 
L 199.310885 170.842658 
L 199.343845 171.044594 
L 199.508644 165.390371 
L 199.541604 165.895212 
L 199.640484 164.077783 
L 199.838243 160.947766 
L 199.871203 161.351639 
L 200.101922 150.850938 
L 200.134881 151.507232 
L 200.167841 151.406264 
L 200.3656 148.528668 
L 200.39856 148.781088 
L 200.43152 149.083993 
L 200.563359 148.023826 
L 200.629279 149.28593 
L 200.662239 148.225763 
L 200.892958 143.328801 
L 200.925918 142.722992 
L 200.958878 143.631706 
L 200.991838 143.732674 
L 201.123677 142.369603 
L 201.189597 142.521055 
L 201.222557 143.177349 
L 201.255516 142.420087 
L 201.288476 142.420087 
L 201.420316 138.835713 
L 201.453275 139.088134 
L 201.486235 139.088134 
L 201.552155 138.68426 
L 201.749914 134.140688 
L 201.782874 134.746497 
L 201.815834 134.03972 
L 201.881754 134.241656 
L 201.980633 133.030037 
L 202.013593 133.635846 
L 202.079513 131.313576 
L 202.145432 132.626164 
L 202.211352 131.162124 
L 202.343192 126.921456 
L 202.376151 127.022424 
L 202.540951 122.933209 
L 202.60687 124.245796 
L 202.77167 119.853676 
L 202.903509 118.793509 
L 202.837589 120.207065 
L 202.936469 119.197382 
L 203.134228 122.377883 
L 203.233108 122.529336 
L 203.331987 120.156581 
L 203.364947 120.106097 
L 203.595666 116.521723 
L 203.727505 117.58189 
L 203.760465 117.278985 
L 203.793425 117.935279 
L 203.859345 118.642057 
L 203.892305 118.137215 
L 204.057104 116.875112 
L 204.090064 118.389636 
L 204.155983 117.58189 
L 204.188943 117.783826 
L 204.353743 121.97401 
L 204.386702 121.923526 
L 204.518542 119.803192 
L 204.551502 120.005129 
L 204.584461 119.90416 
L 204.617421 120.156581 
L 204.683341 121.721589 
L 204.716301 120.409002 
L 204.749261 119.449803 
L 204.782221 120.661422 
L 204.81518 120.459486 
L 204.84814 121.317716 
L 204.8811 120.358518 
L 204.91406 119.449803 
L 204.94702 120.308033 
L 205.045899 122.074978 
L 205.078859 121.822558 
L 205.177739 122.529336 
L 205.342538 120.762391 
L 205.540297 118.541088 
L 205.573257 117.632374 
L 205.639177 118.339152 
L 205.869896 122.529336 
L 205.902856 122.428367 
L 205.968775 121.519653 
L 206.001735 121.822558 
L 206.133575 122.377883 
L 206.166534 121.97401 
L 206.199494 122.83224 
L 206.430213 127.224361 
L 206.463173 126.315646 
L 206.496133 126.820487 
L 206.627972 129.546631 
L 206.693892 130.101957 
L 206.726852 128.637917 
L 206.792772 129.597115 
L 206.891651 130.75825 
L 206.924611 130.657282 
L 207.08941 128.688401 
L 207.12237 128.738885 
L 207.18829 130.75825 
L 207.25421 130.051472 
L 207.287169 130.152441 
L 207.320129 129.395179 
L 207.353089 130.50583 
L 207.484928 133.282457 
L 207.517888 132.878584 
L 207.550848 132.979553 
L 207.781567 139.088134 
L 207.880447 140.804594 
L 207.913407 139.996848 
L 208.308925 146.155913 
L 208.539644 152.163526 
L 208.605563 151.456748 
L 208.638523 151.810137 
L 208.704443 153.627566 
L 208.803323 153.577082 
L 208.836282 153.476114 
L 209.099961 161.301155 
L 209.132921 160.897282 
L 209.165881 159.332274 
L 209.231801 160.99825 
L 209.42956 165.339886 
L 209.594359 168.92426 
L 209.627319 168.469903 
L 209.660279 169.53007 
L 209.890998 176.698818 
L 209.956917 178.011406 
L 210.187636 184.725796 
L 210.286516 185.684995 
L 210.912753 197.599252 
L 210.945713 197.498284 
L 211.110512 200.173943 
L 211.209392 199.669102 
L 211.242352 198.659419 
L 211.275311 199.921523 
L 211.374191 200.274912 
L 211.440111 202.294277 
L 211.473071 200.527332 
L 211.50603 200.476848 
L 211.736749 209.513509 
L 211.769709 209.109636 
L 211.835629 209.16012 
L 211.901549 210.62416 
L 212.099308 216.884194 
L 212.198187 219.004528 
L 212.593706 228.091673 
L 212.626665 227.182958 
L 212.692585 228.293609 
L 212.857384 230.111038 
L 212.923304 232.130404 
L 212.989224 231.47411 
L 213.022184 231.070237 
L 213.055144 232.332341 
L 213.088103 231.423626 
L 213.121063 229.202324 
L 213.219943 229.707165 
L 213.351782 231.070237 
L 213.516581 229.656681 
L 213.615461 231.978952 
L 213.681381 231.928467 
L 213.7473 232.93815 
L 213.81322 235.411873 
L 213.84618 234.856548 
L 214.010979 232.736214 
L 214.142819 236.623492 
L 214.208738 236.068167 
L 214.241698 235.967199 
L 214.373538 236.774945 
L 214.439457 235.361389 
L 214.505377 237.532207 
L 214.538337 236.421556 
L 214.571297 236.270104 
L 214.604257 236.926397 
L 214.637216 235.563326 
L 214.703136 236.118651 
L 214.736096 235.815746 
L 214.769056 235.664294 
L 214.900895 237.178818 
L 214.999775 235.108968 
L 215.032735 235.462357 
L 215.065695 234.301222 
L 215.098654 235.916715 
L 215.131614 234.806063 
L 215.197534 235.815746 
L 215.230494 235.714778 
L 215.296413 234.806063 
L 215.329373 235.411873 
L 215.362333 236.926397 
L 215.395293 235.108968 
L 215.428253 234.654611 
L 215.461213 235.108968 
L 215.560092 237.07785 
L 215.593052 236.522524 
L 215.691932 235.765262 
L 215.724892 236.169135 
L 215.790811 237.178818 
L 215.823771 236.673977 
L 215.856731 236.219619 
L 215.889691 237.33027 
L 215.98857 237.07785 
L 216.08745 238.743826 
L 216.05449 236.673977 
L 216.15337 237.633175 
L 216.219289 235.714778 
L 216.252249 234.604127 
L 216.318169 236.068167 
L 216.417048 236.724461 
L 216.450008 236.673977 
L 216.614808 233.342023 
L 216.647767 232.635245 
L 216.713687 232.93815 
L 216.812567 233.493476 
L 216.779607 232.786698 
L 216.845527 233.089603 
L 216.878486 232.382825 
L 216.911446 233.442992 
L 216.944406 233.089603 
L 216.977366 233.846865 
L 217.010326 232.68573 
L 217.076246 231.524594 
L 217.142165 232.433309 
L 217.175125 233.089603 
L 217.241045 232.635245 
L 217.274005 232.433309 
L 217.438804 228.394578 
L 217.471764 229.050871 
L 217.504724 227.889736 
L 217.537683 227.283927 
L 217.570643 227.788768 
L 217.603603 228.596514 
L 217.636563 227.738284 
L 217.768402 225.920855 
L 217.801362 226.880053 
L 217.834322 225.214077 
L 217.900242 223.144227 
L 217.966162 223.497616 
L 217.999121 223.346164 
L 218.032081 223.699553 
L 218.130961 225.61795 
L 218.19688 223.396648 
L 218.2628 224.658751 
L 218.29576 224.507299 
L 218.32872 224.860688 
L 218.36168 223.497616 
L 218.427599 224.305362 
L 218.460559 224.15391 
L 218.658318 219.004528 
L 218.691278 219.105496 
L 219.284556 206.181556 
L 219.317515 207.847533 
L 219.383435 207.140755 
L 219.482315 203.606865 
L 219.548234 204.313643 
L 219.581194 204.16219 
L 219.778953 200.628301 
L 219.811913 200.577816 
L 220.339271 189.976147 
L 220.53703 183.665629 
L 221.031428 171.902825 
L 221.064388 171.650404 
L 221.097347 172.155245 
L 221.130307 171.953309 
L 221.196227 172.609603 
L 221.426946 166.046664 
L 221.459906 166.400053 
L 221.492866 166.349569 
L 221.591745 164.734077 
L 221.624705 164.885529 
L 221.657665 164.481656 
L 221.690625 165.13795 
L 221.723585 165.087466 
L 221.921344 156.60613 
L 221.954304 157.969202 
L 222.086143 155.091606 
L 222.185023 152.617883 
L 222.250942 152.971272 
L 222.283902 154.233376 
L 222.349822 153.07224 
L 222.74534 146.105429 
L 222.81126 148.225763 
L 222.84422 148.629636 
L 222.87718 147.973342 
L 222.910139 147.872374 
L 222.976059 148.427699 
L 223.009019 147.973342 
L 223.173818 145.600588 
L 223.338617 143.833643 
L 223.371577 144.691873 
L 223.437497 143.732674 
L 223.470457 144.489937 
L 223.503417 144.439452 
L 223.536377 144.590905 
L 223.569336 144.944294 
L 223.602296 144.489937 
L 223.734136 140.703626 
L 223.767096 142.066698 
L 223.800055 141.814277 
L 223.898935 142.975412 
L 223.931895 142.773476 
L 223.997814 143.227833 
L 224.063734 143.025896 
L 224.129654 142.571539 
L 224.327413 138.027967 
L 224.360373 137.775546 
L 224.426293 139.340554 
L 224.459252 138.835713 
L 224.492212 138.128935 
L 224.558132 138.936681 
L 224.722931 135.75618 
L 224.788851 133.938751 
L 224.854771 134.494077 
L 224.887731 135.049402 
L 224.92069 134.494077 
L 224.95365 134.191172 
L 225.01957 135.958117 
L 225.05253 135.301823 
L 225.118449 134.29214 
L 225.184369 134.89795 
L 225.250289 134.998918 
L 225.283249 135.251339 
L 225.316209 136.816347 
L 225.382128 136.160053 
L 225.513968 133.080521 
L 225.546928 133.383426 
L 225.579887 132.323259 
L 225.645807 133.736815 
L 225.711727 133.938751 
L 225.777647 132.373743 
L 225.810606 133.231973 
L 225.876526 134.191172 
L 225.942446 135.099886 
L 225.975406 134.494077 
L 226.074285 133.585362 
L 226.107245 134.89795 
L 226.173165 134.191172 
L 226.305004 132.979553 
L 226.337964 134.645529 
L 226.403884 134.241656 
L 226.667563 130.152441 
L 226.865322 134.645529 
L 226.997161 133.231973 
L 227.129 135.453275 
L 227.26084 131.515513 
L 227.2938 132.272775 
L 227.359719 131.465028 
L 227.392679 129.799052 
L 227.458599 130.707766 
L 227.491559 130.859219 
L 227.656358 128.183559 
L 227.689318 128.43598 
L 227.887077 124.447733 
L 227.952997 124.346765 
L 228.018916 126.11371 
L 228.051876 124.397249 
L 228.084836 124.851606 
L 228.117796 124.094344 
L 228.150756 124.29628 
L 228.315555 122.882725 
L 228.348515 123.488534 
L 228.381475 124.447733 
L 228.447395 124.245796 
L 228.546274 123.135145 
L 228.579234 123.589503 
L 228.875873 129.344694 
L 228.908832 128.486464 
L 229.007712 126.870972 
L 229.040672 127.375813 
L 229.139551 129.193242 
L 229.172511 128.890337 
L 229.337311 125.709836 
L 229.40323 127.476781 
L 229.43619 126.921456 
L 229.53507 125.356447 
L 229.56803 126.214678 
L 229.897628 133.686331 
L 229.996508 133.332942 
L 230.128347 132.171806 
L 230.260186 134.696013 
L 230.457946 140.451205 
L 230.490905 139.441523 
L 230.556825 139.946364 
L 230.820504 142.167666 
L 230.853464 141.561856 
L 230.919383 142.319119 
L 230.952343 142.117182 
L 231.216022 146.408334 
L 231.248982 146.307366 
L 231.281942 146.307366 
L 231.347862 146.256881 
L 231.446741 147.872374 
L 231.479701 147.518985 
L 231.512661 148.023826 
L 231.67746 151.153843 
L 231.842259 152.415947 
L 231.875219 152.062558 
L 232.138898 160.039052 
L 232.171858 159.584694 
L 232.369617 165.642791 
L 232.402577 165.390371 
L 232.435537 164.835045 
L 232.666256 172.45815 
L 233.292493 188.966464 
L 233.325453 188.815012 
L 233.457292 190.98583 
L 233.523212 191.086798 
L 233.556172 190.632441 
L 233.688011 192.601322 
L 233.786891 196.690538 
L 233.81985 193.156648 
L 233.88577 195.37795 
L 233.95169 197.801189 
L 234.01761 197.094411 
L 234.149449 199.921523 
L 234.380168 204.667032 
L 234.709766 209.261088 
L 234.775686 209.563993 
L 234.841606 209.513509 
L 235.171204 217.288067 
L 235.204164 216.429836 
L 235.270084 216.783225 
L 235.401923 218.449202 
L 235.533763 219.76179 
L 235.566723 219.76179 
L 235.995201 227.586831 
L 236.028161 226.779085 
L 236.19296 230.363459 
L 236.22592 230.312975 
L 236.357759 233.897349 
L 236.423679 233.442992 
L 236.555518 232.281856 
L 236.588478 233.039119 
L 236.621438 232.281856 
L 236.687358 230.61588 
L 236.753277 231.423626 
L 236.951036 234.099285 
L 236.983996 233.796381 
L 237.016956 234.048801 
L 237.049916 233.846865 
L 237.082876 233.190571 
L 237.115836 235.008 
L 237.181755 233.644928 
L 237.511354 237.279786 
L 237.544314 237.380755 
L 237.577274 238.188501 
L 237.610234 237.33027 
L 237.709113 235.361389 
L 237.742073 235.815746 
L 237.873912 236.573008 
L 237.972792 232.988634 
L 238.038712 234.856548 
L 238.071671 236.017683 
L 238.137591 235.159452 
L 238.170551 235.361389 
L 238.203511 235.159452 
L 238.30239 232.433309 
L 238.33535 233.54396 
L 238.40127 233.342023 
L 238.46719 234.351706 
L 238.50015 235.967199 
L 238.566069 234.907032 
L 238.599029 235.260421 
L 238.631989 234.705095 
L 238.730868 233.039119 
L 238.796788 235.815746 
L 238.862708 234.503159 
L 238.961587 233.039119 
L 238.994547 233.291539 
L 239.027507 234.099285 
L 239.093427 233.644928 
L 239.126387 233.695412 
L 239.291186 231.272174 
L 239.488945 227.536347 
L 239.521905 228.192641 
L 239.554865 229.101356 
L 239.587825 227.990705 
L 239.620784 228.445062 
L 239.950383 222.487933 
L 239.983343 222.68987 
L 240.181102 220.367599 
L 240.214062 220.872441 
L 240.247022 220.01421 
L 240.279982 219.913242 
L 240.411821 220.922925 
L 240.444781 221.124861 
L 240.477741 220.670504 
L 240.64254 216.025963 
L 240.70846 216.2279 
L 240.741419 215.975479 
L 240.972138 211.633843 
L 241.235817 204.818484 
L 241.301737 205.37381 
L 241.367657 206.484461 
L 241.400617 205.929135 
L 241.433576 205.727199 
L 241.565416 203.001055 
L 241.598376 203.354444 
L 241.631335 204.061222 
L 241.664295 203.051539 
L 241.697255 203.404928 
L 242.455332 181.494811 
L 242.488292 181.59578 
L 242.620131 179.576414 
L 242.653091 179.929803 
L 242.686051 179.424962 
L 242.91677 172.609603 
L 243.147489 165.087466 
L 243.246368 166.046664 
L 243.279328 165.541823 
L 243.312288 165.238918 
L 243.345248 165.339886 
L 243.543007 158.221623 
L 243.575967 158.776948 
L 243.608927 157.716781 
L 243.872605 153.375145 
L 243.905565 154.182891 
L 244.070365 149.134477 
L 244.235164 151.507232 
L 244.301084 152.21401 
L 244.334043 151.658684 
L 244.729562 145.449135 
L 244.795481 143.783159 
L 244.828441 143.833643 
L 244.927321 146.35785 
L 244.960281 145.853008 
L 245.256919 140.905563 
L 245.355799 139.542491 
L 245.388759 139.794912 
L 245.520598 138.633776 
L 245.553558 139.996848 
L 245.586518 138.734745 
L 245.784277 132.727132 
L 245.817237 132.727132 
L 245.949076 131.717449 
L 245.982036 131.767933 
L 246.047956 132.979553 
L 246.113875 132.777616 
L 246.344594 129.193242 
L 246.476434 129.344694 
L 246.509394 129.496147 
L 246.674193 127.072908 
L 246.740113 129.04179 
L 246.773072 127.678718 
L 246.806032 127.123392 
L 246.871952 129.344694 
L 246.904912 127.57775 
L 246.970832 127.880654 
L 247.003791 127.628234 
L 247.036751 128.082591 
L 247.102671 125.861289 
L 247.168591 126.467098 
L 247.23451 128.587432 
L 247.26747 129.546631 
L 247.33339 128.637917 
L 247.36635 128.43598 
L 247.39931 127.476781 
L 247.498189 127.527265 
L 247.662988 130.051472 
L 247.761868 129.950504 
L 247.794828 128.839853 
L 247.827788 130.000988 
L 247.893707 129.243726 
L 247.926667 129.243726 
L 247.959627 129.395179 
L 248.091467 131.666965 
L 248.256266 128.940821 
L 248.289226 128.890337 
L 248.355145 131.717449 
L 248.388105 129.597115 
L 248.454025 128.940821 
L 248.486985 129.748568 
L 248.519945 129.092274 
L 248.552904 129.496147 
L 248.585864 129.395179 
L 248.750664 127.83017 
L 248.816583 128.738885 
L 248.849543 127.274845 
L 248.915463 128.183559 
L 248.948423 128.183559 
L 249.014342 129.597115 
L 249.047302 128.839853 
L 249.343941 125.154511 
L 249.376901 125.204995 
L 249.409861 126.214678 
L 249.44282 125.305963 
L 249.47578 124.750638 
L 249.5417 125.406932 
L 249.60762 126.265162 
L 249.739459 124.700154 
L 249.805379 123.387566 
L 249.871299 120.50997 
L 249.970178 120.661422 
L 250.003138 121.11578 
L 250.036098 120.610938 
L 250.069058 120.913843 
L 250.102018 120.055613 
L 250.167937 121.065295 
L 250.299777 122.478851 
L 250.365696 120.610938 
L 250.431616 121.519653 
L 250.464576 121.620621 
L 250.497536 120.610938 
L 250.530496 122.731272 
L 250.563455 124.397249 
L 250.662335 124.195312 
L 250.827134 127.022424 
L 250.860094 125.5079 
L 250.958974 125.558384 
L 250.991934 125.5079 
L 251.057853 127.325329 
L 251.090813 127.173876 
L 251.189693 121.923526 
L 251.222653 123.337082 
L 251.420412 125.457416 
L 251.453371 123.488534 
L 251.519291 124.447733 
L 251.585211 125.255479 
L 251.618171 124.952574 
L 251.68409 124.548701 
L 251.75001 126.870972 
L 251.78297 124.851606 
L 251.81593 124.801122 
L 251.88185 127.527265 
L 251.947769 126.820487 
L 252.013689 126.164194 
L 252.046649 126.820487 
L 252.112569 126.517583 
L 252.145528 126.568067 
L 252.244408 125.204995 
L 252.310328 125.608868 
L 252.475127 127.83017 
L 252.508087 127.880654 
L 252.771766 131.666965 
L 253.035444 138.532808 
L 253.200244 141.96573 
L 253.233204 141.309436 
L 253.299123 142.117182 
L 253.430963 147.064628 
L 253.463922 146.711239 
L 253.496882 146.711239 
L 253.628722 149.28593 
L 253.793521 151.305295 
L 253.826481 151.305295 
L 253.95832 153.375145 
L 253.99128 152.920788 
L 254.189039 156.454678 
L 254.221999 156.454678 
L 254.518638 163.67391 
L 254.551598 163.421489 
L 254.881196 173.568801 
L 255.045995 180.232708 
L 255.078955 179.475446 
L 255.111915 180.485129 
L 255.144875 180.232708 
L 255.474473 189.168401 
L 255.507433 189.319853 
L 255.705192 196.337149 
L 255.738152 195.832307 
L 255.771112 196.488601 
L 255.935911 201.082658 
L 255.968871 201.183626 
L 256.034791 202.344761 
L 256.133671 208.099953 
L 256.19959 207.191239 
L 256.26551 207.797048 
L 256.364389 210.068835 
L 256.628068 216.429836 
L 256.759908 218.499686 
L 256.792868 217.237583 
L 256.858787 218.449202 
L 257.122466 227.283927 
L 257.155426 227.485863 
L 257.386145 233.846865 
L 257.419105 233.190571 
L 257.485024 233.998317 
L 257.517984 233.342023 
L 257.715743 236.371072 
L 257.781663 236.47204 
L 257.814623 236.017683 
L 257.913503 237.431239 
L 258.012382 235.058484 
L 258.045342 235.815746 
L 258.341981 241.217549 
L 258.37494 240.409803 
L 258.4079 241.823359 
L 258.44086 241.823359 
L 258.638619 244.499018 
L 258.671579 243.691272 
L 258.704539 244.347566 
L 258.869338 248.588234 
L 258.902298 248.386297 
L 258.968218 249.093075 
L 259.100057 245.407733 
L 259.133017 246.215479 
L 259.165977 246.568868 
L 259.198937 246.366932 
L 259.297816 245.155312 
L 259.330776 245.407733 
L 259.594455 249.194043 
L 259.891094 240.61174 
L 259.924054 242.782558 
L 260.022933 243.842725 
L 260.055893 242.176748 
L 260.154772 242.479653 
L 260.187732 243.438851 
L 260.220692 242.883526 
L 260.352532 239.299152 
L 260.517331 240.965129 
L 260.550291 241.46997 
L 260.71509 237.532207 
L 260.945809 234.452674 
L 261.143568 236.522524 
L 261.176528 235.462357 
L 261.209488 235.108968 
L 261.242448 236.270104 
L 261.308367 234.705095 
L 261.341327 235.512841 
L 261.374287 234.806063 
L 261.506126 231.120721 
L 261.539086 231.120721 
L 261.736845 234.099285 
L 261.769805 233.291539 
L 261.835725 233.846865 
L 261.868685 233.695412 
L 261.901645 234.200254 
L 261.934605 233.089603 
L 262.198283 226.274244 
L 262.231243 227.233442 
L 262.264203 226.425696 
L 262.429002 224.507299 
L 262.461962 224.911172 
L 262.494922 224.810204 
L 262.659721 223.194711 
L 262.692681 223.346164 
L 262.85748 220.266631 
L 263.220039 211.83578 
L 263.582597 201.082658 
L 263.648517 201.688467 
L 263.681477 202.193309 
L 263.945156 193.964394 
L 264.011075 194.923593 
L 264.044035 196.438117 
L 264.076995 195.327466 
L 264.340674 189.471306 
L 264.373634 189.370337 
L 264.406593 189.420821 
L 264.637312 184.725796 
L 264.670272 184.271439 
L 264.703232 186.038384 
L 264.802112 185.684995 
L 264.835072 185.584027 
L 264.933951 182.100621 
L 264.966911 182.655947 
L 265.06579 184.52386 
L 265.13171 184.019018 
L 265.16467 183.766598 
L 265.26355 184.826765 
L 265.494269 176.900755 
L 265.527228 176.799786 
L 265.593148 175.790104 
L 265.626108 177.001723 
L 265.659068 177.001723 
L 265.823867 173.619285 
L 265.856827 173.720254 
L 266.087546 169.025229 
L 266.153466 170.539753 
L 266.186425 168.772808 
L 266.219385 169.227165 
L 266.285305 167.409736 
L 266.351225 167.712641 
L 266.516024 164.330204 
L 266.680823 161.402124 
L 266.713783 161.705028 
L 266.845623 156.050805 
L 266.944502 156.555646 
L 267.043382 157.666297 
L 267.076341 157.110972 
L 267.241141 155.798384 
L 267.274101 156.707098 
L 267.30706 155.091606 
L 267.40594 152.870304 
L 267.570739 148.983025 
L 267.801458 143.833643 
L 267.834418 144.89381 
L 267.867378 143.732674 
L 267.900338 143.833643 
L 268.065137 140.198785 
L 268.229936 143.379285 
L 268.295856 142.924928 
L 268.328816 145.398651 
L 268.394736 143.379285 
L 268.427695 142.874444 
L 268.460655 143.985095 
L 268.526575 143.783159 
L 268.658414 140.804594 
L 268.724334 141.258952 
L 268.757294 142.167666 
L 268.823214 142.117182 
L 268.955053 139.693943 
L 268.988013 139.845396 
L 269.086892 143.177349 
L 269.152812 141.864761 
L 269.218732 141.561856 
L 269.251692 141.915245 
L 269.284652 141.96573 
L 269.383531 139.794912 
L 269.482411 137.674578 
L 269.515371 138.482324 
L 269.54833 138.229903 
L 269.58129 139.946364 
L 269.64721 138.381356 
L 269.71313 139.239586 
L 269.910889 135.099886 
L 270.174568 127.375813 
L 270.207527 126.012741 
L 270.240487 127.981623 
L 270.273447 127.628234 
L 270.306407 128.183559 
L 270.339367 127.880654 
L 270.603046 123.387566 
L 270.767845 125.608868 
L 270.800805 125.003058 
L 270.833765 125.810805 
L 270.866725 126.870972 
L 270.899684 125.558384 
L 271.163363 120.711907 
L 271.196323 120.762391 
L 271.229283 121.671105 
L 271.328162 121.620621 
L 271.361122 121.671105 
L 271.624801 117.884795 
L 271.657761 117.935279 
L 271.85552 119.90416 
L 272.152159 114.451873 
L 272.185119 114.350905 
L 272.218078 115.613008 
L 272.283998 115.562524 
L 272.316958 114.90623 
L 272.349918 115.51204 
L 272.382878 116.168334 
L 272.415838 115.259619 
L 272.481757 113.341222 
L 272.514717 113.543159 
L 272.547677 115.966397 
L 272.646557 115.360588 
L 272.745436 116.067366 
L 272.778396 115.360588 
L 272.811356 116.016881 
L 272.943195 119.601255 
L 273.009115 120.812875 
L 273.042075 120.308033 
L 273.107994 118.692541 
L 273.173914 119.247866 
L 273.206874 119.90416 
L 273.272794 119.500287 
L 273.305754 119.04593 
L 273.338713 120.055613 
L 273.404633 120.308033 
L 273.503513 118.541088 
L 273.569432 119.500287 
L 273.602392 119.550771 
L 273.668312 118.288668 
L 273.767192 118.591573 
L 273.833111 119.348835 
L 273.931991 121.570137 
L 273.964951 120.106097 
L 273.99791 120.661422 
L 274.03087 119.702224 
L 274.06383 119.853676 
L 274.09679 118.793509 
L 274.12975 119.247866 
L 274.16271 120.560454 
L 274.228629 120.156581 
L 274.261589 119.954644 
L 274.492308 123.589503 
L 274.525268 123.084661 
L 274.591188 123.740955 
L 274.624148 123.185629 
L 274.887826 128.183559 
L 274.920786 127.880654 
L 274.953746 127.83017 
L 274.986706 126.820487 
L 275.019666 127.931139 
L 275.217425 131.818417 
L 275.250385 130.808735 
L 275.283345 130.202925 
L 275.547024 138.128935 
L 275.645903 140.299753 
L 275.744783 139.996848 
L 275.810702 138.886197 
L 276.008461 143.177349 
L 276.041421 143.278317 
L 276.206221 147.014144 
L 276.27214 145.802524 
L 276.43694 149.89174 
L 276.634699 153.879987 
L 276.766538 156.303225 
L 276.799498 156.101289 
L 277.129096 168.116514 
L 277.162056 166.349569 
L 277.195016 167.106831 
L 277.458695 177.001723 
L 277.491655 175.285262 
L 277.524615 177.355112 
L 277.557575 177.001723 
L 277.590534 177.052207 
L 277.821253 183.716114 
L 277.854213 185.533543 
L 277.887173 183.362725 
L 277.920133 183.968534 
L 278.019012 186.896614 
L 278.249731 194.166331 
L 278.282691 194.065362 
L 278.875969 207.847533 
L 278.941888 208.857215 
L 279.205567 214.006598 
L 279.238527 213.804661 
L 279.271487 213.653209 
L 279.436286 217.792908 
L 279.601085 220.317115 
L 279.765885 222.790838 
L 279.798844 222.336481 
L 279.897724 221.781155 
L 279.963644 221.427766 
L 279.996604 222.94229 
L 280.029563 222.336481 
L 280.062523 222.538417 
L 280.227323 225.466497 
L 280.293242 225.01214 
L 280.425082 226.678117 
L 280.589881 225.920855 
L 280.68876 229.40426 
L 280.919479 236.623492 
L 281.117239 236.421556 
L 281.150198 236.47204 
L 281.282038 239.652541 
L 281.314998 239.450604 
L 281.479797 236.825429 
L 281.578677 235.664294 
L 281.611636 235.967199 
L 281.644596 236.774945 
L 281.677556 235.512841 
L 281.710516 235.765262 
L 282.007155 232.07992 
L 282.040114 232.483793 
L 282.237874 235.361389 
L 282.303793 234.048801 
L 282.369713 234.40219 
L 282.435633 235.209937 
L 282.468593 233.796381 
L 282.501552 235.86623 
L 282.534512 236.219619 
L 282.600432 236.068167 
L 282.864111 231.676047 
L 282.897071 231.575078 
L 282.93003 232.180888 
L 282.96299 231.272174 
L 283.06187 230.212007 
L 283.09483 230.464427 
L 283.12779 230.212007 
L 283.259629 227.990705 
L 283.325549 227.182958 
L 283.358509 228.293609 
L 283.424428 226.981022 
L 283.655147 225.466497 
L 283.688107 225.870371 
L 283.754027 225.567466 
L 283.918826 222.538417 
L 283.984746 222.639386 
L 284.116585 224.305362 
L 284.248425 222.134544 
L 284.281384 221.730671 
L 284.413224 216.884194 
L 284.446184 217.389035 
L 284.512103 218.045329 
L 284.709862 215.571606 
L 284.742822 215.571606 
L 284.907622 218.600654 
L 284.940581 217.338551 
L 285.006501 217.187098 
L 285.105381 215.319185 
L 285.138341 216.278384 
L 285.1713 215.773543 
L 285.20426 216.2279 
L 285.23722 216.530805 
L 285.434979 214.006598 
L 285.500899 214.359987 
L 285.698658 211.22997 
L 285.764578 210.977549 
L 285.896417 207.393175 
L 285.929377 207.595112 
L 285.962337 208.958184 
L 285.995297 207.595112 
L 286.258976 203.455412 
L 286.456735 208.200922 
L 286.489695 207.039786 
L 286.522654 206.989302 
L 286.654494 205.272841 
L 286.687454 205.727199 
L 286.720413 206.787366 
L 286.753373 205.828167 
L 286.918173 203.960254 
L 287.47849 192.752775 
L 287.643289 191.743092 
L 288.665045 174.124127 
L 288.698005 176.345429 
L 288.763924 176.143492 
L 289.060563 170.438785 
L 289.093523 171.196047 
L 289.126483 170.640721 
L 289.225362 168.469903 
L 289.258322 169.227165 
L 289.291282 170.438785 
L 289.324242 169.126197 
L 289.390162 167.2078 
L 289.554961 160.796314 
L 289.587921 160.392441 
L 289.65384 161.654544 
L 289.6868 161.503092 
L 289.851599 158.373075 
L 289.884559 158.575012 
L 289.917519 158.524528 
L 290.181198 152.567399 
L 290.214158 152.718851 
L 290.280078 153.223693 
L 290.378957 150.346097 
L 290.411917 150.447065 
L 290.609676 146.206397 
L 290.642636 146.004461 
L 290.873355 142.521055 
L 290.906315 141.713309 
L 290.972234 142.722992 
L 291.235913 138.734745 
L 291.268873 139.088134 
L 291.400713 135.200855 
L 291.466632 135.352307 
L 291.532552 135.806664 
L 291.598472 135.604728 
L 291.631431 135.200855 
L 291.697351 135.50376 
L 291.730311 136.008601 
L 291.763271 135.604728 
L 292.092869 129.849536 
L 292.191749 129.90002 
L 292.224709 130.051472 
L 292.290629 130.202925 
L 292.356548 128.688401 
L 292.389508 129.597115 
L 292.422468 128.536948 
L 292.455428 129.243726 
L 292.521347 127.57775 
L 292.587267 128.385496 
L 292.620227 127.981623 
L 292.653187 130.000988 
L 292.719107 128.385496 
L 292.785026 125.962257 
L 292.850946 126.416614 
L 292.916866 127.123392 
L 293.048705 124.851606 
L 293.114625 124.649669 
L 293.180545 125.911773 
L 293.213504 126.164194 
L 293.246464 125.154511 
L 293.279424 125.457416 
L 293.312384 126.870972 
L 293.378304 126.214678 
L 293.543103 123.740955 
L 293.576063 123.791439 
L 293.609023 123.539018 
L 293.707902 119.702224 
L 293.740862 120.055613 
L 293.872701 120.863359 
L 294.004541 118.692541 
L 294.13638 120.661422 
L 294.16934 120.50997 
L 294.2023 121.317716 
L 294.23526 120.257549 
L 294.26822 120.106097 
L 294.30118 120.409002 
L 294.498939 122.630304 
L 294.531898 122.125462 
L 294.564858 122.226431 
L 294.630778 121.11578 
L 294.696698 121.267232 
L 294.762617 123.841923 
L 294.795577 122.83224 
L 294.828537 121.97401 
L 294.894457 122.933209 
L 294.927417 124.094344 
L 294.960377 122.074978 
L 294.993336 122.680788 
L 295.092216 121.418684 
L 295.059256 122.731272 
L 295.125176 122.226431 
L 295.158136 122.125462 
L 295.224055 121.721589 
L 295.322935 123.993376 
L 295.355895 123.639987 
L 295.421814 125.558384 
L 295.487734 125.457416 
L 295.586614 123.236114 
L 295.652533 126.416614 
L 295.718453 126.012741 
L 295.817333 127.375813 
L 295.883252 126.770003 
L 296.048052 124.548701 
L 296.113971 125.457416 
L 296.278771 126.36613 
L 296.311731 126.36613 
L 296.37765 126.921456 
L 296.41061 126.568067 
L 296.47653 125.810805 
L 296.50949 125.911773 
L 296.542449 127.274845 
L 296.608369 126.36613 
L 296.707249 126.719519 
L 296.740209 126.265162 
L 296.905008 129.04179 
L 297.168687 131.868902 
L 297.201647 131.414544 
L 297.234606 131.717449 
L 297.300526 132.878584 
L 297.366446 132.525195 
L 297.432365 131.414544 
L 297.465325 132.272775 
L 297.531245 132.22229 
L 297.564205 133.231973 
L 297.597165 131.616481 
L 297.630125 131.818417 
L 297.827884 137.321189 
L 297.860844 137.371673 
L 297.992683 140.299753 
L 298.882599 156.35371 
L 299.113318 165.339886 
L 299.146278 164.633109 
L 299.179238 165.036982 
L 299.409957 171.59992 
L 299.442916 171.751372 
L 299.508836 171.59992 
L 299.574756 173.568801 
L 299.607716 173.467833 
L 299.640676 174.477516 
L 299.706595 173.467833 
L 299.904354 176.193977 
L 300.003234 178.06189 
L 300.168033 181.545295 
L 300.200993 182.100621 
L 300.233953 184.77628 
L 300.332832 184.271439 
L 300.365792 183.766598 
L 300.728351 193.459553 
L 300.761311 193.207132 
L 300.79427 193.762457 
L 300.82723 193.409068 
L 300.86019 193.409068 
L 301.321628 199.315713 
L 302.079705 211.83578 
L 302.112665 210.725129 
L 302.178584 211.684327 
L 302.211544 211.381422 
L 302.244504 212.0882 
L 302.376343 215.924995 
L 302.409303 215.62209 
L 302.442263 214.662891 
L 302.475223 215.62209 
L 302.738902 218.651139 
L 302.771862 217.641456 
L 302.837781 218.348234 
L 303.0685 220.569536 
L 303.13442 222.437449 
L 303.16738 222.185028 
L 303.299219 225.01214 
L 303.332179 225.113109 
L 303.365139 224.860688 
L 303.595858 230.060554 
L 303.628818 229.555713 
L 303.826577 227.94022 
L 303.859537 226.324728 
L 303.958416 226.880053 
L 303.991376 226.728601 
L 304.024336 224.860688 
L 304.123216 225.264561 
L 304.320975 223.245195 
L 304.452814 226.880053 
L 304.518734 226.274244 
L 304.551694 226.274244 
L 304.683533 229.050871 
L 304.749453 228.596514 
L 304.782413 228.848935 
L 304.947212 230.363459 
L 305.177931 226.880053 
L 305.210891 227.182958 
L 305.40865 229.858618 
L 305.44161 229.555713 
L 305.672329 224.557783 
L 305.705288 225.113109 
L 305.903048 229.656681 
L 305.936007 228.798451 
L 305.968967 229.454745 
L 306.034887 230.464427 
L 306.067847 230.413943 
L 306.661124 220.872441 
L 306.891843 217.288067 
L 306.924803 217.237583 
L 306.990723 217.994845 
L 307.023683 217.035646 
L 307.089602 217.136614 
L 307.155522 217.944361 
L 307.188482 217.035646 
L 307.320321 213.602725 
L 307.353281 214.107566 
L 307.386241 215.01628 
L 307.419201 213.703693 
L 307.452161 213.602725 
L 307.55104 211.734811 
L 307.584 211.987232 
L 307.61696 212.593042 
L 307.64992 211.936748 
L 307.715839 212.138684 
L 308.078398 207.09027 
L 308.539836 198.861356 
L 308.572796 198.659419 
L 308.605755 199.012808 
L 308.671675 199.820554 
L 308.704635 199.063292 
L 308.770555 198.104093 
L 308.803515 199.16426 
L 308.836474 198.760387 
L 309.067193 194.065362 
L 309.133113 193.560521 
L 309.199033 194.873109 
L 309.264952 194.216815 
L 309.297912 193.91391 
L 309.594551 185.129669 
L 309.627511 185.836447 
L 309.693431 185.735479 
L 310.187828 177.859953 
L 310.352628 174.729937 
L 310.385587 175.184294 
L 310.418547 174.931873 
L 310.616306 171.044594 
L 310.649266 171.347499 
L 310.847025 167.611673 
L 310.879985 167.763125 
L 311.110704 164.53214 
L 311.143664 164.380688 
L 311.209584 165.794244 
L 311.242544 164.582624 
L 311.275503 164.784561 
L 311.308463 164.683593 
L 311.506222 161.048735 
L 311.638062 161.654544 
L 311.671022 161.906965 
L 311.736941 160.74583 
L 311.802861 160.947766 
L 311.835821 161.099219 
L 311.868781 162.512775 
L 311.901741 162.058417 
L 312.06654 159.079853 
L 312.264299 156.454678 
L 312.297259 156.656614 
L 312.725737 149.28593 
L 312.758697 149.28593 
L 312.824617 146.862691 
L 312.923496 144.388968 
L 312.989416 145.095746 
L 313.022376 145.095746 
L 313.253095 141.309436 
L 313.351974 141.864761 
L 313.681573 135.907633 
L 313.780452 136.563927 
L 313.912292 138.734745 
L 313.945251 137.926998 
L 314.27485 131.414544 
L 314.30781 131.36406 
L 314.34077 131.717449 
L 314.37373 131.263092 
L 314.439649 130.000988 
L 314.505569 130.808735 
L 314.538529 131.313576 
L 314.571489 130.404861 
L 314.670368 129.597115 
L 314.769248 130.455346 
L 314.967007 127.022424 
L 314.999967 127.426297 
L 315.032927 127.173876 
L 315.230686 123.286598 
L 315.362525 121.065295 
L 315.395485 122.377883 
L 315.461405 121.065295 
L 315.659164 117.127533 
L 315.758043 117.834311 
L 315.856923 118.238184 
L 315.922843 116.016881 
L 315.988762 117.178017 
L 316.153562 114.552841 
L 316.186521 115.865429 
L 316.252441 114.401389 
L 316.285401 114.552841 
L 316.318361 115.966397 
L 316.384281 115.310104 
L 316.54908 113.18977 
L 316.615 113.038317 
L 316.713879 114.148968 
L 316.878678 110.261689 
L 316.911638 110.564594 
L 317.307156 113.846063 
L 317.340116 113.341222 
L 317.406036 115.411072 
L 317.438996 114.199452 
L 317.471956 114.401389 
L 317.504916 114.048 
L 317.735635 111.523793 
L 317.768594 112.382023 
L 317.867474 114.754778 
L 317.900434 113.492674 
L 317.933394 114.805262 
L 318.098193 117.379953 
L 318.131153 116.471239 
L 318.197072 117.077048 
L 318.295952 116.471239 
L 318.625551 123.690471 
L 318.65851 122.57982 
L 318.75739 120.560454 
L 318.79035 121.469169 
L 318.82331 121.721589 
L 318.856269 120.560454 
L 318.922189 121.3682 
L 319.581386 130.909703 
L 319.614346 130.808735 
L 319.746186 130.000988 
L 319.812105 132.474711 
L 319.845065 129.29421 
L 320.042824 132.272775 
L 320.075784 131.767933 
L 320.240583 135.402791 
L 320.339463 136.715379 
L 320.471302 142.571539 
L 320.537222 141.662825 
L 320.636102 145.853008 
L 320.702021 144.944294 
L 320.734981 144.288 
L 320.767941 145.348167 
L 320.99866 148.831573 
L 321.06458 148.326731 
L 321.130499 148.023826 
L 321.163459 148.175279 
L 321.394178 153.879987 
L 321.427138 153.425629 
L 321.591937 156.505162 
L 321.723777 159.332274 
L 321.789696 159.28179 
L 321.954496 162.159386 
L 322.844412 188.461623 
L 322.877371 187.048067 
L 322.943291 188.663559 
L 323.042171 187.855813 
L 323.23993 191.995513 
L 323.27289 191.743092 
L 323.30585 190.329536 
L 323.338809 191.137282 
L 323.536569 196.135212 
L 323.569528 194.51972 
L 323.602488 196.337149 
L 323.767287 202.395245 
L 323.932087 203.505896 
L 323.965047 202.799119 
L 323.998006 203.657349 
L 324.063926 202.900087 
L 324.327605 207.69608 
L 324.360565 207.494144 
L 324.657204 214.864828 
L 324.887922 219.408401 
L 324.920882 219.458885 
L 325.283441 224.355846 
L 325.34936 223.194711 
L 325.41528 223.245195 
L 325.51416 225.819886 
L 325.580079 222.841322 
L 325.645999 223.851005 
L 325.678959 225.365529 
L 325.777838 225.01214 
L 325.810798 224.961656 
L 325.843758 224.658751 
L 325.876718 225.163593 
L 325.909678 224.860688 
L 326.008557 227.283927 
L 326.074477 226.072307 
L 326.206317 227.485863 
L 326.239276 227.334411 
L 326.404076 234.654611 
L 326.469995 236.169135 
L 326.535915 235.714778 
L 326.568875 236.421556 
L 326.601835 235.209937 
L 326.634795 234.452674 
L 326.667754 235.411873 
L 326.733674 237.683659 
L 326.799594 237.633175 
L 326.865514 237.027366 
L 326.898473 238.138017 
L 326.964393 237.582691 
L 327.030313 236.017683 
L 327.063273 236.875913 
L 327.096233 238.996247 
L 327.162152 237.128334 
L 327.326952 235.563326 
L 327.75543 231.221689 
L 327.788389 231.575078 
L 327.821349 232.483793 
L 327.854309 230.565396 
L 327.986149 233.644928 
L 328.019108 232.887666 
L 328.117988 231.827499 
L 328.150948 232.130404 
L 328.216868 231.524594 
L 328.249827 233.190571 
L 328.315747 232.534277 
L 328.447587 230.666364 
L 328.480546 231.120721 
L 328.513506 230.918785 
L 328.711265 224.507299 
L 328.744225 225.567466 
L 328.909024 227.384895 
L 328.941984 227.182958 
L 328.974944 227.990705 
L 329.007904 227.031506 
L 329.040864 227.334411 
L 329.271583 223.447132 
L 329.700061 218.55017 
L 329.765981 222.033576 
L 329.79894 221.326798 
L 329.8319 218.499686 
L 329.93078 218.853075 
L 330.227419 214.259018 
L 330.458138 211.280454 
L 330.557017 214.006598 
L 330.589977 212.744494 
L 330.721816 211.936748 
L 330.754776 211.734811 
L 330.787736 212.340621 
L 330.952535 207.898017 
L 331.018455 209.008668 
L 331.051415 207.847533 
L 331.150294 208.352374 
L 331.282134 205.020421 
L 331.413973 199.669102 
L 331.446933 200.123459 
L 331.479893 200.072975 
L 331.512853 199.618618 
L 331.545813 200.577816 
L 331.578772 200.274912 
L 331.776532 195.226497 
L 332.007251 193.661489 
L 332.13909 189.976147 
L 332.17205 189.824694 
L 332.369809 186.644194 
L 332.666448 182.807399 
L 332.699407 183.564661 
L 332.765327 183.009336 
L 332.831247 181.444327 
L 333.094926 174.679452 
L 333.127886 174.982357 
L 333.160845 175.083326 
L 333.457484 165.642791 
L 333.490444 165.794244 
L 333.721163 161.503092 
L 333.754123 162.866164 
L 333.787083 161.200187 
L 333.918922 158.171139 
L 333.951882 159.079853 
L 333.984842 157.615813 
L 334.182601 153.223693 
L 334.545159 146.711239 
L 334.578119 147.771406 
L 334.644039 147.21608 
L 334.742918 143.985095 
L 334.808838 144.035579 
L 334.841798 144.035579 
L 334.874758 144.187032 
L 334.907718 143.985095 
L 334.940677 143.985095 
L 335.138437 140.855078 
L 335.171396 141.208467 
L 335.204356 141.662825 
L 335.237316 141.410404 
L 335.402115 139.744427 
L 335.435075 140.451205 
L 335.468035 140.299753 
L 335.566915 138.886197 
L 335.599874 139.340554 
L 335.665794 138.633776 
L 335.764674 138.785229 
L 335.797634 139.239586 
L 335.830593 138.785229 
L 335.863553 138.179419 
L 335.896513 138.633776 
L 335.995393 140.552174 
L 336.028353 139.845396 
L 336.127232 137.977482 
L 336.226112 136.311506 
L 336.259072 136.614411 
L 336.292031 137.169736 
L 336.52275 131.767933 
L 336.55571 132.626164 
L 336.62163 132.424227 
L 336.68755 131.162124 
L 336.819389 128.587432 
L 336.852349 128.738885 
L 336.885309 129.04179 
L 336.984188 127.173876 
L 337.017148 127.83017 
L 337.050108 126.820487 
L 337.116028 127.476781 
L 337.181947 129.496147 
L 337.214907 128.587432 
L 337.445626 125.659352 
L 337.511546 127.274845 
L 337.577466 126.36613 
L 337.643385 126.820487 
L 337.709305 125.053543 
L 337.775225 125.255479 
L 337.841144 125.911773 
L 337.874104 125.608868 
L 337.907064 125.104027 
L 337.940024 125.558384 
L 338.038904 127.274845 
L 338.137783 127.224361 
L 338.170743 127.426297 
L 338.203703 126.517583 
L 338.236663 128.032107 
L 338.401462 129.243726 
L 338.467382 127.83017 
L 338.500341 129.142758 
L 338.533301 128.940821 
L 338.599221 128.991306 
L 338.632181 130.051472 
L 338.665141 129.950504 
L 338.698101 128.43598 
L 338.76402 130.000988 
L 338.8629 128.43598 
L 338.89586 129.344694 
L 339.093619 131.666965 
L 339.126579 131.465028 
L 339.159539 132.020354 
L 339.192498 131.36406 
L 339.258418 130.556314 
L 339.291378 130.808735 
L 339.357298 130.960187 
L 339.456177 128.587432 
L 339.489137 128.43598 
L 339.522097 126.719519 
L 339.588017 127.83017 
L 339.620976 127.57775 
L 339.719856 129.748568 
L 339.752816 129.698083 
L 339.785776 128.234043 
L 339.851695 128.385496 
L 339.983535 129.90002 
L 340.247214 124.548701 
L 340.346093 126.012741 
L 340.576812 120.50997 
L 340.708652 122.428367 
L 340.741611 121.873042 
L 340.807531 122.882725 
L 340.840491 122.327399 
L 340.873451 121.97401 
L 340.906411 122.074978 
L 340.939371 119.702224 
L 341.03825 120.50997 
L 341.07121 119.90416 
L 341.13713 120.610938 
L 341.268969 121.267232 
L 341.400808 123.488534 
L 341.532648 125.255479 
L 341.565608 124.952574 
L 341.697447 127.83017 
L 341.829287 126.467098 
L 341.895206 126.669035 
L 341.928166 126.820487 
L 341.994086 128.637917 
L 342.027046 128.082591 
L 342.125925 125.5079 
L 342.158885 126.315646 
L 342.290725 130.051472 
L 342.323684 129.29421 
L 342.389604 131.061155 
L 342.455524 130.404861 
L 342.488484 130.859219 
L 342.554403 130.404861 
L 342.620323 131.111639 
L 342.719203 132.676648 
L 342.752162 132.626164 
L 342.785122 132.22229 
L 342.818082 133.181489 
L 342.851042 133.282457 
L 342.982881 134.746497 
L 343.015841 133.888267 
L 343.081761 134.191172 
L 343.114721 134.393109 
L 343.27952 136.462958 
L 343.31248 135.604728 
L 343.3784 136.614411 
L 343.609119 139.794912 
L 343.642078 139.794912 
L 344.334235 152.870304 
L 344.367195 152.365462 
L 344.466075 158.575012 
L 344.499035 158.221623 
L 344.531994 158.07017 
L 344.663834 159.887599 
L 344.696794 159.635179 
L 345.158232 171.246531 
L 345.191192 170.99411 
L 345.224151 169.681523 
L 345.290071 170.640721 
L 345.52079 179.828835 
L 345.685589 179.677382 
L 345.718549 179.778351 
L 345.850389 181.949169 
L 346.048148 188.360654 
L 346.081108 187.956781 
L 346.245907 191.440187 
L 346.311826 190.127599 
L 346.377746 190.834377 
L 346.410706 190.98583 
L 346.542545 191.84406 
L 346.608465 193.005195 
L 347.102863 205.37381 
L 347.135823 204.515579 
L 347.168783 204.818484 
L 347.267662 208.150437 
L 347.333582 207.69608 
L 347.432461 210.018351 
L 347.564301 213.855145 
L 347.597261 213.804661 
L 347.959819 221.47825 
L 347.992779 221.47825 
L 348.157578 223.649068 
L 348.190538 221.276314 
L 348.256458 222.487933 
L 348.421257 224.507299 
L 348.454217 224.052942 
L 348.487177 224.557783 
L 348.586056 228.293609 
L 348.651976 227.788768 
L 348.684936 226.981022 
L 348.717896 227.839252 
L 348.849735 229.858618 
L 348.882695 228.091673 
L 348.948615 229.656681 
L 349.047494 230.161523 
L 349.080454 229.656681 
L 349.212293 231.676047 
L 349.311173 233.493476 
L 349.377093 230.716848 
L 349.443012 231.171205 
L 349.541892 232.029436 
L 349.673731 233.846865 
L 349.838531 232.180888 
L 349.871491 231.877983 
L 349.90445 232.837182 
L 350.00333 232.584761 
L 350.03629 232.382825 
L 350.06925 232.68573 
L 350.299969 237.380755 
L 350.332928 236.724461 
L 350.398848 235.462357 
L 350.464768 235.61381 
L 350.497728 237.532207 
L 350.563647 237.178818 
L 350.629567 235.058484 
L 350.695487 236.068167 
L 350.761407 234.604127 
L 350.827326 235.411873 
L 350.860286 235.765262 
L 350.893246 235.008 
L 351.123965 232.433309 
L 351.288764 235.714778 
L 351.354684 236.724461 
L 351.453563 236.219619 
L 351.486523 236.068167 
L 351.519483 236.371072 
L 351.552443 236.875913 
L 351.585403 236.673977 
L 351.750202 234.099285 
L 351.783162 233.897349 
L 351.816122 235.765262 
L 351.882042 235.058484 
L 351.915001 235.008 
L 352.046841 232.68573 
L 352.079801 233.089603 
L 352.11276 232.786698 
L 352.17868 231.070237 
L 352.2446 231.625563 
L 352.27756 231.575078 
L 352.607158 223.951973 
L 352.673078 222.285997 
L 352.738998 222.94229 
L 352.771958 223.093743 
L 353.002677 219.610337 
L 353.134516 222.336481 
L 353.167476 221.629703 
L 353.200436 220.922925 
L 353.266355 221.730671 
L 353.299315 221.124861 
L 353.398195 219.509369 
L 353.562994 216.076447 
L 353.628914 217.288067 
L 353.661874 216.2279 
L 354.156271 208.503826 
L 354.222191 208.857215 
L 354.255151 209.109636 
L 354.288111 208.655279 
L 354.321071 209.059152 
L 354.51883 205.121389 
L 354.38699 209.614477 
L 354.55179 205.37381 
L 354.584749 205.878651 
L 354.617709 204.566063 
L 354.683629 206.131072 
L 355.013228 201.637983 
L 355.243946 193.560521 
L 355.342826 193.964394 
L 355.375786 194.216815 
L 355.507625 192.550838 
L 355.540585 193.409068 
L 355.573545 193.207132 
L 355.606505 190.430504 
L 355.705384 191.339219 
L 355.837224 188.815012 
L 355.870184 189.77421 
L 355.903144 189.622758 
L 356.034983 185.180154 
L 356.067943 185.886932 
L 356.858979 171.145563 
L 356.891939 171.59992 
L 356.924899 170.893142 
L 357.155618 165.339886 
L 357.254497 165.693275 
L 357.287457 165.794244 
L 357.386337 164.986497 
L 357.419297 165.844728 
L 357.518176 165.794244 
L 357.781855 160.644861 
L 357.847775 157.918718 
L 357.913695 159.231306 
L 357.946654 159.180821 
L 358.111454 155.293543 
L 358.144413 155.7479 
L 358.177373 154.334344 
L 358.243293 155.596447 
L 358.375132 156.555646 
L 358.539932 152.365462 
L 358.605851 154.384828 
L 358.671771 153.375145 
L 358.704731 153.779018 
L 358.737691 153.577082 
L 358.90249 150.295613 
L 358.93545 150.74997 
L 358.96841 150.245129 
L 359.00137 149.992708 
L 359.034329 150.548033 
L 359.199129 145.499619 
L 359.232089 145.499619 
L 359.363928 140.552174 
L 359.396888 142.722992 
L 359.429848 142.672508 
L 359.462808 143.278317 
L 359.528727 141.157983 
L 359.594647 141.864761 
L 359.825366 137.977482 
L 359.891286 138.027967 
L 359.990165 136.866831 
L 360.056085 139.744427 
L 360.122005 138.68426 
L 360.286804 135.907633 
L 360.352724 136.210538 
L 360.451603 134.645529 
L 360.517523 134.696013 
L 360.550483 135.049402 
L 360.715282 132.373743 
L 360.781202 133.131005 
L 360.913041 131.414544 
L 360.946001 131.515513 
L 361.07784 132.575679 
L 361.14376 133.635846 
L 361.17672 133.231973 
L 361.24264 132.171806 
L 361.275599 132.979553 
L 361.407439 134.89795 
L 361.506318 135.907633 
L 361.704078 132.626164 
L 361.737037 132.676648 
L 361.868877 131.616481 
L 361.934796 131.919386 
L 362.033676 133.181489 
L 362.000716 131.818417 
L 362.066636 133.030037 
L 362.231435 130.50583 
L 362.264395 131.111639 
L 362.297355 130.455346 
L 362.330315 130.253409 
L 362.363275 130.354377 
L 362.396234 130.75825 
L 362.429194 129.849536 
L 362.528074 127.426297 
L 362.561034 127.83017 
L 362.593994 128.385496 
L 362.659913 127.729202 
L 362.791753 128.890337 
L 362.923592 130.859219 
L 362.956552 129.799052 
L 362.989512 131.111639 
L 363.055431 132.929068 
L 363.121351 132.070838 
L 363.28615 129.395179 
L 363.35207 130.303893 
L 363.38503 130.657282 
L 363.45095 130.859219 
L 363.516869 129.092274 
L 363.615749 128.688401 
L 363.747588 130.50583 
L 363.780548 130.051472 
L 363.813508 129.344694 
L 363.846468 130.152441 
L 363.879428 130.101957 
L 363.912388 130.606798 
L 363.945347 129.395179 
L 364.011267 131.010671 
L 364.044227 131.061155 
L 364.077187 131.36406 
L 364.110147 130.606798 
L 364.143107 132.272775 
L 364.176066 131.515513 
L 364.209026 131.515513 
L 364.307906 133.282457 
L 364.373826 132.474711 
L 364.406785 131.96987 
L 364.439745 132.8281 
L 364.472705 133.383426 
L 364.505665 132.070838 
L 364.571585 131.96987 
L 364.604545 132.424227 
L 364.670464 131.868902 
L 364.736384 133.484394 
L 364.769344 132.323259 
L 364.901183 133.282457 
L 364.934143 133.080521 
L 365.033023 132.525195 
L 365.197822 134.443593 
L 365.230782 134.645529 
L 365.263742 134.342624 
L 365.329661 133.332942 
L 365.362621 134.342624 
L 365.52742 136.36199 
L 365.56038 136.36199 
L 365.69222 138.229903 
L 365.72518 137.321189 
L 365.758139 139.391038 
L 365.791099 139.138618 
L 366.087738 143.278317 
L 366.186617 144.843326 
L 366.219577 144.792841 
L 366.252537 143.581222 
L 366.285497 144.89381 
L 366.351417 143.833643 
L 366.450296 142.975412 
L 366.483256 143.42977 
L 366.648055 148.175279 
L 366.681015 147.872374 
L 366.713975 148.528668 
L 367.010614 154.031439 
L 367.175413 159.332274 
L 367.208373 159.079853 
L 367.241333 160.442925 
L 367.307252 159.180821 
L 367.340212 158.928401 
L 367.735731 165.238918 
L 367.80165 164.481656 
L 367.86757 164.885529 
L 367.90053 166.702958 
L 367.999409 166.450538 
L 368.131249 167.712641 
L 368.164209 167.561189 
L 368.329008 171.044594 
L 368.427887 172.559119 
L 368.460847 172.054277 
L 368.493807 172.155245 
L 368.790446 182.151105 
L 368.856365 184.119987 
L 368.922285 186.947098 
L 368.955245 185.129669 
L 369.021165 185.735479 
L 369.350763 193.459553 
L 369.383723 193.358584 
L 369.416683 193.207132 
L 369.614442 198.205062 
L 369.647402 197.599252 
L 369.680362 198.457482 
L 369.812201 200.981689 
L 369.845161 200.527332 
L 369.878121 200.981689 
L 370.207719 207.292207 
L 370.306599 208.352374 
L 370.504358 212.542558 
L 370.570278 212.391105 
L 370.735077 216.83371 
L 370.768037 217.288067 
L 370.800997 216.177416 
L 370.899876 216.328868 
L 370.998756 214.612407 
L 371.031716 214.915312 
L 371.196515 217.792908 
L 371.229475 217.742424 
L 371.394274 221.730671 
L 371.592033 220.317115 
L 371.624993 220.418083 
L 371.690913 220.62002 
L 371.723873 220.01421 
L 371.855712 223.093743 
L 371.987551 220.821957 
L 372.020511 222.841322 
L 372.086431 220.872441 
L 372.38307 225.113109 
L 372.448989 224.406331 
L 372.580829 225.163593 
L 372.745628 228.848935 
L 372.844508 228.293609 
L 372.877467 229.252808 
L 372.943387 228.899419 
L 372.976347 228.445062 
L 373.009307 229.15184 
L 373.108186 229.606197 
L 373.141146 228.091673 
L 373.174106 229.101356 
L 373.240026 230.565396 
L 373.272986 229.959586 
L 373.371865 229.454745 
L 373.437785 230.565396 
L 373.470745 230.060554 
L 373.569624 228.54603 
L 373.668504 226.22376 
L 373.866263 221.22583 
L 373.998102 225.062624 
L 374.031062 224.709235 
L 374.064022 224.75972 
L 374.096982 225.567466 
L 374.129942 225.163593 
L 374.360661 219.206464 
L 374.393621 220.115179 
L 374.426581 220.115179 
L 374.657299 217.237583 
L 374.822099 219.913242 
L 374.855059 219.913242 
L 374.953938 219.963726 
L 374.986898 219.15598 
L 375.019858 219.307432 
L 375.151697 216.934678 
L 375.184657 217.187098 
L 375.217617 216.682257 
L 375.250577 216.732741 
L 375.415376 213.855145 
L 375.843854 208.099953 
L 375.909774 209.76593 
L 375.942734 209.563993 
L 376.107533 207.241723 
L 376.206413 206.080588 
L 376.272332 204.919452 
L 376.338252 205.525262 
L 376.437132 204.868968 
L 376.634891 201.637983 
L 376.66785 201.537015 
L 376.931529 195.226497 
L 376.997449 193.91391 
L 377.030409 195.176013 
L 377.063369 194.974077 
L 377.195208 192.146965 
L 377.228168 192.298417 
L 377.294088 192.803259 
L 377.327048 192.247933 
L 377.392967 190.682925 
L 377.458887 191.490671 
L 377.491847 191.490671 
L 377.524807 192.096481 
L 377.557766 191.137282 
L 377.623686 189.117917 
L 377.722566 189.269369 
L 377.788485 190.531472 
L 377.920325 190.480988 
L 378.052164 189.168401 
L 378.085124 189.622758 
L 378.282883 184.220955 
L 378.579522 178.617215 
L 378.612482 181.141422 
L 378.711361 180.687065 
L 378.810241 179.677382 
L 379.10688 174.073643 
L 379.139839 174.023159 
L 379.271679 176.85027 
L 379.304639 176.749302 
L 379.403518 175.335746 
L 379.436478 176.900755 
L 379.502398 175.436715 
L 379.535358 176.143492 
L 379.568317 174.931873 
L 379.601277 175.790104 
L 380.128635 166.400053 
L 380.194555 166.652474 
L 380.227515 167.2078 
L 380.260474 165.99618 
L 380.688952 161.856481 
L 380.326394 166.400053 
L 380.721912 162.007933 
L 380.754872 162.815679 
L 380.787832 162.20987 
L 380.886712 160.14002 
L 380.919671 160.74583 
L 381.512949 150.951907 
L 381.545909 151.103359 
L 381.875507 154.132407 
L 382.040306 149.942224 
L 382.073266 150.447065 
L 382.106226 149.639319 
L 382.139186 150.093676 
L 382.238066 148.932541 
L 382.271025 149.487866 
L 382.303985 149.639319 
L 382.336945 149.538351 
L 382.534704 145.196715 
L 382.567664 145.701556 
L 382.600624 144.540421 
L 382.633584 144.792841 
L 382.864303 140.097816 
L 382.996142 141.258952 
L 383.029102 139.89588 
L 383.127982 140.249269 
L 383.160941 141.208467 
L 383.193901 139.693943 
L 383.226861 140.047332 
L 383.292781 140.552174 
L 383.325741 140.400721 
L 383.42462 140.148301 
L 383.49054 140.198785 
L 383.721259 134.443593 
L 383.754219 135.150371 
L 383.787179 133.888267 
L 383.919018 134.494077 
L 384.083817 131.818417 
L 384.149737 132.020354 
L 384.281576 131.212608 
L 384.314536 131.767933 
L 384.347496 130.455346 
L 384.413416 130.152441 
L 384.479335 128.940821 
L 384.512295 129.04179 
L 384.545255 129.90002 
L 384.578215 129.193242 
L 384.644135 127.375813 
L 384.677095 128.688401 
L 384.743014 128.486464 
L 384.775974 127.375813 
L 384.841894 128.385496 
L 384.874854 129.344694 
L 384.940773 128.991306 
L 384.973733 127.981623 
L 385.072613 128.133075 
L 385.105573 128.284528 
L 385.138533 128.133075 
L 385.171492 127.729202 
L 385.237412 129.092274 
L 385.303332 128.43598 
L 385.369251 128.738885 
L 385.402211 128.385496 
L 385.468131 128.43598 
L 385.69885 124.700154 
L 385.76477 123.539018 
L 385.830689 122.226431 
L 385.863649 123.589503 
L 385.896609 123.387566 
L 385.929569 123.43805 
L 386.028449 125.255479 
L 386.094368 124.548701 
L 386.127328 123.841923 
L 386.160288 124.29628 
L 386.193248 126.265162 
L 386.259168 124.094344 
L 386.292127 124.094344 
L 386.325087 124.498217 
L 386.358047 123.841923 
L 386.391007 123.942891 
L 386.819485 117.58189 
L 386.456927 124.29628 
L 386.852445 118.843993 
L 387.050204 122.83224 
L 387.116124 122.074978 
L 387.149084 121.923526 
L 387.346843 126.719519 
L 387.379802 125.911773 
L 387.544602 129.496147 
L 387.610521 129.698083 
L 387.643481 128.991306 
L 387.709401 130.808735 
L 387.775321 130.253409 
L 387.808281 130.960187 
L 387.84124 130.101957 
L 387.8742 130.101957 
L 387.90716 128.738885 
L 387.97308 130.101957 
L 388.00604 130.051472 
L 388.039 129.29421 
L 388.071959 130.606798 
L 388.170839 133.484394 
L 388.236759 132.22229 
L 388.269719 132.272775 
L 388.302678 131.868902 
L 388.533397 136.008601 
L 388.862996 140.249269 
L 388.961875 144.187032 
L 389.027795 143.379285 
L 389.192594 145.651072 
L 389.258514 145.247199 
L 389.456273 149.841255 
L 389.489233 147.922858 
L 389.555153 150.346097 
L 389.621072 151.709169 
L 389.686992 151.002391 
L 389.983631 155.495479 
L 390.14843 157.868234 
L 390.18139 157.918718 
L 390.510988 165.99618 
L 390.774667 175.083326 
L 390.807627 173.366865 
L 390.840587 174.729937 
L 390.939467 176.900755 
L 390.972426 176.294945 
L 391.532744 193.207132 
L 391.598664 192.752775 
L 391.631623 192.045997 
L 391.664583 192.550838 
L 391.895302 197.548768 
L 391.928262 197.195379 
L 391.961222 197.801189 
L 392.027142 199.113776 
L 392.093061 200.931205 
L 392.126021 200.325396 
L 392.191941 199.517649 
L 392.257861 199.719586 
L 392.32378 199.921523 
L 392.35674 199.568134 
L 392.587459 201.890404 
L 392.620419 201.335078 
L 392.686339 201.83992 
L 392.752258 202.294277 
L 392.982977 209.311573 
L 393.015937 208.806731 
L 393.048897 209.210604 
L 393.081857 209.967866 
L 393.114817 208.402858 
L 393.444415 212.0882 
L 393.642174 215.874511 
L 393.675134 215.874511 
L 393.806974 214.76386 
L 393.741054 215.924995 
L 393.872893 215.066765 
L 393.905853 214.965796 
L 393.971773 217.136614 
L 394.004733 216.278384 
L 394.070653 214.359987 
L 394.136572 215.01628 
L 394.235452 218.095813 
L 394.268412 217.641456 
L 394.433211 215.924995 
L 394.53209 216.631773 
L 394.56505 215.773543 
L 394.69689 220.468568 
L 394.72985 220.165663 
L 394.762809 218.853075 
L 394.828729 219.509369 
L 394.861689 220.62002 
L 394.927609 220.569536 
L 394.960569 219.913242 
L 395.026488 220.720988 
L 395.059448 220.418083 
L 395.224247 222.437449 
L 395.323127 221.781155 
L 395.356087 220.468568 
L 395.422006 220.720988 
L 395.454966 220.973409 
L 395.487926 220.519052 
L 395.520886 220.771472 
L 395.619766 217.742424 
L 395.685685 218.600654 
L 395.751605 219.812274 
L 395.784565 218.701623 
L 395.883444 218.247265 
L 395.916404 218.449202 
L 395.949364 218.651139 
L 395.982324 218.196781 
L 396.015284 218.398718 
L 396.114163 218.701623 
L 396.180083 219.711306 
L 396.344882 216.934678 
L 396.410802 216.076447 
L 396.443762 214.76386 
L 396.509682 216.480321 
L 396.641521 218.449202 
L 396.674481 217.69194 
L 396.707441 217.490003 
L 396.80632 216.177416 
L 396.77336 217.69194 
L 396.83928 216.530805 
L 396.87224 216.783225 
L 397.102959 213.097883 
L 397.135919 213.29982 
L 397.300718 215.01628 
L 397.399598 214.006598 
L 397.432557 214.359987 
L 397.465517 214.814344 
L 397.498477 214.208534 
L 397.531437 214.057082 
L 397.564397 214.309503 
L 397.597357 214.965796 
L 397.663276 214.814344 
L 397.992875 208.958184 
L 398.025835 209.059152 
L 398.058795 208.251406 
L 398.091754 209.563993 
L 398.124714 210.37174 
L 398.190634 209.866898 
L 398.223594 209.866898 
L 398.256554 210.169803 
L 398.421353 208.453342 
L 398.487273 209.715446 
L 398.487273 209.715446 
" style="fill:none;stroke:#1f77b4;stroke-linecap:square;"/>
   </g>
   <g id="patch_3">
    <path d="M 57.6 307.584 
L 57.6 41.472 
" style="fill:none;stroke:#000000;stroke-linecap:square;stroke-linejoin:miter;stroke-width:0.8;"/>
   </g>
   <g id="patch_4">
    <path d="M 414.72 307.584 
L 414.72 41.472 
" style="fill:none;stroke:#000000;stroke-linecap:square;stroke-linejoin:miter;stroke-width:0.8;"/>
   </g>
   <g id="patch_5">
    <path d="M 57.6 307.584 
L 414.72 307.584 
" style="fill:none;stroke:#000000;stroke-linecap:square;stroke-linejoin:miter;stroke-width:0.8;"/>
   </g>
   <g id="patch_6">
    <path d="M 57.6 41.472 
L 414.72 41.472 
" style="fill:none;stroke:#000000;stroke-linecap:square;stroke-linejoin:miter;stroke-width:0.8;"/>
   </g>
  </g>
 </g>
 <defs>
  <clipPath id="p835318348e">
   <rect height="266.112" width="357.12" x="57.6" y="41.472"/>
  </clipPath>
 </defs>
</svg>
