<?xml version="1.0" encoding="utf-8" standalone="no"?>
<!DOCTYPE svg PUBLIC "-//W3C//DTD SVG 1.1//EN"
  "http://www.w3.org/Graphics/SVG/1.1/DTD/svg11.dtd">
<svg height="345.6pt" version="1.1" viewBox="0 0 460.8 345.6" width="460.8pt" xmlns="http://www.w3.org/2000/svg" xmlns:xlink="http://www.w3.org/1999/xlink">
 <metadata>
  <rdf:RDF xmlns:cc="http://creativecommons.org/ns#" xmlns:dc="http://purl.org/dc/elements/1.1/" xmlns:rdf="http://www.w3.org/1999/02/22-rdf-syntax-ns#">
   <cc:Work>
    <dc:type rdf:resource="http://purl.org/dc/dcmitype/StillImage"/>
    <dc:date>2021-12-10T23:35:41.686109</dc:date>
    <dc:format>image/svg+xml</dc:format>
    <dc:creator>
     <cc:Agent>
      <dc:title>Matplotlib v3.4.3, https://matplotlib.org/</dc:title>
     </cc:Agent>
    </dc:creator>
   </cc:Work>
  </rdf:RDF>
 </metadata>
 <defs>
  <style type="text/css">*{stroke-linecap:butt;stroke-linejoin:round;}</style>
 </defs>
 <g id="figure_1">
  <g id="patch_1">
   <path d="M 0 345.6 
L 460.8 345.6 
L 460.8 0 
L 0 0 
z
" style="fill:#ffffff;"/>
  </g>
  <g id="axes_1">
   <g id="patch_2">
    <path d="M 57.6 307.584 
L 414.72 307.584 
L 414.72 41.472 
L 57.6 41.472 
z
" style="fill:#ffffff;"/>
   </g>
   <g id="matplotlib.axis_1">
    <g id="xtick_1">
     <g id="line2d_1">
      <path clip-path="url(#pd87276b774)" d="M 73.832727 307.584 
L 73.832727 41.472 
" style="fill:none;stroke:#b0b0b0;stroke-linecap:square;stroke-width:0.8;"/>
     </g>
     <g id="line2d_2">
      <defs>
       <path d="M 0 0 
L 0 3.5 
" id="m57818254b2" style="stroke:#000000;stroke-width:0.8;"/>
      </defs>
      <g>
       <use style="stroke:#000000;stroke-width:0.8;" x="73.832727" xlink:href="#m57818254b2" y="307.584"/>
      </g>
     </g>
     <g id="text_1">
      <!-- 0 -->
      <g transform="translate(70.651477 322.182437)scale(0.1 -0.1)">
       <defs>
        <path d="M 2034 4250 
Q 1547 4250 1301 3770 
Q 1056 3291 1056 2328 
Q 1056 1369 1301 889 
Q 1547 409 2034 409 
Q 2525 409 2770 889 
Q 3016 1369 3016 2328 
Q 3016 3291 2770 3770 
Q 2525 4250 2034 4250 
z
M 2034 4750 
Q 2819 4750 3233 4129 
Q 3647 3509 3647 2328 
Q 3647 1150 3233 529 
Q 2819 -91 2034 -91 
Q 1250 -91 836 529 
Q 422 1150 422 2328 
Q 422 3509 836 4129 
Q 1250 4750 2034 4750 
z
" id="DejaVuSans-30" transform="scale(0.015625)"/>
       </defs>
       <use xlink:href="#DejaVuSans-30"/>
      </g>
     </g>
    </g>
    <g id="xtick_2">
     <g id="line2d_3">
      <path clip-path="url(#pd87276b774)" d="M 139.74574 307.584 
L 139.74574 41.472 
" style="fill:none;stroke:#b0b0b0;stroke-linecap:square;stroke-width:0.8;"/>
     </g>
     <g id="line2d_4">
      <g>
       <use style="stroke:#000000;stroke-width:0.8;" x="139.74574" xlink:href="#m57818254b2" y="307.584"/>
      </g>
     </g>
     <g id="text_2">
      <!-- 100 -->
      <g transform="translate(130.20199 322.182437)scale(0.1 -0.1)">
       <defs>
        <path d="M 794 531 
L 1825 531 
L 1825 4091 
L 703 3866 
L 703 4441 
L 1819 4666 
L 2450 4666 
L 2450 531 
L 3481 531 
L 3481 0 
L 794 0 
L 794 531 
z
" id="DejaVuSans-31" transform="scale(0.015625)"/>
       </defs>
       <use xlink:href="#DejaVuSans-31"/>
       <use x="63.623047" xlink:href="#DejaVuSans-30"/>
       <use x="127.246094" xlink:href="#DejaVuSans-30"/>
      </g>
     </g>
    </g>
    <g id="xtick_3">
     <g id="line2d_5">
      <path clip-path="url(#pd87276b774)" d="M 205.658753 307.584 
L 205.658753 41.472 
" style="fill:none;stroke:#b0b0b0;stroke-linecap:square;stroke-width:0.8;"/>
     </g>
     <g id="line2d_6">
      <g>
       <use style="stroke:#000000;stroke-width:0.8;" x="205.658753" xlink:href="#m57818254b2" y="307.584"/>
      </g>
     </g>
     <g id="text_3">
      <!-- 200 -->
      <g transform="translate(196.115003 322.182437)scale(0.1 -0.1)">
       <defs>
        <path d="M 1228 531 
L 3431 531 
L 3431 0 
L 469 0 
L 469 531 
Q 828 903 1448 1529 
Q 2069 2156 2228 2338 
Q 2531 2678 2651 2914 
Q 2772 3150 2772 3378 
Q 2772 3750 2511 3984 
Q 2250 4219 1831 4219 
Q 1534 4219 1204 4116 
Q 875 4013 500 3803 
L 500 4441 
Q 881 4594 1212 4672 
Q 1544 4750 1819 4750 
Q 2544 4750 2975 4387 
Q 3406 4025 3406 3419 
Q 3406 3131 3298 2873 
Q 3191 2616 2906 2266 
Q 2828 2175 2409 1742 
Q 1991 1309 1228 531 
z
" id="DejaVuSans-32" transform="scale(0.015625)"/>
       </defs>
       <use xlink:href="#DejaVuSans-32"/>
       <use x="63.623047" xlink:href="#DejaVuSans-30"/>
       <use x="127.246094" xlink:href="#DejaVuSans-30"/>
      </g>
     </g>
    </g>
    <g id="xtick_4">
     <g id="line2d_7">
      <path clip-path="url(#pd87276b774)" d="M 271.571766 307.584 
L 271.571766 41.472 
" style="fill:none;stroke:#b0b0b0;stroke-linecap:square;stroke-width:0.8;"/>
     </g>
     <g id="line2d_8">
      <g>
       <use style="stroke:#000000;stroke-width:0.8;" x="271.571766" xlink:href="#m57818254b2" y="307.584"/>
      </g>
     </g>
     <g id="text_4">
      <!-- 300 -->
      <g transform="translate(262.028016 322.182437)scale(0.1 -0.1)">
       <defs>
        <path d="M 2597 2516 
Q 3050 2419 3304 2112 
Q 3559 1806 3559 1356 
Q 3559 666 3084 287 
Q 2609 -91 1734 -91 
Q 1441 -91 1130 -33 
Q 819 25 488 141 
L 488 750 
Q 750 597 1062 519 
Q 1375 441 1716 441 
Q 2309 441 2620 675 
Q 2931 909 2931 1356 
Q 2931 1769 2642 2001 
Q 2353 2234 1838 2234 
L 1294 2234 
L 1294 2753 
L 1863 2753 
Q 2328 2753 2575 2939 
Q 2822 3125 2822 3475 
Q 2822 3834 2567 4026 
Q 2313 4219 1838 4219 
Q 1578 4219 1281 4162 
Q 984 4106 628 3988 
L 628 4550 
Q 988 4650 1302 4700 
Q 1616 4750 1894 4750 
Q 2613 4750 3031 4423 
Q 3450 4097 3450 3541 
Q 3450 3153 3228 2886 
Q 3006 2619 2597 2516 
z
" id="DejaVuSans-33" transform="scale(0.015625)"/>
       </defs>
       <use xlink:href="#DejaVuSans-33"/>
       <use x="63.623047" xlink:href="#DejaVuSans-30"/>
       <use x="127.246094" xlink:href="#DejaVuSans-30"/>
      </g>
     </g>
    </g>
    <g id="xtick_5">
     <g id="line2d_9">
      <path clip-path="url(#pd87276b774)" d="M 337.484779 307.584 
L 337.484779 41.472 
" style="fill:none;stroke:#b0b0b0;stroke-linecap:square;stroke-width:0.8;"/>
     </g>
     <g id="line2d_10">
      <g>
       <use style="stroke:#000000;stroke-width:0.8;" x="337.484779" xlink:href="#m57818254b2" y="307.584"/>
      </g>
     </g>
     <g id="text_5">
      <!-- 400 -->
      <g transform="translate(327.941029 322.182437)scale(0.1 -0.1)">
       <defs>
        <path d="M 2419 4116 
L 825 1625 
L 2419 1625 
L 2419 4116 
z
M 2253 4666 
L 3047 4666 
L 3047 1625 
L 3713 1625 
L 3713 1100 
L 3047 1100 
L 3047 0 
L 2419 0 
L 2419 1100 
L 313 1100 
L 313 1709 
L 2253 4666 
z
" id="DejaVuSans-34" transform="scale(0.015625)"/>
       </defs>
       <use xlink:href="#DejaVuSans-34"/>
       <use x="63.623047" xlink:href="#DejaVuSans-30"/>
       <use x="127.246094" xlink:href="#DejaVuSans-30"/>
      </g>
     </g>
    </g>
    <g id="xtick_6">
     <g id="line2d_11">
      <path clip-path="url(#pd87276b774)" d="M 403.397792 307.584 
L 403.397792 41.472 
" style="fill:none;stroke:#b0b0b0;stroke-linecap:square;stroke-width:0.8;"/>
     </g>
     <g id="line2d_12">
      <g>
       <use style="stroke:#000000;stroke-width:0.8;" x="403.397792" xlink:href="#m57818254b2" y="307.584"/>
      </g>
     </g>
     <g id="text_6">
      <!-- 500 -->
      <g transform="translate(393.854042 322.182437)scale(0.1 -0.1)">
       <defs>
        <path d="M 691 4666 
L 3169 4666 
L 3169 4134 
L 1269 4134 
L 1269 2991 
Q 1406 3038 1543 3061 
Q 1681 3084 1819 3084 
Q 2600 3084 3056 2656 
Q 3513 2228 3513 1497 
Q 3513 744 3044 326 
Q 2575 -91 1722 -91 
Q 1428 -91 1123 -41 
Q 819 9 494 109 
L 494 744 
Q 775 591 1075 516 
Q 1375 441 1709 441 
Q 2250 441 2565 725 
Q 2881 1009 2881 1497 
Q 2881 1984 2565 2268 
Q 2250 2553 1709 2553 
Q 1456 2553 1204 2497 
Q 953 2441 691 2322 
L 691 4666 
z
" id="DejaVuSans-35" transform="scale(0.015625)"/>
       </defs>
       <use xlink:href="#DejaVuSans-35"/>
       <use x="63.623047" xlink:href="#DejaVuSans-30"/>
       <use x="127.246094" xlink:href="#DejaVuSans-30"/>
      </g>
     </g>
    </g>
   </g>
   <g id="matplotlib.axis_2">
    <g id="ytick_1">
     <g id="line2d_13">
      <path clip-path="url(#pd87276b774)" d="M 57.6 283.477787 
L 414.72 283.477787 
" style="fill:none;stroke:#b0b0b0;stroke-linecap:square;stroke-width:0.8;"/>
     </g>
     <g id="line2d_14">
      <defs>
       <path d="M 0 0 
L -3.5 0 
" id="m82b88b64f9" style="stroke:#000000;stroke-width:0.8;"/>
      </defs>
      <g>
       <use style="stroke:#000000;stroke-width:0.8;" x="57.6" xlink:href="#m82b88b64f9" y="283.477787"/>
      </g>
     </g>
     <g id="text_7">
      <!-- −0.02 -->
      <g transform="translate(19.954687 287.277006)scale(0.1 -0.1)">
       <defs>
        <path d="M 678 2272 
L 4684 2272 
L 4684 1741 
L 678 1741 
L 678 2272 
z
" id="DejaVuSans-2212" transform="scale(0.015625)"/>
        <path d="M 684 794 
L 1344 794 
L 1344 0 
L 684 0 
L 684 794 
z
" id="DejaVuSans-2e" transform="scale(0.015625)"/>
       </defs>
       <use xlink:href="#DejaVuSans-2212"/>
       <use x="83.789062" xlink:href="#DejaVuSans-30"/>
       <use x="147.412109" xlink:href="#DejaVuSans-2e"/>
       <use x="179.199219" xlink:href="#DejaVuSans-30"/>
       <use x="242.822266" xlink:href="#DejaVuSans-32"/>
      </g>
     </g>
    </g>
    <g id="ytick_2">
     <g id="line2d_15">
      <path clip-path="url(#pd87276b774)" d="M 57.6 224.986491 
L 414.72 224.986491 
" style="fill:none;stroke:#b0b0b0;stroke-linecap:square;stroke-width:0.8;"/>
     </g>
     <g id="line2d_16">
      <g>
       <use style="stroke:#000000;stroke-width:0.8;" x="57.6" xlink:href="#m82b88b64f9" y="224.986491"/>
      </g>
     </g>
     <g id="text_8">
      <!-- −0.01 -->
      <g transform="translate(19.954687 228.78571)scale(0.1 -0.1)">
       <use xlink:href="#DejaVuSans-2212"/>
       <use x="83.789062" xlink:href="#DejaVuSans-30"/>
       <use x="147.412109" xlink:href="#DejaVuSans-2e"/>
       <use x="179.199219" xlink:href="#DejaVuSans-30"/>
       <use x="242.822266" xlink:href="#DejaVuSans-31"/>
      </g>
     </g>
    </g>
    <g id="ytick_3">
     <g id="line2d_17">
      <path clip-path="url(#pd87276b774)" d="M 57.6 166.495195 
L 414.72 166.495195 
" style="fill:none;stroke:#b0b0b0;stroke-linecap:square;stroke-width:0.8;"/>
     </g>
     <g id="line2d_18">
      <g>
       <use style="stroke:#000000;stroke-width:0.8;" x="57.6" xlink:href="#m82b88b64f9" y="166.495195"/>
      </g>
     </g>
     <g id="text_9">
      <!-- 0.00 -->
      <g transform="translate(28.334375 170.294414)scale(0.1 -0.1)">
       <use xlink:href="#DejaVuSans-30"/>
       <use x="63.623047" xlink:href="#DejaVuSans-2e"/>
       <use x="95.410156" xlink:href="#DejaVuSans-30"/>
       <use x="159.033203" xlink:href="#DejaVuSans-30"/>
      </g>
     </g>
    </g>
    <g id="ytick_4">
     <g id="line2d_19">
      <path clip-path="url(#pd87276b774)" d="M 57.6 108.003899 
L 414.72 108.003899 
" style="fill:none;stroke:#b0b0b0;stroke-linecap:square;stroke-width:0.8;"/>
     </g>
     <g id="line2d_20">
      <g>
       <use style="stroke:#000000;stroke-width:0.8;" x="57.6" xlink:href="#m82b88b64f9" y="108.003899"/>
      </g>
     </g>
     <g id="text_10">
      <!-- 0.01 -->
      <g transform="translate(28.334375 111.803118)scale(0.1 -0.1)">
       <use xlink:href="#DejaVuSans-30"/>
       <use x="63.623047" xlink:href="#DejaVuSans-2e"/>
       <use x="95.410156" xlink:href="#DejaVuSans-30"/>
       <use x="159.033203" xlink:href="#DejaVuSans-31"/>
      </g>
     </g>
    </g>
    <g id="ytick_5">
     <g id="line2d_21">
      <path clip-path="url(#pd87276b774)" d="M 57.6 49.512603 
L 414.72 49.512603 
" style="fill:none;stroke:#b0b0b0;stroke-linecap:square;stroke-width:0.8;"/>
     </g>
     <g id="line2d_22">
      <g>
       <use style="stroke:#000000;stroke-width:0.8;" x="57.6" xlink:href="#m82b88b64f9" y="49.512603"/>
      </g>
     </g>
     <g id="text_11">
      <!-- 0.02 -->
      <g transform="translate(28.334375 53.311822)scale(0.1 -0.1)">
       <use xlink:href="#DejaVuSans-30"/>
       <use x="63.623047" xlink:href="#DejaVuSans-2e"/>
       <use x="95.410156" xlink:href="#DejaVuSans-30"/>
       <use x="159.033203" xlink:href="#DejaVuSans-32"/>
      </g>
     </g>
    </g>
   </g>
   <g id="line2d_23">
    <path clip-path="url(#pd87276b774)" d="M 73.832727 166.853942 
L 73.89864 169.677122 
L 73.964553 168.741261 
L 74.030466 168.398112 
L 74.162292 167.243884 
L 74.195249 167.275079 
L 74.425944 164.31152 
L 74.491857 163.750004 
L 74.524814 164.155544 
L 74.788466 166.183242 
L 75.019162 165.091404 
L 75.052118 165.559335 
L 75.118031 164.997818 
L 75.150988 164.873037 
L 75.183944 164.31152 
L 75.249857 164.405106 
L 75.282814 164.529888 
L 75.31577 162.56458 
L 75.381683 163.282074 
L 75.41464 163.781199 
L 75.447596 163.718809 
L 75.579422 162.408603 
L 75.612379 162.658166 
L 75.645335 161.22318 
L 75.744205 161.441547 
L 75.777161 161.815892 
L 75.810118 161.316766 
L 75.843074 161.503938 
L 75.876031 161.535133 
L 76.172639 159.788193 
L 76.238552 160.100147 
L 76.271509 159.975366 
L 76.370378 161.535133 
L 76.403335 160.724054 
L 76.469248 161.316766 
L 76.502204 160.911226 
L 76.568117 160.724054 
L 76.63403 160.786445 
L 76.831769 163.219683 
L 76.996552 161.098398 
L 77.029508 161.878282 
L 77.062465 161.847087 
L 77.161334 161.036008 
L 77.194291 161.129594 
L 77.359073 162.658166 
L 77.39203 162.533385 
L 77.490899 164.71706 
L 77.523856 164.186739 
L 77.589769 163.718809 
L 77.622726 163.999567 
L 77.853421 165.840093 
L 77.886378 165.372162 
L 78.084117 162.470994 
L 78.117073 163.063706 
L 78.15003 162.408603 
L 78.182986 161.753501 
L 78.215943 162.408603 
L 78.248899 163.001315 
L 78.281856 162.470994 
L 78.380725 161.347961 
L 78.446638 161.379157 
L 78.677334 163.750004 
L 78.71029 163.406855 
L 78.743247 162.814143 
L 78.776203 163.781199 
L 78.875073 163.032511 
L 78.908029 163.37566 
L 78.940986 162.720557 
L 78.973942 162.814143 
L 79.039855 164.685865 
L 79.072812 164.030762 
L 79.204638 162.782948 
L 79.336464 163.937176 
L 79.402377 164.529888 
L 79.435333 164.405106 
L 79.666029 161.379157 
L 79.698985 161.971868 
L 79.731942 161.971868 
L 79.863768 163.001315 
L 79.896724 162.907729 
L 80.061507 161.410352 
L 80.193333 162.845338 
L 80.259246 163.43805 
L 80.325159 162.127845 
L 80.358116 162.252627 
L 80.391072 162.221431 
L 80.424029 163.406855 
L 80.522898 163.188487 
L 80.555855 162.470994 
L 80.588811 163.344464 
L 80.753594 164.436302 
L 80.78655 164.405106 
L 80.88542 165.340967 
L 80.951333 164.498692 
L 80.984289 164.592279 
L 81.083159 165.715311 
L 81.116115 165.559335 
L 81.313854 163.968371 
L 81.346811 164.966623 
L 81.412724 163.937176 
L 81.511593 164.31152 
L 81.643419 165.091404 
L 81.775245 164.529888 
L 81.808202 164.685865 
L 81.907071 166.308023 
L 81.940028 166.214437 
L 82.005941 165.715311 
L 82.038897 166.183242 
L 82.071854 166.183242 
L 82.137767 166.807149 
L 82.20368 165.746507 
L 82.236636 167.056712 
L 82.335506 168.959629 
L 82.434375 168.242135 
L 82.467332 168.398112 
L 82.533245 169.677122 
L 82.599158 169.146801 
L 82.665071 169.770708 
L 82.698028 169.146801 
L 82.730984 168.741261 
L 82.796897 168.897238 
L 82.829854 169.08441 
L 82.928723 170.862545 
L 82.96168 170.519397 
L 83.060549 170.020271 
L 83.126462 170.519397 
L 83.159419 170.082662 
L 83.192375 169.770708 
L 83.225332 170.301029 
L 83.324201 170.83135 
L 83.554897 168.803652 
L 83.587853 169.521145 
L 83.686723 169.396364 
L 83.785592 168.61648 
L 83.884462 169.770708 
L 83.917418 169.55234 
L 83.950375 169.614731 
L 83.983331 168.897238 
L 84.016288 169.396364 
L 84.148114 171.174499 
L 84.246983 170.207443 
L 84.27994 170.332224 
L 84.312896 170.737764 
L 84.345853 169.645926 
L 84.411766 170.36342 
L 84.444722 171.018522 
L 84.510635 170.550592 
L 84.543592 170.768959 
L 84.609505 170.488201 
L 84.873157 169.146801 
L 85.004983 170.051466 
L 85.169766 168.554089 
L 85.268635 169.458754 
L 85.301592 168.710066 
L 85.400461 168.959629 
L 85.499331 169.55234 
L 85.532287 169.396364 
L 85.565244 168.61648 
L 85.631157 169.55234 
L 85.69707 169.895489 
L 85.795939 169.209191 
L 85.828896 169.396364 
L 85.927765 170.238638 
L 85.960722 169.739513 
L 86.026635 170.42581 
L 86.092548 170.488201 
L 86.158461 170.176248 
L 86.323243 170.893741 
L 86.3562 170.644178 
L 86.389156 170.987327 
L 86.422113 170.768959 
L 86.455069 170.768959 
L 86.488026 170.519397 
L 86.520982 171.205694 
L 86.553939 170.394615 
L 86.586895 169.926685 
L 86.652808 170.113857 
L 86.685765 170.238638 
L 86.718721 170.082662 
L 86.751678 170.051466 
L 86.784634 169.770708 
L 86.817591 170.36342 
L 86.850547 170.36342 
L 87.114199 172.640681 
L 87.147156 172.328727 
L 87.311938 169.022019 
L 87.377851 169.55234 
L 87.410808 169.333973 
L 87.608547 167.867791 
L 87.67446 169.333973 
L 87.77333 169.08441 
L 87.905156 168.772456 
L 88.036982 171.954383 
L 88.366547 173.670128 
L 88.43246 173.202197 
L 88.465416 173.358174 
L 88.729068 175.448263 
L 88.794981 175.635435 
L 88.827938 175.573044 
L 88.99272 176.727273 
L 89.058633 175.853803 
L 89.09159 176.134561 
L 89.223416 176.976836 
L 89.256372 176.852054 
L 89.289329 177.257594 
L 89.322285 176.602491 
L 89.355242 177.039226 
L 89.388198 176.976836 
L 89.552981 179.628441 
L 89.585937 179.472464 
L 89.717763 178.474213 
L 89.75072 178.567799 
L 89.783676 178.349431 
L 89.882546 179.690832 
L 89.915502 178.973338 
L 90.113241 180.813865 
L 90.146198 180.907451 
L 90.179154 180.564302 
L 90.212111 181.001037 
L 90.245068 181.281795 
L 90.310981 181.188209 
L 90.376894 181.032232 
L 90.541676 181.936897 
L 90.640546 180.907451 
L 90.673502 181.437772 
L 90.805328 180.813865 
L 90.904198 182.436023 
L 90.937154 182.217656 
L 91.036024 180.907451 
L 91.06898 181.437772 
L 91.134893 181.2506 
L 91.200806 181.780921 
L 91.233763 181.406576 
L 91.266719 181.624944 
L 91.365589 182.779172 
L 91.398545 182.373632 
L 91.563328 183.839814 
L 91.596284 183.777424 
L 91.72811 183.403079 
L 91.761067 183.434275 
L 91.82698 184.120573 
L 91.859936 183.777424 
L 91.958806 183.621447 
L 91.991762 183.746228 
L 92.024719 183.715033 
L 92.090632 182.99754 
L 92.255414 185.150019 
L 92.321327 185.61795 
L 92.38724 185.493168 
L 92.420197 185.430778 
L 92.453153 185.056433 
L 92.519066 185.555559 
L 92.552023 186.179466 
L 92.584979 185.805122 
L 92.617936 185.118824 
L 92.683849 185.368387 
L 92.716805 185.649145 
L 92.881588 182.467219 
L 92.947501 182.498414 
L 93.211153 180.221153 
L 93.408892 181.71853 
L 93.474805 180.782669 
L 93.540718 180.907451 
L 93.606631 181.437772 
L 93.672544 181.344186 
L 93.705501 180.969841 
L 93.738457 181.2506 
L 93.771414 181.843311 
L 93.80437 180.907451 
L 93.936196 179.597246 
L 93.969153 180.002785 
L 94.002109 180.096371 
L 94.068022 179.09812 
L 94.100979 179.316487 
L 94.133935 179.722027 
L 94.166892 178.942143 
L 94.199848 178.754971 
L 94.232805 179.160511 
L 94.265761 180.252348 
L 94.331674 179.690832 
L 94.430544 179.09812 
L 94.595326 177.288789 
L 94.661239 178.22465 
L 94.727152 178.193455 
L 94.826022 177.75672 
L 94.858978 179.285292 
L 94.924891 177.413571 
L 94.957848 177.319985 
L 95.12263 178.193455 
L 95.155587 177.538352 
L 95.2215 178.287041 
L 95.254456 178.068673 
L 95.287413 178.536603 
L 95.32037 179.191706 
L 95.353326 178.006282 
L 95.551065 176.914445 
L 95.649935 177.257594 
L 95.682891 176.633687 
L 95.781761 176.820859 
L 95.847674 176.040975 
L 95.88063 176.134561 
L 95.9795 177.538352 
L 96.045413 175.822607 
L 96.111326 176.321733 
L 96.144282 176.820859 
L 96.210195 176.352928 
L 96.309065 174.543598 
L 96.342021 175.541849 
L 96.407934 174.917942 
L 96.473847 175.229896 
L 96.63863 174.200449 
L 96.671586 174.917942 
L 96.737499 174.231644 
L 96.770456 174.075667 
L 96.803412 174.418816 
L 96.869325 174.450012 
L 97.034108 173.45176 
L 97.264803 170.488201 
L 97.429586 172.047969 
L 97.330716 170.269834 
L 97.462542 171.486453 
L 97.495499 171.486453 
L 97.528455 171.891992 
L 97.594368 171.736015 
L 97.627325 171.174499 
L 97.693238 171.860797 
L 97.825064 172.422313 
L 97.923934 172.57829 
L 98.154629 173.701323 
L 98.187586 173.8573 
L 98.220542 173.545346 
L 98.286455 173.077416 
L 98.385325 174.138058 
L 98.418281 174.044472 
L 98.484194 173.763714 
L 98.583064 174.574793 
L 98.71489 173.420565 
L 99.110368 177.039226 
L 99.143324 176.664882 
L 99.209237 175.916193 
L 99.27515 176.259342 
L 99.538802 180.189957 
L 99.670628 179.628441 
L 99.703585 179.597246 
L 99.901324 181.094623 
L 99.967237 180.43952 
L 100.03315 179.222901 
L 100.099063 179.940395 
L 100.132019 179.784418 
L 100.263845 177.600743 
L 100.329758 178.848557 
L 100.395672 178.567799 
L 100.69228 175.417068 
L 100.461585 178.973338 
L 100.725237 175.448263 
L 100.824106 176.415319 
L 100.922976 175.354677 
L 100.955932 175.822607 
L 101.054802 176.196952 
L 101.153671 175.385872 
L 101.318454 177.382375 
L 101.35141 177.725524 
L 101.384367 177.039226 
L 101.45028 177.382375 
L 101.483236 177.507157 
L 101.680975 176.165756 
L 101.713932 176.415319 
L 101.746888 176.196952 
L 101.878714 175.697826 
L 101.911671 175.697826 
L 101.944627 175.479458 
L 102.208279 178.69258 
L 102.241236 178.63019 
L 102.274192 179.035729 
L 102.340105 178.817362 
L 102.438975 177.694329 
L 102.471931 177.975087 
L 102.504888 177.975087 
L 102.636714 178.910948 
L 102.735583 177.81911 
L 102.76854 178.22465 
L 102.801496 178.255845 
L 102.834453 177.507157 
L 102.900366 177.975087 
L 102.933323 178.037478 
L 103.065149 177.382375 
L 103.098105 177.787915 
L 103.131062 177.101617 
L 103.164018 177.444766 
L 103.262888 176.508905 
L 103.295844 176.727273 
L 103.328801 177.008031 
L 103.394714 176.727273 
L 103.493583 175.167505 
L 103.559496 175.354677 
L 103.625409 175.448263 
L 103.658366 175.042723 
L 103.691322 175.853803 
L 103.790192 175.073919 
L 103.889061 174.231644 
L 103.954974 174.356426 
L 104.053844 174.32523 
L 104.0868 175.541849 
L 104.119757 175.666631 
L 104.152713 176.321733 
L 104.218626 175.729021 
L 104.317496 174.418816 
L 104.383409 174.574793 
L 104.416365 175.1987 
L 104.449322 174.044472 
L 104.515235 173.358174 
L 104.548191 173.919691 
L 104.581148 174.044472 
L 104.877756 170.924936 
L 104.976626 173.015025 
L 105.009582 172.765462 
L 105.075495 171.736015 
L 105.108452 171.954383 
L 105.273234 173.046221 
L 105.306191 172.952634 
L 105.6028 175.884998 
L 105.668713 175.417068 
L 105.767582 173.202197 
L 105.866452 174.013277 
L 105.932365 174.886747 
L 106.031234 174.543598 
L 106.064191 174.418816 
L 106.097147 175.167505 
L 106.16306 174.980333 
L 106.393756 172.765462 
L 106.426712 172.703072 
L 106.492625 172.640681 
L 106.624451 174.169253 
L 106.723321 173.295783 
L 106.756277 173.607737 
L 106.92106 174.574793 
L 107.250625 171.860797 
L 107.316538 171.548843 
L 107.349494 171.985578 
L 107.382451 171.673625 
L 107.613146 168.273331 
L 107.646103 168.554089 
L 107.679059 168.273331 
L 107.744972 167.399861 
L 107.810885 167.680619 
L 107.942711 166.682368 
L 108.041581 166.027265 
L 108.173407 166.775954 
L 108.272277 165.59053 
L 108.33819 165.652921 
L 108.371146 165.434553 
L 108.404103 165.871288 
L 108.437059 165.871288 
L 108.535929 164.498692 
L 108.700711 162.283822 
L 108.733668 162.56458 
L 108.766624 162.876534 
L 108.799581 162.377408 
L 109.030276 160.81764 
L 109.096189 159.912975 
L 109.162102 160.224928 
L 109.195059 160.34971 
L 109.228015 160.942422 
L 109.293928 160.75525 
L 109.359841 160.037756 
L 109.425754 160.443296 
L 109.458711 161.067203 
L 109.524624 160.599273 
L 109.55758 160.536882 
L 109.689406 162.127845 
L 109.953058 158.509184 
L 110.018971 159.569826 
L 110.084884 159.975366 
L 110.282623 158.446793 
L 110.348536 159.101896 
L 110.414449 158.945919 
L 110.447406 158.540379 
L 110.546276 158.60277 
L 110.579232 158.571574 
L 110.678102 159.164286 
L 110.711058 159.101896 
L 110.744015 158.758747 
L 110.809928 159.226677 
L 110.875841 158.322012 
L 110.97471 158.60277 
L 111.106536 155.264867 
L 111.139493 155.57682 
L 111.172449 155.483234 
L 111.205406 156.013555 
L 111.238362 155.327257 
L 111.271319 155.483234 
L 111.436101 157.074197 
L 111.469058 156.387899 
L 111.567927 157.354956 
L 111.63384 156.980611 
L 111.666797 158.19723 
L 111.73271 157.542128 
L 111.930449 155.545625 
L 111.963405 155.701602 
L 111.996362 155.795188 
L 112.029318 155.639211 
L 112.062275 155.389648 
L 112.095231 156.387899 
L 112.161144 155.98236 
L 112.227057 155.608015 
L 112.260014 156.075946 
L 112.358883 155.919969 
L 112.424796 156.356704 
L 112.457753 155.608015 
L 112.523666 156.606267 
L 112.556622 157.043002 
L 112.589579 155.888774 
L 112.655492 156.606267 
L 112.886187 157.791691 
L 113.05097 155.17128 
L 113.182796 156.04475 
L 113.215753 156.169532 
L 113.281666 154.422592 
L 113.347579 155.015304 
L 113.380535 155.046499 
L 113.512361 157.386151 
L 113.578274 156.793439 
L 113.743057 158.509184 
L 114.006709 161.22318 
L 114.039665 160.911226 
L 114.105578 160.661663 
L 114.138535 161.472743 
L 114.204448 161.191985 
L 114.402187 159.663412 
L 114.4681 160.443296 
L 114.501056 160.318515 
L 114.665839 158.821137 
L 114.764708 159.663412 
L 114.929491 160.630468 
L 114.962447 160.505687 
L 114.995404 160.786445 
L 115.02836 160.81764 
L 115.12723 160.287319 
L 115.094273 160.911226 
L 115.160186 160.568077 
L 115.292012 159.694607 
L 115.357925 159.881779 
L 115.456795 160.34971 
L 115.555664 159.663412 
L 115.588621 159.850584 
L 115.654534 161.379157 
L 115.720447 160.724054 
L 115.753404 160.724054 
L 115.78636 160.942422 
L 115.819317 160.75525 
L 115.918186 159.039505 
L 116.050012 161.503938 
L 116.115925 161.722306 
L 116.148882 161.191985 
L 116.313664 162.50219 
L 116.709142 159.413849 
L 116.742099 159.819389 
L 116.775055 159.008309 
L 116.808012 159.289068 
L 116.873925 159.819389 
L 116.906881 159.257872 
L 117.137577 161.067203 
L 117.170533 161.472743 
L 117.20349 160.568077 
L 117.236446 160.630468 
L 117.467142 163.094901 
L 117.598968 163.874785 
L 117.697837 163.126097 
L 117.730794 163.250878 
L 117.895576 164.436302 
L 117.994446 165.216186 
L 118.159229 163.126097 
L 118.225142 164.467497 
L 118.291055 164.061957 
L 118.389924 162.346213 
L 118.488794 162.97012 
L 118.62062 164.124348 
L 118.653576 164.061957 
L 118.851315 162.221431 
L 118.983141 162.876534 
L 119.213837 164.030762 
L 119.246793 163.344464 
L 119.312706 164.093153 
L 119.510445 162.595776 
L 119.741141 164.093153 
L 119.807054 164.966623 
L 119.872967 164.623474 
L 119.971836 163.874785 
L 120.169575 168.21094 
L 120.202532 167.930182 
L 120.268445 167.992573 
L 120.400271 165.59053 
L 120.433227 165.777702 
L 120.49914 166.308023 
L 120.532097 165.777702 
L 120.59801 166.152046 
L 120.630966 165.808897 
L 120.729836 164.030762 
L 120.762793 164.373911 
L 120.960532 166.838344 
L 121.059401 166.619977 
L 121.092358 167.275079 
L 121.158271 167.056712 
L 121.191227 166.93193 
L 121.224184 167.33747 
L 121.25714 166.619977 
L 121.290097 166.276828 
L 121.323053 166.308023 
L 121.454879 167.930182 
L 121.487836 167.8054 
L 121.520792 167.774205 
L 121.553749 167.587033 
L 121.586705 167.74301 
L 121.850357 169.833099 
L 121.883314 169.708317 
L 122.01514 170.301029 
L 122.146966 172.453509 
L 122.179922 172.297532 
L 122.278792 173.295783 
L 122.311748 173.046221 
L 122.344705 173.015025 
L 122.377661 173.389369 
L 122.410618 173.139807 
L 122.443574 172.796658 
L 122.476531 173.701323 
L 122.542444 173.295783 
L 122.5754 173.233393 
L 122.641313 173.888495 
L 122.67427 173.8573 
L 122.707226 173.295783 
L 122.740183 173.763714 
L 123.003835 177.943892 
L 123.069748 177.787915 
L 123.102704 177.912696 
L 123.267487 180.314739 
L 123.366357 178.910948 
L 123.399313 179.160511 
L 123.465226 180.751474 
L 123.498183 180.033981 
L 123.564096 179.597246 
L 123.597052 179.909199 
L 123.794791 182.623195 
L 123.827748 182.467219 
L 123.926617 180.501911 
L 123.99253 181.001037 
L 124.058443 180.657888 
L 124.124356 180.782669 
L 124.256182 182.498414 
L 124.289139 182.030484 
L 124.420965 183.309493 
L 124.453921 184.245354 
L 124.519834 183.122321 
L 124.618704 184.182963 
L 124.65166 183.496665 
L 124.684617 183.434275 
L 124.75053 182.592 
L 124.783486 183.278298 
L 124.816443 183.184712 
L 124.981225 181.874507 
L 125.014182 181.874507 
L 125.047138 181.999288 
L 125.080095 182.654391 
L 125.113051 181.812116 
L 125.178964 181.219404 
L 125.211921 181.468967 
L 125.40966 183.777424 
L 125.442616 183.590251 
L 125.607399 186.990545 
L 125.673312 186.709787 
L 125.739225 186.834569 
L 125.772182 186.709787 
L 125.904008 186.241857 
L 126.06879 187.271304 
L 126.101747 187.42728 
L 126.200616 186.803373 
L 126.266529 187.83282 
L 126.332442 187.458476 
L 126.398355 187.489671 
L 126.464268 187.115327 
L 126.497225 187.396085 
L 126.530181 186.865764 
L 126.596094 187.177718 
L 126.925659 189.174221 
L 126.958616 189.11183 
L 127.057485 187.520867 
L 127.123398 188.987048 
L 127.156355 188.269555 
L 127.255224 186.55381 
L 127.321137 186.585006 
L 127.38705 187.302499 
L 127.452963 187.146522 
L 127.584789 186.304248 
L 127.650702 186.522615 
L 127.782528 184.370135 
L 127.848441 184.713284 
L 127.881398 184.682089 
L 127.947311 184.182963 
L 128.04618 185.461973 
L 128.079137 185.274801 
L 128.112093 185.118824 
L 128.14505 185.368387 
L 128.178006 185.524364 
L 128.210963 184.432526 
L 128.243919 185.742731 
L 128.276876 185.68034 
L 128.309833 185.867513 
L 128.408702 184.494917 
L 128.441659 184.931652 
L 128.540528 186.585006 
L 128.606441 184.775675 
L 128.672354 185.181215 
L 128.870093 186.366638 
L 128.738267 184.962847 
L 128.936006 186.054685 
L 129.001919 185.524364 
L 129.034876 186.054685 
L 129.100789 186.210662 
L 129.331484 187.614453 
L 129.166702 186.148271 
L 129.364441 187.396085 
L 129.397397 187.021741 
L 129.430354 187.458476 
L 129.529223 187.895211 
L 129.628093 187.333694 
L 129.661049 187.42728 
L 129.924701 191.576263 
L 129.990614 190.85877 
L 130.056527 189.454979 
L 130.089484 190.110081 
L 130.386092 192.948859 
L 130.419049 192.855273 
L 130.452005 192.480928 
L 130.484962 193.042445 
L 130.649744 194.446236 
L 130.682701 194.009501 
L 130.715657 194.75819 
L 130.748614 194.882971 
L 130.814527 194.35265 
L 130.847484 194.75819 
L 130.88044 194.75819 
L 130.913397 194.945362 
L 131.045223 193.759938 
L 131.242962 195.22612 
L 131.275918 194.851776 
L 131.308875 195.818832 
L 131.407744 195.69405 
L 131.440701 195.475683 
L 131.572527 197.409795 
L 131.605483 196.692302 
L 131.63844 196.56752 
L 131.671396 197.409795 
L 131.737309 196.473934 
L 131.869135 195.319706 
L 131.902092 195.319706 
L 131.935048 195.070143 
L 131.968005 195.756441 
L 132.000961 195.444487 
L 132.099831 193.416789 
L 132.165744 193.603961 
L 132.1987 194.290259 
L 132.264613 193.94711 
L 132.29757 193.88472 
L 132.330526 193.978306 
L 132.561222 196.879474 
L 132.627135 197.44099 
L 132.693048 198.470437 
L 132.726004 198.064897 
L 132.758961 197.285014 
L 132.824874 197.815335 
L 132.85783 198.064897 
L 132.890787 197.752944 
L 132.923743 197.191427 
L 133.022613 197.285014 
L 133.088526 196.879474 
L 133.187395 196.130785 
L 133.253308 195.912418 
L 133.385135 197.3786 
L 133.484004 196.286762 
L 133.582874 197.752944 
L 133.61583 197.503381 
L 133.648787 197.3786 
L 133.681743 198.064897 
L 133.747656 197.472186 
L 133.813569 197.222623 
L 133.879482 196.442739 
L 133.912439 197.004255 
L 133.978352 197.191427 
L 134.077221 196.536325 
L 134.242004 198.002507 
L 134.340873 197.066646 
L 134.37383 197.534576 
L 134.505656 196.006004 
L 134.538612 196.255567 
L 134.703395 198.002507 
L 134.967047 195.413292 
L 135.000003 195.943613 
L 135.065916 195.350901 
L 135.197742 193.728743 
L 135.296612 194.571017 
L 135.329568 194.383845 
L 135.395481 194.508627 
L 135.59322 193.07364 
L 135.69209 194.040696 
L 135.725046 193.978306 
L 135.889829 195.382097 
L 135.955742 194.789385 
L 135.988699 195.475683 
L 136.087568 194.539822 
L 136.120525 194.914166 
L 136.186438 194.914166 
L 136.285307 193.323203 
L 136.318264 193.447985 
L 136.384177 194.633408 
L 136.417133 194.35265 
L 136.45009 193.635157 
L 136.516003 194.477431 
L 136.581916 195.007752 
L 136.614872 194.508627 
L 136.680785 195.163729 
L 136.713742 196.286762 
L 136.779655 195.475683 
L 136.812611 194.82058 
L 136.878524 195.194925 
L 136.911481 195.132534 
L 137.043307 197.066646 
L 137.076263 196.692302 
L 137.10922 197.191427 
L 137.241046 197.815335 
L 137.537654 195.569269 
L 137.702437 195.787636 
L 137.867219 198.532828 
L 137.900176 198.064897 
L 138.032002 198.813586 
L 138.064958 198.751195 
L 138.229741 201.153238 
L 138.262697 200.778894 
L 138.394523 199.219126 
L 138.42748 199.905424 
L 138.493393 198.969563 
L 138.592263 198.751195 
L 138.625219 197.004255 
L 138.691132 197.877725 
L 138.822958 198.657609 
L 138.888871 198.564023 
L 138.954784 198.782391 
L 139.053654 197.971311 
L 139.08661 197.971311 
L 139.18548 197.004255 
L 139.449132 199.250321 
L 139.482088 199.281516 
L 139.679827 195.725246 
L 139.74574 195.787636 
L 139.910523 197.877725 
L 139.976436 197.097841 
L 140.009392 197.784139 
L 140.042349 197.784139 
L 140.371914 194.009501 
L 140.437827 194.134282 
L 140.569653 192.293756 
L 140.602609 192.543319 
L 140.668522 192.824077 
L 140.833305 191.139528 
L 141.031044 192.917663 
L 141.064001 192.824077 
L 141.096957 193.229617 
L 141.129914 192.356147 
L 141.16287 192.948859 
L 141.228783 192.980054 
L 141.459479 190.765184 
L 141.492435 191.170723 
L 141.525392 190.578012 
L 141.558348 190.671598 
L 141.756087 188.207164 
L 141.822 188.394337 
L 141.854957 188.207164 
L 141.986783 186.803373 
L 142.019739 186.865764 
L 142.118609 184.74448 
L 142.151565 186.273052 
L 142.217478 185.992294 
L 142.316348 187.396085 
L 142.349304 187.052936 
L 142.382261 186.834569 
L 142.415217 187.396085 
L 142.48113 186.647397 
L 142.810695 182.592 
L 142.843652 183.153516 
L 142.876608 182.342437 
L 142.909565 182.311242 
L 142.975478 181.71853 
L 143.008434 182.030484 
L 143.041391 182.18646 
L 143.074347 181.968093 
L 143.469825 179.940395 
L 143.502782 179.316487 
L 143.535739 179.597246 
L 143.700521 180.969841 
L 143.799391 180.002785 
L 143.89826 178.63019 
L 143.931217 179.316487 
L 144.030086 178.349431 
L 144.095999 178.037478 
L 144.128956 178.318236 
L 144.161912 178.567799 
L 144.194869 178.411822 
L 144.359651 176.820859 
L 144.425564 178.131064 
L 144.491477 177.507157 
L 144.689216 178.380627 
L 144.722173 178.255845 
L 144.853999 177.35118 
L 145.018781 178.474213 
L 145.051738 177.943892 
L 145.084694 178.037478 
L 145.150607 178.942143 
L 145.21652 178.474213 
L 145.282433 178.973338 
L 145.31539 179.597246 
L 145.381303 178.942143 
L 145.414259 179.004534 
L 145.546085 180.033981 
L 145.644955 178.380627 
L 145.710868 178.443017 
L 145.809737 177.195203 
L 145.908607 177.382375 
L 146.040433 175.073919 
L 146.07339 175.822607 
L 146.172259 175.573044 
L 146.205216 175.479458 
L 146.238172 175.510654 
L 146.435911 172.703072 
L 146.468868 172.734267 
L 146.501824 172.57829 
L 146.567737 172.359923 
L 146.63365 173.139807 
L 146.666607 173.233393 
L 146.699563 174.949137 
L 146.798433 174.418816 
L 146.831389 174.980333 
L 146.897302 174.543598 
L 146.930259 174.637184 
L 146.996172 174.106863 
L 147.029128 175.947389 
L 147.095041 174.543598 
L 147.127998 174.543598 
L 147.160954 174.761965 
L 147.193911 174.574793 
L 147.358693 172.921439 
L 147.39165 172.796658 
L 147.490519 173.8573 
L 147.523476 173.576542 
L 147.589389 173.888495 
L 147.721215 174.73077 
L 147.885997 172.297532 
L 147.95191 172.328727 
L 147.984867 172.266337 
L 148.083736 170.737764 
L 148.116693 171.143304 
L 148.149649 170.987327 
L 148.182606 171.330476 
L 148.215562 171.767211 
L 148.248519 171.268085 
L 148.281475 171.330476 
L 148.347388 171.174499 
L 148.446258 172.203946 
L 148.479214 171.580039 
L 148.512171 171.548843 
L 148.545127 171.642429 
L 148.676954 170.113857 
L 148.70991 170.332224 
L 148.874693 168.959629 
L 149.500866 162.315017 
L 149.533823 162.377408 
L 149.599736 161.410352 
L 149.665649 161.909478 
L 149.698605 162.252627 
L 149.863388 160.412101 
L 149.896344 160.599273 
L 149.929301 160.100147 
L 149.962257 160.568077 
L 149.995214 160.973617 
L 150.02817 160.692859 
L 150.258866 158.446793 
L 150.324779 158.571574 
L 150.357735 158.509184 
L 150.390692 158.540379 
L 150.423648 158.633965 
L 150.456605 158.322012 
L 150.621387 155.57682 
L 150.654344 155.264867 
L 150.6873 155.888774 
L 150.753213 155.826383 
L 150.852083 154.952913 
L 150.917996 155.17128 
L 150.950952 155.670406 
L 151.016865 155.327257 
L 151.148692 154.609764 
L 151.181648 154.765741 
L 151.346431 157.32376 
L 151.4453 156.606267 
L 151.478257 156.45029 
L 151.511213 157.230174 
L 151.577126 156.668658 
L 151.774865 154.640959 
L 151.807822 154.329006 
L 151.840778 154.578569 
L 151.939648 156.387899 
L 151.972604 155.140085 
L 152.038517 155.545625 
L 152.10443 155.420843 
L 152.170343 156.169532 
L 152.269213 155.10889 
L 152.302169 155.639211 
L 152.433995 156.668658 
L 152.499908 156.263118 
L 152.631734 154.578569 
L 152.664691 154.609764 
L 152.730604 154.952913 
L 152.76356 155.857578 
L 152.86243 155.795188 
L 152.928343 154.952913 
L 152.961299 155.795188 
L 153.126082 154.765741 
L 153.159038 154.921718 
L 153.290864 156.699853 
L 153.42269 155.857578 
L 153.455647 155.98236 
L 153.488603 155.919969 
L 153.554516 155.077694 
L 153.587473 155.17128 
L 153.818169 157.542128 
L 153.851125 157.510932 
L 154.048864 161.441547 
L 154.114777 160.81764 
L 154.147734 160.536882 
L 154.213647 162.09665 
L 154.27956 161.722306 
L 154.312516 161.597524 
L 154.444342 163.469246 
L 154.477299 163.344464 
L 154.510255 163.84359 
L 154.576168 163.594027 
L 154.642081 162.782948 
L 154.675038 163.594027 
L 154.707994 164.405106 
L 154.773907 163.43805 
L 154.806864 163.718809 
L 154.83982 163.687613 
L 154.872777 163.219683 
L 154.93869 163.531636 
L 154.971646 163.406855 
L 155.202342 165.153795 
L 155.235298 165.18499 
L 155.400081 166.994321 
L 155.696689 171.70482 
L 155.729646 171.080913 
L 155.762602 170.737764 
L 155.828515 172.453509 
L 155.894428 171.70482 
L 155.927385 171.860797 
L 155.960341 171.642429 
L 155.993298 171.548843 
L 156.026254 171.70482 
L 156.059211 171.580039 
L 156.092167 172.235141 
L 156.125124 171.891992 
L 156.289907 170.83135 
L 156.322863 171.798406 
L 156.35582 171.330476 
L 156.454689 170.020271 
L 156.487646 170.238638 
L 156.520602 169.989075 
L 156.553559 170.082662 
L 156.619472 170.675373 
L 156.652428 169.989075 
L 156.685385 169.864294 
L 156.718341 170.145052 
L 156.784254 170.737764 
L 156.883124 169.08441 
L 156.949037 170.238638 
L 156.981993 169.739513 
L 157.01495 169.396364 
L 157.047906 169.833099 
L 157.179732 170.737764 
L 157.212689 170.675373 
L 157.410428 169.583536 
L 157.509297 170.612983 
L 157.57521 170.519397 
L 157.707036 169.55234 
L 157.772949 171.486453 
L 157.838862 171.174499 
L 157.904775 170.238638 
L 157.937732 170.768959 
L 157.970688 171.392867 
L 158.036601 171.018522 
L 158.069558 170.987327 
L 158.23434 168.148549 
L 158.300253 168.866043 
L 158.33321 168.772456 
L 158.465036 170.893741 
L 158.497992 170.238638 
L 158.530949 170.207443 
L 158.563905 170.332224 
L 158.596862 170.082662 
L 158.629818 170.051466 
L 158.662775 170.269834 
L 158.695731 170.176248 
L 158.761645 169.864294 
L 158.794601 170.956132 
L 158.860514 169.708317 
L 158.893471 169.614731 
L 158.99234 168.834847 
L 159.025297 168.928433 
L 159.058253 168.803652 
L 159.09121 169.022019 
L 159.255992 169.833099 
L 159.486688 167.087907 
L 159.519644 167.462251 
L 159.552601 167.087907 
L 159.684427 165.621725 
L 159.783296 166.245632 
L 159.816253 166.807149 
L 159.849209 165.99607 
L 159.981035 164.467497 
L 160.112861 166.214437 
L 160.145818 165.964874 
L 160.277644 165.403358 
L 160.3106 165.684116 
L 160.40947 164.561083 
L 160.442426 164.654669 
L 160.508339 164.71706 
L 160.96973 159.47624 
L 161.0686 158.727551 
L 161.101556 159.257872 
L 161.167469 159.788193 
L 161.266339 158.477988 
L 161.299296 158.540379 
L 161.332252 159.164286 
L 161.365209 158.072449 
L 161.398165 158.19723 
L 161.497035 159.257872 
L 161.529991 159.039505 
L 161.694774 157.448542 
L 161.628861 159.133091 
L 161.72773 157.635714 
L 161.760687 157.542128 
L 161.793643 157.854081 
L 161.8266 157.573323 
L 161.892513 156.45029 
L 161.958426 156.793439 
L 161.991382 156.668658 
L 162.090252 155.233671 
L 162.123208 155.327257 
L 162.320947 153.767489 
L 162.353904 153.892271 
L 162.38686 153.237168 
L 162.452773 153.486731 
L 162.584599 154.391397 
L 162.617556 154.23542 
L 163.013034 149.649702 
L 163.04599 149.556116 
L 163.078947 150.398391 
L 163.14486 149.337749 
L 163.177816 149.524921 
L 163.210773 149.400139 
L 163.408512 146.561362 
L 163.441468 146.686143 
L 163.507381 146.031041 
L 163.540338 146.062236 
L 163.573294 147.091683 
L 163.639207 146.311799 
L 163.70512 145.313547 
L 163.738077 144.128124 
L 163.80399 144.970398 
L 163.836947 144.970398 
L 163.869903 145.188766 
L 163.90286 144.908008 
L 164.199468 140.72783 
L 164.265381 140.603048 
L 164.298338 139.791969 
L 164.331294 140.852611 
L 164.364251 140.353485 
L 164.397207 141.570104 
L 164.496077 141.164565 
L 164.529033 141.382932 
L 164.792685 138.076224 
L 164.825642 138.201006 
L 165.385902 132.305083 
L 165.418859 132.367474 
L 165.583641 133.864851 
L 165.616598 133.428116 
L 165.682511 133.33453 
L 165.715467 134.551149 
L 165.814337 134.176805 
L 165.88025 133.490507 
L 165.913206 134.145609 
L 165.946163 134.488758 
L 166.012076 134.083219 
L 166.045032 134.083219 
L 166.209815 132.336279 
L 166.242771 132.585841 
L 166.275728 132.242692 
L 166.308684 132.492255 
L 166.341641 132.46106 
L 166.473467 131.774762 
L 166.407554 132.523451 
L 166.506424 131.868348 
L 166.63825 132.554646 
L 166.671206 131.338027 
L 166.737119 132.492255 
L 166.934858 131.369222 
L 167.000771 132.242692 
L 167.066684 129.965431 
L 167.132597 130.963683 
L 167.165554 130.932487 
L 167.19851 130.24619 
L 167.264423 130.277385 
L 167.363293 131.213246 
L 167.396249 131.026074 
L 167.429206 131.088464 
L 167.528075 129.871845 
L 167.561032 130.402166 
L 167.659901 130.776511 
L 167.725814 130.932487 
L 167.791727 130.027822 
L 167.824684 130.121408 
L 167.85764 130.558143 
L 167.890597 130.277385 
L 167.95651 130.30858 
L 168.055379 128.811203 
L 168.088336 128.935985 
L 168.121292 128.717617 
L 168.154249 128.655226 
L 168.286075 129.37272 
L 168.319031 128.873594 
L 168.384944 129.403915 
L 168.417901 129.37272 
L 168.945205 122.509741 
L 169.011118 122.977671 
L 169.044075 122.634522 
L 169.208857 119.982917 
L 169.241814 120.045308 
L 169.439553 117.487288 
L 169.472509 116.80099 
L 169.538422 117.331311 
L 169.571379 117.892828 
L 169.670248 117.799242 
L 169.703205 117.67446 
L 169.736161 117.892828 
L 169.9339 119.265424 
L 170.03277 119.951721 
L 170.065726 119.546182 
L 170.098683 119.234228 
L 170.131639 119.546182 
L 170.329378 121.386708 
L 170.362335 121.324317 
L 170.790769 125.598081 
L 170.955552 128.280882 
L 171.054421 129.279133 
L 171.614682 138.887304 
L 171.647639 138.481764 
L 171.680595 138.356983 
L 171.878334 140.696634 
L 171.944247 140.32229 
L 172.01016 143.067482 
L 172.076073 143.036286 
L 172.10903 142.849114 
L 172.207899 143.972147 
L 172.240856 143.566607 
L 172.273812 143.504217 
L 172.471551 144.68964 
L 172.504508 144.68964 
L 172.537464 144.876812 
L 172.570421 144.658445 
L 172.66929 143.909756 
L 172.702247 144.377687 
L 173.42729 152.769238 
L 173.625029 159.47624 
L 173.954594 171.891992 
L 174.646681 200.404549 
L 175.239898 217.125261 
L 175.272854 217.281238 
L 175.668332 225.610398 
L 175.734245 225.797571 
L 175.767202 225.485617 
L 176.129723 231.943056 
L 176.228593 232.941308 
L 176.393375 235.561718 
L 176.426332 235.062592 
L 176.492245 235.686499 
L 177.711636 258.084766 
L 178.107114 267.037834 
L 178.14007 266.819466 
L 178.271896 267.786522 
L 178.370766 268.535211 
L 178.436679 268.348039 
L 178.502592 268.00489 
L 178.535548 267.724132 
L 178.601461 269.595853 
L 178.667374 269.252704 
L 178.700331 268.971946 
L 178.733287 269.627048 
L 178.766244 269.845416 
L 178.7992 269.502267 
L 178.832157 269.252704 
L 178.865113 269.533462 
L 178.89807 269.845416 
L 179.062853 267.973694 
L 179.161722 267.318592 
L 179.458331 263.107219 
L 179.5572 261.609841 
L 179.590157 261.8906 
L 179.787896 259.613338 
L 179.820852 259.644534 
L 179.985635 256.805756 
L 180.249287 252.937532 
L 180.776591 242.923822 
L 181.007286 234.345099 
L 181.106156 232.566963 
L 181.336851 226.296696 
L 181.930069 209.763157 
L 181.995982 208.016217 
L 183.808589 142.880309 
L 184.269981 124.911783 
L 184.335894 123.040062 
L 185.12685 94.96424 
L 185.192763 93.934793 
L 185.489371 85.262484 
L 185.522328 85.231288 
L 185.555284 84.888139 
L 185.78598 78.929826 
L 185.818936 79.397756 
L 185.851893 78.83624 
L 185.884849 78.929826 
L 186.675806 70.351103 
L 186.741719 70.850228 
L 186.774675 70.600665 
L 187.005371 68.541772 
L 187.038327 68.41699 
L 187.137197 69.820781 
L 187.20311 69.29046 
L 187.269023 68.292209 
L 187.301979 68.853725 
L 187.367892 69.321656 
L 187.400849 69.540023 
L 187.565631 68.073841 
L 187.598588 68.073841 
L 187.664501 68.572967 
L 187.697457 68.479381 
L 187.730414 66.982004 
L 187.796327 67.137981 
L 187.86224 67.761888 
L 187.895196 67.418739 
L 188.027022 66.451683 
L 188.059979 66.451683 
L 188.158848 68.073841 
L 188.455457 71.879675 
L 188.488413 71.879675 
L 188.653196 74.06335 
L 188.686152 73.876178 
L 188.850935 75.061602 
L 189.015717 76.902128 
L 189.08163 77.619621 
L 189.905543 93.903598 
L 190.103282 100.20506 
L 191.388586 139.417625 
L 192.047716 163.968371 
L 192.080673 164.217934 
L 192.443194 179.378878 
L 192.476151 179.815613 
L 192.739803 192.886468 
L 193.464846 220.08882 
L 193.563715 222.958793 
L 194.025106 240.209826 
L 194.354672 248.85094 
L 194.420585 250.847443 
L 195.442236 273.464077 
L 195.771801 278.174576 
L 195.804758 277.893818 
L 195.837714 277.925014 
L 196.002497 280.451838 
L 196.035453 280.295861 
L 196.06841 280.327056 
L 196.266149 281.918019 
L 196.365018 280.826182 
L 196.496844 282.541926 
L 196.529801 282.417145 
L 196.892323 285.630267 
L 196.925279 285.255923 
L 196.958236 285.973416 
L 196.991192 285.661462 
L 197.057105 286.534932 
L 197.090062 286.129393 
L 197.254844 284.912774 
L 197.353714 285.224727 
L 197.419627 285.567876 
L 197.584409 283.384201 
L 197.617366 283.820936 
L 197.650322 283.009857 
L 197.683279 283.197029 
L 197.716235 283.134638 
L 197.946931 280.576619 
L 197.979887 280.919768 
L 198.012844 280.483033 
L 198.078757 279.890321 
L 198.177626 281.98041 
L 198.210583 281.075745 
L 198.276496 280.888573 
L 198.342409 281.418894 
L 198.902669 272.996147 
L 198.968582 273.744836 
L 199.001539 273.900812 
L 199.199278 270.781277 
L 199.265191 270.6253 
L 199.495887 266.569903 
L 199.528843 267.225006 
L 199.5618 266.569903 
L 199.825452 259.613338 
L 200.089104 252.656774 
L 200.12206 252.625578 
L 200.583451 238.525277 
L 200.847103 231.287954 
L 203.483624 116.114692 
L 203.582493 112.745594 
L 204.999623 70.631861 
L 205.03258 71.255768 
L 205.065536 70.10154 
L 205.724666 60.368588 
L 205.856492 58.777625 
L 205.889449 59.089578 
L 205.922405 58.122522 
L 206.021275 58.465671 
L 206.284927 55.127768 
L 206.35084 55.72048 
L 206.416753 55.845261 
L 206.482666 55.065377 
L 206.614492 56.281996 
L 206.779274 55.065377 
L 206.944057 53.568 
L 207.10884 56.219605 
L 207.141796 55.907652 
L 207.174753 55.72048 
L 207.207709 55.751675 
L 207.339535 56.406778 
L 207.471361 55.72048 
L 207.537274 56.937099 
L 207.76797 60.493369 
L 208.031622 63.363342 
L 208.064578 63.113779 
L 208.097535 62.833021 
L 208.130491 63.17617 
L 208.822578 77.526035 
L 209.119186 82.454901 
L 209.316925 87.508549 
L 209.712404 97.803017 
L 209.74536 97.459868 
L 210.602229 122.91528 
L 210.865881 133.80246 
L 210.931794 135.923745 
L 212.315968 195.163729 
L 212.942141 220.650337 
L 213.502402 238.275714 
L 213.733097 246.105749 
L 213.831967 248.227033 
L 214.062662 255.620333 
L 214.524053 266.663489 
L 214.622923 267.817718 
L 214.65588 267.755327 
L 214.919532 273.807226 
L 215.380923 278.673702 
L 215.413879 278.236967 
L 215.446836 278.611311 
L 215.545705 281.730847 
L 215.644575 280.982159 
L 215.710488 281.886824 
L 215.743444 282.947466 
L 215.809357 282.479536 
L 215.842314 282.073996 
L 215.87527 282.105191 
L 215.97414 283.914522 
L 216.007096 283.165834 
L 216.040053 283.103443 
L 216.138922 281.918019 
L 216.204835 284.663211 
L 216.270748 284.070499 
L 216.303705 283.789741 
L 216.336661 284.008108 
L 216.501444 287.034058 
L 216.5344 286.878081 
L 216.567357 286.098197 
L 216.63327 287.002863 
L 216.765096 286.410151 
L 216.798052 286.659714 
L 216.962835 289.498491 
L 217.061704 289.311319 
L 217.193531 288.250677 
L 217.226487 288.593826 
L 217.358313 287.969919 
L 217.39127 288.219482 
L 217.424226 287.907528 
L 217.523096 286.503737 
L 217.589009 286.784495 
L 217.621965 286.784495 
L 217.918574 283.758545 
L 217.95153 283.945718 
L 217.984487 283.602569 
L 218.083356 283.571373 
L 218.116313 283.446592 
L 218.149269 284.164085 
L 218.215182 283.384201 
L 218.314052 281.793238 
L 218.379965 281.855629 
L 218.445878 281.169331 
L 218.577704 278.268162 
L 218.61066 278.767288 
L 218.676573 278.112186 
L 218.907269 275.148627 
L 219.105008 271.779528 
L 219.236834 268.722383 
L 219.434573 265.259698 
L 219.467529 265.540456 
L 220.423268 244.140441 
L 220.621007 235.374545 
L 220.917616 225.672789 
L 220.950572 225.32964 
L 221.44492 204.83429 
L 221.972224 185.025238 
L 222.400659 169.770708 
L 222.697267 156.419095 
L 223.389354 129.996627 
L 223.554136 124.693416 
L 223.784832 116.052302 
L 224.048484 110.093988 
L 224.476918 98.239752 
L 224.509875 98.021385 
L 224.806484 90.877648 
L 224.83944 91.501555 
L 224.872397 91.096015 
L 225.070136 84.794553 
L 225.300831 79.740905 
L 225.366744 79.179389 
L 225.432657 79.397756 
L 225.465614 79.896882 
L 225.49857 79.023412 
L 225.531527 79.335366 
L 225.894048 73.501834 
L 225.927005 74.219327 
L 225.959961 73.18988 
L 226.322483 69.914368 
L 226.388396 70.132735 
L 226.487265 70.288712 
L 226.520222 69.602414 
L 226.553178 70.413493 
L 226.586135 70.039149 
L 226.619091 69.914368 
L 226.783874 68.728944 
L 226.81683 69.134484 
L 226.882743 68.635358 
L 227.014569 69.415242 
L 227.179352 67.574716 
L 227.245265 67.917865 
L 227.377091 66.264511 
L 227.410048 65.983752 
L 227.443004 66.482878 
L 227.475961 66.420487 
L 227.541874 66.264511 
L 227.607787 67.231567 
L 227.640743 67.169176 
L 227.772569 69.508828 
L 227.805526 68.572967 
L 227.838482 68.760139 
L 227.871439 68.697749 
L 228.003265 67.699497 
L 228.102134 68.697749 
L 228.135091 68.011451 
L 228.201004 68.323404 
L 228.563525 71.942066 
L 228.596482 71.255768 
L 228.662395 72.035652 
L 228.695351 71.817284 
L 228.728308 72.066847 
L 228.794221 71.84848 
L 228.827177 72.347605 
L 228.860134 71.754894 
L 228.89309 71.942066 
L 229.156742 74.000959 
L 229.453351 77.401253 
L 229.749959 82.766855 
L 230.145438 90.035373 
L 230.343177 95.369779 
L 230.442046 96.960743 
L 230.96935 110.530723 
L 231.035263 111.872124 
L 232.814915 172.609485 
L 233.408132 195.506878 
L 233.70474 206.394058 
L 234.034305 220.619141 
L 234.726392 242.799041 
L 234.759348 242.955017 
L 235.088914 251.658522 
L 235.286653 255.963482 
L 235.451435 259.114213 
L 235.682131 263.200805 
L 236.143522 275.585362 
L 236.176478 274.899064 
L 236.209435 275.491776 
L 236.44013 280.23347 
L 236.506043 280.857377 
L 236.736739 283.945718 
L 236.769695 283.009857 
L 236.802652 283.883327 
L 237.033347 286.722104 
L 237.19813 288.375458 
L 237.395869 292.087706 
L 237.428825 291.744557 
L 237.494739 292.118901 
L 237.626565 293.990623 
L 237.659521 293.585083 
L 237.890217 295.456805 
L 237.95613 294.832897 
L 238.022043 294.084209 
L 238.120912 295.488 
L 238.153869 295.051265 
L 238.219782 294.271381 
L 238.285695 294.552139 
L 238.318651 294.427358 
L 238.417521 295.363219 
L 238.450477 295.08246 
L 238.483434 295.176046 
L 238.582303 294.61453 
L 238.61526 294.988874 
L 238.648216 294.739311 
L 238.714129 294.801702 
L 238.780042 293.897037 
L 238.812999 294.1466 
L 238.845955 293.585083 
L 238.878912 293.709865 
L 238.911868 293.647474 
L 239.043694 292.618027 
L 239.142564 293.210739 
L 239.373259 291.276627 
L 239.406216 291.214236 
L 239.538042 288.874584 
L 239.768737 283.664959 
L 240.493781 269.034337 
L 241.086998 250.878638 
L 241.119954 250.847443 
L 241.976823 221.305439 
L 242.471171 200.498135 
L 242.701867 192.418538 
L 243.492823 157.542128 
L 244.811083 109.158128 
L 246.392995 73.844983 
L 246.425952 73.59542 
L 246.458908 73.813787 
L 246.491865 74.93682 
L 246.524821 74.125741 
L 246.755517 70.132735 
L 246.788473 70.850228 
L 246.854386 69.883172 
L 246.887343 70.319907 
L 246.920299 69.633609 
L 246.953256 69.945563 
L 247.150995 67.449934 
L 247.183951 67.824279 
L 247.348734 64.829524 
L 247.447603 63.737687 
L 247.744212 60.805323 
L 247.777169 61.491621 
L 247.810125 60.55576 
L 247.876038 60.430979 
L 247.974908 61.491621 
L 248.040821 61.460426 
L 248.073777 61.460426 
L 248.13969 61.335644 
L 248.172647 61.897161 
L 248.205603 62.801826 
L 248.271516 61.616402 
L 248.304473 61.990747 
L 248.337429 61.460426 
L 248.370386 61.678793 
L 248.469255 60.55576 
L 248.502212 61.148472 
L 248.634038 59.744681 
L 248.765864 60.742932 
L 248.996559 59.713485 
L 249.029516 60.025439 
L 249.095429 60.150221 
L 249.128385 59.807072 
L 249.227255 61.273253 
L 249.260211 61.179667 
L 249.359081 60.275002 
L 249.490907 61.772379 
L 249.55682 61.242058 
L 249.622733 61.554012 
L 249.655689 61.460426 
L 249.820472 63.207366 
L 249.853428 63.051389 
L 250.545515 73.127489 
L 250.578472 72.846731 
L 250.87508 81.144696 
L 251.402384 91.189602 
L 251.435341 90.472108 
L 251.468297 91.657532 
L 251.666036 97.210306 
L 253.05021 150.835126 
L 254.533252 214.692023 
L 254.566209 214.879195 
L 254.961687 231.225563 
L 256.082208 262.795265 
L 256.148121 262.108967 
L 256.246991 264.417424 
L 256.675425 274.431133 
L 256.708382 274.462329 
L 256.840208 277.14513 
L 256.873164 276.458832 
L 257.037947 278.236967 
L 257.235686 281.294112 
L 257.400468 283.696155 
L 257.598207 286.940472 
L 257.631164 286.690909 
L 257.697077 286.971667 
L 257.730033 287.096449 
L 257.894816 288.437849 
L 257.960729 288.50024 
L 258.092555 286.472542 
L 258.224381 288.281872 
L 258.290294 286.815691 
L 258.323251 287.439598 
L 258.356207 287.501988 
L 258.389164 287.346012 
L 258.586903 289.77925 
L 258.619859 289.217733 
L 258.685772 289.342515 
L 258.718729 289.436101 
L 258.751685 290.24718 
L 258.817598 290.184789 
L 259.114207 288.063505 
L 259.18012 287.907528 
L 259.278989 289.248928 
L 259.311946 289.217733 
L 259.443772 288.406654 
L 259.509685 289.966422 
L 259.575598 289.685663 
L 259.872206 286.067002 
L 259.905163 286.254174 
L 260.004032 286.722104 
L 260.036989 287.657965 
L 260.102902 286.628518 
L 260.135858 286.254174 
L 260.201771 286.316565 
L 260.267684 287.096449 
L 260.300641 286.285369 
L 260.366554 286.004611 
L 260.399511 286.160588 
L 260.432467 286.566128 
L 260.465424 285.692658 
L 260.49838 285.973416 
L 260.531337 285.349509 
L 260.729076 283.197029 
L 260.762032 283.602569 
L 260.794989 283.009857 
L 260.827945 282.85388 
L 260.860902 282.947466 
L 261.025684 279.484781 
L 261.091597 280.732596 
L 261.124554 280.389447 
L 261.322293 277.457083 
L 262.179162 258.39672 
L 262.376901 252.500797 
L 262.772379 240.147435 
L 263.662205 211.291729 
L 263.925857 201.496387 
L 264.156552 192.480928 
L 264.55203 176.571296 
L 267.353333 79.148193 
L 267.946551 71.786089 
L 267.979507 73.345857 
L 268.04542 73.002708 
L 268.374985 68.728944 
L 268.407942 69.758391 
L 268.473855 69.165679 
L 268.671594 68.167427 
L 268.70455 68.292209 
L 268.836376 67.231567 
L 268.869333 67.761888 
L 268.902289 67.044395 
L 268.935246 67.106785 
L 269.001159 66.67005 
L 269.034115 66.763636 
L 269.165941 68.760139 
L 269.198898 68.697749 
L 269.297767 69.540023 
L 269.396637 67.605911 
L 269.429593 68.042646 
L 269.46255 67.730692 
L 269.495506 68.448186 
L 269.528463 68.41699 
L 269.627332 66.950809 
L 269.660289 67.262762 
L 269.825071 68.510576 
L 270.154636 65.359845 
L 270.187593 65.702994 
L 270.484202 68.105037 
L 270.583071 67.699497 
L 270.616028 67.013199 
L 270.681941 67.418739 
L 270.978549 71.879675 
L 271.011506 70.97501 
L 271.044462 72.129238 
L 271.077419 72.534778 
L 271.110375 71.817284 
L 271.143332 71.630112 
L 271.341071 74.593671 
L 271.374027 74.406499 
L 271.406984 74.624867 
L 271.472897 76.590174 
L 271.571766 76.21583 
L 271.769505 77.370058 
L 271.835418 78.711458 
L 272.164983 84.700967 
L 272.395679 88.662778 
L 272.428635 88.662778 
L 272.659331 92.842956 
L 272.692287 92.780565 
L 272.890026 95.650538 
L 272.922983 94.839458 
L 273.021853 94.901849 
L 273.054809 94.933044 
L 273.219592 97.99019 
L 273.417331 101.296897 
L 274.109417 114.18058 
L 274.669678 129.528696 
L 274.900373 135.892549 
L 275.262895 143.34824 
L 275.823156 159.569826 
L 276.152721 170.581787 
L 276.745938 188.144774 
L 277.141416 196.411544 
L 277.503937 204.054406 
L 277.602807 205.302221 
L 277.899415 213.163451 
L 277.932372 213.319427 
L 278.163068 218.404271 
L 278.261937 220.338383 
L 278.756285 229.69699 
L 278.789241 229.509818 
L 278.855154 229.478623 
L 279.118806 232.473377 
L 279.151763 232.067838 
L 279.184719 232.535768 
L 279.481328 237.49583 
L 279.580197 237.121485 
L 279.613154 236.715946 
L 279.64611 236.903118 
L 279.843849 238.431691 
L 279.876806 238.462886 
L 280.239327 244.327613 
L 280.272284 244.171636 
L 280.40411 246.324116 
L 280.568892 248.320619 
L 280.634806 247.727907 
L 280.667762 248.102251 
L 280.700719 248.102251 
L 280.898458 249.31887 
L 281.06324 249.817996 
L 281.096197 249.880387 
L 281.656457 256.057068 
L 281.689414 255.994677 
L 281.887153 257.866398 
L 282.018979 258.739868 
L 282.084892 257.99118 
L 282.117848 258.39672 
L 282.744022 266.195559 
L 282.776978 265.665238 
L 282.809935 265.353284 
L 282.842891 265.665238 
L 283.007674 268.410429 
L 283.04063 268.316843 
L 283.073587 268.129671 
L 283.172457 270.126174 
L 283.23837 269.408681 
L 283.271326 269.159118 
L 283.304283 269.75183 
L 283.337239 269.658244 
L 283.403152 270.968449 
L 283.502022 270.843667 
L 283.567935 270.344542 
L 283.633848 270.594104 
L 283.699761 271.124426 
L 283.831587 274.368743 
L 283.8975 273.370491 
L 283.930456 273.838422 
L 284.029326 274.181571 
L 284.062282 273.557663 
L 284.161152 273.744836 
L 284.194108 273.838422 
L 284.424804 272.278654 
L 284.45776 272.621803 
L 284.55663 273.339296 
L 284.589586 273.089733 
L 284.622543 272.434631 
L 284.655499 272.84017 
L 284.721412 274.555915 
L 284.820282 274.181571 
L 284.886195 274.431133 
L 285.11689 269.907807 
L 285.149847 270.032588 
L 285.182803 269.939002 
L 285.710108 261.110716 
L 286.006716 256.057068 
L 286.072629 255.245988 
L 286.402194 247.135195 
L 287.094281 227.544511 
L 287.753411 204.179188 
L 288.017063 193.292008 
L 288.478454 174.637184 
L 289.467149 135.5494 
L 290.159236 113.743845 
L 290.917236 97.210306 
L 290.983149 96.929547 
L 291.34567 87.633331 
L 291.543409 85.824 
L 291.609322 86.22954 
L 291.938887 81.238282 
L 292.037757 81.612627 
L 292.0048 81.207087 
L 292.070713 81.394259 
L 292.400278 76.465393 
L 292.433235 76.68376 
L 292.466191 77.713207 
L 292.532104 76.995714 
L 292.565061 76.777346 
L 292.598017 76.902128 
L 292.630974 77.432449 
L 292.66393 76.371807 
L 292.696887 76.371807 
L 292.729843 75.966267 
L 292.7628 76.153439 
L 292.861669 77.494839 
L 292.894626 77.307667 
L 293.158278 75.061602 
L 293.191234 74.968015 
L 293.224191 75.217578 
L 293.257147 74.812039 
L 293.290104 74.375304 
L 293.356017 74.968015 
L 293.42193 74.344108 
L 293.685582 71.006205 
L 293.718539 72.004456 
L 293.817408 71.84848 
L 293.883321 72.098043 
L 294.311756 76.621369 
L 294.377669 76.278221 
L 294.410625 76.340611 
L 294.641321 74.593671 
L 294.806103 75.997462 
L 294.872016 75.435946 
L 294.904973 76.371807 
L 294.970886 75.373555 
L 295.003842 76.122244 
L 295.234538 74.812039 
L 295.39932 76.68376 
L 295.465233 76.403002 
L 295.531146 78.087551 
L 295.597059 77.058104 
L 295.695929 78.181137 
L 295.728885 78.118747 
L 295.893668 76.870932 
L 295.926625 77.494839 
L 295.992538 79.30417 
L 296.124364 80.739157 
L 296.15732 80.364812 
L 296.25619 82.860441 
L 296.322103 82.205338 
L 296.355059 82.33012 
L 296.388016 82.018166 
L 296.420972 82.454901 
L 296.453929 82.610878 
L 296.486885 82.205338 
L 296.519842 82.423706 
L 296.849407 86.479103 
L 297.047146 90.004178 
L 297.178972 92.156658 
L 297.343754 96.149663 
L 297.805145 105.757834 
L 298.101754 116.177083 
L 298.299493 121.324317 
L 298.332449 121.16834 
L 298.431319 123.913532 
L 298.859754 138.388178 
L 298.89271 138.388178 
L 299.156362 147.809176 
L 299.321145 152.238917 
L 299.485927 160.068952 
L 300.8701 211.229338 
L 301.166709 218.778615 
L 301.759926 235.873671 
L 301.792883 235.218569 
L 301.825839 236.435188 
L 302.122448 244.01566 
L 302.155404 243.859683 
L 302.583839 251.720913 
L 302.616795 251.627327 
L 302.649752 251.783304 
L 302.781578 253.062313 
L 302.847491 252.407211 
L 302.913404 252.781555 
L 303.144099 256.119458 
L 303.210012 256.618584 
L 303.407751 259.394971 
L 303.70436 262.264944 
L 303.770273 262.015381 
L 303.836186 262.982437 
L 303.935056 262.296139 
L 303.968012 262.35853 
L 304.198708 264.448619 
L 304.297577 264.261447 
L 304.36349 264.011884 
L 304.396447 264.10547 
L 304.495316 263.575149 
L 304.561229 264.10547 
L 304.594186 263.824712 
L 304.726012 262.857656 
L 304.758968 262.857656 
L 305.253316 255.682723 
L 305.352185 255.901091 
L 305.549924 258.739868 
L 305.813576 256.556193 
L 305.879489 257.086515 
L 305.912446 256.899342 
L 305.945402 256.556193 
L 305.978359 257.58564 
L 306.044272 256.71217 
L 306.143142 257.273687 
L 306.176098 256.649779 
L 306.242011 257.211296 
L 306.274968 257.367273 
L 306.307924 257.086515 
L 306.373837 257.273687 
L 306.53862 255.8387 
L 306.736359 258.115961 
L 306.769315 257.429663 
L 306.901141 254.466104 
L 307.09888 252.469602 
L 307.19775 254.154151 
L 307.230706 253.249485 
L 307.296619 252.937532 
L 307.329576 253.530244 
L 307.527315 252.531992 
L 307.593228 252.906337 
L 307.626184 252.531992 
L 307.692097 252.438406 
L 307.725054 251.596132 
L 307.790967 252.064062 
L 307.823923 252.064062 
L 307.85688 252.34482 
L 307.889836 251.93928 
L 308.021662 251.097006 
L 308.186445 249.31887 
L 308.285314 250.660271 
L 308.351227 250.504294 
L 308.450097 251.128201 
L 308.483053 250.847443 
L 308.680793 248.227033 
L 308.845575 245.856186 
L 308.878532 246.043358 
L 308.977401 244.88913 
L 309.010358 245.325865 
L 309.076271 245.481841 
L 309.306966 242.26872 
L 309.636531 238.119737 
L 309.669488 238.150932 
L 309.83427 235.34335 
L 309.966096 236.435188 
L 309.999053 236.279211 
L 310.130879 233.752387 
L 310.163835 233.939559 
L 310.196792 235.031397 
L 310.229748 233.970754 
L 310.658183 226.234306 
L 310.691139 227.045385 
L 310.724096 226.015938 
L 311.548009 211.010971 
L 311.712791 206.238081 
L 311.745748 207.236333 
L 311.943487 201.714754 
L 312.0094 201.839536 
L 312.108269 199.094344 
L 312.306008 193.94711 
L 312.338965 194.009501 
L 314.612964 133.864851 
L 314.678877 133.396921 
L 314.843659 130.027822 
L 314.876616 130.30858 
L 315.272094 122.104201 
L 315.30505 122.291373 
L 315.338007 121.885834 
L 315.502789 118.54793 
L 315.898267 112.059296 
L 315.931224 112.152882 
L 315.96418 111.934515 
L 316.194876 107.941509 
L 316.227833 108.378244 
L 316.260789 107.847923 
L 316.392615 106.475327 
L 316.425572 106.912062 
L 316.458528 106.256959 
L 316.755137 101.796023 
L 316.82105 102.232758 
L 316.886963 102.388735 
L 317.051745 100.891358 
L 317.084702 101.234507 
L 317.150615 100.891358 
L 317.315397 96.180859 
L 317.348354 96.24325 
L 317.414267 96.492812 
L 317.579049 98.270948 
L 317.776788 95.744124 
L 317.809745 95.775319 
L 317.842701 96.368031 
L 317.908614 96.149663 
L 317.974527 96.024882 
L 318.073397 97.834213 
L 318.13931 97.678236 
L 318.271136 94.652286 
L 318.304092 95.244998 
L 318.402962 94.777068 
L 318.567744 96.586398 
L 318.600701 96.524008 
L 318.633657 96.773571 
L 318.666614 96.430422 
L 318.699571 96.399226 
L 318.732527 96.617594 
L 318.864353 94.621091 
L 318.89731 94.714677 
L 318.996179 95.369779 
L 318.963223 94.683482 
L 319.029136 95.244998 
L 319.128005 94.340333 
L 319.160962 94.589896 
L 319.391657 93.342081 
L 319.45757 93.622839 
L 319.55644 94.184356 
L 319.655309 92.219048 
L 319.688266 92.468611 
L 319.721222 92.281439 
L 319.787135 93.061323 
L 319.886005 90.65928 
L 319.918961 91.657532 
L 320.083744 90.222545 
L 320.380352 86.385516 
L 320.413309 86.416712 
L 320.446265 87.1654 
L 320.512178 86.385516 
L 320.578091 85.41846 
L 320.644004 85.792805 
L 320.676961 85.917586 
L 320.709917 85.480851 
L 320.77583 85.855195 
L 320.808787 86.759861 
L 320.8747 85.824 
L 320.940613 86.603884 
L 320.973569 86.22954 
L 321.039482 86.29193 
L 321.105395 85.324874 
L 321.204265 83.328371 
L 321.270178 83.952279 
L 321.336091 84.763358 
L 321.402004 84.54499 
L 321.467917 84.856944 
L 321.665656 87.227791 
L 321.698613 87.071814 
L 321.863395 89.068317 
L 321.962265 88.163652 
L 321.995221 88.413215 
L 322.028178 88.413215 
L 322.061134 88.194847 
L 322.094091 88.226043 
L 322.225917 90.378522 
L 322.29183 90.784062 
L 322.324786 90.690476 
L 322.357743 90.284936 
L 322.390699 90.815257 
L 322.423656 90.815257 
L 322.522525 91.189602 
L 322.555482 90.877648 
L 322.720264 93.435667 
L 322.753221 93.373277 
L 323.214612 100.392232 
L 323.280525 99.861911 
L 323.313481 100.267451 
L 323.412351 100.984944 
L 323.61009 104.447629 
L 324.335133 121.480294 
L 324.36809 121.199536 
L 324.499916 125.223737 
L 324.697655 131.58759 
L 324.895394 136.142112 
L 325.323828 153.580317 
L 325.653393 165.559335 
L 326.114784 183.247103 
L 326.477306 194.602213 
L 328.619479 247.447149 
L 328.652435 246.386507 
L 328.718348 247.104 
L 329.344522 256.119458 
L 329.410435 255.557942 
L 329.476348 255.183598 
L 329.74 258.147157 
L 329.805913 258.022375 
L 329.83887 258.646282 
L 330.003652 257.367273 
L 330.036609 257.648031 
L 330.069565 257.148905 
L 330.201391 255.464356 
L 330.267304 255.682723 
L 330.366174 256.462607 
L 330.39913 256.213044 
L 330.432087 255.994677 
L 330.465043 256.493803 
L 330.498 256.868147 
L 330.530956 256.587389 
L 330.596869 255.433161 
L 330.860521 252.313625 
L 330.893478 252.656774 
L 330.926434 252.625578 
L 330.992347 251.097006 
L 331.05826 251.502545 
L 331.091217 251.720913 
L 331.124173 251.47135 
L 331.15713 251.097006 
L 331.223043 251.440155 
L 331.255999 251.502545 
L 331.288956 252.438406 
L 331.354869 251.658522 
L 331.387826 251.783304 
L 331.420782 251.564936 
L 331.453739 251.627327 
L 331.486695 251.596132 
L 331.651478 250.785052 
L 331.684434 251.128201 
L 331.717391 250.473099 
L 331.750347 250.753857 
L 331.882173 249.911582 
L 331.91513 250.504294 
L 331.948086 249.786801 
L 332.079912 249.069308 
L 332.145825 249.006917 
L 332.178782 249.506043 
L 332.211738 249.25648 
L 332.244695 249.786801 
L 332.277651 250.410708 
L 332.343564 249.72441 
L 332.47539 251.315373 
L 332.409477 249.537238 
L 332.508347 250.504294 
L 332.57426 249.662019 
L 332.640173 249.755605 
L 332.771999 250.317122 
L 332.804955 250.036364 
L 332.837912 250.722662 
L 332.903825 250.379513 
L 333.398172 242.923822 
L 333.464085 243.922074 
L 333.497042 243.079799 
L 333.661824 240.864928 
L 333.694781 240.958515 
L 333.727737 240.927319 
L 333.826607 241.176882 
L 333.99139 240.11624 
L 334.123216 238.088542 
L 334.189129 239.055598 
L 334.222085 239.211574 
L 334.255042 238.962012 
L 334.320955 238.806035 
L 334.353911 239.024402 
L 334.386868 238.930816 
L 334.65052 235.998453 
L 334.782346 235.998453 
L 334.914172 234.93781 
L 335.045998 235.936062 
L 335.078954 236.029648 
L 335.408519 231.818275 
L 335.540345 230.726437 
L 335.606258 230.851219 
L 335.639215 231.506321 
L 335.672171 231.38154 
L 335.902867 227.95005 
L 335.96878 227.170166 
L 336.034693 227.326143 
L 336.067649 227.513315 
L 336.199475 223.083574 
L 336.331301 221.866956 
L 336.397214 221.929346 
L 336.430171 221.461416 
L 336.463128 221.960542 
L 336.496084 221.087072 
L 336.594954 220.587946 
L 336.858606 216.002228 
L 337.188171 213.444209 
L 337.451823 205.676565 
L 337.583649 204.272774 
L 337.913214 196.380348 
L 338.176866 192.418538 
L 338.242779 193.01125 
L 338.275735 192.948859 
L 338.308692 193.01125 
L 340.154256 155.763992 
L 340.187213 156.45029 
L 340.220169 156.075946 
L 340.615647 147.996348 
L 340.68156 146.717338 
L 340.978169 140.072727 
L 341.011125 139.91675 
L 341.044082 140.259899 
L 341.077038 141.133369 
L 341.142951 140.634244 
L 341.835038 128.156101 
L 341.867995 128.124905 
L 342.131647 124.038313 
L 342.164603 124.319072 
L 342.19756 123.944727 
L 342.263473 123.507992 
L 342.329386 121.230731 
L 342.395299 121.792248 
L 342.527125 119.951721 
L 342.560081 120.076503 
L 342.593038 120.138894 
L 342.658951 119.265424 
L 342.823733 117.580874 
L 343.351037 112.496031 
L 343.383994 113.088743 
L 343.482863 113.587868 
L 343.51582 113.057547 
L 343.548776 113.30711 
L 343.680602 114.960464 
L 343.713559 114.274166 
L 343.779472 113.71265 
L 343.845385 113.806236 
L 343.878341 113.681455 
L 343.911298 113.962213 
L 343.944254 113.899822 
L 344.17495 110.499528 
L 344.207907 110.717896 
L 344.306776 111.528975 
L 344.372689 111.217021 
L 344.603385 107.348797 
L 344.636341 107.411188 
L 344.702254 108.035095 
L 344.768167 107.504774 
L 344.93295 105.633052 
L 345.097732 107.535969 
L 345.229558 105.601857 
L 345.559123 103.511768 
L 345.657993 102.794275 
L 345.690949 102.82547 
L 345.723906 103.106228 
L 345.756862 102.981447 
L 345.888688 102.139172 
L 345.921645 102.263954 
L 345.954601 102.544712 
L 345.987558 102.263954 
L 346.119384 100.891358 
L 346.15234 101.328093 
L 346.218253 100.953749 
L 346.350079 98.770074 
L 346.284166 101.172116 
L 346.383036 99.300395 
L 346.547818 100.922553 
L 346.580775 100.517014 
L 346.613732 100.517014 
L 346.745558 100.080279 
L 346.778514 100.361037 
L 346.811471 100.017888 
L 346.877384 98.645292 
L 346.943297 99.238004 
L 346.976253 99.79952 
L 347.042166 99.050832 
L 347.173992 97.553455 
L 347.206949 97.927799 
L 347.272862 99.549957 
L 347.338775 99.425176 
L 347.470601 99.986692 
L 347.503557 99.73713 
L 347.56947 99.861911 
L 347.701296 101.796023 
L 347.734253 101.764828 
L 347.767209 100.984944 
L 347.833122 101.390484 
L 347.997905 102.82547 
L 348.360426 100.142669 
L 348.426339 100.236255 
L 348.492252 100.423427 
L 348.657035 98.208557 
L 348.689991 98.364534 
L 348.722948 98.302143 
L 348.788861 98.021385 
L 348.821817 98.177362 
L 348.88773 98.146166 
L 348.9866 99.206809 
L 349.118426 100.922553 
L 349.184339 100.236255 
L 349.217296 99.955497 
L 349.250252 100.142669 
L 349.480948 103.168619 
L 349.513904 103.075033 
L 349.909382 109.158128 
L 350.107121 111.56017 
L 350.601469 118.797493 
L 350.898077 124.038313 
L 350.931034 124.069509 
L 351.227642 131.899544 
L 353.633467 195.881222 
L 353.963032 205.645369 
L 354.127815 209.731961 
L 354.589206 222.022932 
L 354.655119 223.208356 
L 354.885815 227.263752 
L 355.017641 229.166669 
L 355.149467 231.319149 
L 355.182423 231.256758 
L 355.479032 236.903118 
L 355.643814 241.39525 
L 355.940423 245.980967 
L 356.105205 247.852689 
L 356.138162 247.57193 
L 356.171118 248.102251 
L 356.335901 250.441903 
L 356.401814 250.285926 
L 356.467727 249.568433 
L 356.53364 249.817996 
L 356.665466 251.845694 
L 356.698422 251.252983 
L 356.896162 253.436658 
L 356.929118 252.843946 
L 356.962075 253.530244 
L 357.19277 257.211296 
L 357.324596 255.807505 
L 357.489379 258.147157 
L 357.522335 257.959985 
L 357.555292 257.772812 
L 357.588248 258.084766 
L 357.621205 258.115961 
L 357.654161 258.365524 
L 357.687118 258.147157 
L 357.8519 255.214793 
L 357.95077 255.090012 
L 358.016683 256.057068 
L 358.082596 256.275435 
L 358.148509 256.24424 
L 358.181465 255.495551 
L 358.214422 256.369021 
L 358.346248 257.959985 
L 358.412161 257.024124 
L 358.445117 257.180101 
L 358.478074 258.115961 
L 358.543987 257.086515 
L 358.576943 257.086515 
L 358.807639 253.842197 
L 358.873552 254.96523 
L 358.972421 255.713919 
L 359.005378 255.464356 
L 359.203117 253.280681 
L 359.236073 253.561439 
L 359.26903 252.781555 
L 359.3679 252.81275 
L 359.400856 252.531992 
L 359.433813 253.124704 
L 359.664508 256.088263 
L 359.697465 255.932286 
L 359.730421 255.8387 
L 359.796334 253.935783 
L 359.862247 254.060565 
L 359.895204 254.684472 
L 359.92816 254.528495 
L 360.092943 252.687969 
L 360.290682 254.996426 
L 360.488421 252.81275 
L 360.653203 249.474847 
L 360.68616 249.755605 
L 360.916855 245.388255 
L 360.949812 246.916828 
L 361.015725 245.325865 
L 361.312333 242.455892 
L 361.411203 243.454143 
L 361.444159 243.110994 
L 361.608942 241.676008 
L 361.641898 242.081547 
L 361.938507 236.341602 
L 362.10329 233.284456 
L 362.235116 231.662298 
L 362.268072 232.25501 
L 362.333985 231.880665 
L 362.861289 227.357338 
L 362.894246 227.762878 
L 363.059028 224.362584 
L 363.091985 224.580952 
L 363.124941 224.768124 
L 363.685202 215.72147 
L 363.882941 211.978027 
L 363.948854 212.009222 
L 363.98181 212.820302 
L 364.047723 212.258785 
L 365.003462 194.539822 
L 365.102332 192.668101 
L 365.300071 187.957602 
L 365.431897 185.898708 
L 365.464853 186.49142 
L 365.49781 185.61795 
L 365.662592 183.652642 
L 365.992157 178.255845 
L 366.387635 169.427559 
L 366.453548 169.645926 
L 366.486505 169.614731 
L 366.7172 164.561083 
L 367.145635 157.573323 
L 367.178592 157.32376 
L 367.442244 151.240665 
L 368.068417 141.070979 
L 368.101374 141.289346 
L 368.13433 141.320542 
L 368.200243 141.351737 
L 368.266156 140.32229 
L 368.562765 135.674182 
L 368.628678 135.611791 
L 369.485547 120.762801 
L 369.518504 121.230731 
L 369.55146 120.762801 
L 369.716243 118.111195 
L 369.881025 116.083497 
L 369.913982 116.270669 
L 370.045808 115.677957 
L 370.111721 116.114692 
L 370.342416 113.026352 
L 370.375373 113.587868 
L 370.408329 112.932766 
L 370.671981 110.749091 
L 370.704938 111.029849 
L 370.737894 110.873872 
L 370.902677 108.690197 
L 371.100416 109.470081 
L 371.133372 108.721393 
L 371.232242 108.877369 
L 371.331111 107.255211 
L 371.495894 104.915559 
L 371.52885 105.04034 
L 371.693633 106.100983 
L 371.825459 105.508271 
L 371.858415 106.100983 
L 371.891372 105.44588 
L 371.957285 105.945006 
L 372.220937 104.541215 
L 372.253894 104.915559 
L 372.28685 104.322847 
L 372.319807 104.354043 
L 372.550502 103.012642 
L 372.583459 103.168619 
L 372.616415 103.168619 
L 372.682328 102.731884 
L 372.814154 104.821973 
L 372.847111 104.728387 
L 373.176676 100.67299 
L 373.209632 100.267451 
L 373.275545 100.329841 
L 373.407371 101.140921 
L 373.506241 100.423427 
L 373.539197 100.517014 
L 373.60511 101.016139 
L 373.638067 100.891358 
L 373.671023 100.454623 
L 373.70398 101.016139 
L 373.769893 100.548209 
L 373.934675 99.893106 
L 374.099458 102.700689 
L 374.132414 102.482321 
L 374.297197 101.234507 
L 374.330153 101.608851 
L 374.36311 101.889609 
L 374.429023 101.827219 
L 374.461979 101.140921 
L 374.527893 101.920805 
L 374.659719 102.544712 
L 374.692675 102.076781 
L 374.758588 102.35754 
L 374.791545 102.981447 
L 374.890414 102.919056 
L 374.923371 102.856665 
L 375.055197 101.296897 
L 375.187023 103.075033 
L 375.219979 102.700689 
L 375.252936 102.856665 
L 375.483631 104.884364 
L 375.582501 104.416433 
L 375.648414 104.541215 
L 375.714327 105.757834 
L 375.78024 105.289903 
L 375.813196 105.165122 
L 375.846153 105.44588 
L 376.208674 107.005648 
L 376.241631 107.411188 
L 376.3405 110.125184 
L 376.373457 110.062793 
L 376.406413 110.437137 
L 376.43937 109.782035 
L 376.505283 109.594863 
L 376.571196 109.719644 
L 376.637109 109.095737 
L 376.670065 109.095737 
L 376.834848 110.811482 
L 376.867804 110.936263 
L 376.900761 110.187574 
L 376.966674 110.561919 
L 377.461022 118.454344 
L 377.625804 121.948224 
L 377.658761 121.792248 
L 378.186065 130.682925 
L 378.614499 140.010337 
L 378.680412 140.977393 
L 379.702064 169.115605 
L 379.767977 169.521145 
L 380.163455 179.722027 
L 380.394151 183.434275 
L 381.185107 202.588224 
L 381.316933 205.052658 
L 381.547628 212.352371 
L 381.745367 215.752665 
L 382.371541 229.6346 
L 382.470411 228.386785 
L 382.503367 228.480371 
L 382.997715 238.306909 
L 383.623888 245.669014 
L 383.656845 245.201083 
L 383.722758 245.045106 
L 383.788671 244.327613 
L 383.821627 244.733153 
L 383.854584 244.764348 
L 383.98641 243.828487 
L 384.019366 244.234027 
L 384.085279 244.109246 
L 384.118236 244.202832 
L 384.250062 244.670762 
L 384.283018 244.48359 
L 384.414844 245.419451 
L 384.579627 243.890878 
L 384.612583 243.766097 
L 384.74441 244.95152 
L 384.777366 244.920325 
L 384.810323 244.514785 
L 384.843279 245.35706 
L 384.876236 245.35706 
L 385.008062 243.329362 
L 385.139888 243.890878 
L 385.172844 243.734901 
L 385.205801 243.422948 
L 385.238757 243.922074 
L 385.30467 244.390004 
L 385.370583 244.265222 
L 385.40354 244.265222 
L 385.436496 244.390004 
L 385.502409 243.516534 
L 385.535366 243.703706 
L 385.568322 244.327613 
L 385.634235 243.734901 
L 385.667192 243.890878 
L 385.766061 243.173385 
L 385.799018 243.266971 
L 385.831974 243.298166 
L 385.864931 242.861431 
L 385.930844 243.360557 
L 386.029713 244.452395 
L 386.161539 242.923822 
L 386.260409 243.079799 
L 386.293365 243.048603 
L 386.425191 241.831985 
L 386.458148 241.676008 
L 386.557017 239.835482 
L 386.589974 240.272217 
L 386.655887 239.804286 
L 386.688843 239.929068 
L 386.820669 240.771342 
L 386.952495 238.431691 
L 387.018408 239.149184 
L 387.051365 239.336356 
L 387.150234 238.681253 
L 387.183191 238.83723 
L 387.249104 238.650058 
L 387.347974 237.776588 
L 387.38093 237.901369 
L 387.413887 238.3693 
L 387.446843 238.213323 
L 387.545713 237.558221 
L 387.578669 238.244518 
L 387.644582 238.088542 
L 387.809365 235.904867 
L 387.842321 236.591164 
L 387.875278 235.468132 
L 387.941191 234.719443 
L 387.974147 234.969006 
L 388.04006 235.374545 
L 388.171886 234.46988 
L 388.204843 234.87542 
L 388.237799 234.251513 
L 388.435538 231.911861 
L 388.468495 231.974251 
L 388.534408 232.3174 
L 388.567364 231.599907 
L 388.633277 232.410986 
L 388.666234 232.566963 
L 388.79806 231.163172 
L 388.831016 231.350344 
L 388.929886 230.726437 
L 388.962842 231.787079 
L 389.028755 230.601656 
L 389.786755 224.393779 
L 389.819712 224.487366 
L 389.852668 225.423226 
L 389.918581 225.111273 
L 390.050407 223.863458 
L 390.083364 223.957044 
L 390.11632 224.518561 
L 390.149277 223.738677 
L 390.21519 223.457919 
L 390.248146 223.645091 
L 390.314059 223.769872 
L 390.610668 219.714476 
L 390.643624 220.400774 
L 390.676581 220.369578 
L 390.808407 218.996983 
L 390.973189 214.941586 
L 391.006146 215.752665 
L 391.039102 214.848 
L 391.500493 209.60718 
L 391.994841 201.278019 
L 392.027797 201.278019 
L 392.19258 198.532828 
L 392.225536 198.813586 
L 392.489189 194.602213 
L 392.719884 190.609207 
L 392.752841 190.702793 
L 392.983536 185.181215 
L 393.016493 185.274801 
L 393.51084 174.73077 
L 393.543797 174.73077 
L 393.708579 169.801903 
L 393.741536 170.051466 
L 393.774492 169.458754 
L 394.565448 155.077694 
L 394.631361 153.954662 
L 394.796144 150.991103 
L 394.829101 151.802182 
L 394.895014 151.147079 
L 395.521187 138.294592 
L 395.554144 138.949694 
L 395.5871 138.263397 
L 395.751883 136.485261 
L 395.784839 136.797215 
L 395.817796 136.391675 
L 395.883709 136.298089 
L 396.015535 134.956689 
L 396.048491 135.237447 
L 396.081448 135.175056 
L 396.378056 130.152603 
L 396.476926 129.684673 
L 396.509882 130.339776 
L 396.542839 129.528696 
L 396.773534 126.253184 
L 396.839447 125.223737 
L 396.971273 125.286128 
L 397.037186 125.130151 
L 397.399708 121.667466 
L 397.432665 121.605075 
L 397.597447 119.764549 
L 397.696317 118.984665 
L 397.828143 119.733354 
L 397.861099 120.107698 
L 397.927012 119.639768 
L 398.025882 118.111195 
L 398.058838 119.140642 
L 398.124751 118.828689 
L 398.256577 117.300116 
L 398.289534 117.986414 
L 398.42136 117.268921 
L 398.454316 117.393702 
L 398.487273 116.551427 
L 398.487273 116.551427 
" style="fill:none;stroke:#1f77b4;stroke-linecap:square;"/>
   </g>
   <g id="patch_3">
    <path d="M 57.6 307.584 
L 57.6 41.472 
" style="fill:none;stroke:#000000;stroke-linecap:square;stroke-linejoin:miter;stroke-width:0.8;"/>
   </g>
   <g id="patch_4">
    <path d="M 414.72 307.584 
L 414.72 41.472 
" style="fill:none;stroke:#000000;stroke-linecap:square;stroke-linejoin:miter;stroke-width:0.8;"/>
   </g>
   <g id="patch_5">
    <path d="M 57.6 307.584 
L 414.72 307.584 
" style="fill:none;stroke:#000000;stroke-linecap:square;stroke-linejoin:miter;stroke-width:0.8;"/>
   </g>
   <g id="patch_6">
    <path d="M 57.6 41.472 
L 414.72 41.472 
" style="fill:none;stroke:#000000;stroke-linecap:square;stroke-linejoin:miter;stroke-width:0.8;"/>
   </g>
  </g>
 </g>
 <defs>
  <clipPath id="pd87276b774">
   <rect height="266.112" width="357.12" x="57.6" y="41.472"/>
  </clipPath>
 </defs>
</svg>
